<svg width="448" height="183" viewBox="0 0 448 183" fill="none" xmlns="http://www.w3.org/2000/svg">
<path opacity="0.2" d="M501.643 188.928L479.296 161.531M501.643 188.928L465.927 188.99M501.643 188.928L481.424 212.467M479.296 161.531L460.344 138.298M479.296 161.531L446.475 161.528M460.344 138.298L444.071 118.348M460.344 138.298L429.986 138.249M444.071 118.348L429.944 101.029M444.071 118.348L415.829 118.264M429.944 101.029L417.566 85.8546M429.944 101.029L403.545 100.92M417.566 85.8546L406.632 72.4486M417.566 85.8546L392.783 85.7274M406.632 72.4486L396.901 60.5206M406.632 72.4486L383.277 72.309M396.901 60.5206L388.186 49.8364M396.901 60.5206L374.821 60.3701M388.186 49.8364L380.336 40.213M388.186 49.8364L367.248 49.6782M380.336 40.213L373.228 31.4985M380.336 40.213L360.427 40.0502M373.228 31.4985L366.761 23.5703M373.228 31.4985L354.252 31.3326M366.761 23.5703L360.854 16.3276M366.761 23.5703L348.635 23.4028M360.854 16.3276L355.434 9.68506M360.854 16.3276L343.505 16.1585M355.434 9.68506L350.447 3.56985L334.468 3.4008M355.434 9.68506L338.799 9.51601M334.468 3.4008L318.454 3.23175M334.468 3.4008L338.799 9.51601M318.454 3.23175L302.407 3.0627M318.454 3.23175L322.126 9.34696M302.407 3.0627L286.325 2.8921M302.407 3.0627L305.416 9.17636M286.325 2.8921L270.21 2.7215M286.325 2.8921L288.669 9.00576M270.21 2.7215L254.06 2.55245M270.21 2.7215L271.885 8.83671M254.06 2.55245L237.876 2.3803M254.06 2.55245L255.065 8.66456M237.876 2.3803L221.657 2.2097M237.876 2.3803L238.207 8.49396M221.657 2.2097L205.403 2.03755M221.657 2.2097L221.311 8.32181M205.403 2.03755L189.115 1.8654M205.403 2.03755L204.378 8.14966M189.115 1.8654L172.792 1.69325M189.115 1.8654L187.406 7.97751M172.792 1.69325L156.434 1.5211M172.792 1.69325L170.397 7.80536M156.434 1.5211L140.041 1.3474M156.434 1.5211L153.35 7.63166M140.041 1.3474L123.612 1.1737M140.041 1.3474L136.265 7.45796M123.612 1.1737L107.149 1L101.98 7.11056M123.612 1.1737L119.143 7.28426M101.98 7.11056L96.3583 13.7577M101.98 7.11056L119.143 7.28426M96.3583 13.7577L90.2186 21.0144M96.3583 13.7577L114.28 13.9314M90.2186 21.0144L83.4879 28.9721M90.2186 21.0144L108.97 21.1881M83.4879 28.9721L76.0746 37.7331M83.4879 28.9721L103.15 29.1427M76.0746 37.7331L67.8717 47.4309M76.0746 37.7331L96.7415 37.9022M67.8717 47.4309L58.7459 58.219M67.8717 47.4309L89.6493 47.5938M58.7459 58.219L48.5296 70.2944M58.7459 58.219L81.7614 58.3757M48.5296 70.2944L37.018 83.9035M48.5296 70.2944L72.9334 70.4417M37.018 83.9035L23.9458 99.3567M37.018 83.9035L62.9869 84.0369M23.9458 99.3567L8.97345 117.056M23.9458 99.3567L51.6956 99.47M8.97345 117.056L-8.34438 137.529M8.97345 117.056L38.7646 117.144M-8.34438 137.529L-28.6095 161.484M-8.34438 137.529L23.8109 137.582M-28.6095 161.484L-52.6426 189.894M-28.6095 161.484L6.32086 161.487M-52.6426 189.894L-14.4128 189.827M-52.6426 189.894L-31.0139 214.167M-14.4128 189.827L23.6278 189.76M-14.4128 189.827L4.23757 214.051M-14.4128 189.827L6.32086 161.487M23.6278 189.76L61.4807 189.695M23.6278 189.76L39.3308 213.934M23.6278 189.76L41.0946 161.491M61.4807 189.695L99.1505 189.629M61.4807 189.695L74.2643 213.818M61.4807 189.695L75.7116 161.494M99.1505 189.629L136.634 189.563M99.1505 189.629L109.038 213.703M99.1505 189.629L110.174 161.497M136.634 189.563L173.936 189.498M136.634 189.563L143.657 213.589M136.634 189.563L144.48 161.5M173.936 189.498L211.056 189.435M173.936 189.498L178.119 213.474M173.936 189.498L178.635 161.503M211.056 189.435L247.996 189.37M211.056 189.435L212.425 213.361M211.056 189.435L212.638 161.506M247.996 189.37L284.757 189.306M247.996 189.37L246.577 213.246M247.996 189.37L246.489 161.509M284.757 189.306L321.341 189.241M284.757 189.306L280.578 213.134M284.757 189.306L280.189 161.512M321.341 189.241L357.75 189.177M321.341 189.241L314.426 213.021M321.341 189.241L313.74 161.515M357.75 189.177L393.982 189.115M357.75 189.177L348.123 212.909M357.75 189.177L347.144 161.518M393.982 189.115L430.041 189.052M393.982 189.115L381.671 212.799M393.982 189.115L380.401 161.522M430.041 189.052L465.927 188.99M430.041 189.052L415.069 212.687M430.041 189.052L413.51 161.525M465.927 188.99L448.319 212.577M465.927 188.99L446.475 161.528M481.424 212.467L463.999 232.756M481.424 212.467L448.319 212.577M463.999 232.756L448.825 250.422M463.999 232.756L433.15 232.9M448.825 250.422L435.494 265.944M448.825 250.422L419.944 250.592M435.494 265.944L423.688 279.69M435.494 265.944L408.346 266.132M423.688 279.69L413.159 291.948M423.688 279.69L398.075 279.89M413.159 291.948L403.714 302.947M413.159 291.948L388.919 292.156M403.714 302.947L395.19 312.871M403.714 302.947L380.705 303.161M395.19 312.871L387.459 321.873M395.19 312.871L373.293 313.09M387.459 321.873L380.416 330.071M387.459 321.873L366.573 322.093M380.416 330.071L373.974 337.572M380.416 330.071L360.452 330.294M373.974 337.572L368.058 344.46M373.974 337.572L354.854 337.794M368.058 344.46L362.607 350.808M368.058 344.46L349.711 344.682M362.607 350.808L357.567 356.675L340.596 356.894M362.607 350.808L344.976 351.028M340.596 356.894L323.587 357.112M340.596 356.894L344.976 351.028M323.587 357.112L306.539 357.331M323.587 357.112L327.303 351.248M306.539 357.331L289.454 357.551M306.539 357.331L309.588 351.468M289.454 357.551L272.329 357.771M289.454 357.551L291.831 351.69M272.329 357.771L255.166 357.992M272.329 357.771L274.034 351.912M255.166 357.992L237.965 358.213M255.166 357.992L256.195 352.134M237.965 358.213L220.723 358.434M237.965 358.213L238.312 352.357M220.723 358.434L203.442 358.657M220.723 358.434L220.388 352.58M203.442 358.657L186.123 358.879M203.442 358.657L202.421 352.805M186.123 358.879L168.765 359.102M186.123 358.879L184.413 353.029M168.765 359.102L151.365 359.325M168.765 359.102L166.362 353.255M151.365 359.325L133.927 359.55M151.365 359.325L148.268 353.48M133.927 359.55L116.448 359.775M133.927 359.55L130.132 353.706M116.448 359.775L98.9303 360L93.7275 354.159M116.448 359.775L111.951 353.933M93.7275 354.159L88.0903 347.835M93.7275 354.159L111.951 353.933M88.0903 347.835L81.9646 340.96M88.0903 347.835L107.079 347.605M81.9646 340.96L75.2819 333.459M81.9646 340.96L101.783 340.73M75.2819 333.459L67.9648 325.247M75.2819 333.459L96.0093 333.23M67.9648 325.247L59.9155 316.215M67.9648 325.247L89.685 325.018M59.9155 316.215L51.0224 306.233M59.9155 316.215L82.7324 315.987M51.0224 306.233L41.1411 295.144M51.0224 306.233L75.0492 306.01M41.1411 295.144L30.0995 282.753M41.1411 295.144L66.5144 294.926M30.0995 282.753L17.6804 268.815M30.0995 282.753L56.9791 282.543M17.6804 268.815L3.60933 253.023M17.6804 268.815L46.257 268.619M3.60933 253.023L-12.4691 234.98M3.60933 253.023L34.111 252.845M-12.4691 234.98L-31.0139 214.167M-12.4691 234.98L20.2369 234.827M-31.0139 214.167L4.23757 214.051M344.976 351.028L327.303 351.248M344.976 351.028L349.711 344.682M327.303 351.248L309.588 351.468M327.303 351.248L331.32 344.903M309.588 351.468L291.831 351.69M309.588 351.468L312.885 345.125M291.831 351.69L274.034 351.912M291.831 351.69L294.404 345.349M274.034 351.912L256.195 352.134M274.034 351.912L275.878 345.572M256.195 352.134L238.312 352.357M256.195 352.134L257.305 345.795M238.312 352.357L220.388 352.58M238.312 352.357L238.689 346.02M220.388 352.58L202.421 352.805M220.388 352.58L220.026 346.245M202.421 352.805L184.413 353.029M202.421 352.805L201.317 346.47M184.413 353.029L166.362 353.255M184.413 353.029L182.563 346.696M166.362 353.255L148.268 353.48M166.362 353.255L163.76 346.923M148.268 353.48L130.132 353.706M148.268 353.48L144.913 347.149M130.132 353.706L111.951 353.933M130.132 353.706L126.019 347.377M111.951 353.933L107.079 347.605M107.079 347.605L101.783 340.73M107.079 347.605L126.019 347.377M101.783 340.73L96.0093 333.23M101.783 340.73L121.552 340.5M96.0093 333.23L89.685 325.018M96.0093 333.23L116.679 333M89.685 325.018L82.7324 315.987M89.685 325.018L111.345 324.79M82.7324 315.987L75.0492 306.01M82.7324 315.987L105.48 315.76M75.0492 306.01L66.5144 294.926M75.0492 306.01L99.0001 305.787M66.5144 294.926L56.9791 282.543M66.5144 294.926L91.804 294.709M56.9791 282.543L46.257 268.619M56.9791 282.543L83.7655 282.335M46.257 268.619L34.111 252.845M46.257 268.619L74.7281 268.424M34.111 252.845L20.2369 234.827M34.111 252.845L64.4932 252.668M20.2369 234.827L4.23757 214.051M20.2369 234.827L52.8047 234.675M4.23757 214.051L39.3308 213.934M6.32086 161.487L23.8109 137.582M6.32086 161.487L41.0946 161.491M23.8109 137.582L38.7646 117.144M23.8109 137.582L55.8343 137.635M38.7646 117.144L51.6956 99.47M38.7646 117.144L68.4395 117.232M51.6956 99.47L62.9869 84.0369M51.6956 99.47L79.3446 99.5847M62.9869 84.0369L72.9334 70.4417M62.9869 84.0369L88.8691 84.1687M72.9334 70.4417L81.7614 58.3757M72.9334 70.4417L97.2596 70.5875M81.7614 58.3757L89.6493 47.5938M81.7614 58.3757L104.709 58.5323M89.6493 47.5938L96.7415 37.9022M89.6493 47.5938L111.366 47.7566M96.7415 37.9022L103.15 29.1427M96.7415 37.9022L117.351 38.0697M103.15 29.1427L108.97 21.1881M103.15 29.1427L122.762 29.3133M108.97 21.1881L114.28 13.9314M108.97 21.1881L127.676 21.3603M114.28 13.9314L119.143 7.28426M114.28 13.9314L132.159 14.1051M119.143 7.28426L136.265 7.45796M126.019 347.377L121.552 340.5M126.019 347.377L144.913 347.149M121.552 340.5L116.679 333M121.552 340.5L141.269 340.271M116.679 333L111.345 324.79M116.679 333L137.295 332.771M111.345 324.79L105.48 315.76M111.345 324.79L132.944 324.56M105.48 315.76L99.0001 305.787M105.48 315.76L128.161 315.534M99.0001 305.787L91.804 294.709M99.0001 305.787L122.878 305.563M91.804 294.709L83.7655 282.335M91.804 294.709L117.011 294.493M83.7655 282.335L74.7281 268.424M83.7655 282.335L110.459 282.128M74.7281 268.424L64.4932 252.668M74.7281 268.424L103.095 268.228M64.4932 252.668L52.8047 234.675M64.4932 252.668L94.7559 252.491M52.8047 234.675L39.3308 213.934M52.8047 234.675L85.2345 234.524M39.3308 213.934L74.2643 213.818M41.0946 161.491L55.8343 137.635M41.0946 161.491L75.7116 161.494M55.8343 137.635L68.4395 117.232M55.8343 137.635L87.7243 137.687M68.4395 117.232L79.3446 99.5847M68.4395 117.232L98.0011 117.319M79.3446 99.5847L88.8691 84.1687M79.3446 99.5847L106.894 99.6979M88.8691 84.1687L97.2596 70.5875M88.8691 84.1687L114.663 84.3021M97.2596 70.5875L104.709 58.5323M97.2596 70.5875L121.51 70.7333M104.709 58.5323L111.366 47.7566M104.709 58.5323L127.588 58.6874M111.366 47.7566L117.351 38.0697M111.366 47.7566L133.021 47.9195M117.351 38.0697L122.762 29.3133M117.351 38.0697L137.906 38.2372M122.762 29.3133L127.676 21.3603M122.762 29.3133L142.324 29.4839M127.676 21.3603L132.159 14.1051M127.676 21.3603L146.336 21.534M132.159 14.1051L136.265 7.45796M132.159 14.1051L149.996 14.2788M136.265 7.45796L153.35 7.63166M144.913 347.149L141.269 340.271M144.913 347.149L163.76 346.923M141.269 340.271L137.295 332.771M141.269 340.271L160.936 340.043M137.295 332.771L132.944 324.56M137.295 332.771L157.855 332.543M132.944 324.56L128.161 315.534M132.944 324.56L154.483 324.334M128.161 315.534L122.878 305.563M128.161 315.534L150.775 315.309M122.878 305.563L117.011 294.493M122.878 305.563L146.681 305.342M117.011 294.493L110.459 282.128M117.011 294.493L142.135 294.276M110.459 282.128L103.095 268.228M110.459 282.128L137.061 281.92M103.095 268.228L94.7559 252.491M103.095 268.228L131.355 268.035M94.7559 252.491L85.2345 234.524M94.7559 252.491L124.899 252.315M85.2345 234.524L74.2643 213.818M85.2345 234.524L117.529 234.374M74.2643 213.818L109.038 213.703M75.7116 161.494L87.7243 137.687M75.7116 161.494L110.174 161.497M87.7243 137.687L98.0011 117.319M87.7243 137.687L119.482 137.738M98.0011 117.319L106.894 99.6979M98.0011 117.319L127.449 117.408M106.894 99.6979L114.663 84.3021M106.894 99.6979L134.345 99.8112M114.663 84.3021L121.51 70.7333M114.663 84.3021L140.371 84.4339M121.51 70.7333L127.588 58.6874M121.51 70.7333L145.683 70.8791M127.588 58.6874L133.021 47.9195M127.588 58.6874L150.398 58.8425M133.021 47.9195L137.906 38.2372M133.021 47.9195L154.614 48.0823M137.906 38.2372L142.324 29.4839M137.906 38.2372L158.407 38.4047M142.324 29.4839L146.336 21.534M142.324 29.4839L161.835 29.6545M146.336 21.534L149.996 14.2788M146.336 21.534L164.95 21.7061M149.996 14.2788L153.35 7.63166M149.996 14.2788L167.794 14.451M153.35 7.63166L170.397 7.80536M163.76 346.923L160.936 340.043M163.76 346.923L182.563 346.696M160.936 340.043L157.855 332.543M160.936 340.043L180.551 339.815M157.855 332.543L154.483 324.334M157.855 332.543L178.359 332.315M154.483 324.334L150.775 315.309M154.483 324.334L175.959 324.106M150.775 315.309L146.681 305.342M150.775 315.309L173.322 315.084M146.681 305.342L142.135 294.276M146.681 305.342L170.411 305.121M142.135 294.276L137.061 281.92M142.135 294.276L167.178 294.062M137.061 281.92L131.355 268.035M137.061 281.92L163.568 281.714M131.355 268.035L124.899 252.315M131.355 268.035L159.513 267.841M124.899 252.315L117.529 234.374M124.899 252.315L154.925 252.139M117.529 234.374L109.038 213.703M117.529 234.374L149.688 234.223M109.038 213.703L143.657 213.589M110.174 161.497L119.482 137.738M110.174 161.497L144.48 161.5M119.482 137.738L127.449 117.408M119.482 137.738L151.11 137.791M127.449 117.408L134.345 99.8112M127.449 117.408L156.785 117.495M134.345 99.8112L140.371 84.4339M134.345 99.8112L161.697 99.9244M140.371 84.4339L145.683 70.8791M140.371 84.4339L165.993 84.5642M145.683 70.8791L150.398 58.8425M145.683 70.8791L169.778 71.0248M150.398 58.8425L154.614 48.0823M150.398 58.8425L173.141 58.9976M154.614 48.0823L158.407 38.4047M154.614 48.0823L176.148 48.2436M158.407 38.4047L161.835 29.6545M158.407 38.4047L178.852 38.5706M161.835 29.6545L164.95 21.7061M161.835 29.6545L181.299 29.8251M164.95 21.7061L167.794 14.451M164.95 21.7061L183.52 21.8767M167.794 14.451L170.397 7.80536M167.794 14.451L185.547 14.6247M170.397 7.80536L187.406 7.97751M182.563 346.696L180.551 339.815M182.563 346.696L201.317 346.47M180.551 339.815L178.359 332.315M180.551 339.815L200.116 339.589M178.359 332.315L175.959 324.106M178.359 332.315L198.809 332.088M175.959 324.106L173.322 315.084M175.959 324.106L197.377 323.879M173.322 315.084L170.411 305.121M173.322 315.084L195.802 314.859M170.411 305.121L167.178 294.062M170.411 305.121L194.065 304.9M167.178 294.062L163.568 281.714M167.178 294.062L192.138 293.846M163.568 281.714L159.513 267.841M163.568 281.714L189.985 281.509M159.513 267.841L154.925 252.139M159.513 267.841L187.567 267.648M154.925 252.139L149.688 234.223M154.925 252.139L184.832 251.964M149.688 234.223L143.657 213.589M149.688 234.223L181.711 234.074M143.657 213.589L178.119 213.474M144.48 161.5L151.11 137.791M144.48 161.5L178.635 161.503M151.11 137.791L156.785 117.495M151.11 137.791L182.608 137.842M156.785 117.495L161.697 99.9244M156.785 117.495L186.008 117.581M161.697 99.9244L165.993 84.5642M161.697 99.9244L188.954 100.036M165.993 84.5642L169.778 71.0248M165.993 84.5642L191.529 84.696M169.778 71.0248L173.141 58.9976M169.778 71.0248L193.798 71.1691M173.141 58.9976L176.148 48.2436M173.141 58.9976L195.816 59.1511M176.148 48.2436L178.852 38.5706M176.148 48.2436L197.62 48.4049M178.852 38.5706L181.299 29.8251M178.852 38.5706L199.243 38.7366M181.299 29.8251L183.52 21.8767M181.299 29.8251L200.71 29.9941M183.52 21.8767L185.547 14.6247M183.52 21.8767L202.045 22.0489M185.547 14.6247L187.406 7.97751M185.547 14.6247L203.262 14.7968M187.406 7.97751L204.378 8.14966M201.317 346.47L200.116 339.589M201.317 346.47L220.026 346.245M200.116 339.589L198.809 332.088M200.116 339.589L219.632 339.362M198.809 332.088L197.377 323.879M198.809 332.088L219.203 331.862M197.377 323.879L195.802 314.859M197.377 323.879L218.734 323.655M195.802 314.859L194.065 304.9M195.802 314.859L218.218 314.636M194.065 304.9L192.138 293.846M194.065 304.9L217.648 304.681M192.138 293.846L189.985 281.509M192.138 293.846L217.017 293.634M189.985 281.509L187.567 267.648M189.985 281.509L216.311 281.304M187.567 267.648L184.832 251.964M187.567 267.648L215.518 267.456M184.832 251.964L181.711 234.074M184.832 251.964L214.623 251.79M181.711 234.074L178.119 213.474M181.711 234.074L213.601 233.926M178.119 213.474L212.425 213.361M178.635 161.503L182.608 137.842M178.635 161.503L212.638 161.506M182.608 137.842L186.008 117.581M182.608 137.842L213.975 137.894M186.008 117.581L188.954 100.036M186.008 117.581L215.12 117.668M188.954 100.036L191.529 84.696M188.954 100.036L216.111 100.148M191.529 84.696L193.798 71.1691M191.529 84.696L216.98 84.8263M193.798 71.1691L195.816 59.1511M193.798 71.1691L217.744 71.3133M195.816 59.1511L197.62 48.4049M195.816 59.1511L218.424 59.3047M197.62 48.4049L199.243 38.7366M197.62 48.4049L219.032 48.5662M199.243 38.7366L200.71 29.9941M199.243 38.7366L219.58 38.9025M200.71 29.9941L202.045 22.0489M200.71 29.9941L220.074 30.1632M202.045 22.0489L203.262 14.7968M202.045 22.0489L220.524 22.2195M203.262 14.7968L204.378 8.14966M203.262 14.7968L220.934 14.9674M204.378 8.14966L221.311 8.32181M220.026 346.245L219.632 339.362M220.026 346.245L238.689 346.02M219.632 339.362L219.203 331.862M219.632 339.362L239.097 339.137M219.203 331.862L218.734 323.655M219.203 331.862L239.544 331.636M218.734 323.655L218.218 314.636M218.734 323.655L240.031 323.43M218.218 314.636L217.648 304.681M218.218 314.636L240.566 314.413M217.648 304.681L217.017 293.634M217.648 304.681L241.159 304.462M217.017 293.634L216.311 281.304M217.017 293.634L241.815 293.42M216.311 281.304L215.518 267.456M216.311 281.304L242.545 281.099M215.518 267.456L214.623 251.79M215.518 267.456L243.368 267.265M214.623 251.79L213.601 233.926M214.623 251.79L244.298 251.617M213.601 233.926L212.425 213.361M213.601 233.926L245.358 233.777M212.425 213.361L246.577 213.246M212.638 161.506L213.975 137.894M212.638 161.506L246.489 161.509M213.975 137.894L215.12 117.668M213.975 137.894L245.213 137.945M215.12 117.668L216.111 100.148M215.12 117.668L244.12 117.754M216.111 100.148L216.98 84.8263M216.111 100.148L243.174 100.259M216.98 84.8263L217.744 71.3133M216.98 84.8263L242.345 84.9566M217.744 71.3133L218.424 59.3047M217.744 71.3133L241.615 71.456M218.424 59.3047L219.032 48.5662M218.424 59.3047L240.965 59.4582M219.032 48.5662L219.58 38.9025M219.032 48.5662L240.385 48.7259M219.58 38.9025L220.074 30.1632M219.58 38.9025L239.862 39.0685M220.074 30.1632L220.524 22.2195M220.074 30.1632L239.389 30.3307M220.524 22.2195L220.934 14.9674M220.524 22.2195L238.959 22.3901M220.934 14.9674L221.311 8.32181M220.934 14.9674L238.566 15.1396M221.311 8.32181L238.207 8.49396M238.689 346.02L239.097 339.137M238.689 346.02L257.305 345.795M239.097 339.137L239.544 331.636M239.097 339.137L258.514 338.911M239.544 331.636L240.031 323.43M239.544 331.636L259.829 331.411M240.031 323.43L240.566 314.413M240.031 323.43L261.269 323.205M240.566 314.413L241.159 304.462M240.566 314.413L262.849 314.191M241.159 304.462L241.815 293.42M241.159 304.462L264.594 304.243M241.815 293.42L242.545 281.099M241.815 293.42L266.53 293.207M242.545 281.099L243.368 267.265M242.545 281.099L268.691 280.896M243.368 267.265L244.298 251.617M243.368 267.265L271.116 267.075M244.298 251.617L245.358 233.777M244.298 251.617L273.857 251.445M245.358 233.777L246.577 213.246M245.358 233.777L276.982 233.629M246.577 213.246L280.578 213.134M246.489 161.509L245.213 137.945M246.489 161.509L280.189 161.512M245.213 137.945L244.12 117.754M245.213 137.945L276.323 137.996M244.12 117.754L243.174 100.259M244.12 117.754L273.01 117.839M243.174 100.259L242.345 84.9566M243.174 100.259L270.138 100.371M242.345 84.9566L241.615 71.456M242.345 84.9566L267.627 85.0853M241.615 71.456L240.965 59.4582M241.615 71.456L265.41 71.6002M240.965 59.4582L240.385 48.7259M240.965 59.4582L263.439 59.6117M240.385 48.7259L239.862 39.0685M240.385 48.7259L261.677 48.8857M239.862 39.0685L239.389 30.3307M239.862 39.0685L260.09 39.2329M239.389 30.3307L238.959 22.3901M239.389 30.3307L258.653 30.4997M238.959 22.3901L238.566 15.1396M238.959 22.3901L257.349 22.5591M238.566 15.1396L238.207 8.49396M238.566 15.1396L256.157 15.3102M238.207 8.49396L255.065 8.66456M257.305 345.795L258.514 338.911M257.305 345.795L275.878 345.572M258.514 338.911L259.829 331.411M258.514 338.911L277.879 338.688M259.829 331.411L261.269 323.205M259.829 331.411L280.062 331.186M261.269 323.205L262.849 314.191M261.269 323.205L282.447 322.982M262.849 314.191L264.594 304.243M262.849 314.191L285.067 313.969M264.594 304.243L266.53 293.207M264.594 304.243L287.96 304.025M266.53 293.207L268.691 280.896M266.53 293.207L291.167 292.996M268.691 280.896L271.116 267.075M268.691 280.896L294.745 280.693M271.116 267.075L273.857 251.445M271.116 267.075L298.762 266.884M273.857 251.445L276.982 233.629M273.857 251.445L303.302 251.272M276.982 233.629L280.578 213.134M276.982 233.629L308.475 233.482M280.578 213.134L314.426 213.021M280.189 161.512L276.323 137.996M280.189 161.512L313.74 161.515M276.323 137.996L273.01 117.839M276.323 137.996L307.307 138.047M273.01 117.839L270.138 100.371M273.01 117.839L301.791 117.924M270.138 100.371L267.627 85.0853M270.138 100.371L297.009 100.481M267.627 85.0853L265.41 71.6002M267.627 85.0853L292.824 85.2156M265.41 71.6002L263.439 59.6117M265.41 71.6002L289.13 71.7429M263.439 59.6117L261.677 48.8857M263.439 59.6117L285.848 59.7637M261.677 48.8857L260.09 39.2329M261.677 48.8857L282.908 49.0454M260.09 39.2329L258.653 30.4997M260.09 39.2329L280.263 39.3973M258.653 30.4997L257.349 22.5591M258.653 30.4997L277.87 30.6672M257.349 22.5591L256.157 15.3102M257.349 22.5591L275.695 22.7297M256.157 15.3102L255.065 8.66456M256.157 15.3102L273.708 15.4808M255.065 8.66456L271.885 8.83671M275.878 345.572L277.879 338.688M275.878 345.572L294.404 345.349M277.879 338.688L280.062 331.186M277.879 338.688L297.196 338.463M280.062 331.186L282.447 322.982M280.062 331.186L300.238 330.962M282.447 322.982L285.067 313.969M282.447 322.982L303.567 322.758M285.067 313.969L287.96 304.025M285.067 313.969L307.22 313.749M287.96 304.025L291.167 292.996M287.96 304.025L311.254 303.808M291.167 292.996L294.745 280.693M291.167 292.996L315.724 292.785M294.745 280.693L298.762 266.884M294.745 280.693L320.711 280.491M298.762 266.884L303.302 251.272M298.762 266.884L326.307 266.695M303.302 251.272L308.475 233.482M303.302 251.272L332.632 251.102M308.475 233.482L314.426 213.021M308.475 233.482L339.838 233.336M314.426 213.021L348.123 212.909M313.74 161.515L307.307 138.047M313.74 161.515L347.144 161.518M307.307 138.047L301.791 117.924M307.307 138.047L338.164 138.097M301.791 117.924L297.009 100.481M301.791 117.924L330.462 118.009M297.009 100.481L292.824 85.2156M297.009 100.481L323.784 100.591M292.824 85.2156L289.13 71.7429M292.824 85.2156L317.938 85.3443M289.13 71.7429L285.848 59.7637M289.13 71.7429L312.777 71.884M285.848 59.7637L282.908 49.0454M285.848 59.7637L308.188 59.9157M282.908 49.0454L280.263 39.3973M282.908 49.0454L304.082 49.2036M280.263 39.3973L277.87 30.6672M280.263 39.3973L300.384 39.5617M277.87 30.6672L275.695 22.7297M277.87 30.6672L297.038 30.8332M275.695 22.7297L273.708 15.4808M275.695 22.7297L293.996 22.8988M273.708 15.4808L271.885 8.83671M273.708 15.4808L291.216 15.6514M271.885 8.83671L288.669 9.00576M294.404 345.349L297.196 338.463M294.404 345.349L312.885 345.125M297.196 338.463L300.238 330.962M297.196 338.463L316.464 338.239M300.238 330.962L303.567 322.758M300.238 330.962L320.364 330.739M303.567 322.758L307.22 313.749M303.567 322.758L324.627 322.536M307.22 313.749L311.254 303.808M307.22 313.749L329.31 313.529M311.254 303.808L315.724 292.785M311.254 303.808L334.475 303.592M315.724 292.785L320.711 280.491M315.724 292.785L340.201 292.574M320.711 280.491L326.307 266.695M320.711 280.491L346.587 280.29M326.307 266.695L332.632 251.102M326.307 266.695L353.752 266.507M332.632 251.102L339.838 233.336M332.632 251.102L361.848 250.931M339.838 233.336L348.123 212.909M339.838 233.336L371.07 233.19M348.123 212.909L381.671 212.799M347.144 161.518L338.164 138.097M347.144 161.518L380.401 161.522M338.164 138.097L330.462 118.009M338.164 138.097L368.895 138.148M330.462 118.009L323.784 100.591M330.462 118.009L359.027 118.095M323.784 100.591L317.938 85.3443M323.784 100.591L350.465 100.701M317.938 85.3443L312.777 71.884M317.938 85.3443L342.968 85.4715M312.777 71.884L308.188 59.9157M312.777 71.884L336.351 72.0267M308.188 59.9157L304.082 49.2036M308.188 59.9157L330.465 60.0677M304.082 49.2036L300.384 39.5617M304.082 49.2036L325.196 49.3634M300.384 39.5617L297.038 30.8332M300.384 39.5617L320.452 39.7245M297.038 30.8332L293.996 22.8988M297.038 30.8332L316.159 31.0007M293.996 22.8988L291.216 15.6514M293.996 22.8988L312.253 23.0663M291.216 15.6514L288.669 9.00576M291.216 15.6514L308.686 15.8204M288.669 9.00576L305.416 9.17636M312.885 345.125L316.464 338.239M312.885 345.125L331.32 344.903M316.464 338.239L320.364 330.739M316.464 338.239L335.684 338.016M320.364 330.739L324.627 322.536M320.364 330.739L340.435 330.516M324.627 322.536L329.31 313.529M324.627 322.536L345.63 322.315M329.31 313.529L334.475 303.592M329.31 313.529L351.334 313.308M334.475 303.592L340.201 292.574M334.475 303.592L357.624 303.377M340.201 292.574L346.587 280.29M340.201 292.574L364.6 292.365M346.587 280.29L353.752 266.507M346.587 280.29L372.375 280.09M353.752 266.507L361.848 250.931M353.752 266.507L381.099 266.318M361.848 250.931L371.07 233.19M361.848 250.931L390.954 250.761M371.07 233.19L381.671 212.799M371.07 233.19L402.175 233.045M381.671 212.799L415.069 212.687M380.401 161.522L368.895 138.148M380.401 161.522L413.51 161.525M368.895 138.148L359.027 118.095M368.895 138.148L399.502 138.198M359.027 118.095L350.465 100.701M359.027 118.095L387.481 118.18M350.465 100.701L342.968 85.4715M350.465 100.701L377.052 100.811M342.968 85.4715L336.351 72.0267M342.968 85.4715L367.917 85.6002M336.351 72.0267L330.465 60.0677M336.351 72.0267L359.85 72.1679M330.465 60.0677L325.196 49.3634M330.465 60.0677L352.676 60.2181M325.196 49.3634L320.452 39.7245M325.196 49.3634L346.251 49.5216M320.452 39.7245L316.159 31.0007M320.452 39.7245L340.466 39.8874M316.159 31.0007L312.253 23.0663M316.159 31.0007L335.229 31.1666M312.253 23.0663L308.686 15.8204M312.253 23.0663L330.465 23.2353M308.686 15.8204L305.416 9.17636M308.686 15.8204L326.116 15.9895M305.416 9.17636L322.126 9.34696M331.32 344.903L335.684 338.016M331.32 344.903L349.711 344.682M335.684 338.016L340.435 330.516M335.684 338.016L354.854 337.794M340.435 330.516L345.63 322.315M340.435 330.516L360.452 330.294M345.63 322.315L351.334 313.308M345.63 322.315L366.573 322.093M351.334 313.308L357.624 303.377M351.334 313.308L373.293 313.09M357.624 303.377L364.6 292.365M357.624 303.377L380.705 303.161M364.6 292.365L372.375 280.09M364.6 292.365L388.919 292.156M372.375 280.09L381.099 266.318M372.375 280.09L398.075 279.89M381.099 266.318L390.954 250.761M381.099 266.318L408.346 266.132M390.954 250.761L402.175 233.045M390.954 250.761L419.944 250.592M402.175 233.045L415.069 212.687M402.175 233.045L433.15 232.9M415.069 212.687L448.319 212.577M413.51 161.525L399.502 138.198M413.51 161.525L446.475 161.528M399.502 138.198L387.481 118.18M399.502 138.198L429.986 138.249M387.481 118.18L377.052 100.811M387.481 118.18L415.829 118.264M377.052 100.811L367.917 85.6002M377.052 100.811L403.545 100.92M367.917 85.6002L359.85 72.1679M367.917 85.6002L392.783 85.7274M359.85 72.1679L352.676 60.2181M359.85 72.1679L383.277 72.309M352.676 60.2181L346.251 49.5216M352.676 60.2181L374.821 60.3701M346.251 49.5216L340.466 39.8874M346.251 49.5216L367.248 49.6782M340.466 39.8874L335.229 31.1666M340.466 39.8874L360.427 40.0502M335.229 31.1666L330.465 23.2353M335.229 31.1666L354.252 31.3326M330.465 23.2353L326.116 15.9895M330.465 23.2353L348.635 23.4028M326.116 15.9895L322.126 9.34696M326.116 15.9895L343.505 16.1585M322.126 9.34696L338.799 9.51601M349.711 344.682L354.854 337.794M354.854 337.794L360.452 330.294M360.452 330.294L366.573 322.093M366.573 322.093L373.293 313.09M373.293 313.09L380.705 303.161M380.705 303.161L388.919 292.156M388.919 292.156L398.075 279.89M398.075 279.89L408.346 266.132M408.346 266.132L419.944 250.592M419.944 250.592L433.15 232.9M433.15 232.9L448.319 212.577M446.475 161.528L429.986 138.249M429.986 138.249L415.829 118.264M415.829 118.264L403.545 100.92M403.545 100.92L392.783 85.7274M392.783 85.7274L383.277 72.309M383.277 72.309L374.821 60.3701M374.821 60.3701L367.248 49.6782M367.248 49.6782L360.427 40.0502M360.427 40.0502L354.252 31.3326M354.252 31.3326L348.635 23.4028M348.635 23.4028L343.505 16.1585M343.505 16.1585L338.799 9.51601" stroke="#807E98" stroke-width="0.676508" stroke-linecap="round" stroke-linejoin="round"/>
</svg>
