<svg width="12" height="14" viewBox="0 0 12 14" fill="none" xmlns="http://www.w3.org/2000/svg">
<path d="M10.0227 7.44517C10.03 6.90856 10.1802 6.38241 10.4592 5.91569C10.7383 5.44896 11.1372 5.05683 11.6189 4.77577C11.3129 4.36098 10.9092 4.01964 10.44 3.77883C9.9707 3.53803 9.44873 3.4044 8.91553 3.38857C7.77813 3.27525 6.67547 4.03459 6.09587 4.03459C5.50505 4.03459 4.61266 3.39982 3.65171 3.41859C3.03014 3.43765 2.42437 3.60921 1.89343 3.91656C1.36248 4.22391 0.924464 4.65656 0.622057 5.17236C-0.687904 7.3251 0.289209 10.4889 1.54404 12.229C2.17186 13.0811 2.9056 14.0329 3.86569 13.9991C4.80519 13.9621 5.15608 13.4305 6.29013 13.4305C7.41367 13.4305 7.74287 13.9991 8.72243 13.9777C9.73056 13.9621 10.3657 13.1218 10.9715 12.2616C11.4226 11.6545 11.7697 10.9835 12 10.2734C11.4143 10.0383 10.9145 9.64473 10.5629 9.14179C10.2113 8.63884 10.0234 8.04878 10.0227 7.44517Z" fill="white"/>
<path d="M8.17248 2.24416C8.72216 1.61783 8.99296 0.812788 8.92738 0C8.0876 0.0837201 7.31188 0.464683 6.75478 1.06698C6.4824 1.36122 6.27378 1.70353 6.14086 2.07434C6.00794 2.44515 5.95331 2.83719 5.98011 3.22805C6.40015 3.23216 6.8157 3.14574 7.19545 2.97532C7.57521 2.80489 7.90927 2.55489 8.17248 2.24416Z" fill="white"/>
</svg>
