<svg width="7" height="6" viewBox="0 0 7 6" fill="none" xmlns="http://www.w3.org/2000/svg">
<path fill-rule="evenodd" clip-rule="evenodd" d="M0 3C0 2.85139 0.0553149 2.70887 0.153776 2.60379C0.252238 2.49871 0.38578 2.43967 0.525025 2.43967H5.17185L3.66118 0.97535C3.60913 0.924968 3.56709 0.86395 3.53755 0.79591C3.50801 0.727871 3.49156 0.654195 3.48919 0.579249C3.48682 0.504302 3.49857 0.42961 3.52374 0.359597C3.54891 0.289585 3.58699 0.225677 3.63573 0.171661C3.68447 0.117645 3.74287 0.0746188 3.80748 0.045133C3.87208 0.0156471 3.94158 0.00030107 4.01184 4.38578e-06C4.08211 -0.000292298 4.15171 0.0144662 4.21653 0.0434055C4.28135 0.0723449 4.34007 0.114876 4.38921 0.168479L6.83933 2.59656C6.89014 2.64883 6.93056 2.7115 6.95817 2.78082C6.98577 2.85013 7 2.92468 7 3C7 3.07532 6.98577 3.14986 6.95817 3.21918C6.93056 3.2885 6.89014 3.35117 6.83933 3.40343L4.38921 5.83152C4.34007 5.88512 4.28135 5.92765 4.21653 5.95659C4.15171 5.98553 4.08211 6.00029 4.01184 6C3.94158 5.9997 3.87208 5.98435 3.80748 5.95487C3.74287 5.92538 3.68447 5.88235 3.63573 5.82834C3.58699 5.77432 3.54891 5.71041 3.52374 5.6404C3.49857 5.57039 3.48682 5.4957 3.48919 5.42075C3.49156 5.3458 3.50801 5.27213 3.53755 5.20409C3.56709 5.13605 3.60913 5.07503 3.66118 5.02465L5.17185 3.56033H0.525025C0.38578 3.56033 0.252238 3.50129 0.153776 3.39621C0.0553149 3.29113 0 3.14861 0 3Z" fill="currentColor"/>
</svg>