<svg width="18" height="18" viewBox="0 0 18 18" fill="none" xmlns="http://www.w3.org/2000/svg">
  <path d="M0 11.3333C0 10.597 0.596954 10 1.33333 10H2.66667C3.40305 10 4 10.597 4 11.3333V16.6667C4 17.403 3.40305 18 2.66667 18H1.33333C0.596954 18 0 17.403 0 16.6667V11.3333Z" fill="currentColor"/>
  <path d="M7 7.33333C7 6.59695 7.59695 6 8.33333 6H9.66667C10.403 6 11 6.59695 11 7.33333V16.6667C11 17.403 10.403 18 9.66667 18H8.33333C7.59695 18 7 17.403 7 16.6667V7.33333Z" fill="currentColor"/>
  <path d="M14 1.38462C14 0.619913 14.597 0 15.3333 0H16.6667C17.403 0 18 0.619913 18 1.38462V16.6154C18 17.3801 17.403 18 16.6667 18H15.3333C14.597 18 14 17.3801 14 16.6154V1.38462Z" fill="currentColor"/>
</svg>
