<svg xmlns="http://www.w3.org/2000/svg" viewBox="0 0 22 24"><path fill="currentColor" d="M11 0C8.5 0 6.101.948 4.333 2.636 2.565 4.324 1.57 6.613 1.57 9v5.379l-1.11 1.06c-.22.21-.37.477-.43.768-.061.291-.03.593.089.867s.32.508.578.673c.259.165.562.253.873.253h18.86c.31 0 .614-.088.873-.253.258-.165.46-.399.578-.673.12-.274.15-.576.09-.867a1.48 1.48 0 0 0-.43-.768l-1.111-1.06V9c0-2.387-.993-4.676-2.762-6.364C15.9.948 13.501 0 11 0Zm0 24a4.83 4.83 0 0 1-3.334-1.318 4.399 4.399 0 0 1-1.38-3.182h9.428a4.399 4.399 0 0 1-1.38 3.182A4.83 4.83 0 0 1 11 24Z"/></svg>
