<svg width="16" height="18" viewBox="0 0 16 18" fill="none" xmlns="http://www.w3.org/2000/svg">
<path d="M10.3811 13.235C11.9338 13.0512 13.4593 12.6847 14.9261 12.1433C13.6839 10.7673 12.9975 8.97875 13.0003 7.125V6.54167V6.5C13.0003 5.17392 12.4735 3.90215 11.5358 2.96447C10.5981 2.02678 9.32636 1.5 8.00028 1.5C6.67419 1.5 5.40242 2.02678 4.46474 2.96447C3.52706 3.90215 3.00028 5.17392 3.00028 6.5V7.125C3.00279 8.97886 2.3161 10.7675 1.07361 12.1433C2.51778 12.6767 4.04027 13.0475 5.61944 13.235M10.3811 13.235C8.79943 13.4226 7.20112 13.4226 5.61944 13.235M10.3811 13.235C10.5012 13.6099 10.5311 14.0078 10.4683 14.3964C10.4055 14.785 10.2518 15.1533 10.0198 15.4713C9.78772 15.7893 9.48386 16.048 9.13293 16.2263C8.78201 16.4047 8.39392 16.4976 8.00028 16.4976C7.60663 16.4976 7.21854 16.4047 6.86762 16.2263C6.51669 16.048 6.21283 15.7893 5.98079 15.4713C5.74875 15.1533 5.59508 14.785 5.53229 14.3964C5.46949 14.0078 5.49936 13.6099 5.61944 13.235" stroke="currentColor" stroke-width="1.25" stroke-linecap="round" stroke-linejoin="round"/>
</svg>
