<svg width="16" height="16" viewBox="0 0 16 16" fill="none" xmlns="http://www.w3.org/2000/svg">
  <path d="M11.4864 1H4.51364C4.1122 1 3.7272 1.16372 3.44333 1.45516C3.15947 1.74659 3 2.14185 3 2.554V13.446C3 13.8581 3.15947 14.2534 3.44333 14.5448C3.7272 14.8363 4.1122 15 4.51364 15H11.4864C11.8878 15 12.2728 14.8363 12.5567 14.5448C12.8405 14.2534 13 13.8581 13 13.446V2.554C13 2.14185 12.8405 1.74659 12.5567 1.45516C12.2728 1.16372 11.8878 1 11.4864 1V1ZM4.36364 2.86667C4.36364 2.7429 4.41153 2.6242 4.49677 2.53668C4.58201 2.44917 4.69763 2.4 4.81818 2.4H11.1818C11.3024 2.4 11.418 2.44917 11.5032 2.53668C11.5885 2.6242 11.6364 2.7429 11.6364 2.86667V4.73333C11.6364 4.8571 11.5885 4.9758 11.5032 5.06332C11.418 5.15083 11.3024 5.2 11.1818 5.2H4.81818C4.69763 5.2 4.58201 5.15083 4.49677 5.06332C4.41153 4.9758 4.36364 4.8571 4.36364 4.73333V2.86667ZM6.18182 13.5533C6.18182 13.5954 6.17368 13.6371 6.15786 13.6759C6.14205 13.7147 6.11887 13.7499 6.08969 13.7794C6.0605 13.8089 6.02589 13.8322 5.98786 13.8479C5.94984 13.8635 5.90915 13.8713 5.86818 13.8707H4.69545C4.65299 13.8739 4.61034 13.8681 4.57018 13.8536C4.53002 13.8391 4.4932 13.8162 4.46205 13.7864C4.43089 13.7566 4.40607 13.7205 4.38914 13.6804C4.3722 13.6403 4.36352 13.597 4.36364 13.5533V12.326C4.36364 12.2406 4.39668 12.1587 4.4555 12.0983C4.51432 12.0379 4.59409 12.004 4.67727 12.004H5.86818C5.95136 12.004 6.03114 12.0379 6.08996 12.0983C6.14877 12.1587 6.18182 12.2406 6.18182 12.326V13.5533ZM6.18182 10.7533C6.18182 10.7954 6.17368 10.8371 6.15786 10.8759C6.14205 10.9147 6.11887 10.9499 6.08969 10.9794C6.0605 11.0089 6.02589 11.0322 5.98786 11.0479C5.94984 11.0635 5.90915 11.0713 5.86818 11.0707H4.69545C4.65299 11.0739 4.61034 11.0681 4.57018 11.0536C4.53002 11.0391 4.4932 11.0162 4.46205 10.9864C4.43089 10.9566 4.40607 10.9205 4.38914 10.8804C4.3722 10.8403 4.36352 10.797 4.36364 10.7533V9.526C4.36364 9.48371 4.37175 9.44184 4.38751 9.40278C4.40327 9.36371 4.42637 9.32821 4.4555 9.29831C4.48462 9.26841 4.5192 9.24469 4.55725 9.22851C4.5953 9.21233 4.63609 9.204 4.67727 9.204H5.86818C5.95136 9.204 6.03114 9.23793 6.08996 9.29831C6.14877 9.3587 6.18182 9.4406 6.18182 9.526V10.7533ZM6.18182 7.95333C6.18182 7.9954 6.17368 8.03705 6.15786 8.07586C6.14205 8.11467 6.11887 8.14986 6.08969 8.17939C6.0605 8.20892 6.02589 8.23219 5.98786 8.24786C5.94984 8.26353 5.90915 8.27129 5.86818 8.27067H4.69545C4.65299 8.27388 4.61034 8.26805 4.57018 8.25355C4.53002 8.23905 4.4932 8.21619 4.46205 8.18639C4.43089 8.1566 4.40607 8.12052 4.38914 8.08041C4.3722 8.04031 4.36352 7.99704 4.36364 7.95333V6.726C4.36364 6.68371 4.37175 6.64184 4.38751 6.60278C4.40327 6.56371 4.42637 6.52821 4.4555 6.49831C4.48462 6.46841 4.5192 6.44469 4.55725 6.42851C4.5953 6.41233 4.63609 6.404 4.67727 6.404H5.86818C5.95136 6.404 6.03114 6.43793 6.08996 6.49831C6.14877 6.5587 6.18182 6.6406 6.18182 6.726V7.95333ZM8.90909 13.5533C8.9091 13.5954 8.90095 13.6371 8.88514 13.6759C8.86932 13.7147 8.84614 13.7499 8.81696 13.7794C8.78777 13.8089 8.75316 13.8322 8.71514 13.8479C8.67711 13.8635 8.63643 13.8713 8.59545 13.8707H7.42273C7.38027 13.8739 7.33762 13.8681 7.29745 13.8536C7.25729 13.8391 7.22048 13.8162 7.18932 13.7864C7.15817 13.7566 7.13335 13.7205 7.11641 13.6804C7.09948 13.6403 7.09079 13.597 7.09091 13.5533V12.326C7.09091 12.2406 7.12395 12.1587 7.18277 12.0983C7.24159 12.0379 7.32136 12.004 7.40455 12.004H8.59545C8.67864 12.004 8.75841 12.0379 8.81723 12.0983C8.87605 12.1587 8.90909 12.2406 8.90909 12.326V13.5533ZM8.90909 10.7533C8.9091 10.7954 8.90095 10.8371 8.88514 10.8759C8.86932 10.9147 8.84614 10.9499 8.81696 10.9794C8.78777 11.0089 8.75316 11.0322 8.71514 11.0479C8.67711 11.0635 8.63643 11.0713 8.59545 11.0707H7.42273C7.38027 11.0739 7.33762 11.0681 7.29745 11.0536C7.25729 11.0391 7.22048 11.0162 7.18932 10.9864C7.15817 10.9566 7.13335 10.9205 7.11641 10.8804C7.09948 10.8403 7.09079 10.797 7.09091 10.7533V9.526C7.09091 9.4406 7.12395 9.3587 7.18277 9.29831C7.24159 9.23793 7.32136 9.204 7.40455 9.204H8.59545C8.67864 9.204 8.75841 9.23793 8.81723 9.29831C8.87605 9.3587 8.90909 9.4406 8.90909 9.526V10.7533ZM8.90909 7.95333C8.9091 7.9954 8.90095 8.03705 8.88514 8.07586C8.86932 8.11467 8.84614 8.14986 8.81696 8.17939C8.78777 8.20892 8.75316 8.23219 8.71514 8.24786C8.67711 8.26353 8.63643 8.27129 8.59545 8.27067H7.42273C7.38027 8.27388 7.33762 8.26805 7.29745 8.25355C7.25729 8.23905 7.22048 8.21619 7.18932 8.18639C7.15817 8.1566 7.13335 8.12052 7.11641 8.08041C7.09948 8.04031 7.09079 7.99704 7.09091 7.95333V6.726C7.09091 6.6406 7.12395 6.5587 7.18277 6.49831C7.24159 6.43793 7.32136 6.404 7.40455 6.404H8.59545C8.67864 6.404 8.75841 6.43793 8.81723 6.49831C8.87605 6.5587 8.90909 6.6406 8.90909 6.726V7.95333ZM11.6364 13.5533C11.6364 13.5954 11.6282 13.6371 11.6124 13.6759C11.5966 13.7147 11.5734 13.7499 11.5442 13.7794C11.515 13.8089 11.4804 13.8322 11.4424 13.8479C11.4044 13.8635 11.3637 13.8713 11.3227 13.8707H10.15C10.1075 13.8739 10.0649 13.8681 10.0247 13.8536C9.98456 13.8391 9.94775 13.8162 9.91659 13.7864C9.88544 13.7566 9.86062 13.7205 9.84368 13.6804C9.82675 13.6403 9.81807 13.597 9.81818 13.5533V9.68467C9.81818 9.5609 9.86607 9.4422 9.95131 9.35468C10.0366 9.26717 10.1522 9.218 10.2727 9.218H11.1818C11.3024 9.218 11.418 9.26717 11.5032 9.35468C11.5885 9.4422 11.6364 9.5609 11.6364 9.68467V13.5533ZM11.6364 7.95333C11.6364 7.9954 11.6282 8.03705 11.6124 8.07586C11.5966 8.11467 11.5734 8.14986 11.5442 8.17939C11.515 8.20892 11.4804 8.23219 11.4424 8.24786C11.4044 8.26353 11.3637 8.27129 11.3227 8.27067H10.15C10.1075 8.27388 10.0649 8.26805 10.0247 8.25355C9.98456 8.23905 9.94775 8.21619 9.91659 8.18639C9.88544 8.1566 9.86062 8.12052 9.84368 8.08041C9.82675 8.04031 9.81807 7.99704 9.81818 7.95333V6.726C9.81818 6.6406 9.85123 6.5587 9.91004 6.49831C9.96886 6.43793 10.0486 6.404 10.1318 6.404H11.3227C11.4059 6.404 11.4857 6.43793 11.5445 6.49831C11.6033 6.5587 11.6364 6.6406 11.6364 6.726V7.95333Z" fill="currentColor"/>
</svg>
