<svg width="14" height="12" viewBox="0 0 14 12" fill="none" xmlns="http://www.w3.org/2000/svg">
<path d="M0.515333 1.75C1.0629 1.26569 1.76898 0.998866 2.5 1H11.5C12.2607 1 12.9553 1.28333 13.4847 1.75C13.4238 1.26662 13.1885 0.822101 12.8231 0.499883C12.4577 0.177665 11.9872 -8.60026e-05 11.5 3.12165e-08H2.5C2.0128 -8.60026e-05 1.54233 0.177665 1.1769 0.499883C0.811478 0.822101 0.576233 1.26662 0.515333 1.75ZM0.515333 3.75C1.0629 3.26569 1.76898 2.99887 2.5 3H11.5C12.2607 3 12.9553 3.28333 13.4847 3.75C13.4238 3.26662 13.1885 2.8221 12.8231 2.49988C12.4577 2.17767 11.9872 1.99991 11.5 2H2.5C2.0128 1.99991 1.54233 2.17767 1.1769 2.49988C0.811478 2.8221 0.576233 3.26662 0.515333 3.75ZM2.5 4C1.96957 4 1.46086 4.21071 1.08579 4.58579C0.710714 4.96086 0.5 5.46957 0.5 6V10C0.5 10.5304 0.710714 11.0391 1.08579 11.4142C1.46086 11.7893 1.96957 12 2.5 12H11.5C12.0304 12 12.5391 11.7893 12.9142 11.4142C13.2893 11.0391 13.5 10.5304 13.5 10V6C13.5 5.46957 13.2893 4.96086 12.9142 4.58579C12.5391 4.21071 12.0304 4 11.5 4H9C8.86739 4 8.74022 4.05268 8.64645 4.14645C8.55268 4.24022 8.5 4.36739 8.5 4.5C8.5 4.89782 8.34196 5.27936 8.06066 5.56066C7.77936 5.84196 7.39782 6 7 6C6.60218 6 6.22064 5.84196 5.93934 5.56066C5.65804 5.27936 5.5 4.89782 5.5 4.5C5.5 4.36739 5.44732 4.24022 5.35355 4.14645C5.25979 4.05268 5.13261 4 5 4H2.5Z" fill="currentColor"/>
</svg>
