<svg width="21" height="20" viewBox="0 0 21 20" fill="none" xmlns="http://www.w3.org/2000/svg">
  <g id="Frame">
    <path id="Vector" fill-rule="evenodd" clip-rule="evenodd"
      d="M5.72953 7.21048C5.87279 7.07265 6.06491 6.99734 6.26367 7.00109C6.46243 7.00484 6.65157 7.08735 6.78953 7.23048L10.4995 11.1685L14.2095 7.23048C14.277 7.15614 14.3586 7.09608 14.4497 7.05388C14.5408 7.01168 14.6394 6.98819 14.7397 6.9848C14.84 6.98141 14.94 6.99819 15.0337 7.03415C15.1274 7.07011 15.213 7.12451 15.2853 7.19413C15.3576 7.26376 15.4152 7.34719 15.4546 7.43947C15.4941 7.53176 15.5146 7.63103 15.515 7.73141C15.5154 7.83178 15.4957 7.93121 15.4569 8.02381C15.4182 8.11641 15.3613 8.20029 15.2895 8.27048L11.0395 12.7705C10.9696 12.8431 10.8857 12.9008 10.7929 12.9402C10.7001 12.9797 10.6003 13 10.4995 13C10.3987 13 10.2989 12.9797 10.2062 12.9402C10.1134 12.9008 10.0295 12.8431 9.95953 12.7705L5.70953 8.27048C5.5717 8.12722 5.49638 7.9351 5.50013 7.73634C5.50388 7.53758 5.58639 7.34844 5.72953 7.21048Z"
      fill="currentColor" />
  </g>
</svg>