<svg fill="none" height="10" viewBox="0 0 15 10" width="15" xmlns="http://www.w3.org/2000/svg"><path clip-rule="evenodd" d="m.321829 1.09389c.200562-.192959.469529-.298401.747791-.29315.27827.00525.54307.120763.73621.32115l5.194 5.5132 5.19397-5.5132c.0944-.10408.2088-.188152.3363-.247234.1275-.059081.2655-.091968.406-.096713.1404-.004746.2804.018748.4116.069088s.2509.126504.3522.223979c.1012.09747.1818.21427.2371.34347.0552.12921.084.26819.0845.40871.0006.14052-.0271.27972-.0813.40936s-.1339.24707-.2344.34534l-5.94997 6.3c-.09795.10163-.21538.18245-.34527.23766-.1299.05521-.26959.08367-.41073.08367s-.28083-.02846-.41073-.08367c-.12989-.05521-.24732-.13603-.34527-.23766l-5.950001-6.3c-.192962-.20056-.29840394-.46953-.29315364-.74779.00525031-.27827.12076264-.54307.32115364-.73621z" fill="currentColor" fill-rule="evenodd"/></svg>