<svg width="12" height="12" viewBox="0 0 12 12" fill="none" xmlns="http://www.w3.org/2000/svg">
<path fill-rule="evenodd" clip-rule="evenodd" d="M12 6C12 7.5913 11.3679 9.11742 10.2426 10.2426C9.11742 11.3679 7.5913 12 6 12C4.4087 12 2.88258 11.3679 1.75736 10.2426C0.632141 9.11742 0 7.5913 0 6C0 4.4087 0.632141 2.88258 1.75736 1.75736C2.88258 0.632141 4.4087 0 6 0C7.5913 0 9.11742 0.632141 10.2426 1.75736C11.3679 2.88258 12 4.4087 12 6ZM6 2.25C6.14918 2.25 6.29226 2.30926 6.39775 2.41475C6.50324 2.52024 6.5625 2.66332 6.5625 2.8125V6.1875C6.5625 6.33668 6.50324 6.47976 6.39775 6.58525C6.29226 6.69074 6.14918 6.75 6 6.75C5.85082 6.75 5.70774 6.69074 5.60225 6.58525C5.49676 6.47976 5.4375 6.33668 5.4375 6.1875V2.8125C5.4375 2.66332 5.49676 2.52024 5.60225 2.41475C5.70774 2.30926 5.85082 2.25 6 2.25ZM6 9.75C6.19891 9.75 6.38968 9.67098 6.53033 9.53033C6.67098 9.38968 6.75 9.19891 6.75 9C6.75 8.80109 6.67098 8.61032 6.53033 8.46967C6.38968 8.32902 6.19891 8.25 6 8.25C5.80109 8.25 5.61032 8.32902 5.46967 8.46967C5.32902 8.61032 5.25 8.80109 5.25 9C5.25 9.19891 5.32902 9.38968 5.46967 9.53033C5.61032 9.67098 5.80109 9.75 6 9.75Z" fill="currentColor"/>
</svg>
