<svg width="18" height="18" viewBox="0 0 18 18" fill="none" xmlns="http://www.w3.org/2000/svg"><path d="M5.625 6.1875h6.75m-6.75 2.25H9M1.6875 9.57c0 1.2.84225 2.2455 2.03025 2.4203.84675.1245 1.7025.2197 2.56725.2842.2625.0195.5025.1575.64875.3758L9 15.75l2.0663-3.0997c.0724-.1078.1685-.1977.2809-.2628.1125-.0651.2382-.1038.3678-.113.8589-.0641 1.7152-.1589 2.5672-.2842 1.188-.1748 2.0303-1.2195 2.0303-2.42105v-4.5135c0-1.2015-.8423-2.24625-2.0303-2.421A36.294434 36.294434 0 0 0 9 2.25c-1.794 0-3.558.13125-5.28225.38475-1.188.17475-2.03025 1.22025-2.03025 2.421V9.57Z" stroke="currentColor" stroke-width="1.5" stroke-linecap="round" stroke-linejoin="round"/></svg>
