<svg width="20" height="20" viewBox="0 0 20 20" fill="none" xmlns="http://www.w3.org/2000/svg">
<rect x="0.531915" y="0.531915" width="18.9362" height="18.9362" rx="9.46809" stroke="#3ED9A4" stroke-width="1.06383"/>
<path fill-rule="evenodd" clip-rule="evenodd" d="M14.2952 6.08252C14.4263 6.21544 14.5 6.39569 14.5 6.58363C14.5 6.77157 14.4263 6.95182 14.2952 7.08474L9.48278 13.5425C9.35163 13.6754 9.17377 13.75 8.98832 13.75C8.80287 13.75 8.62501 13.6754 8.49385 13.5425L5.69632 10.7074C5.56893 10.5737 5.49843 10.3946 5.50003 10.2088C5.50162 10.023 5.57517 9.84519 5.70484 9.71378C5.83452 9.58236 6.00993 9.50782 6.19331 9.50621C6.37668 9.50459 6.55335 9.57603 6.68525 9.70514L8.98832 12.0392L13.3063 6.08252C13.4375 5.94965 13.6153 5.875 13.8008 5.875C13.9862 5.875 14.1641 5.94965 14.2952 6.08252Z" fill="#3ED9A4"/>
</svg>
