<svg width="16" height="16" viewBox="0 0 16 16" fill="none" xmlns="http://www.w3.org/2000/svg">
  <path d="M11.3338 13.9998C11.5106 13.9998 11.6801 13.9295 11.8052 13.8045C11.9302 13.6795 12.0004 13.5099 12.0004 13.3331V9.76644C12.0004 9.46177 12.2111 9.20378 12.4851 9.07244C13.0524 8.80181 13.5059 8.33947 13.7655 7.76703C14.0251 7.19459 14.0742 6.54884 13.904 5.94375C13.7339 5.33865 13.3555 4.81311 12.8355 4.45987C12.3156 4.10663 11.6876 3.9484 11.0624 4.01311C10.8049 3.41458 10.3777 2.90464 9.83347 2.54633C9.28927 2.18803 8.65199 1.99707 8.00042 1.99707C7.34886 1.99707 6.71158 2.18803 6.16737 2.54633C5.62317 2.90464 5.19591 3.41458 4.93842 4.01311C4.31348 3.94886 3.68591 4.10731 3.16638 4.46053C2.64684 4.81376 2.2687 5.33907 2.09861 5.94384C1.92853 6.54862 1.97743 7.19403 2.23669 7.76628C2.49595 8.33852 2.94893 8.80086 3.51575 9.07178C3.78975 9.20378 4.00042 9.46178 4.00042 9.76578V13.3331C4.00042 13.5099 4.07066 13.6795 4.19568 13.8045C4.32071 13.9295 4.49028 13.9998 4.66709 13.9998H11.3338Z"
    stroke="currentColor" stroke-linecap="round" stroke-linejoin="round" />
  <path d="M4 11.333H12" stroke="currentColor" stroke-linecap="round" stroke-linejoin="round" />
</svg>
