<svg width="44" height="44" viewBox="9 10 25 25" fill="none" xmlns="http://www.w3.org/2000/svg">
<mask id="path-2-inside-1_1818_8454" fill="none">
<path fill-rule="evenodd" clip-rule="evenodd" d="M16.3989 19.0067C16.1176 18.9948 15.8322 19.0013 15.5442 19.0271C11.9299 19.3521 9.2551 22.6117 9.56978 26.3078C9.88447 30.0038 13.0695 32.7366 16.6837 32.4117C19.1262 32.1921 21.1396 30.6323 22.0913 28.5032C21.3869 28.4726 20.7074 28.327 20.0721 28.0829C19.3453 29.3754 18.0378 30.2819 16.5141 30.4189C14.041 30.6412 11.7863 28.7656 11.5618 26.1287C11.3372 23.4917 13.2407 21.2423 15.7138 21.0199C15.7601 21.0158 15.8064 21.0123 15.8525 21.0096C15.9324 20.3059 16.1199 19.6317 16.3989 19.0067Z"/>
</mask>
<path fill-rule="evenodd" clip-rule="evenodd" d="M16.3989 19.0067C16.1176 18.9948 15.8322 19.0013 15.5442 19.0271C11.9299 19.3521 9.2551 22.6117 9.56978 26.3078C9.88447 30.0038 13.0695 32.7366 16.6837 32.4117C19.1262 32.1921 21.1396 30.6323 22.0913 28.5032C21.3869 28.4726 20.7074 28.327 20.0721 28.0829C19.3453 29.3754 18.0378 30.2819 16.5141 30.4189C14.041 30.6412 11.7863 28.7656 11.5618 26.1287C11.3372 23.4917 13.2407 21.2423 15.7138 21.0199C15.7601 21.0158 15.8064 21.0123 15.8525 21.0096C15.9324 20.3059 16.1199 19.6317 16.3989 19.0067Z" fill="currentColor"/>
<path d="M16.3989 19.0067L17.9955 19.7147L19.0441 17.3658L16.4809 17.2575L16.3989 19.0067ZM22.0913 28.5032L23.6875 29.212L24.7365 26.8655L22.1753 26.7542L22.0913 28.5032ZM20.0721 28.0829L20.7055 26.4481L19.2932 25.9055L18.5486 27.2297L20.0721 28.0829ZM11.5618 26.1287L13.3047 25.972L11.5618 26.1287ZM15.8525 21.0096L15.9465 22.7574L17.4235 22.6709L17.5906 21.1993L15.8525 21.0096ZM16.4809 17.2575C16.1229 17.2424 15.7606 17.2507 15.3957 17.2835L15.6926 20.7708C15.9038 20.7519 16.1122 20.7472 16.317 20.7558L16.4809 17.2575ZM15.3957 17.2835C10.7829 17.6982 7.43323 21.8417 7.82681 26.4644L11.3128 26.1511C11.077 23.3817 13.0769 21.006 15.6926 20.7708L15.3957 17.2835ZM7.82681 26.4644C8.2204 31.0872 12.2194 34.5701 16.8322 34.1554L16.5353 30.668C13.9195 30.9032 11.5485 28.9204 11.3128 26.1511L7.82681 26.4644ZM16.8322 34.1554C19.9466 33.8754 22.492 31.8865 23.6875 29.212L20.4951 27.7945C19.7872 29.3781 18.3058 30.5088 16.5353 30.668L16.8322 34.1554ZM22.1753 26.7542C21.6632 26.7319 21.169 26.6261 20.7055 26.4481L19.4386 29.7177C20.2458 30.0278 21.1107 30.2133 22.0073 30.2523L22.1753 26.7542ZM16.6625 32.1626C18.7967 31.9707 20.6019 30.7032 21.5956 28.9361L18.5486 27.2297C18.0886 28.0477 17.2789 28.5931 16.3656 28.6752L16.6625 32.1626ZM9.81878 26.2854C10.1226 29.8538 13.1956 32.4743 16.6625 32.1626L16.3656 28.6752C14.8864 28.8082 13.4499 27.6775 13.3047 25.972L9.81878 26.2854ZM15.5654 19.2762C12.0984 19.5879 9.51496 22.717 9.81878 26.2854L13.3047 25.972C13.1595 24.2665 14.3831 22.8966 15.8623 22.7636L15.5654 19.2762ZM15.7585 19.2619C15.6942 19.2657 15.6298 19.2705 15.5654 19.2762L15.8623 22.7636C15.8905 22.7611 15.9185 22.759 15.9465 22.7574L15.7585 19.2619ZM17.5906 21.1993C17.6499 20.6768 17.7889 20.1773 17.9955 19.7147L14.8024 18.2987C14.4508 19.0861 14.2149 19.935 14.1144 20.82L17.5906 21.1993Z" fill="currentColor" mask="url(#path-2-inside-1_1818_8454)"/>
<mask id="path-4-inside-2_1818_8454" fill="none"> 
<path fill-rule="evenodd" clip-rule="evenodd" d="M21.3904 15.2804C21.1112 15.2888 20.8294 15.3154 20.5461 15.3612C16.9626 15.9416 14.5177 19.3826 15.0853 23.047C15.6529 26.7113 19.018 29.2114 22.6015 28.631C25.0254 28.2384 26.9284 26.537 27.7305 24.3429C27.0254 24.364 26.337 24.2683 25.686 24.0712C25.0498 25.4121 23.8075 26.4097 22.2954 26.6546C19.8415 27.052 17.4642 25.3398 17.0596 22.7272C16.6549 20.1147 18.3984 17.7351 20.8523 17.3377C20.896 17.3306 20.9397 17.3242 20.9834 17.3184C21.0145 16.6104 21.1551 15.9242 21.3904 15.2804Z"/>
</mask>
<path fill-rule="evenodd" clip-rule="evenodd" d="M21.3904 15.2804C21.1112 15.2888 20.8294 15.3154 20.5461 15.3612C16.9626 15.9416 14.5177 19.3826 15.0853 23.047C15.6529 26.7113 19.018 29.2114 22.6015 28.631C25.0254 28.2384 26.9284 26.537 27.7305 24.3429C27.0254 24.364 26.337 24.2683 25.686 24.0712C25.0498 25.4121 23.8075 26.4097 22.2954 26.6546C19.8415 27.052 17.4642 25.3398 17.0596 22.7272C16.6549 20.1147 18.3984 17.7351 20.8523 17.3377C20.896 17.3306 20.9397 17.3242 20.9834 17.3184C21.0145 16.6104 21.1551 15.9242 21.3904 15.2804Z" fill="currentColor"/>
<path d="M21.3904 15.2804L23.0314 15.8735L23.9164 13.4527L21.3498 13.5293L21.3904 15.2804ZM27.7305 24.3429L29.3715 24.936L30.2565 22.5152L27.6899 22.5918L27.7305 24.3429ZM25.686 24.0712L26.2016 22.3939L24.7584 21.957L24.1081 23.3274L25.686 24.0712ZM17.0596 22.7272L18.7871 22.4475L17.0596 22.7272ZM20.9834 17.3184L21.1999 19.0554L22.6648 18.8625L22.7298 17.3841L20.9834 17.3184ZM21.3498 13.5293C20.9947 13.5399 20.637 13.5738 20.2783 13.6319L20.814 17.0906C21.0218 17.057 21.2277 17.0376 21.431 17.0315L21.3498 13.5293ZM20.2783 13.6319C15.7063 14.3723 12.6477 18.7421 13.3578 23.3268L16.8128 22.7672C16.3878 20.0232 18.2189 17.5109 20.814 17.0906L20.2783 13.6319ZM13.3578 23.3268C14.0679 27.9115 18.2974 31.1008 22.8694 30.3604L22.3336 26.9016C19.7386 27.3219 17.2378 25.5112 16.8128 22.7672L13.3578 23.3268ZM22.8694 30.3604C25.9593 29.86 28.3638 27.6926 29.3715 24.936L26.0895 23.7498C25.4931 25.3814 24.0916 26.6169 22.3336 26.9016L22.8694 30.3604ZM27.6899 22.5918C27.1771 22.6071 26.6764 22.5377 26.2016 22.3939L25.1704 25.7485C25.9976 25.9989 26.8736 26.1208 27.7711 26.094L27.6899 22.5918ZM22.5632 28.384C24.6799 28.0411 26.394 26.6485 27.2639 24.815L24.1081 23.3274C23.7057 24.1758 22.935 24.7782 22.0275 24.9252L22.5632 28.384ZM15.3321 23.007C15.88 26.5444 19.1254 28.9407 22.5632 28.384L22.0275 24.9252C20.5576 25.1633 19.0485 24.1351 18.7871 22.4475L15.3321 23.007ZM20.5844 15.6083C17.1466 16.1651 14.7842 19.4696 15.3321 23.007L18.7871 22.4475C18.5257 20.7598 19.6502 19.3051 21.1201 19.0671L20.5844 15.6083ZM20.7669 15.5815C20.7061 15.5895 20.6453 15.5984 20.5844 15.6083L21.1201 19.0671C21.1467 19.0628 21.1733 19.0589 21.1999 19.0554L20.7669 15.5815ZM22.7298 17.3841C22.7529 16.8586 22.8572 16.3501 23.0314 15.8735L19.7494 14.6873C19.453 15.4983 19.2761 16.3623 19.2369 17.2528L22.7298 17.3841Z" fill="currentColor" mask="url(#path-4-inside-2_1818_8454)"/>
<path d="M32.2523 17.7749C32.7486 20.979 30.6106 23.9557 27.5213 24.456C24.432 24.9563 21.499 22.801 21.0028 19.5968C20.5065 16.3926 22.6445 13.416 25.7338 12.9156C28.8231 12.4153 31.756 14.5707 32.2523 17.7749Z" stroke="currentColor" stroke-width="1.75"/>
</svg>
