<svg width="70" height="14" viewBox="0 0 79 14" fill="none" xmlns="http://www.w3.org/2000/svg">
<path d="M15.9443 3.90853C13.0744 3.90853 10.832 6.06982 10.832 8.96316C10.832 11.8565 13.0177 13.9993 15.9443 13.9993C18.8708 13.9993 21.0946 11.8195 21.0946 8.94466C21.0946 6.08832 18.9088 3.90853 15.9443 3.90853ZM15.9636 11.9141C14.3293 11.9141 13.1318 10.6549 13.1318 8.96387C13.1318 7.25362 14.31 5.99512 15.9443 5.99512C17.5979 5.99512 18.7948 7.27283 18.7948 8.96387C18.7948 10.6549 17.5979 11.9141 15.9636 11.9141ZM21.7213 6.10753H23.147V13.8122H25.4274V4.09635H21.7213V6.10753ZM5.09293 5.99441C6.29051 5.99441 7.24069 6.72717 7.60139 7.81706H10.0152C9.57776 5.48717 7.6394 3.90853 5.1123 3.90853C2.24241 3.90853 0 6.06982 0 8.96387C0 11.8579 2.18576 14 5.1123 14C7.58275 14 9.55911 12.4214 9.99655 10.0723H7.60139C7.25933 11.1622 6.30916 11.9141 5.11158 11.9141C3.45792 11.9141 2.29906 10.6549 2.29906 8.96387C2.29978 7.25362 3.43999 5.99441 5.09293 5.99441ZM65.0507 8.02409L63.3784 7.78007C62.5803 7.66767 62.0102 7.40444 62.0102 6.78409C62.0102 6.10753 62.7517 5.7696 63.7585 5.7696C64.8607 5.7696 65.5642 6.23914 65.7162 7.0096H67.9206C67.6732 5.05534 66.1529 3.90924 63.8159 3.90924C61.4021 3.90924 59.8058 5.13075 59.8058 6.8595C59.8058 8.51283 60.8513 9.47182 62.9603 9.77204L64.6326 10.0161C65.4501 10.1285 65.9062 10.4486 65.9062 11.0497C65.9062 11.8202 65.1081 12.1396 64.0059 12.1396C62.6563 12.1396 61.8961 11.5947 61.7821 10.768H59.5397C59.7491 12.6661 61.25 14 63.9865 14C66.4763 14 68.1293 12.8724 68.1293 10.9366C68.1293 9.20789 66.9324 8.30581 65.0507 8.02409ZM24.2872 0.0939072C23.451 0.0939072 22.8235 0.695056 22.8235 1.52172C22.8235 2.34839 23.4503 2.94954 24.2872 2.94954C25.1233 2.94954 25.7508 2.34839 25.7508 1.52172C25.7508 0.695056 25.1233 0.0939072 24.2872 0.0939072ZM57.7534 7.42294C57.7534 5.31856 56.4611 3.90924 53.7246 3.90924C51.1402 3.90924 49.6959 5.20616 49.4105 7.19813H51.6723C51.7863 6.42766 52.3944 5.78881 53.6866 5.78881C54.8462 5.78881 55.4163 6.29605 55.4163 6.91641C55.4163 7.72458 54.3708 7.93089 53.0785 8.0625C51.3302 8.25032 49.1638 8.85147 49.1638 11.1067C49.1638 12.8546 50.4754 13.9815 52.5658 13.9815C54.2001 13.9815 55.2263 13.3049 55.7397 12.2336C55.8157 13.1918 56.5379 13.8122 57.5454 13.8122H58.8757V11.8017H57.7541V7.42294H57.7534ZM55.511 9.86595C55.511 11.1629 54.3708 12.1211 52.9832 12.1211C52.1276 12.1211 51.4055 11.764 51.4055 11.0128C51.4055 10.0545 52.5651 9.79125 53.6293 9.67885C54.6555 9.58494 55.2256 9.35942 55.511 8.92688V9.86595ZM43.4054 3.90853C42.1318 3.90853 41.0676 4.43498 40.3075 5.31785V0H38.0271V13.8122H40.2695V12.5345C41.0296 13.4551 42.1132 14 43.4054 14C46.1419 14 48.2136 11.8579 48.2136 8.96387C48.2136 6.06982 46.1039 3.90853 43.4054 3.90853ZM43.0633 11.9141C41.429 11.9141 40.2315 10.6549 40.2315 8.96387C40.2315 7.27283 41.4477 5.99512 43.082 5.99512C44.7356 5.99512 45.8945 7.25433 45.8945 8.96387C45.8945 10.6549 44.6976 11.9141 43.0633 11.9141ZM32.5727 3.90853C31.0904 3.90853 30.1209 4.50968 29.5508 5.35556V4.09635H27.289V13.8115H29.5694V8.53133C29.5694 7.0466 30.5196 5.99441 31.9259 5.99441C33.2375 5.99441 34.0542 6.91499 34.0542 8.24961V13.8122H36.3347V8.081C36.3354 5.63728 35.0625 3.90853 32.5727 3.90853ZM79 8.64444C79 5.86351 76.9476 3.90924 74.1918 3.90924C71.2652 3.90924 69.1175 6.08903 69.1175 8.96387C69.1175 11.9895 71.4173 14 74.2298 14C76.6056 14 78.4679 12.6092 78.9426 10.6364H76.5668C76.2248 11.5008 75.3886 11.9895 74.2671 11.9895C72.8034 11.9895 71.7012 11.0875 71.4545 9.50882H78.9993V8.64444H79ZM71.5879 7.89248C71.9493 6.53936 72.9755 5.88201 74.1538 5.88201C75.446 5.88201 76.4342 6.61477 76.6622 7.89248H71.5879Z" fill="currentColor"/>
</svg>
