<svg width="22" height="20" viewBox="0 0 22 20" fill="none" xmlns="http://www.w3.org/2000/svg">
<path fill-rule="evenodd" clip-rule="evenodd" d="M22 13.3333V2.66667C22 1.95942 21.7103 1.28115 21.1945 0.781048C20.6788 0.280951 19.9793 0 19.25 0H2.75C2.02065 0 1.32118 0.280951 0.805456 0.781048C0.289731 1.28115 0 1.95942 0 2.66667V13.3333C0 14.0406 0.289731 14.7189 0.805456 15.219C1.32118 15.719 2.02065 16 2.75 16H6.875L11 20L15.125 16H19.25C19.9793 16 20.6788 15.719 21.1945 15.219C21.7103 14.7189 22 14.0406 22 13.3333ZM4.125 5.33333C4.125 4.97971 4.26987 4.64057 4.52773 4.39052C4.78559 4.14048 5.13533 4 5.5 4H16.5C16.8647 4 17.2144 4.14048 17.4723 4.39052C17.7301 4.64057 17.875 4.97971 17.875 5.33333C17.875 5.68696 17.7301 6.02609 17.4723 6.27614C17.2144 6.52619 16.8647 6.66667 16.5 6.66667H5.5C5.13533 6.66667 4.78559 6.52619 4.52773 6.27614C4.26987 6.02609 4.125 5.68696 4.125 5.33333ZM5.5 9.33333C5.13533 9.33333 4.78559 9.47381 4.52773 9.72386C4.26987 9.97391 4.125 10.313 4.125 10.6667C4.125 11.0203 4.26987 11.3594 4.52773 11.6095C4.78559 11.8595 5.13533 12 5.5 12H9.625C9.98967 12 10.3394 11.8595 10.5973 11.6095C10.8551 11.3594 11 11.0203 11 10.6667C11 10.313 10.8551 9.97391 10.5973 9.72386C10.3394 9.47381 9.98967 9.33333 9.625 9.33333H5.5Z" fill="currentColor"/>
</svg>
