<svg width="16" height="16" viewBox="0 0 16 16" fill="none" xmlns="http://www.w3.org/2000/svg">
<path d="M7.95513 1.00169C7.89506 1.00645 7.83628 1.02054 7.78124 1.04337L1.31971 3.71042C1.2243 3.74983 1.14329 3.81414 1.08653 3.89553C1.02977 3.97691 0.999705 4.07186 1 4.16883V11.8366C1.00078 11.9327 1.03135 12.0265 1.08805 12.1069C1.14474 12.1873 1.22517 12.2508 1.31971 12.2898L7.78124 14.9568C7.85011 14.9853 7.92463 15 8 15C8.07536 15 8.14989 14.9853 8.21876 14.9568L14.6803 12.2898C14.7748 12.2508 14.8552 12.1873 14.9119 12.1069C14.9686 12.0265 14.9992 11.9327 15 11.8366V4.16883C15.0003 4.07186 14.9702 3.97691 14.9134 3.89553C14.8567 3.81414 14.7756 3.74983 14.6803 3.71042L8.21876 1.04337C8.13605 1.00911 8.04538 0.994778 7.95513 1.00169ZM8 2.04351L13.1378 4.16883L8 6.28894L2.86219 4.16883L8 2.04351ZM2.07693 4.93457L7.46153 7.15886V13.7328L2.07693 11.5084V4.93457ZM13.923 4.93457V11.5084L8.53846 13.7328V7.15886L13.923 4.93457Z" fill="currentColor"/>
</svg>
