<svg width="16" height="16" viewBox="0 0 16 16" fill="none" xmlns="http://www.w3.org/2000/svg">
<path d="M10.9255 9.70119C10.9255 8.14969 9.99456 7.61773 8.13272 7.39612C6.80283 7.21876 6.53685 6.86416 6.53685 6.24348C6.53685 5.62279 6.98018 5.22393 7.86674 5.22393C8.66467 5.22393 9.10801 5.48991 9.32962 6.15485C9.37398 6.28784 9.50697 6.37647 9.63996 6.37647H10.3492C10.5265 6.37647 10.6595 6.24348 10.6595 6.06623V6.02186C10.4822 5.04658 9.68422 4.29301 8.66467 4.20439V3.14047C8.66467 2.96312 8.53169 2.83013 8.31007 2.78577H7.64513C7.46777 2.78577 7.33479 2.91876 7.29042 3.14047V4.16002C5.96053 4.33737 5.11834 5.22393 5.11834 6.33221C5.11834 7.79508 6.0049 8.3713 7.86674 8.59302C9.10801 8.81463 9.50697 9.08061 9.50697 9.78992C9.50697 10.4992 8.88629 10.9868 8.0441 10.9868C6.89145 10.9868 6.49249 10.4991 6.3595 9.83418C6.31524 9.65693 6.18225 9.5682 6.04926 9.5682H5.29559C5.11834 9.5682 4.98535 9.70119 4.98535 9.87854V9.92291C5.1626 11.0311 5.87191 11.829 7.33479 12.0507V13.1146C7.33479 13.2919 7.46778 13.4249 7.68939 13.4692H8.35433C8.53169 13.4692 8.66468 13.3363 8.70904 13.1146V12.0507C10.0389 11.829 10.9255 10.8981 10.9255 9.70119Z" fill="currentColor"/>
<path d="M5.73821 14.3561C2.2805 13.1149 0.507281 9.25822 1.79291 5.84477C2.45786 3.98293 3.92073 2.56441 5.73821 1.89947C5.91557 1.81085 6.00419 1.67786 6.00419 1.45614V0.835558C6.00419 0.658204 5.91557 0.525216 5.73821 0.480957C5.69385 0.480957 5.60522 0.480957 5.56086 0.525215C1.34958 1.8551 -0.955596 6.33247 0.374292 10.5437C1.17223 13.0262 3.07843 14.9324 5.56086 15.7303C5.73821 15.8189 5.91557 15.7303 5.95982 15.553C6.00419 15.5087 6.00419 15.4643 6.00419 15.3757V14.755C6.00419 14.622 5.8712 14.4448 5.73821 14.3561ZM10.4372 0.525215C10.2598 0.436592 10.0825 0.525216 10.0382 0.70257C9.99385 0.746935 9.99385 0.791193 9.99385 0.879924V1.5005C9.99385 1.67786 10.1268 1.8551 10.2598 1.94383C13.7175 3.18499 15.4908 7.04167 14.2051 10.4551C13.5402 12.317 12.0773 13.7355 10.2598 14.4004C10.0825 14.489 9.99385 14.622 9.99385 14.8438V15.4643C9.99385 15.6417 10.0825 15.7747 10.2598 15.8189C10.3042 15.8189 10.3928 15.8189 10.4372 15.7747C14.6485 14.4448 16.9536 9.96742 15.6238 5.75615C14.8258 3.22936 12.8752 1.32315 10.4372 0.525215Z" fill="currentColor"/>
</svg>
