<svg width="33" height="33" viewBox="0 0 33 33" fill="none" xmlns="http://www.w3.org/2000/svg">
<path d="M24.5 11.1668V8.50016C24.5 7.79292 24.219 7.11464 23.7189 6.61454C23.2188 6.11445 22.5405 5.8335 21.8333 5.8335H5.83329C5.12605 5.8335 4.44777 6.11445 3.94767 6.61454C3.44758 7.11464 3.16663 7.79292 3.16663 8.50016V17.8335C3.16663 18.5407 3.44758 19.219 3.94767 19.7191C4.44777 20.2192 5.12605 20.5002 5.83329 20.5002H16.5" stroke="currentColor" stroke-width="3" stroke-linecap="round" stroke-linejoin="round"/>
<path d="M13.8334 25.8332V20.5532V24.7532" stroke="currentColor" stroke-width="3" stroke-linecap="round" stroke-linejoin="round"/>
<path d="M9.83337 25.8335H16.5" stroke="currentColor" stroke-width="3" stroke-linecap="round" stroke-linejoin="round"/>
<path d="M27.1667 16.5H24.5C23.0273 16.5 21.8334 17.6939 21.8334 19.1667V27.1667C21.8334 28.6394 23.0273 29.8333 24.5 29.8333H27.1667C28.6395 29.8333 29.8334 28.6394 29.8334 27.1667V19.1667C29.8334 17.6939 28.6395 16.5 27.1667 16.5Z" stroke="currentColor" stroke-width="3" stroke-linecap="round" stroke-linejoin="round"/>
</svg>
