<svg viewBox="0 0 20 23" xmlns="http://www.w3.org/2000/svg"><path d="M17.5927 0C18.891 0 19.9381 1.08962 20 2.37187V23L17.528 20.8217L16.1706 19.5395L14.6895 18.1997L15.3082 20.3128H2.34545C1.05083 20.3128 0 19.2922 0 17.94V2.37667C0 1.09442 1.05268 0.002875 2.35006 0.002875H17.5862L17.5927 0ZM11.9433 5.44621H11.9156L11.7291 5.63787C13.6433 6.21287 14.5695 7.11083 14.5695 7.11083C13.3358 6.47067 12.224 6.15058 11.1122 6.02121C10.3089 5.89183 9.50552 5.95987 8.82682 6.02121H8.64213C8.20813 6.02121 7.28473 6.21287 6.04737 6.72558C5.61614 6.92013 5.36867 7.04758 5.36867 7.04758C5.36867 7.04758 6.29392 6.08733 8.33279 5.57463L8.20813 5.44525C8.20813 5.44525 6.6642 5.38392 4.99746 6.66233C4.99746 6.66233 3.33072 9.67533 3.33072 13.3898C3.33072 13.3898 4.25412 15.0573 6.78702 15.1206C6.78702 15.1206 7.15638 14.6098 7.53036 14.1603C6.10831 13.7118 5.55427 12.8148 5.55427 12.8148C5.55427 12.8148 5.67801 12.8781 5.86361 13.0065H5.91902C5.94672 13.0065 5.95965 13.0209 5.97442 13.0352V13.041C5.9892 13.0563 6.00212 13.0697 6.02983 13.0697C6.33455 13.2001 6.63927 13.3285 6.88859 13.4531C7.3189 13.6467 7.87202 13.8393 8.55072 13.9668C9.40948 14.0961 10.3938 14.1584 11.5148 13.9668C12.0689 13.8374 12.6229 13.7109 13.177 13.454C13.5371 13.2624 13.9803 13.0707 14.467 12.7477C14.467 12.7477 13.9129 13.6447 12.4309 14.0933C12.7356 14.5398 13.165 15.0516 13.165 15.0516C15.6988 14.9941 16.6831 13.3266 16.7385 13.3975C16.7385 9.68875 15.0626 6.67 15.0626 6.67C13.5528 5.50658 12.14 5.4625 11.8907 5.4625L11.9424 5.44333L11.9433 5.44621ZM12.0984 9.67533C12.7476 9.67533 13.2712 10.2503 13.2712 10.9547C13.2712 11.6639 12.7448 12.2389 12.0984 12.2389C11.4521 12.2389 10.9257 11.6639 10.9257 10.9605C10.9276 10.2513 11.4548 9.67821 12.0984 9.67821V9.67533ZM7.90341 9.67533C8.54979 9.67533 9.07244 10.2503 9.07244 10.9547C9.07244 11.6639 8.5461 12.2389 7.89972 12.2389C7.25334 12.2389 6.727 11.6639 6.727 10.9605C6.727 10.2513 7.25334 9.67821 7.89972 9.67821L7.90341 9.67533Z" fill="currentColor"/></svg>
