<svg width="16" height="16" viewBox="0 0 16 16" fill="none" xmlns="http://www.w3.org/2000/svg">
<path d="M7.3495 14.369V13.1655C5.334 13.0205 4.0435 11.846 4 10.077H5.856C5.8705 10.9035 6.407 11.4255 7.3495 11.5415V8.453L6.8855 8.3515C5.0585 7.96 4.145 6.945 4.145 5.35C4.145 3.6535 5.421 2.4355 7.3495 2.2325V1H8.466V2.2325C10.293 2.421 11.424 3.5665 11.482 5.3065H9.684C9.655 4.5235 9.22 4.016 8.466 3.8565V6.974L8.959 7.09C10.815 7.496 11.656 8.395 11.656 9.932C11.656 11.701 10.409 12.919 8.466 13.1365V14.369H7.3495ZM7.2915 6.713L7.3495 6.7275V3.842C6.4795 3.987 5.9575 4.509 5.9575 5.292C5.9575 6.0605 6.3635 6.51 7.2915 6.713ZM8.5675 8.714L8.466 8.685V11.5125C9.336 11.3385 9.858 10.831 9.858 10.0915C9.858 9.352 9.4375 8.9025 8.5675 8.714Z" fill="currentColor"/>
</svg>
