<svg width="14" height="14" viewBox="0 0 14 14" fill="none" xmlns="http://www.w3.org/2000/svg">
<g id="Frame">
<path id="Vector" fill-rule="evenodd" clip-rule="evenodd" d="M1.75 9.18753C1.86603 9.18753 1.97731 9.23362 2.05936 9.31567C2.14141 9.39772 2.1875 9.509 2.1875 9.62503V10.9375C2.1875 11.1696 2.27969 11.3922 2.44378 11.5562C2.60788 11.7203 2.83044 11.8125 3.0625 11.8125H10.9375C11.1696 11.8125 11.3921 11.7203 11.5562 11.5562C11.7203 11.3922 11.8125 11.1696 11.8125 10.9375V9.62503C11.8125 9.509 11.8586 9.39772 11.9406 9.31567C12.0227 9.23362 12.134 9.18753 12.25 9.18753C12.366 9.18753 12.4773 9.23362 12.5594 9.31567C12.6414 9.39772 12.6875 9.509 12.6875 9.62503V10.9375C12.6875 11.4017 12.5031 11.8468 12.1749 12.175C11.8467 12.5032 11.4016 12.6875 10.9375 12.6875H3.0625C2.59837 12.6875 2.15325 12.5032 1.82506 12.175C1.49687 11.8468 1.3125 11.4017 1.3125 10.9375V9.62503C1.3125 9.509 1.35859 9.39772 1.44064 9.31567C1.52269 9.23362 1.63397 9.18753 1.75 9.18753Z" fill="#C8C7D8"/>
<path id="Vector_2" fill-rule="evenodd" clip-rule="evenodd" d="M6.69078 9.93458C6.77282 10.0165 6.88401 10.0625 6.99995 10.0625C7.11589 10.0625 7.22709 10.0165 7.30912 9.93458L9.93412 7.30958C10.0114 7.22665 10.0535 7.11695 10.0515 7.00361C10.0495 6.89027 10.0036 6.78213 9.9234 6.70197C9.84324 6.62181 9.7351 6.5759 9.62176 6.5739C9.50841 6.5719 9.39872 6.61397 9.31578 6.69125L7.43745 8.56958V1.75041C7.43745 1.63438 7.39136 1.5231 7.30931 1.44106C7.22726 1.35901 7.11598 1.31291 6.99995 1.31291C6.88392 1.31291 6.77264 1.35901 6.69059 1.44106C6.60855 1.5231 6.56245 1.63438 6.56245 1.75041V8.56958L4.68412 6.69125C4.60118 6.61397 4.49149 6.5719 4.37815 6.5739C4.2648 6.5759 4.15666 6.62181 4.07651 6.70197C3.99635 6.78213 3.95043 6.89027 3.94843 7.00361C3.94643 7.11695 3.9885 7.22665 4.06578 7.30958L6.69078 9.93458Z" fill="#C8C7D8"/>
</g>
</svg>
