<svg width="26" height="26" viewBox="0 0 26 26" fill="none" xmlns="http://www.w3.org/2000/svg">
<path d="M5.64395 4.48751L6.0427 6.87876C6.29959 8.42104 7.03207 9.84448 8.1377 10.95L10.1877 13L9.70395 13.9688C9.4327 14.51 9.53895 15.1638 9.96645 15.5913L11.6514 17.2763C11.9139 17.5388 12.0627 17.8975 12.0627 18.27V19.6313C12.0627 20.1638 12.3627 20.65 12.8402 20.8888L13.0314 20.9838C13.5727 21.255 14.2264 21.1488 14.6539 20.7213L15.5577 19.8175C16.9513 18.4236 17.9398 16.6772 18.4177 14.765C18.4798 14.5171 18.4708 14.2567 18.3917 14.0137C18.3125 13.7707 18.1664 13.555 17.9702 13.3913L16.3077 12.0063C15.9939 11.7438 15.5802 11.6325 15.1764 11.7L13.7139 11.9438C13.4933 11.9805 13.267 11.9641 13.0539 11.8958C12.8409 11.8275 12.6472 11.7094 12.4889 11.5513L12.1202 11.1825C11.9896 11.0519 11.886 10.8969 11.8154 10.7263C11.7447 10.5557 11.7083 10.3728 11.7083 10.1881C11.7083 10.0035 11.7447 9.8206 11.8154 9.64999C11.886 9.47937 11.9896 9.32435 12.1202 9.19376L12.2827 9.02876C12.4916 8.81984 12.7611 8.68203 13.0528 8.63491C13.3445 8.58779 13.6436 8.63375 13.9077 8.76626L14.6614 9.14376C14.8514 9.23914 15.0665 9.27224 15.2764 9.23837C15.4862 9.20451 15.68 9.10539 15.8303 8.9551C15.9806 8.80482 16.0797 8.611 16.1136 8.40118C16.1474 8.19136 16.1143 7.9762 16.0189 7.78626L15.8127 7.37501L17.3827 6.32876C18.1969 5.78556 18.8552 5.03931 19.2927 4.16376L19.4752 3.79876M5.64395 4.48751C3.87159 6.01913 2.62153 8.06578 2.06817 10.3419C1.51481 12.6181 1.68575 15.0102 2.55714 17.1845C3.42854 19.3589 4.95692 21.207 6.92905 22.471C8.90119 23.7351 11.2187 24.352 13.5583 24.2357C15.8978 24.1194 18.1427 23.2757 19.9798 21.8223C21.8169 20.3689 23.1544 18.3784 23.8059 16.1283C24.4574 13.8783 24.3903 11.481 23.6139 9.27097C22.8376 7.06092 21.3907 5.14707 19.4752 3.79876M5.64395 4.48751C7.68583 2.71803 10.2983 1.74585 13.0002 1.75001C15.4114 1.75001 17.6452 2.50751 19.4752 3.79876" stroke="currentColor" stroke-width="1.875" stroke-linecap="round" stroke-linejoin="round"/>
</svg>
