<svg width="10" height="10" viewBox="0 0 10 10" fill="none" xmlns="http://www.w3.org/2000/svg">
<path fill-rule="evenodd" clip-rule="evenodd" d="M0.125 5C0.125 2.30761 2.30761 0.125 5 0.125C7.69239 0.125 9.875 2.30761 9.875 5C9.875 7.69239 7.69239 9.875 5 9.875C2.30761 9.875 0.125 7.69239 0.125 5ZM5 3.125C5.20711 3.125 5.375 3.29289 5.375 3.5V5.375C5.375 5.58211 5.20711 5.75 5 5.75C4.79289 5.75 4.625 5.58211 4.625 5.375V3.5C4.625 3.29289 4.79289 3.125 5 3.125ZM5 7.25C5.20711 7.25 5.375 7.08211 5.375 6.875C5.375 6.66789 5.20711 6.5 5 6.5C4.79289 6.5 4.625 6.66789 4.625 6.875C4.625 7.08211 4.79289 7.25 5 7.25Z" fill="currentColor"/>
</svg>
