<svg width="19" height="14" viewBox="0 0 19 14" fill="none" xmlns="http://www.w3.org/2000/svg">
<path fill-rule="evenodd" clip-rule="evenodd" d="M9.39059 1.25004C10.4014 1.25004 11.4031 1.28838 12.3948 1.36254C13.0443 1.41001 13.6551 1.68953 14.1156 2.15004C14.5761 2.61055 14.8556 3.22134 14.9031 3.87088C14.9398 4.35671 14.9673 4.84588 14.9864 5.33671L13.5823 3.93338C13.525 3.87197 13.456 3.82272 13.3794 3.78856C13.3027 3.7544 13.2199 3.73603 13.136 3.73455C13.0521 3.73307 12.9687 3.74851 12.8909 3.77994C12.8131 3.81137 12.7424 3.85816 12.6831 3.91751C12.6237 3.97686 12.5769 4.04755 12.5455 4.12538C12.5141 4.2032 12.4986 4.28656 12.5001 4.37048C12.5016 4.4544 12.5199 4.53716 12.5541 4.61382C12.5883 4.69049 12.6375 4.75949 12.6989 4.81671L15.1989 7.31671C15.3161 7.43375 15.475 7.49949 15.6406 7.49949C15.8062 7.49949 15.9651 7.43375 16.0823 7.31671L18.5823 4.81671C18.6927 4.69823 18.7528 4.54152 18.7499 4.37961C18.747 4.21769 18.6815 4.0632 18.5669 3.94869C18.4524 3.83418 18.2979 3.76859 18.136 3.76573C17.9741 3.76287 17.8174 3.82298 17.6989 3.93338L16.2389 5.39254C16.2198 4.85087 16.1889 4.31254 16.1489 3.77671C16.0788 2.82926 15.6707 1.93851 14.9989 1.26673C14.3271 0.59495 13.4364 0.186829 12.4889 0.116709C10.4263 -0.0389029 8.35488 -0.0389029 6.29226 0.116709C5.3448 0.186829 4.45406 0.59495 3.78228 1.26673C3.1105 1.93851 2.70238 2.82926 2.63226 3.77671C2.61809 3.96337 2.60476 4.14921 2.59392 4.33671C2.58757 4.41935 2.59772 4.50242 2.62378 4.5811C2.64984 4.65978 2.69129 4.73249 2.74571 4.79499C2.80014 4.8575 2.86645 4.90856 2.94079 4.9452C3.01514 4.98184 3.09602 5.00333 3.17875 5.00841C3.26147 5.0135 3.34438 5.00208 3.42265 4.97482C3.50092 4.94756 3.57299 4.905 3.63466 4.84963C3.69633 4.79425 3.74637 4.72716 3.78186 4.65227C3.81736 4.57737 3.83761 4.49617 3.84142 4.41337C3.85226 4.23254 3.86476 4.05171 3.87809 3.87088C3.92556 3.22134 4.20508 2.61055 4.66559 2.15004C5.1261 1.68953 5.73689 1.41001 6.38642 1.36254C7.37809 1.28754 8.37976 1.25004 9.39059 1.25004ZM3.58226 6.43338C3.46507 6.31633 3.30622 6.25059 3.14059 6.25059C2.97496 6.25059 2.81611 6.31633 2.69892 6.43338L0.198924 8.93338C0.137518 8.99059 0.088266 9.05959 0.0541061 9.13626C0.0199461 9.21293 0.00157792 9.29569 9.72676e-05 9.37961C-0.00138339 9.46353 0.0140538 9.54688 0.045488 9.62471C0.0769222 9.70253 0.123709 9.77322 0.183058 9.83257C0.242407 9.89192 0.313102 9.93871 0.390926 9.97014C0.468749 10.0016 0.552107 10.017 0.636026 10.0155C0.719945 10.0141 0.802706 9.99569 0.879372 9.96153C0.956038 9.92737 1.02504 9.87811 1.08226 9.81671L2.54226 8.35754C2.56142 8.89921 2.59226 9.43754 2.63226 9.97338C2.70238 10.9208 3.1105 11.8116 3.78228 12.4834C4.45406 13.1551 5.3448 13.5633 6.29226 13.6334C8.35488 13.789 10.4263 13.789 12.4889 13.6334C13.4364 13.5633 14.3271 13.1551 14.9989 12.4834C15.6707 11.8116 16.0788 10.9208 16.1489 9.97338C16.1631 9.78754 16.1756 9.60087 16.1873 9.41337C16.1948 9.24944 16.1376 9.08912 16.028 8.96702C15.9183 8.84492 15.7651 8.77083 15.6013 8.76077C15.4375 8.7507 15.2763 8.80546 15.1525 8.91322C15.0287 9.02098 14.9523 9.17309 14.9398 9.33671C14.9289 9.51754 14.9164 9.69837 14.9031 9.87921C14.8556 10.5287 14.5761 11.1395 14.1156 11.6C13.6551 12.0606 13.0443 12.3401 12.3948 12.3875C10.3948 12.5383 8.38636 12.5383 6.38642 12.3875C5.73689 12.3401 5.1261 12.0606 4.66559 11.6C4.20508 11.1395 3.92556 10.5287 3.87809 9.87921C3.8413 9.39115 3.81352 8.90246 3.79476 8.41337L5.19892 9.81671C5.3174 9.92711 5.47411 9.98721 5.63603 9.98435C5.79794 9.9815 5.95243 9.9159 6.06694 9.80139C6.18145 9.68688 6.24705 9.53239 6.2499 9.37048C6.25276 9.20856 6.19266 9.05185 6.08226 8.93338L3.58226 6.43338Z" fill="#888891"/>
</svg>
