<svg width="17" height="16" viewBox="0 0 17 16" fill="none" xmlns="http://www.w3.org/2000/svg">
<path d="M5.33398 3.99655C4.80355 3.99655 4.29484 4.20727 3.91977 4.58234C3.5447 4.95741 3.33398 5.46612 3.33398 5.99655M1.33398 5.99655C1.3339 6.57996 1.46143 7.15633 1.70764 7.68524C1.95385 8.21415 2.31279 8.6828 2.75927 9.05833C3.20575 9.43386 3.72897 9.70718 4.29224 9.85912C4.85552 10.0111 5.44522 10.0379 6.01998 9.93789C6.39532 9.87322 6.79265 9.95522 7.06198 10.2246L8.83398 11.9966H10.334V13.4966H11.834V14.9966H14.334V13.1179C14.334 12.7199 14.176 12.3379 13.8947 12.0572L9.56198 7.72455C9.29265 7.45522 9.21065 7.05789 9.27532 6.68255C9.36985 6.13667 9.34996 5.57709 9.2169 5.03929C9.08384 4.50149 8.84051 3.9972 8.50233 3.55837C8.16416 3.11954 7.73851 2.75575 7.25237 2.49005C6.76623 2.22434 6.23019 2.06252 5.67823 2.01484C5.12628 1.96716 4.57043 2.03466 4.04592 2.21306C3.52142 2.39146 3.03969 2.67687 2.63127 3.05121C2.22286 3.42554 1.89665 3.88064 1.67334 4.38765C1.45002 4.89467 1.33446 5.44254 1.33398 5.99655Z" stroke="currentColor" stroke-linecap="round" stroke-linejoin="round"/>
<path d="M16.5 1.16663V4.16663M16.5 1.16663H13.5M16.5 1.16663L12.5 5.16663" stroke="currentColor" stroke-linecap="round" stroke-linejoin="round"/>
</svg>
