<svg width="16" height="16" viewBox="0 0 16 16" fill="none" xmlns="http://www.w3.org/2000/svg"><path fill-rule="evenodd" clip-rule="evenodd" d="M15 8C15 9.53527 14.6867 10.8758 14.2269 11.7954C13.77 12.7092 13.3116 12.9664 13.0527 12.9968L12.6636 12.8953C12.4116 12.7511 12.092 12.4331 11.7731 11.7954C11.3133 10.8758 11 9.53527 11 8C11 6.46473 11.3133 5.12424 11.7731 4.20457C12.0924 3.56607 12.4124 3.24815 12.6645 3.10417L13.0519 3.00311C13.3107 3.0331 13.7696 3.28991 14.2269 4.20457C14.6867 5.12424 15 6.46473 15 8ZM12.2928 2.16768L1.41963 5.00415C0.628571 5.08768 0 6.39699 0 7.99992C0 9.60346 0.629045 10.9131 1.42053 10.9958L2.50023 11.2774V12.9998C2.50023 13.8283 3.17181 14.4998 4.00023 14.4998C4.82866 14.4998 5.50023 13.8283 5.50023 12.9998V12.0601L12.2914 13.8317C12.5186 13.9417 12.7559 14 13 14C14.6569 14 16 11.3137 16 8C16 4.68629 14.6569 2 13 2C12.7564 2 12.5196 2.05808 12.2928 2.16768ZM10.9931 3.5402L2.49607 5.75681C2.80523 6.30634 3 7.10764 3 7.99992C3 8.89214 2.80525 9.69339 2.49614 10.2429L10.9929 12.4595C10.3833 11.3612 10 9.77013 10 8C10 6.22968 10.3834 4.63843 10.9931 3.5402ZM2 7.99992C2 8.70677 1.85462 9.29725 1.66623 9.67403C1.59961 9.80728 1.54246 9.88955 1.5 9.93955C1.45754 9.88955 1.40039 9.80728 1.33377 9.67403C1.14538 9.29725 1 8.70677 1 7.99992C1 7.29308 1.14538 6.70259 1.33377 6.32582C1.40039 6.19256 1.45754 6.11029 1.5 6.06029C1.54246 6.11029 1.59961 6.19256 1.66623 6.32582C1.85462 6.70259 2 7.29308 2 7.99992ZM1.41964 10.0124C1.41962 10.0124 1.42071 10.0118 1.42296 10.0109C1.42079 10.0121 1.41966 10.0125 1.41964 10.0124ZM1.57704 10.0109C1.57929 10.0118 1.58038 10.0124 1.58036 10.0124C1.58033 10.0125 1.57921 10.0121 1.57704 10.0109ZM1.58036 5.9874C1.58038 5.98747 1.57929 5.98808 1.57704 5.98899C1.57921 5.98778 1.58034 5.98732 1.58036 5.9874ZM1.42296 5.98899C1.42071 5.98808 1.41962 5.98747 1.41964 5.9874C1.41966 5.98732 1.42079 5.98778 1.42296 5.98899ZM3.50023 12.9998V11.5383L4.50023 11.7992V12.9998C4.50023 13.276 4.27638 13.4998 4.00023 13.4998C3.72409 13.4998 3.50023 13.276 3.50023 12.9998Z" fill="currentColor"/></svg>
