<svg width="14" height="15" viewBox="0 0 14 15" fill="none" xmlns="http://www.w3.org/2000/svg">
<path d="M6.9999 3.1251C6.9999 2.3519 6.3731 1.7251 5.5999 1.7251C4.8267 1.7251 4.1999 2.3519 4.1999 3.1251C4.1999 3.8983 4.8267 4.5251 5.5999 4.5251C6.3731 4.5251 6.9999 3.8983 6.9999 3.1251Z" fill="currentColor"/>
<path d="M12.0749 3.6501C12.3649 3.6501 12.5999 3.41505 12.5999 3.1251C12.5999 2.83515 12.3649 2.6001 12.0749 2.6001L8.2249 2.6001C7.93495 2.6001 7.6999 2.83515 7.6999 3.1251C7.6999 3.41505 7.93495 3.6501 8.2249 3.6501L12.0749 3.6501Z" fill="currentColor"/>
<path d="M3.4999 3.1251C3.4999 3.41505 3.26485 3.6501 2.9749 3.6501H1.9249C1.63495 3.6501 1.3999 3.41505 1.3999 3.1251C1.3999 2.83515 1.63495 2.6001 1.9249 2.6001L2.9749 2.6001C3.26485 2.6001 3.4999 2.83515 3.4999 3.1251Z" fill="currentColor"/>
<path d="M2.9749 12.4001C3.26485 12.4001 3.4999 12.165 3.4999 11.8751C3.4999 11.5851 3.26485 11.3501 2.9749 11.3501H1.9249C1.63495 11.3501 1.3999 11.5851 1.3999 11.8751C1.3999 12.165 1.63495 12.4001 1.9249 12.4001H2.9749Z" fill="currentColor"/>
<path d="M12.0749 12.4001C12.3649 12.4001 12.5999 12.165 12.5999 11.8751C12.5999 11.5851 12.3649 11.3501 12.0749 11.3501H8.2249C7.93495 11.3501 7.6999 11.5851 7.6999 11.8751C7.6999 12.165 7.93495 12.4001 8.2249 12.4001H12.0749Z" fill="currentColor"/>
<path d="M6.2999 7.5001C6.2999 7.79005 6.06485 8.0251 5.7749 8.0251H1.9249C1.63495 8.0251 1.3999 7.79005 1.3999 7.5001C1.3999 7.21015 1.63495 6.9751 1.9249 6.9751L5.7749 6.9751C6.06485 6.9751 6.2999 7.21015 6.2999 7.5001Z" fill="currentColor"/>
<path d="M12.0749 8.0251C12.3649 8.0251 12.5999 7.79005 12.5999 7.5001C12.5999 7.21015 12.3649 6.9751 12.0749 6.9751H11.0249C10.735 6.9751 10.4999 7.21015 10.4999 7.5001C10.4999 7.79005 10.735 8.0251 11.0249 8.0251H12.0749Z" fill="currentColor"/>
<path d="M9.7999 7.5001C9.7999 6.7269 9.1731 6.1001 8.3999 6.1001C7.6267 6.1001 6.9999 6.7269 6.9999 7.5001C6.9999 8.2733 7.6267 8.9001 8.3999 8.9001C9.1731 8.9001 9.7999 8.2733 9.7999 7.5001Z" fill="currentColor"/>
<path d="M6.9999 11.8751C6.9999 11.1019 6.3731 10.4751 5.5999 10.4751C4.8267 10.4751 4.1999 11.1019 4.1999 11.8751C4.1999 12.6483 4.8267 13.2751 5.5999 13.2751C6.3731 13.2751 6.9999 12.6483 6.9999 11.8751Z" fill="currentColor"/>
</svg>
