<svg width="26" height="20" viewBox="0 0 26 20" fill="none" xmlns="http://www.w3.org/2000/svg">
<rect x="1.14404" y="1" width="24" height="18" rx="2" stroke="currentColor" stroke-width="1.5"/>
<path d="M24.144 8.90909H23.6472C22.7739 8.90909 22.0226 9.52711 21.8543 10.3841L21.7255 11.0397C21.4871 12.2537 19.9617 12.6699 19.1397 11.7451V11.7451C18.3193 10.8222 16.7971 11.2347 16.5549 12.4456L16.5222 12.609C16.3267 13.5868 15.2849 14.1407 14.3649 13.756L14.2782 13.7197C13.8739 13.5506 13.5583 13.2207 13.4074 12.8092V12.8092C12.8735 11.353 10.7779 11.4647 10.4017 12.9693L10.3624 13.1266C9.98018 14.6555 7.86368 14.7991 7.27842 13.3359L6.62462 11.7014C6.32811 10.9602 5.65225 10.4385 4.86004 10.3395L2.14404 10" stroke="currentColor" stroke-width="1.5" stroke-linecap="round"/>
<path opacity="0.5" d="M24.144 8.5H2.14404" stroke="currentColor" stroke-width="1.5" stroke-linecap="round" stroke-dasharray="3 3"/>
</svg>
