<svg width="20" height="20" viewBox="0 0 20 20" fill="none" xmlns="http://www.w3.org/2000/svg">
  <path d="M11.983 1.90702C12.0175 1.74537 11.9976 1.57686 11.9264 1.42768C11.8552 1.2785 11.7368 1.157 11.5894 1.08208C11.4421 1.00716 11.2741 0.98301 11.1117 1.01338C10.9492 1.04375 10.8013 1.12694 10.691 1.25002L2.19098 10.75C2.09446 10.8579 2.03124 10.9915 2.00895 11.1345C1.98665 11.2776 2.00624 11.424 2.06534 11.5562C2.12445 11.6884 2.22054 11.8006 2.34203 11.8794C2.46352 11.9581 2.6052 12 2.74998 12H9.32198L8.01698 18.093C7.98251 18.2547 8.00241 18.4232 8.07358 18.5724C8.14475 18.7216 8.2632 18.843 8.41054 18.918C8.55787 18.9929 8.72582 19.017 8.8883 18.9867C9.05077 18.9563 9.19866 18.8731 9.30898 18.75L17.809 9.25002C17.9055 9.14211 17.9687 9.00857 17.991 8.86551C18.0133 8.72246 17.9937 8.57601 17.9346 8.44385C17.8755 8.31168 17.7794 8.19945 17.6579 8.12069C17.5364 8.04194 17.3948 8.00003 17.25 8.00002H10.678L11.983 1.90702Z" fill="currentColor"></path>
</svg>