<svg xmlns="http://www.w3.org/2000/svg" width="71" height="20" viewBox="0 0 71 20" fill="none"><script xmlns="" id="argent-x-extension" data-extension-id="dlcobpjiigpikoobohmabehhmhfoodbb"/>
<g clip-path="url(#clip0_379_4155)">
<path d="M6.44336 1.38867L14.1683 5.49976V14.4997L6.44336 18.6108V1.38867Z" fill="currentColor"/>
<path d="M7.27604 2.775L13.3344 6V13.9972L7.27604 17.2222V2.775ZM5.60938 0V20L15.001 15V5L5.60938 0Z" fill="currentColor"/>
<path d="M2.80664 0V20L4.20942 19.2528V0.747222L2.80664 0Z" fill="currentColor"/>
<path d="M0 0V20L1.40278 19.2528V0.747222L0 0Z" fill="currentColor"/>
</g>
<path d="M70.3215 15.0024H64.8613V13.6339L68.2277 9.63802H64.8613V8.24219H70.3215V9.62433L66.9003 13.6066H70.3215V15.0024Z" fill="currentColor"/>
<path d="M57.34 18.1381V16.7423H58.339C58.9958 16.7423 59.4064 16.5917 59.6938 15.798L59.8853 15.2917L57.1621 8.24414H58.9274L60.6654 13.1706L62.4991 8.24414H64.2234L60.9117 16.5096C60.4054 17.7686 59.6938 18.2886 58.5853 18.2886C58.12 18.2886 57.7095 18.2339 57.34 18.1381Z" fill="currentColor"/>
<path d="M51.6834 15.0024H49.7812L52.1076 11.6907L49.7812 8.24219H51.7245L53.2161 10.5412L54.653 8.24219H56.5278L54.2287 11.6633L56.4593 15.0024H54.5435L53.1066 12.7718L51.6834 15.0024Z" fill="currentColor"/>
<path d="M47.3721 15.168C46.77 15.168 46.2637 14.6754 46.2637 14.087C46.2637 13.4848 46.77 12.9922 47.3721 12.9922C47.9742 12.9922 48.4806 13.4848 48.4806 14.087C48.4806 14.6754 47.9742 15.168 47.3721 15.168Z" fill="currentColor"/>
<path d="M39.9566 15.0026H38.2871V8.24238H39.8335L39.9703 9.11819C40.3945 8.43396 41.2156 8.03711 42.1325 8.03711C43.8294 8.03711 44.7052 9.09082 44.7052 10.8425V15.0026H43.0357V11.2393C43.0357 10.1035 42.4746 9.5561 41.6125 9.5561C40.5861 9.5561 39.9566 10.2677 39.9566 11.3625V15.0026Z" fill="currentColor"/>
<path d="M35.0571 8.24414H36.7266V15.0043H35.1802L35.0571 14.1012C34.6465 14.7443 33.7707 15.1822 32.8675 15.1822C31.3075 15.1822 30.3906 14.1285 30.3906 12.4727V8.24414H32.0601V11.8842C32.0601 13.1706 32.5665 13.6906 33.497 13.6906C34.5507 13.6906 35.0571 13.0748 35.0571 11.7885V8.24414Z" fill="currentColor"/>
<path d="M28.7258 10.9117H25.0036V15.0034H23.252V5H29.4374V6.61478H25.0036V9.33802H28.7258V10.9117Z" fill="currentColor"/>
<defs>
<clipPath id="clip0_379_4155">
<rect width="15" height="20" fill="currentColor"/>
</clipPath>
</defs>
</svg>
