<svg width="16" height="17" viewBox="0 0 16 17" fill="none" xmlns="http://www.w3.org/2000/svg"><path fill-rule="evenodd" clip-rule="evenodd" d="M7.661 0.23698C7.75629 0.157943 7.8762 0.114685 8 0.114685C8.1238 0.114685 8.24371 0.157943 8.339 0.23698C10.3366 1.89864 12.8215 2.86373 15.417 2.98598C15.534 2.98958 15.6459 3.03408 15.7335 3.11174C15.821 3.18939 15.8785 3.29529 15.896 3.41098C15.965 3.93098 16 4.46098 16 5.00098C16 10.163 12.74 14.564 8.166 16.257C8.05886 16.2965 7.94114 16.2965 7.834 16.257C3.26 14.564 0 10.163 0 4.99998C0 4.46198 0.0350001 3.93098 0.104 3.41098C0.121528 3.29512 0.17919 3.1891 0.266919 3.11142C0.354649 3.03375 0.466873 2.98935 0.584 2.98598C3.17927 2.86323 5.66379 1.89879 7.661 0.23698ZM11.857 6.19098C11.974 6.02999 12.0222 5.82914 11.991 5.6326C11.9599 5.43606 11.852 5.25994 11.691 5.14298C11.53 5.02602 11.3292 4.9778 11.1326 5.00893C10.9361 5.04006 10.76 5.14799 10.643 5.30898L7.16 10.099L5.28 8.21898C5.21078 8.14738 5.128 8.09028 5.03647 8.05102C4.94495 8.01176 4.84653 7.99112 4.74694 7.9903C4.64736 7.98948 4.54861 8.0085 4.45646 8.04626C4.3643 8.08401 4.28059 8.13974 4.2102 8.21019C4.13982 8.28064 4.08417 8.36441 4.0465 8.4566C4.00883 8.54879 3.9899 8.64756 3.99081 8.74714C3.99173 8.84672 4.01246 8.94513 4.05181 9.03661C4.09116 9.1281 4.14834 9.21083 4.22 9.27998L6.72 11.78C6.79663 11.8567 6.88896 11.9158 6.99065 11.9534C7.09233 11.9909 7.20094 12.006 7.30901 11.9975C7.41708 11.9891 7.52203 11.9573 7.61663 11.9044C7.71123 11.8514 7.79324 11.7786 7.857 11.691L11.857 6.19098Z" fill="currentColor"></path></svg>