<svg width="16" height="16" viewBox="0 0 16 16" fill="none" xmlns="http://www.w3.org/2000/svg">
<path d="M2 14.6665H10" stroke="#888891" stroke-width="1.2" stroke-linecap="round" stroke-linejoin="round"/>
<path d="M2.66675 6H9.33341" stroke="#888891" stroke-width="1.2" stroke-linecap="round" stroke-linejoin="round"/>
<path d="M9.33341 14.6668V2.66683C9.33341 2.31321 9.19294 1.97407 8.94289 1.72402C8.69284 1.47397 8.3537 1.3335 8.00008 1.3335H4.00008C3.64646 1.3335 3.30732 1.47397 3.05727 1.72402C2.80722 1.97407 2.66675 2.31321 2.66675 2.66683V14.6668" stroke="#888891" stroke-width="1.2" stroke-linecap="round" stroke-linejoin="round"/>
<path d="M9.33325 8.66683H10.6666C11.0202 8.66683 11.3593 8.80731 11.6094 9.05735C11.8594 9.3074 11.9999 9.64654 11.9999 10.0002V11.3335C11.9999 11.6871 12.1404 12.0263 12.3904 12.2763C12.6405 12.5264 12.9796 12.6668 13.3333 12.6668C13.6869 12.6668 14.026 12.5264 14.2761 12.2763C14.5261 12.0263 14.6666 11.6871 14.6666 11.3335V6.5535C14.6667 6.37755 14.632 6.20333 14.5645 6.04085C14.497 5.87838 14.398 5.73087 14.2733 5.60683L11.9999 3.3335" stroke="#888891" stroke-width="1.2" stroke-linecap="round" stroke-linejoin="round"/>
</svg>
