<svg width="20" height="20" viewBox="0 0 20 20" fill="none" xmlns="http://www.w3.org/2000/svg">
<g clip-path="url(#clip0_15590_26035)">
<path d="M9.04499 20H10.955C11.6429 20 12.1552 19.5899 12.3161 18.9162L12.7333 17.1146L13.1284 16.9755L14.6944 17.9422C15.2799 18.3157 15.9385 18.2351 16.4288 17.7445L17.746 16.4189C18.2437 15.9283 18.3315 15.2692 17.9583 14.6906L16.9776 13.1234L17.1167 12.7427L18.9169 12.3251C19.5828 12.1641 20 11.6441 20 10.9557V9.08094C20 8.39987 19.5902 7.87991 18.9169 7.7188L17.1314 7.28672L16.985 6.89126L17.9656 5.33139C18.3388 4.74552 18.251 4.10107 17.7533 3.59576L16.4361 2.27024C15.9531 1.78689 15.2945 1.69901 14.7091 2.06518L13.143 3.03187L12.7333 2.87807L12.3161 1.08385C12.1552 0.402784 11.6429 0 10.955 0H9.04499C8.35711 0 7.84484 0.402784 7.68385 1.08385L7.26673 2.87807L6.8496 3.03187L5.29088 2.06518C4.70545 1.69901 4.04683 1.78689 3.56385 2.27024L2.23929 3.59576C1.74899 4.10107 1.66118 4.74552 2.0344 5.33139L3.015 6.89126L2.86132 7.28672L1.08306 7.7188C0.409805 7.87991 0 8.39987 0 9.08094V10.9557C0 11.6441 0.417123 12.1641 1.08306 12.3251L2.87595 12.7427L3.02231 13.1234L2.04171 14.6906C1.66849 15.2692 1.75631 15.9283 2.24661 16.4189L3.57116 17.7445C4.06147 18.2351 4.72008 18.3157 5.30551 17.9422L6.86423 16.9755L7.26673 17.1146L7.68385 18.9162C7.84484 19.5899 8.35711 20 9.04499 20ZM9.17672 18.7404C8.97913 18.7404 8.86936 18.6452 8.83277 18.4621L8.28392 16.148C7.74239 16.0015 7.23014 15.7965 6.83497 15.5621L4.81521 16.8217C4.66153 16.9242 4.50786 16.9022 4.3615 16.7558L3.22721 15.6207C3.08086 15.4815 3.07354 15.3424 3.17599 15.174L4.42736 13.1527C4.22977 12.7719 4.00292 12.2592 3.85656 11.7173L1.53677 11.1754C1.35382 11.1388 1.25869 11.0289 1.25869 10.8239V9.20543C1.25869 9.00038 1.3465 8.89786 1.53677 8.85391L3.84925 8.30467C3.9956 7.74077 4.25173 7.21349 4.41273 6.86197L3.16867 4.84805C3.0589 4.67229 3.06622 4.52582 3.21258 4.38668L4.35418 3.25888C4.50054 3.11974 4.63958 3.09777 4.81521 3.2003L6.82033 4.43795C7.2155 4.22556 7.75703 3.99854 8.29124 3.85208L8.83277 1.5379C8.86936 1.34749 8.97913 1.25961 9.17672 1.25961H10.8233C11.0281 1.25961 11.1306 1.34017 11.1672 1.5379L11.716 3.86672C12.2722 4.00587 12.7625 4.23288 13.165 4.44527L15.1774 3.2003C15.3603 3.09777 15.4921 3.11974 15.6458 3.25888L16.7874 4.38668C16.9264 4.52582 16.9337 4.67229 16.8239 4.84805L15.5799 6.86197C15.7555 7.21349 16.0043 7.73345 16.1507 8.30467L18.4632 8.85391C18.6535 8.89786 18.7413 9.00038 18.7413 9.20543V10.8239C18.7413 11.0289 18.6461 11.1388 18.4632 11.1754L16.1434 11.7173C15.997 12.2592 15.7776 12.7719 15.5653 13.1527L16.8166 15.174C16.9191 15.3424 16.9118 15.4815 16.7727 15.6207L15.6385 16.7558C15.4847 16.9022 15.3384 16.9242 15.1774 16.8217L13.1577 15.5621C12.7698 15.7965 12.2649 16.0015 11.716 16.148L11.1672 18.4621C11.1306 18.6525 11.0281 18.7404 10.8233 18.7404H9.17672ZM10.0037 13.6067C11.9795 13.6067 13.604 11.9809 13.604 9.99639C13.604 8.02638 11.9795 6.40059 10.0037 6.40059C8.02779 6.40059 6.38857 8.02638 6.38857 9.99639C6.38857 11.9736 8.02048 13.6067 10.0037 13.6067ZM10.0037 12.3545C8.71568 12.3545 7.65458 11.2926 7.65458 9.99639C7.65458 8.7221 8.723 7.65289 10.0037 7.65289C11.277 7.65289 12.3381 8.7221 12.3381 9.99639C12.3381 11.2853 11.277 12.3545 10.0037 12.3545Z" fill="currentColor"/>
</g>
<defs>
<clipPath id="clip0_15590_26035">
<rect width="20" height="20" fill="white"/>
</clipPath>
</defs>
</svg>
