<svg width="16" height="16" viewBox="0 0 16 16" fill="none" xmlns="http://www.w3.org/2000/svg">
  <path fill-rule="evenodd" clip-rule="evenodd" d="M2.98083 12.9826C2.41272 13.2911 1.68993 13.0863 1.36776 12.5275L0.759291 11.4721C0.436526 10.9122 0.620013 10.1856 1.1752 9.84545L1.55868 9.61048C1.7994 9.46299 1.99441 9.11427 1.99426 8.83155L1.99336 7.16756C1.99321 6.88486 1.79835 6.53637 1.55722 6.38862L1.17373 6.15365C0.621247 5.81513 0.435901 5.08599 0.758416 4.52738L1.36754 3.47235C1.69065 2.91271 2.41137 2.70816 2.98358 3.01889L3.37882 3.23351C3.62692 3.36824 4.02656 3.36298 4.27147 3.22176L5.71299 2.39053C5.95788 2.24932 6.16238 1.90653 6.16977 1.62385L6.18152 1.17426C6.19844 0.526553 6.73722 0.00115865 7.38226 0.000757669L8.60051 2.31805e-07C9.24674 -0.000401478 9.78426 0.521358 9.80119 1.1694L9.81302 1.62228C9.8204 1.90461 10.0249 2.24808 10.2698 2.38946L11.7111 3.22163C11.956 3.363 12.3553 3.36858 12.6039 3.23358L13.002 3.01739C13.5701 2.70889 14.2929 2.91369 14.6151 3.47251L15.2235 4.52792C15.5463 5.08777 15.3628 5.81437 14.8076 6.15455L14.4241 6.38952C14.1834 6.53701 13.9884 6.88573 13.9886 7.16845L13.9895 8.83244C13.9896 9.11514 14.1845 9.46364 14.4256 9.61138L14.8091 9.84636C15.3616 10.1849 15.5469 10.914 15.2244 11.4726L14.6153 12.5277C14.2922 13.0873 13.5715 13.2918 12.9992 12.9811L12.604 12.7665C12.3559 12.6318 11.9563 12.637 11.7114 12.7782L10.2698 13.6095C10.0249 13.7507 9.82045 14.0935 9.81306 14.3762L9.80132 14.8257C9.78439 15.4734 9.24561 15.9988 8.60057 15.9992L7.38232 16C6.73609 16.0004 6.19858 15.4786 6.18164 14.8306L6.16981 14.3777C6.16243 14.0954 5.95796 13.7519 5.71307 13.6105L4.27172 12.7784C4.02685 12.637 3.62756 12.6314 3.37895 12.7664L2.98083 12.9826ZM6.23556 11.0412C7.91519 12.011 10.0629 11.4355 11.0326 9.75585C12.0024 8.07623 11.4269 5.92851 9.74727 4.95878C8.06765 3.98905 5.91992 4.56453 4.95019 6.24415C3.98046 7.92377 4.55594 10.0715 6.23556 11.0412Z" fill="currentColor"/>
</svg>
