<svg width="25" height="25" viewBox="0 0 25 25" fill="none" xmlns="http://www.w3.org/2000/svg">
<g clip-path="url(#clip0_10710_113044)">
<path d="M23.75 6.25H20.25C20.875 5.625 21.25 4.75 21.25 3.75C21.25 1.625 19.625 0 17.5 0C16.25 0 14 1.125 12.5 2.625C11 1.125 8.75 0 7.5 0C5.375 0 3.75 1.625 3.75 3.75C3.75 4.75 4.125 5.625 4.75 6.25H1.25C0.5 6.25 0 6.75 0 7.5V11C0 11.125 0.125 11.25 0.25 11.25H10.75C11 11.25 11.25 11 11.25 10.75V6.75C11.25 6.5 11.5 6.25 11.75 6.25H13.25C13.5 6.25 13.75 6.5 13.75 6.75V10.75C13.75 11 14 11.25 14.25 11.25H24.75C24.875 11.25 25 11.125 25 11V7.5C25 6.75 24.5 6.25 23.75 6.25ZM7.5 5C6.75 5 6.25 4.5 6.25 3.75C6.25 3 6.75 2.5 7.5 2.5C8.25 2.5 10.5 4 11.125 4.75C10.75 4.875 7.5 5 7.5 5ZM17.5 5C17.5 5 14.25 4.875 13.875 4.75C14.625 3.875 16.75 2.5 17.5 2.5C18.25 2.5 18.75 3 18.75 3.75C18.75 4.5 18.25 5 17.5 5Z" fill="currentColor"/>
<path d="M10.7497 13.7502H1.49976C1.37476 13.7502 1.24976 13.8752 1.24976 14.0002V23.7502C1.24976 24.5002 1.74975 25.0002 2.49975 25.0002H10.7497C10.9997 25.0002 11.2497 24.7502 11.2497 24.5002V14.2502C11.2497 14.0002 10.9997 13.7502 10.7497 13.7502Z" fill="currentColor"/>
<path d="M23.4999 13.7502H14.2498C13.9998 13.7502 13.7498 14.0002 13.7498 14.2502V24.5002C13.7498 24.7502 13.9998 25.0002 14.2498 25.0002H22.4999C23.2499 25.0002 23.7499 24.5002 23.7499 23.7502V14.0002C23.7499 13.8752 23.6249 13.7502 23.4999 13.7502Z" fill="currentColor"/>
</g>
<defs>
<clipPath id="clip0_10710_113044">
<rect width="25" height="25" fill="currentColor"/>
</clipPath>
</defs>
</svg>
