<svg width="16" height="16" viewBox="0 0 16 16" fill="none" xmlns="http://www.w3.org/2000/svg"><rect x="0.5" y="0.5" width="15" height="15" rx="7.5" stroke="currentColor"></rect><path d="M8.05814 12C8.52326 12 8.81395 11.6643 8.81395 11.2727C8.81395 10.8811 8.52326 10.5455 8.05814 10.5455C7.59302 10.5455 7.30233 10.8811 7.30233 11.2727C7.30233 11.6643 7.59302 12 8.05814 12ZM7.4186 9.09091C7.4186 9.36898 7.64403 9.59441 7.9221 9.59441H8.0779C8.35597 9.59441 8.5814 9.36898 8.5814 9.09091C8.5814 7.8042 10.5 7.86014 10.5 6.06993C10.5 4.78322 9.45349 4 8 4C6.88596 4 6.01403 4.54361 5.65318 5.53378C5.53189 5.86659 5.81281 6.18182 6.16703 6.18182C6.45355 6.18182 6.68586 5.9675 6.81593 5.71221C7.03159 5.28895 7.4344 5.00699 8 5.00699C8.81395 5.00699 9.27907 5.45455 9.27907 6.06993C9.27907 7.41259 7.4186 7.18881 7.4186 9.09091Z" fill="currentColor"></path></svg>
