<svg xmlns="http://www.w3.org/2000/svg" fill="none" viewBox="0 0 18 18"><path fill="currentColor" d="M9.599 0C6.284 0 3.435 2.02 2.264 4.894l-.466-.825a.69.69 0 1 0-1.206.667l1.263 2.261a.689.689 0 0 0 .919.273L5.02 6.12a.69.69 0 1 0-.624-1.227l-.825.424c.986-2.31 3.312-3.94 6.028-3.94 3.617 0 6.523 2.876 6.523 6.43s-2.906 6.43-6.523 6.43c-3.094 0-5.672-2.123-6.351-4.952a.69.69 0 0 0-1.342.323c.827 3.446 3.968 6.007 7.693 6.007 4.352 0 7.901-3.499 7.901-7.808C17.5 3.498 13.95 0 9.599 0Zm.086 3.43a.69.69 0 0 0-.682.704v3.674a.689.689 0 0 0 .258.538l2.297 1.837a.69.69 0 0 0 .861-1.076l-2.038-1.63V4.135a.69.69 0 0 0-.696-.704Z"/></svg>