<svg width="20" height="20" viewBox="0 0 20 20" fill="none" xmlns="http://www.w3.org/2000/svg">
<g clip-path="url(#clip0_15573_25119)">
<path d="M9.99617 19.9847C15.4702 19.9847 20 15.4584 20 9.99617C20 4.52628 15.4626 0 9.9885 0C4.52206 0 0 4.52628 0 9.99617C0 15.4584 4.52975 19.9847 9.99617 19.9847ZM9.99617 18.5577C5.25143 18.5577 1.4357 14.7372 1.4357 9.99617C1.4357 5.24741 5.24375 1.4346 9.9885 1.4346C14.7409 1.4346 18.5642 5.24741 18.5642 9.99617C18.5642 14.7372 14.7485 18.5577 9.99617 18.5577Z" fill="currentColor"/>
<path d="M8.23907 15.4897H12.2851C12.6383 15.4897 12.9147 15.2289 12.9147 14.8837C12.9147 14.5462 12.6383 14.2777 12.2851 14.2777H10.9339V8.91516C10.9339 8.47021 10.7035 8.16335 10.2736 8.16335H8.38494C8.03178 8.16335 7.75538 8.42418 7.75538 8.76174C7.75538 9.10696 8.03178 9.36779 8.38494 9.36779H9.59031V14.2777H8.23907C7.8859 14.2777 7.61719 14.5462 7.61719 14.8837C7.61719 15.2289 7.8859 15.4897 8.23907 15.4897ZM9.92816 6.41421C10.5807 6.41421 11.0874 5.89254 11.0874 5.25579C11.0874 4.6037 10.5807 4.08203 9.92816 4.08203C9.28321 4.08203 8.76882 4.6037 8.76882 5.25579C8.76882 5.89254 9.28321 6.41421 9.92816 6.41421Z" fill="currentColor"/>
</g>
<defs>
<clipPath id="clip0_15573_25119">
<rect width="20" height="20" fill="white"/>
</clipPath>
</defs>
</svg>
