<svg width="20" height="20" viewBox="0 0 20 20" fill="none" xmlns="http://www.w3.org/2000/svg">
<path d="M20 9.99617C20 15.4584 15.4702 19.9847 9.99617 19.9847C4.52975 19.9847 0 15.4584 0 9.99617C0 4.52628 4.52206 0 9.9885 0C15.4626 0 20 4.52628 20 9.99617ZM8.34548 8.12428C7.98463 8.12428 7.70056 8.40046 7.70056 8.74568C7.70056 9.10625 7.98463 9.37476 8.34548 9.37476H9.57388V14.3843H8.1996C7.83108 14.3843 7.55469 14.6605 7.55469 15.0057C7.55469 15.3663 7.83108 15.6348 8.1996 15.6348H12.3378C12.7063 15.6348 12.9904 15.3663 12.9904 15.0057C12.9904 14.6605 12.7063 14.3843 12.3378 14.3843H10.9635V8.90678C10.9635 8.44648 10.7255 8.12428 10.2802 8.12428H8.34548ZM8.72935 5.14001C8.72935 5.80744 9.2591 6.34446 9.92708 6.34446C10.5949 6.34446 11.1171 5.80744 11.1171 5.14001C11.1171 4.47257 10.5949 3.93555 9.92708 3.93555C9.2591 3.93555 8.72935 4.47257 8.72935 5.14001Z" fill="currentColor"/>
</svg>
