<svg width="13" height="14" viewBox="0 0 13 14" fill="none" xmlns="http://www.w3.org/2000/svg">
<path d="M0.0996094 2.60156C0.0996094 2.07113 0.310323 1.56242 0.685396 1.18735C1.06047 0.812276 1.56918 0.601563 2.09961 0.601562H10.8996C11.43 0.601563 11.9387 0.812276 12.3138 1.18735C12.6889 1.56242 12.8996 2.07113 12.8996 2.60156C12.8996 3.132 12.6889 3.6407 12.3138 4.01578C11.9387 4.39085 11.43 4.60156 10.8996 4.60156H2.09961C1.56918 4.60156 1.06047 4.39085 0.685396 4.01578C0.310323 3.6407 0.0996094 3.132 0.0996094 2.60156ZM0.699609 6.26796C0.540479 6.26796 0.387867 6.33118 0.275345 6.4437C0.162823 6.55622 0.0996094 6.70883 0.0996094 6.86796C0.0996094 7.02709 0.162823 7.1797 0.275345 7.29223C0.387867 7.40475 0.540479 7.46796 0.699609 7.46796H12.2996C12.4587 7.46796 12.6114 7.40475 12.7239 7.29223C12.8364 7.1797 12.8996 7.02709 12.8996 6.86796C12.8996 6.70883 12.8364 6.55622 12.7239 6.4437C12.6114 6.33118 12.4587 6.26796 12.2996 6.26796H0.699609ZM0.699609 9.13196C0.540479 9.13196 0.387867 9.19518 0.275345 9.3077C0.162823 9.42022 0.0996094 9.57283 0.0996094 9.73196C0.0996094 9.89109 0.162823 10.0437 0.275345 10.1562C0.387867 10.2687 0.540479 10.332 0.699609 10.332H12.2996C12.4587 10.332 12.6114 10.2687 12.7239 10.1562C12.8364 10.0437 12.8996 9.89109 12.8996 9.73196C12.8996 9.57283 12.8364 9.42022 12.7239 9.3077C12.6114 9.19518 12.4587 9.13196 12.2996 9.13196H0.699609ZM0.699609 12.0016C0.540479 12.0016 0.387867 12.0648 0.275345 12.1773C0.162823 12.2898 0.0996094 12.4424 0.0996094 12.6016C0.0996094 12.7607 0.162823 12.9133 0.275345 13.0258C0.387867 13.1383 0.540479 13.2016 0.699609 13.2016H12.2996C12.4587 13.2016 12.6114 13.1383 12.7239 13.0258C12.8364 12.9133 12.8996 12.7607 12.8996 12.6016C12.8996 12.4424 12.8364 12.2898 12.7239 12.1773C12.6114 12.0648 12.4587 12.0016 12.2996 12.0016H0.699609Z" fill="currentColor"/>
</svg>
