<svg width="16" height="18" viewBox="0 0 16 18" fill="none" xmlns="http://www.w3.org/2000/svg">
<path d="M9.98298 0.906414C10.0175 0.744761 9.99756 0.576248 9.92639 0.427067C9.85522 0.277886 9.73676 0.156393 9.58943 0.0814727C9.4421 0.00655203 9.27414 -0.0176003 9.11167 0.0127699C8.9492 0.0431401 8.8013 0.126332 8.69098 0.249414L0.190983 9.74941C0.0944631 9.85733 0.0312401 9.99087 0.00894581 10.1339C-0.0133485 10.277 0.00623888 10.4234 0.0653437 10.5556C0.124449 10.6878 0.220544 10.8 0.342031 10.8787C0.463518 10.9575 0.605203 10.9994 0.749983 10.9994H7.32198L6.01698 17.0924C5.98251 17.2541 6.00241 17.4226 6.07358 17.5718C6.14475 17.7209 6.2632 17.8424 6.41054 17.9174C6.55787 17.9923 6.72582 18.0164 6.8883 17.9861C7.05077 17.9557 7.19866 17.8725 7.30898 17.7494L15.809 8.24941C15.9055 8.1415 15.9687 8.00796 15.991 7.8649C16.0133 7.72185 15.9937 7.5754 15.9346 7.44324C15.8755 7.31107 15.7794 7.19883 15.6579 7.12008C15.5364 7.04133 15.3948 6.99942 15.25 6.99941H8.67798L9.98298 0.906414Z" fill="currentColor"/>
</svg>
