<svg xmlns="http://www.w3.org/2000/svg" width="15" height="14" viewBox="0 0 15 14" fill="none">
  <path fill-rule="evenodd" clip-rule="evenodd" d="M7.16538 0.700684C6.32995 0.700684 5.52873 1.03256 4.93799 1.6233C4.34725 2.21404 4.01538 3.01525 4.01538 3.85068V6.30068H3.66538C3.29408 6.30068 2.93798 6.44818 2.67543 6.71073C2.41288 6.97329 2.26538 7.32938 2.26538 7.70068V11.9007C2.26538 12.272 2.41288 12.6281 2.67543 12.8906C2.93798 13.1532 3.29408 13.3007 3.66538 13.3007H10.6654C11.0367 13.3007 11.3928 13.1532 11.6553 12.8906C11.9179 12.6281 12.0654 12.272 12.0654 11.9007V7.70068C12.0654 7.32938 11.9179 6.97329 11.6553 6.71073C11.3928 6.44818 11.0367 6.30068 10.6654 6.30068H10.3154V3.85068C10.3154 3.01525 9.98351 2.21404 9.39277 1.6233C8.80203 1.03256 8.00081 0.700684 7.16538 0.700684ZM9.26538 6.30068V3.85068C9.26538 3.29373 9.04413 2.75959 8.65031 2.36576C8.25648 1.97193 7.72234 1.75068 7.16538 1.75068C6.60843 1.75068 6.07428 1.97193 5.68046 2.36576C5.28663 2.75959 5.06538 3.29373 5.06538 3.85068V6.30068H9.26538Z" fill="currentColor"/>
</svg>