<svg xmlns="http://www.w3.org/2000/svg" viewBox="0 0 24 24"><path fill="currentColor" fill-rule="evenodd" d="M3.429 0A3.429 3.429 0 0 0 0 3.429V20.57A3.429 3.429 0 0 0 3.429 24H20.57A3.429 3.429 0 0 0 24 20.571V3.43A3.428 3.428 0 0 0 20.571 0H3.43Zm15.428 6.857a1.714 1.714 0 1 0-3.428 0v10.286a1.714 1.714 0 0 0 3.428 0V6.857Zm-5.143 3.429a1.714 1.714 0 1 0-3.428 0v6.857a1.714 1.714 0 0 0 3.428 0v-6.857Zm-5.143 5.143a1.714 1.714 0 1 0-3.428 0v1.714a1.714 1.714 0 0 0 3.428 0v-1.714Z" clip-rule="evenodd"/></svg>