<svg width="16" height="16" viewBox="0 0 16 16" fill="none" xmlns="http://www.w3.org/2000/svg">
<path fill-rule="evenodd" clip-rule="evenodd" d="M0 2.75C0 2.55109 0.0790175 2.36032 0.21967 2.21967C0.360322 2.07902 0.551088 2 0.75 2H15.25C15.4489 2 15.6397 2.07902 15.7803 2.21967C15.921 2.36032 16 2.55109 16 2.75C16 2.94891 15.921 3.13968 15.7803 3.28033C15.6397 3.42098 15.4489 3.5 15.25 3.5H0.75C0.551088 3.5 0.360322 3.42098 0.21967 3.28033C0.0790175 3.13968 0 2.94891 0 2.75ZM0 8C0 7.80109 0.0790175 7.61032 0.21967 7.46967C0.360322 7.32902 0.551088 7.25 0.75 7.25H15.25C15.4489 7.25 15.6397 7.32902 15.7803 7.46967C15.921 7.61032 16 7.80109 16 8C16 8.19891 15.921 8.38968 15.7803 8.53033C15.6397 8.67098 15.4489 8.75 15.25 8.75H0.75C0.551088 8.75 0.360322 8.67098 0.21967 8.53033C0.0790175 8.38968 0 8.19891 0 8ZM0 13.25C0 13.0511 0.0790175 12.8603 0.21967 12.7197C0.360322 12.579 0.551088 12.5 0.75 12.5H15.25C15.4489 12.5 15.6397 12.579 15.7803 12.7197C15.921 12.8603 16 13.0511 16 13.25C16 13.4489 15.921 13.6397 15.7803 13.7803C15.6397 13.921 15.4489 14 15.25 14H0.75C0.551088 14 0.360322 13.921 0.21967 13.7803C0.0790175 13.6397 0 13.4489 0 13.25Z" fill="currentColor"/>
</svg>
