<svg width="28" height="29" viewBox="0 0 28 29" fill="none" xmlns="http://www.w3.org/2000/svg">
<path d="M2.625 22.375C8.84987 22.3699 15.0477 23.1942 21.0548 24.8262C21.903 25.0572 22.75 24.4272 22.75 23.5475V22.375M4.375 5.75V6.625C4.375 6.85706 4.28281 7.07962 4.11872 7.24372C3.95462 7.40781 3.73206 7.5 3.5 7.5H2.625M2.625 7.5V7.0625C2.625 6.338 3.213 5.75 3.9375 5.75H23.625M2.625 7.5V18M23.625 5.75V6.625C23.625 7.108 24.017 7.5 24.5 7.5H25.375M23.625 5.75H24.0625C24.787 5.75 25.375 6.338 25.375 7.0625V18.4375C25.375 19.162 24.787 19.75 24.0625 19.75H23.625M2.625 18V18.4375C2.625 18.7856 2.76328 19.1194 3.00942 19.3656C3.25556 19.6117 3.5894 19.75 3.9375 19.75H4.375M2.625 18H3.5C3.73206 18 3.95462 18.0922 4.11872 18.2563C4.28281 18.4204 4.375 18.6429 4.375 18.875V19.75M23.625 19.75V18.875C23.625 18.6429 23.7172 18.4204 23.8813 18.2563C24.0454 18.0922 24.2679 18 24.5 18H25.375M23.625 19.75H4.375M17.5 12.75C17.5 13.6783 17.1313 14.5685 16.4749 15.2249C15.8185 15.8813 14.9283 16.25 14 16.25C13.0717 16.25 12.1815 15.8813 11.5251 15.2249C10.8687 14.5685 10.5 13.6783 10.5 12.75C10.5 11.8217 10.8687 10.9315 11.5251 10.2751C12.1815 9.61875 13.0717 9.25 14 9.25C14.9283 9.25 15.8185 9.61875 16.4749 10.2751C17.1313 10.9315 17.5 11.8217 17.5 12.75ZM21 12.75H21.0093V12.7593H21V12.75ZM7 12.75H7.00933V12.7593H7V12.75Z" stroke="currentColor" stroke-width="1.75" stroke-linecap="round" stroke-linejoin="round"/>
</svg>
