<svg width="16" height="16" viewBox="0 0 16 16" fill="none" xmlns="http://www.w3.org/2000/svg">
<path d="M8.89103 10.6122C8.89103 8.43319 7.12457 6.66672 4.94552 6.66672C2.76647 6.66672 1 8.43319 1 10.6122V10.782C1 12.961 2.76647 14.7275 4.94552 14.7275C7.12457 14.7275 8.89103 12.961 8.89103 10.782V10.6122Z" fill="#2D2D3B" stroke="currentColor"/>
<path d="M15 10.6122C15 8.43319 13.2335 6.66672 11.0545 6.66672C8.87543 6.66672 7.10896 8.43319 7.10896 10.6122V10.782C7.10896 12.961 8.87543 14.7275 11.0545 14.7275C13.2335 14.7275 15 12.961 15 10.782V10.6122Z" fill="#2D2D3B" stroke="currentColor"/>
<path d="M8.00001 2H7.99999C5.82095 2 4.05448 3.76647 4.05448 5.94551V6.11528C4.05448 8.29433 5.82095 10.0608 7.99999 10.0608H8.00001C10.1791 10.0608 11.9455 8.29433 11.9455 6.11528V5.94551C11.9455 3.76647 10.1791 2 8.00001 2Z" fill="#2D2D3B" stroke="currentColor"/>
</svg>
