<svg width="12" height="12" viewBox="0 0 12 12" fill="none" xmlns="http://www.w3.org/2000/svg">
<path d="M3.25976 8.3502L4.01696 6.4572C4.13765 6.15563 4.3183 5.8817 4.54796 5.652L8.69997 1.5012C8.93866 1.2625 9.2624 1.12841 9.59997 1.12841C9.93753 1.12841 10.2613 1.2625 10.5 1.5012C10.7387 1.73989 10.8728 2.06363 10.8728 2.4012C10.8728 2.73876 10.7387 3.0625 10.5 3.3012L6.34797 7.452C6.11817 7.6818 5.84397 7.863 5.54217 7.9836L3.64976 8.7408C3.59525 8.76262 3.53552 8.76796 3.478 8.75616C3.42047 8.74436 3.36767 8.71594 3.32615 8.67441C3.28463 8.63289 3.2562 8.58009 3.2444 8.52257C3.2326 8.46504 3.23794 8.40532 3.25976 8.3508V8.3502Z" fill="currentColor"/>
<path d="M2.09922 3.45C2.09922 3.036 2.43522 2.7 2.84922 2.7H5.99922C6.11857 2.7 6.23303 2.65259 6.31742 2.5682C6.40181 2.48381 6.44922 2.36935 6.44922 2.25C6.44922 2.13065 6.40181 2.01619 6.31742 1.9318C6.23303 1.84741 6.11857 1.8 5.99922 1.8H2.84922C2.41161 1.8 1.99193 1.97384 1.68249 2.28327C1.37306 2.59271 1.19922 3.01239 1.19922 3.45V9.15C1.19922 9.58761 1.37306 10.0073 1.68249 10.3167C1.99193 10.6262 2.41161 10.8 2.84922 10.8H8.54922C8.98683 10.8 9.40651 10.6262 9.71595 10.3167C10.0254 10.0073 10.1992 9.58761 10.1992 9.15V6C10.1992 5.88065 10.1518 5.76619 10.0674 5.6818C9.98303 5.59741 9.86857 5.55 9.74922 5.55C9.62987 5.55 9.51541 5.59741 9.43102 5.6818C9.34663 5.76619 9.29922 5.88065 9.29922 6V9.15C9.29922 9.564 8.96322 9.9 8.54922 9.9H2.84922C2.43522 9.9 2.09922 9.564 2.09922 9.15V3.45Z" fill="currentColor"/>
</svg>
