<svg width="16" height="17" viewBox="0 0 16 17" fill="none" xmlns="http://www.w3.org/2000/svg">
<path d="M3.38615 10.2955C3.15027 10.5418 3.15536 10.9317 3.39757 11.1718L5.23715 12.9949C5.47902 13.2346 5.86828 13.2365 6.11256 12.9993L12.2944 6.99502C12.5671 6.73411 12.571 6.30225 12.3029 6.03661L10.313 4.06448C10.0449 3.79883 9.60918 3.80265 9.34591 4.07296L3.38615 10.2955ZM15.2687 4.16842C15.5771 3.86275 15.5771 3.36505 15.2687 3.05938L13.422 1.22926C13.1136 0.923582 12.6114 0.923582 12.3029 1.22926L11.0957 2.39928C10.831 2.66164 10.831 3.08701 11.0957 3.34937L13.1028 5.33845C13.3675 5.60081 13.7967 5.60081 14.0614 5.33845L15.2687 4.16842Z" fill="currentColor"/>
<path d="M0.523399 15.5427L1.92237 12.2583C2.09541 11.8521 2.6237 11.7485 2.93733 12.0593L4.35742 13.4667C4.66648 13.773 4.57578 14.2935 4.18134 14.4772L0.961422 15.9768C0.687306 16.0813 0.41797 15.8144 0.523399 15.5427Z" fill="currentColor"/>
</svg>
