<svg width="16" height="16" viewBox="0 0 16 16" fill="none" xmlns="http://www.w3.org/2000/svg">
<path d="M7.00878 5.0367C7.00878 5.92788 6.72704 6.65937 6.16356 7.23117C5.60007 7.79781 4.88035 8.08113 4.00439 8.08113C3.12843 8.08113 2.40871 7.79781 1.84523 7.23117C1.28174 6.65937 1 5.92788 1 5.0367C1 4.15068 1.28174 3.42434 1.84523 2.85769C2.41383 2.2859 3.13355 2 4.00439 2C4.87523 2 5.59239 2.2859 6.15587 2.85769C6.72448 3.42434 7.00878 4.15068 7.00878 5.0367ZM13.3172 2.23954L4.58836 13.7914H2.6674L11.3963 2.23954H13.3172ZM5.07245 6.15712C5.34394 5.86864 5.47969 5.49517 5.47969 5.0367C5.47969 4.57824 5.34394 4.20734 5.07245 3.92402C4.80095 3.63554 4.44493 3.49131 4.00439 3.49131C3.56385 3.49131 3.20783 3.63297 2.93633 3.91629C2.66996 4.19961 2.53677 4.57308 2.53677 5.0367C2.53677 5.49517 2.67252 5.86864 2.94402 6.15712C3.21551 6.44559 3.56897 6.58983 4.00439 6.58983C4.44493 6.58983 4.80095 6.44559 5.07245 6.15712ZM14.1548 8.77656C14.7183 9.34321 15 10.0695 15 10.9556C15 11.8416 14.7183 12.5705 14.1548 13.1423C13.5964 13.7141 12.8818 14 12.011 14C11.135 14 10.4153 13.7141 9.85181 13.1423C9.28833 12.5705 9.00659 11.8416 9.00659 10.9556C9.00659 10.0695 9.28577 9.34321 9.84413 8.77656C10.4076 8.20476 11.1299 7.91887 12.011 7.91887C12.8818 7.91887 13.5964 8.20476 14.1548 8.77656ZM13.0714 12.076C13.3428 11.7875 13.4786 11.414 13.4786 10.9556C13.4786 10.4971 13.3428 10.1262 13.0714 9.84288C12.7999 9.55441 12.4464 9.41017 12.011 9.41017C11.5704 9.41017 11.2144 9.55441 10.9429 9.84288C10.6714 10.1262 10.5357 10.4971 10.5357 10.9556C10.5357 11.414 10.6714 11.7875 10.9429 12.076C11.2144 12.3645 11.5704 12.5087 12.011 12.5087C12.4464 12.5087 12.7999 12.3645 13.0714 12.076Z" fill="currentColor"/>
</svg>
