<svg fill="none" height="12" viewBox="0 0 12 12" width="12" xmlns="http://www.w3.org/2000/svg"><path d="m6.75.75c0-.198912-.07902-.389678-.21967-.53033-.14065-.1406525-.33142-.21967-.53033-.21967s-.38968.0790175-.53033.21967c-.14065.140652-.21967.331418-.21967.53033v4.5h-4.5c-.198912 0-.389678.07902-.53033.21967-.1406525.14065-.21967.33142-.21967.53033s.0790175.38968.21967.53033c.140652.14065.331418.21967.53033.21967h4.5v4.5c0 .1989.07902.3897.21967.5303.14065.1407.33142.2197.53033.2197s.38968-.079.53033-.2197c.14065-.1406.21967-.3314.21967-.5303v-4.5h4.5c.1989 0 .3897-.07902.5303-.21967.1407-.14065.2197-.33142.2197-.53033s-.079-.38968-.2197-.53033c-.1406-.14065-.3314-.21967-.5303-.21967h-4.5z" fill="currentColor"/></svg>