<svg xmlns="http://www.w3.org/2000/svg" viewBox="0 0 24 24"><path fill="currentColor" fill-rule="evenodd" d="M1.004 1.004A3.429 3.429 0 0 1 3.43 0h17.14A3.429 3.429 0 0 1 24 3.429V20.57A3.429 3.429 0 0 1 20.571 24H3.43A3.428 3.428 0 0 1 0 20.571V3.43c0-.91.361-1.782 1.004-2.425Zm19.567 7.494c.004.45-.169.884-.48 1.208l-6.858 6.865a1.714 1.714 0 0 1-2.424 0l-2.217-2.219-2.216 2.22a1.715 1.715 0 0 1-2.82-.543 1.718 1.718 0 0 1 .396-1.885l3.428-3.433a1.713 1.713 0 0 1 2.424 0l2.217 2.22 5.645-5.652a1.713 1.713 0 0 1 2.905 1.22Z" clip-rule="evenodd"/></svg>