<svg width="20" height="20" viewBox="0 0 20 20" fill="none" xmlns="http://www.w3.org/2000/svg">
<g clip-path="url(#clip0_3515_171282)">
<path d="M18.3332 9.99984H16.2665C15.9023 9.99906 15.5479 10.1176 15.2574 10.3373C14.967 10.557 14.7565 10.8658 14.6582 11.2165L12.6998 18.1832C12.6872 18.2264 12.6609 18.2645 12.6248 18.2915C12.5888 18.3186 12.5449 18.3332 12.4998 18.3332C12.4548 18.3332 12.4109 18.3186 12.3748 18.2915C12.3388 18.2645 12.3125 18.2264 12.2998 18.1832L7.69984 1.8165C7.68722 1.77323 7.6609 1.73522 7.62484 1.70817C7.58878 1.68112 7.54491 1.6665 7.49984 1.6665C7.45476 1.6665 7.4109 1.68112 7.37484 1.70817C7.33878 1.73522 7.31246 1.77323 7.29984 1.8165L5.3415 8.78317C5.24356 9.13247 5.03432 9.44027 4.74556 9.65985C4.45679 9.87943 4.10427 9.9988 3.7415 9.99984H1.6665" stroke="currentColor" stroke-width="2" stroke-linecap="round" stroke-linejoin="round"/>
</g>
<defs>
<clipPath id="clip0_3515_171282">
<rect width="20" height="20" fill="currentColor"/>
</clipPath>
</defs>
</svg>
