<svg width="20" height="21" viewBox="0 0 20 21" fill="none" xmlns="http://www.w3.org/2000/svg">
<path d="M10 0.625C4.48665 0.625 0 5.11165 0 10.625C0 16.1384 4.48665 20.625 10 20.625C15.5134 20.625 20 16.1384 20 10.625C20 5.11165 15.5134 0.625 10 0.625ZM10 19.0865C5.33465 19.0865 1.53846 15.2904 1.53846 10.625C1.53846 5.95965 5.33465 2.16346 10 2.16346C14.6654 2.16346 18.4615 5.95965 18.4615 10.625C18.4615 15.2904 14.6654 19.0865 10 19.0865Z" fill="currentColor"/>
<path d="M9.99987 7.66638C10.7066 7.66638 11.2816 8.24137 11.2816 8.94811C11.2816 9.37312 11.6258 9.71734 12.0508 9.71734C12.4758 9.71734 12.8201 9.37312 12.8201 8.94811C12.8201 7.65964 11.9518 6.56925 10.7691 6.23475V5.87128C10.7691 5.44627 10.4249 5.10205 9.99987 5.10205C9.57486 5.10205 9.23064 5.44627 9.23064 5.87128V6.23475C8.04795 6.57033 7.17969 7.65976 7.17969 8.94811C7.17969 10.4683 8.42008 11.0789 9.41718 11.5692L9.98737 11.8518C11.1739 12.4365 11.2826 12.5384 11.2826 13.0509C11.2826 13.7576 10.7076 14.3326 10.0008 14.3326C9.2941 14.3326 8.71911 13.7576 8.71911 13.0509C8.71911 12.6259 8.37489 12.2816 7.94988 12.2816C7.52487 12.2816 7.18065 12.6259 7.18065 13.0509C7.18065 14.3393 8.04891 15.4297 9.2316 15.7642V16.1277C9.2316 16.5527 9.57582 16.8969 10.0008 16.8969C10.4258 16.8969 10.7701 16.5527 10.7701 16.1277V15.7642C11.9528 15.4286 12.821 14.3392 12.821 13.0509C12.821 11.5345 11.871 11.0653 10.6681 10.4719L10.096 10.1883C9.11716 9.70752 8.71812 9.4604 8.71812 8.94788C8.71812 8.24115 9.29314 7.66638 9.99987 7.66638Z" fill="currentColor"/>
</svg>
