<svg xmlns="http://www.w3.org/2000/svg" viewBox="0 0 24 25"><path fill="currentColor" fill-rule="evenodd" d="M12 10a5.218 5.218 0 0 0 3.636-1.464A4.93 4.93 0 0 0 17.143 5a4.93 4.93 0 0 0-1.507-3.536A5.218 5.218 0 0 0 12 0a5.218 5.218 0 0 0-3.637 1.464A4.93 4.93 0 0 0 6.857 5a4.93 4.93 0 0 0 1.506 3.536A5.218 5.218 0 0 0 12 10ZM3 25C1.343 25-.038 23.634.394 22.035c.138-.51.311-1.01.52-1.5a11.651 11.651 0 0 1 2.6-3.785 12.03 12.03 0 0 1 3.894-2.529A12.298 12.298 0 0 1 12 13.333c1.576 0 3.136.302 4.592.888a12.03 12.03 0 0 1 3.893 2.53 11.652 11.652 0 0 1 2.602 3.784c.208.49.381.99.519 1.5.432 1.6-.95 2.965-2.606 2.965H3Z" clip-rule="evenodd"/></svg>