<svg fill="none" xmlns="http://www.w3.org/2000/svg" viewBox="0 0 24 24"><path d="M3.75 4.875c0-.621.504-1.125 1.125-1.125h4.5c.621 0 1.125.504 1.125 1.125v4.5c0 .621-.504 1.125-1.125 1.125h-4.5c-.29837 0-.58452-.1185-.7955-.3295-.21097-.21098-.3295-.49713-.3295-.7955v-4.5Zm0 9.75c0-.621.504-1.125 1.125-1.125h4.5c.621 0 1.125.504 1.125 1.125v4.5c0 .621-.504 1.125-1.125 1.125h-4.5c-.29837 0-.58452-.1185-.7955-.3295-.21097-.211-.3295-.4971-.3295-.7955v-4.5Zm9.75-9.75c0-.621.504-1.125 1.125-1.125h4.5c.621 0 1.125.504 1.125 1.125v4.5c0 .621-.504 1.125-1.125 1.125h-4.5c-.2984 0-.5845-.1185-.7955-.3295-.211-.21098-.3295-.49713-.3295-.7955v-4.5Z" stroke="currentColor" stroke-width="1.5" stroke-linecap="round" stroke-linejoin="round"/><path d="M6.75 6.75h.75v.75h-.75v-.75Zm0 9.75h.75v.75h-.75v-.75Zm9.75-9.75h.75v.75h-.75v-.75Zm-3 6.75h.75v.75h-.75v-.75Zm0 6h.75v.75h-.75v-.75Zm6-6h.75v.75h-.75v-.75Zm0 6h.75v.75h-.75v-.75Zm-3-3h.75v.75h-.75v-.75Z" stroke="currentColor" stroke-width="1.5" stroke-linecap="round" stroke-linejoin="round"/></svg>
