<svg width="14" height="12" viewBox="0 0 14 12" fill="none" xmlns="http://www.w3.org/2000/svg">
<path fill-rule="evenodd" clip-rule="evenodd" d="M2.16995 4.70544C2.88466 2.03811 5.62634 0.455198 8.29367 1.16991C9.17433 1.40588 9.93553 1.862 10.5354 2.46303L11.8042 3.73175H9.68167C9.40553 3.73175 9.18167 3.9556 9.18167 4.23175C9.18167 4.50789 9.40553 4.73175 9.68167 4.73175H13.0101C13.1427 4.73175 13.2699 4.67906 13.3637 4.58527C13.4574 4.49149 13.5101 4.3643 13.5101 4.23167V0.903343C13.5101 0.627201 13.2862 0.403343 13.0101 0.403343C12.7339 0.403343 12.5101 0.627201 12.5101 0.903343V3.02345L11.2432 1.75659C10.5224 1.03453 9.60742 0.486649 8.55249 0.203981C5.3517 -0.65367 2.06168 1.24583 1.20403 4.44662C1.13255 4.71336 1.29084 4.98752 1.55758 5.05899C1.82431 5.13047 2.09848 4.97217 2.16995 4.70544ZM12.4416 6.94008C12.1748 6.86861 11.9007 7.0269 11.8292 7.29363C11.1145 9.96096 8.37281 11.5439 5.70548 10.8292C4.82483 10.5932 4.06364 10.1371 3.46374 9.53606L2.19581 8.2673H4.31768C4.59383 8.2673 4.81768 8.04345 4.81768 7.7673C4.81768 7.49116 4.59383 7.2673 4.31768 7.2673L0.989258 7.2673C0.713116 7.2673 0.489258 7.49116 0.489258 7.7673V11.0957C0.489258 11.3719 0.713116 11.5957 0.989258 11.5957C1.2654 11.5957 1.48926 11.3719 1.48926 11.0957V8.97497L2.75597 10.2425C3.47677 10.9646 4.39165 11.5124 5.44666 11.7951C8.64746 12.6527 11.9375 10.7532 12.7951 7.55245C12.8666 7.28572 12.7083 7.01155 12.4416 6.94008Z" fill="currentColor"/>
</svg>
