<svg width="20" height="21" viewBox="0 0 20 21" fill="none" xmlns="http://www.w3.org/2000/svg">
<path d="M17.5 10.5C17.5 11.9834 17.0601 13.4334 16.236 14.6668C15.4119 15.9001 14.2406 16.8614 12.8701 17.4291C11.4997 17.9968 9.99168 18.1453 8.53683 17.8559C7.08197 17.5665 5.7456 16.8522 4.6967 15.8033C3.64781 14.7544 2.9335 13.418 2.64411 11.9632C2.35472 10.5083 2.50325 9.00032 3.07091 7.62987C3.63856 6.25943 4.59986 5.08809 5.83323 4.26398C7.0666 3.43987 8.51664 3 10 3C12.1 3 14.1083 3.83333 15.6167 5.28333L17.5 7.16667" stroke="currentColor" stroke-linecap="round" stroke-linejoin="round"/>
<path d="M17.4987 3V7.16667H13.332" stroke="currentColor" stroke-linecap="round" stroke-linejoin="round"/>
</svg>
