<svg width="6" height="9" viewBox="0 0 6 9" fill="none" xmlns="http://www.w3.org/2000/svg">
    <path fill-rule="evenodd" clip-rule="evenodd" d="M0.220317 3.53007C0.0798662 3.38945 0.000976562 3.19882 0.000976562 3.00007C0.000976562 2.80132 0.0798662 2.6107 0.220317 2.47007L2.47032 0.220073C2.61094 0.079622 2.80157 0.000732422 3.00032 0.000732422C3.19907 0.000732422 3.38969 0.079622 3.53032 0.220073L5.78032 2.47007C5.9128 2.61225 5.98492 2.80029 5.98149 2.9946C5.97806 3.1889 5.89935 3.37428 5.76194 3.51169C5.62453 3.64911 5.43914 3.72782 5.24484 3.73125C5.05054 3.73468 4.86249 3.66255 4.72032 3.53007L3.75032 2.56007V8.25007C3.75032 8.44899 3.6713 8.63975 3.53065 8.7804C3.38999 8.92105 3.19923 9.00007 3.00032 9.00007C2.8014 9.00007 2.61064 8.92105 2.46999 8.7804C2.32933 8.63975 2.25032 8.44899 2.25032 8.25007V2.56007L1.28032 3.53007C1.13969 3.67052 0.949067 3.74941 0.750317 3.74941C0.551566 3.74941 0.360942 3.67052 0.220317 3.53007Z" fill="currentColor"/>
</svg>
