<svg width="12" height="15" viewBox="0 0 12 15" fill="none" xmlns="http://www.w3.org/2000/svg">
  <path fill="currentColor" fill-rule="evenodd" clip-rule="evenodd" d="M10.5 6.5C10.5 8.98528 8.48528 11 6 11C3.51472 11 1.5 8.98528 1.5 6.5C1.5 4.01472 3.51472 2 6 2C8.48528 2 10.5 4.01472 10.5 6.5ZM12 6.5C12 9.81371 9.31371 12.5 6 12.5C5.0458 12.5 4.14363 12.2773 3.34264 11.8809L2.04742 14.0142C1.83245 14.3683 1.37116 14.4811 1.0171 14.2661C0.663032 14.0511 0.550271 13.5898 0.765239 13.2358L2.09105 11.0521C0.810824 9.95171 0 8.32054 0 6.5C0 3.18629 2.68629 0.5 6 0.5C9.31371 0.5 12 3.18629 12 6.5Z"/>
</svg>