<svg xmlns="http://www.w3.org/2000/svg" width="13" height="14" viewBox="0 0 13 14" fill="none">
  <path d="M2.01819 1.98786C1.93766 1.97644 1.85555 1.98536 1.77935 2.0138C1.70314 2.04223 1.63526 2.08928 1.58189 2.15066C1.52852 2.21205 1.49136 2.2858 1.47379 2.36522C1.45622 2.44464 1.4588 2.52719 1.48129 2.60536L2.40039 5.80661C2.45882 6.01007 2.58187 6.18899 2.75097 6.31634C2.92006 6.44369 3.12601 6.51254 3.33769 6.51251H7.31244C7.44174 6.51251 7.56573 6.56387 7.65716 6.65529C7.74858 6.74672 7.79994 6.87071 7.79994 7.00001C7.79994 7.1293 7.74858 7.2533 7.65716 7.34472C7.56573 7.43614 7.44174 7.48751 7.31244 7.48751H3.33769C3.12601 7.48747 2.92006 7.55633 2.75097 7.68367C2.58187 7.81102 2.45882 7.98994 2.40039 8.19341L1.48129 11.3953C1.4588 11.4735 1.45622 11.556 1.47379 11.6354C1.49136 11.7149 1.52852 11.7886 1.58189 11.85C1.63526 11.9114 1.70314 11.9584 1.77935 11.9869C1.85555 12.0153 1.93766 12.0242 2.01819 12.0128C5.72072 11.4869 9.18198 9.86777 11.9586 7.36271C12.0094 7.31699 12.0501 7.26111 12.0779 7.19868C12.1057 7.13625 12.12 7.06867 12.12 7.00033C12.12 6.93199 12.1057 6.86441 12.0779 6.80198C12.0501 6.73956 12.0094 6.68367 11.9586 6.63796C9.18196 4.13292 5.72071 2.51376 2.01819 1.98786Z" fill="currentColor"/>
</svg>