<svg width="16" height="16" viewBox="0 0 16 16" fill="none" xmlns="http://www.w3.org/2000/svg">
<g clip-path="url(#clip0_41621_8828)">
<path d="M10.419 7.4C10.795 7.4 11.0806 7.0536 10.9286 6.7096C10.6545 6.08726 10.1892 5.56844 9.60029 5.22838C9.01138 4.88832 8.32945 4.74472 7.65341 4.8184C7.27901 4.8584 7.12141 5.2792 7.30941 5.6056L8.17341 7.1C8.22603 7.19115 8.30171 7.26686 8.39284 7.31951C8.48397 7.37217 8.58736 7.39993 8.69261 7.4H10.419ZM6.27181 6.2064C6.08301 5.88 5.63981 5.8064 5.41741 6.1104C5.01525 6.65826 4.79884 7.32038 4.79981 8C4.79981 8.7072 5.02941 9.36 5.41741 9.8904C5.63981 10.1944 6.08301 10.12 6.27181 9.7944L7.13421 8.3C7.18687 8.20879 7.21459 8.10533 7.21459 8C7.21459 7.89468 7.18687 7.79121 7.13421 7.7L6.27181 6.2064ZM7.31021 10.3944C7.12221 10.7208 7.27901 11.1416 7.65421 11.1816C8.33025 11.2553 9.01218 11.1117 9.60109 10.7716C10.19 10.4316 10.6553 9.91274 10.9294 9.2904C11.0814 8.9464 10.795 8.6 10.419 8.6H8.69261C8.58722 8.59994 8.48367 8.62763 8.39239 8.68029C8.3011 8.73296 8.2253 8.80873 8.17261 8.9L7.31021 10.3944Z" fill="currentColor"/>
<path fill-rule="evenodd" clip-rule="evenodd" d="M11.3038 3.47759L11.819 2.58399C11.8973 2.44625 11.918 2.28313 11.8765 2.13023C11.8349 1.97732 11.7346 1.84704 11.5974 1.76782C11.4602 1.6886 11.2972 1.66687 11.1441 1.70737C10.9909 1.74786 10.8599 1.8473 10.7798 1.98399L10.2646 2.87679C9.73614 2.64295 9.17447 2.49289 8.5998 2.43199V1.39999C8.5998 1.24086 8.53659 1.08825 8.42407 0.975724C8.31155 0.863202 8.15893 0.799988 7.9998 0.799988C7.84067 0.799988 7.68806 0.863202 7.57554 0.975724C7.46302 1.08825 7.3998 1.24086 7.3998 1.39999V2.43199C6.82514 2.49289 6.26347 2.64295 5.735 2.87679L5.2198 1.98399C5.18041 1.9157 5.12795 1.85584 5.06542 1.80783C5.00289 1.75982 4.93151 1.72459 4.85537 1.70416C4.70159 1.6629 4.53772 1.68442 4.3998 1.76399C4.26189 1.84355 4.16124 1.97464 4.11998 2.12842C4.07872 2.2822 4.10024 2.44608 4.1798 2.58399L4.6958 3.47759C4.22958 3.81882 3.81864 4.22976 3.4774 4.69599L2.5838 4.17999C2.51552 4.14059 2.44014 4.11503 2.36197 4.10477C2.28381 4.0945 2.20439 4.09973 2.12824 4.12016C2.0521 4.14059 1.98072 4.17582 1.91819 4.22383C1.85566 4.27184 1.8032 4.3317 1.7638 4.39999C1.72441 4.46827 1.69885 4.54365 1.68858 4.62182C1.67832 4.69998 1.68355 4.77941 1.70398 4.85555C1.72441 4.93169 1.75963 5.00307 1.80765 5.0656C1.85566 5.12813 1.91552 5.18059 1.9838 5.21999L2.8766 5.73519C2.64277 6.26365 2.4927 6.82532 2.4318 7.39999H1.3998C1.24067 7.39999 1.08806 7.4632 0.975541 7.57572C0.863019 7.68825 0.799805 7.84086 0.799805 7.99999C0.799805 8.15912 0.863019 8.31173 0.975541 8.42425C1.08806 8.53677 1.24067 8.59999 1.3998 8.59999H2.4318C2.4942 9.18639 2.6478 9.74639 2.8766 10.2648L1.9838 10.7808C1.91271 10.8186 1.84997 10.8704 1.79932 10.933C1.74867 10.9957 1.71115 11.0678 1.68898 11.1453C1.66682 11.2227 1.66048 11.3038 1.67032 11.3837C1.68017 11.4637 1.70602 11.5408 1.74631 11.6106C1.78661 11.6803 1.84053 11.7412 1.90486 11.7897C1.9692 11.8381 2.04263 11.8731 2.12079 11.8926C2.19894 11.9121 2.28021 11.9156 2.35976 11.903C2.43931 11.8904 2.5155 11.8619 2.5838 11.8192L3.4774 11.304C3.81864 11.7702 4.22958 12.1812 4.6958 12.5224L4.1798 13.416C4.14041 13.4843 4.11485 13.5597 4.10458 13.6378C4.09432 13.716 4.09955 13.7954 4.11998 13.8716C4.14041 13.9477 4.17563 14.0191 4.22365 14.0816C4.27166 14.1441 4.33152 14.1966 4.3998 14.236C4.46809 14.2754 4.54347 14.3009 4.62164 14.3112C4.6998 14.3215 4.77922 14.3162 4.85537 14.2958C4.93151 14.2754 5.00289 14.2402 5.06542 14.1921C5.12795 14.1441 5.18041 14.0843 5.2198 14.016L5.735 13.1232C6.26347 13.357 6.82514 13.5071 7.3998 13.568V14.6C7.3998 14.7591 7.46302 14.9117 7.57554 15.0243C7.68806 15.1368 7.84067 15.2 7.9998 15.2C8.15893 15.2 8.31155 15.1368 8.42407 15.0243C8.53659 14.9117 8.5998 14.7591 8.5998 14.6V13.568C9.17447 13.5071 9.73614 13.357 10.2646 13.1232L10.7806 14.016C10.8607 14.1527 10.9917 14.2521 11.1449 14.2926C11.298 14.3331 11.461 14.3114 11.5982 14.2322C11.7354 14.1529 11.8357 14.0227 11.8773 13.8697C11.9188 13.7168 11.8981 13.5537 11.8198 13.416L11.3038 12.5224C11.77 12.1811 12.181 11.7702 12.5222 11.304L13.4158 11.8192C13.5531 11.8923 13.7134 11.9092 13.8629 11.8664C14.0125 11.8236 14.1395 11.7244 14.2173 11.5898C14.2951 11.4551 14.3176 11.2955 14.28 11.1446C14.2424 10.9936 14.1477 10.8632 14.0158 10.7808L13.123 10.2648C13.3568 9.73632 13.5069 9.17465 13.5678 8.59999H14.5998C14.7589 8.59999 14.9115 8.53677 15.0241 8.42425C15.1366 8.31173 15.1998 8.15912 15.1998 7.99999C15.1998 7.84086 15.1366 7.68825 15.0241 7.57572C14.9115 7.4632 14.7589 7.39999 14.5998 7.39999H13.5678C13.5069 6.82532 13.3568 6.26365 13.123 5.73519L14.0158 5.21999C14.1537 5.14042 14.2544 5.00933 14.2956 4.85555C14.3369 4.70177 14.3154 4.5379 14.2358 4.39999C14.1562 4.26207 14.0251 4.16142 13.8714 4.12016C13.7176 4.0789 13.5537 4.10042 13.4158 4.17999L12.5222 4.69599C12.1807 4.2297 11.7695 3.81876 11.303 3.47759H11.3038ZM7.9998 3.59999C7.21765 3.5988 6.44944 3.80708 5.775 4.20319C5.10989 4.59392 4.55857 5.15186 4.1758 5.82159C3.79712 6.48506 3.59855 7.23605 3.5998 7.99999C3.5987 8.78091 3.80641 9.54793 4.2014 10.2216C4.59269 10.8887 5.1521 11.4415 5.8238 11.8248C6.4654 12.1912 7.2078 12.4 7.9998 12.4C8.78162 12.4013 9.54953 12.1933 10.2238 11.7976C10.8899 11.4062 11.4418 10.8471 11.8246 10.176C12.191 9.53439 12.3998 8.79199 12.3998 7.99999C12.4011 7.21818 12.1931 6.45027 11.7974 5.77599C11.4059 5.10951 10.8465 4.55729 10.175 4.17439C9.51232 3.7968 8.76252 3.5988 7.9998 3.59999Z" fill="currentColor"/>
</g>
<defs>
<clipPath id="clip0_41621_8828">
<rect width="16" height="16" fill="white"/>
</clipPath>
</defs>
</svg>
