<svg width="12" height="12" viewBox="0 0 12 12" fill="none" xmlns="http://www.w3.org/2000/svg">
<path d="M8.10033 2.15003C8.10033 1.74386 8.24161 1.35034 8.49996 1.03693C8.75831 0.723512 9.11763 0.509719 9.51633 0.432197C9.91503 0.354676 10.3283 0.418254 10.6852 0.612033C11.0422 0.805812 11.3206 1.11772 11.4728 1.4943C11.625 1.87088 11.6415 2.28867 11.5194 2.67605C11.3973 3.06343 11.1443 3.39629 10.8037 3.61756C10.4631 3.83882 10.0561 3.93472 9.65253 3.88881C9.24897 3.8429 8.87394 3.65805 8.59173 3.36593L3.87933 5.72283C3.90858 5.90648 3.90858 6.09359 3.87933 6.27723L8.59243 8.63413C8.88306 8.33353 9.27171 8.14692 9.68803 8.10809C10.1043 8.06926 10.5208 8.18077 10.862 8.42243C11.2032 8.66409 11.4466 9.01993 11.5482 9.42554C11.6497 9.83114 11.6027 10.2597 11.4156 10.6336C11.2285 11.0075 10.9137 11.3021 10.5282 11.464C10.1427 11.6259 9.71194 11.6444 9.31396 11.5162C8.91598 11.388 8.57705 11.1216 8.35855 10.7651C8.14004 10.4086 8.05638 9.98565 8.12273 9.57283L3.40963 7.21593C3.16732 7.46661 2.85566 7.6392 2.5146 7.71157C2.17355 7.78394 1.81865 7.75278 1.49542 7.6221C1.17219 7.49142 0.895362 7.26716 0.700435 6.9781C0.505508 6.68903 0.401367 6.34833 0.401367 5.99968C0.401367 5.65103 0.505508 5.31033 0.700435 5.02127C0.895362 4.7322 1.17219 4.50795 1.49542 4.37727C1.81865 4.24658 2.17355 4.21543 2.5146 4.28779C2.85566 4.36016 3.16732 4.53275 3.40963 4.78343L8.12273 2.42723C8.10798 2.33557 8.10049 2.24288 8.10033 2.15003Z" fill="currentColor"/>
</svg>
