<svg width="33" height="33" viewBox="0 0 33 33" fill="none" xmlns="http://www.w3.org/2000/svg">
<path d="M26.7222 17.3894C26.7222 24.0561 22.0556 27.3894 16.5089 29.3228C16.2185 29.4212 15.903 29.4165 15.6156 29.3094C10.0556 27.3894 5.38892 24.0561 5.38892 17.3894V8.0561C5.38892 7.70248 5.52939 7.36334 5.77944 7.11329C6.02949 6.86324 6.36863 6.72277 6.72225 6.72277C9.38892 6.72277 12.7222 5.12277 15.0422 3.0961C15.3247 2.85477 15.6841 2.72217 16.0556 2.72217C16.4271 2.72217 16.7864 2.85477 17.0689 3.0961C19.4022 5.1361 22.7222 6.72277 25.3889 6.72277C25.7425 6.72277 26.0817 6.86324 26.3317 7.11329C26.5818 7.36334 26.7222 7.70248 26.7222 8.0561V17.3894Z" stroke="currentColor" stroke-width="3" stroke-linecap="round" stroke-linejoin="round"/>
<path d="M12.0555 16.0563L14.7222 18.723L20.0555 13.3896" stroke="currentColor" stroke-width="3" stroke-linecap="round" stroke-linejoin="round"/>
</svg>
