<svg width="23" height="23" viewBox="0 0 23 23" fill="none" xmlns="http://www.w3.org/2000/svg">
<path fill-rule="evenodd" clip-rule="evenodd" d="M11.11 2.57228C11.2195 2.48139 11.3574 2.43164 11.4998 2.43164C11.6422 2.43164 11.7801 2.48139 11.8897 2.57228C14.1869 4.48318 17.0445 5.59304 20.0294 5.73363C20.1639 5.73777 20.2926 5.78894 20.3933 5.87825C20.4939 5.96756 20.5601 6.08933 20.5802 6.22238C20.6596 6.82038 20.6998 7.42988 20.6998 8.05088C20.6998 13.9872 16.9508 19.0483 11.6907 20.9953C11.5675 21.0407 11.4321 21.0407 11.3089 20.9953C6.0488 19.0483 2.2998 13.9872 2.2998 8.04973C2.2998 7.43103 2.34005 6.82038 2.4194 6.22238C2.43956 6.08914 2.50587 5.96722 2.60676 5.87789C2.70765 5.78856 2.83671 5.7375 2.9714 5.73363C5.95597 5.59247 8.81316 4.48337 11.11 2.57228ZM15.9354 9.41938C16.0699 9.23425 16.1253 9.00326 16.0895 8.77724C16.0537 8.55122 15.9296 8.34868 15.7445 8.21418C15.5593 8.07967 15.3283 8.02422 15.1023 8.06002C14.8763 8.09583 14.6738 8.21995 14.5393 8.40508L10.5338 13.9136L8.3718 11.7516C8.2922 11.6692 8.197 11.6036 8.09175 11.5584C7.9865 11.5133 7.87331 11.4895 7.75879 11.4886C7.64427 11.4877 7.53071 11.5095 7.42473 11.5529C7.31875 11.5964 7.22248 11.6605 7.14154 11.7415C7.06059 11.8225 6.9966 11.9188 6.95328 12.0248C6.90996 12.1309 6.88819 12.2444 6.88924 12.359C6.89029 12.4735 6.91414 12.5866 6.95939 12.6919C7.00464 12.7971 7.07039 12.8922 7.1528 12.9717L10.0278 15.8467C10.1159 15.9349 10.2221 16.0029 10.339 16.0461C10.456 16.0893 10.5809 16.1066 10.7052 16.0969C10.8294 16.0872 10.9501 16.0506 11.0589 15.9898C11.1677 15.9289 11.262 15.8452 11.3354 15.7444L15.9354 9.41938Z" fill="currentColor"/>
</svg>
