<svg width="10" height="10" viewBox="0 0 10 10" fill="none" xmlns="http://www.w3.org/2000/svg">
<circle cx="5" cy="5" r="5" fill="black"/>
<g clip-path="url(#clip0_1_11)">
<path d="M7.47426 6.32998L6.64885 7.20192C6.63091 7.22086 6.6092 7.23596 6.58507 7.24628C6.56095 7.2566 6.53493 7.26192 6.50863 7.26191H2.59582C2.57715 7.26191 2.55889 7.25653 2.54328 7.24645C2.52766 7.23636 2.51538 7.22201 2.50794 7.20514C2.5005 7.18828 2.49822 7.16964 2.50139 7.15151C2.50455 7.13339 2.51303 7.11657 2.52576 7.10312L3.35179 6.23119C3.36968 6.2123 3.39132 6.19723 3.41537 6.18691C3.43942 6.17659 3.46536 6.17125 3.49159 6.1712H7.40418C7.42285 6.1712 7.44111 6.17658 7.45673 6.18666C7.47233 6.19674 7.4846 6.2111 7.49208 6.22797C7.49951 6.24484 7.50178 6.26347 7.49861 6.2816C7.49545 6.29972 7.48698 6.31654 7.47426 6.32998ZM6.64885 4.57416C6.63091 4.55522 6.6092 4.54012 6.58507 4.5298C6.56095 4.51948 6.53493 4.51416 6.50863 4.51417H2.59582C2.57715 4.51417 2.55889 4.51955 2.54328 4.52963C2.52766 4.53972 2.51538 4.55407 2.50794 4.57094C2.5005 4.5878 2.49822 4.60644 2.50139 4.62457C2.50455 4.64269 2.51303 4.65951 2.52576 4.67296L3.35179 5.54489C3.36968 5.56378 3.39132 5.57885 3.41537 5.58917C3.43942 5.59948 3.46536 5.60483 3.49159 5.60487H7.40418C7.42285 5.60487 7.44111 5.5995 7.45673 5.58942C7.47233 5.57933 7.4846 5.56498 7.49208 5.54811C7.49951 5.53124 7.50178 5.5126 7.49861 5.49448C7.49545 5.47636 7.48698 5.45954 7.47426 5.44609L6.64885 4.57416ZM2.59582 3.94785H6.50863C6.53493 3.94786 6.56095 3.94254 6.58507 3.93222C6.6092 3.9219 6.63091 3.9068 6.64885 3.88786L7.47426 3.01592C7.48698 3.00248 7.49545 2.98566 7.49861 2.96754C7.50178 2.94941 7.49951 2.93077 7.49208 2.91391C7.4846 2.89704 7.47233 2.88269 7.45673 2.8726C7.44111 2.86252 7.42285 2.85714 7.40418 2.85714H3.49159C3.46536 2.85719 3.43942 2.86253 3.41537 2.87285C3.39132 2.88317 3.36968 2.89824 3.35179 2.91713L2.52598 3.78907C2.51325 3.8025 2.50478 3.8193 2.50161 3.8374C2.49844 3.8555 2.5007 3.87413 2.50811 3.89099C2.51553 3.90784 2.52778 3.9222 2.54336 3.9323C2.55894 3.9424 2.57717 3.9478 2.59582 3.94785Z" fill="url(#paint0_linear_1_11)"/>
</g>
<defs>
<linearGradient id="paint0_linear_1_11" x1="2.92206" y1="7.36688" x2="6.956" y2="2.7502" gradientUnits="userSpaceOnUse">
<stop offset="0.08" stop-color="#9945FF"/>
<stop offset="0.3" stop-color="#8752F3"/>
<stop offset="0.5" stop-color="#5497D5"/>
<stop offset="0.6" stop-color="#43B4CA"/>
<stop offset="0.72" stop-color="#28E0B9"/>
<stop offset="0.97" stop-color="#19FB9B"/>
</linearGradient>
<clipPath id="clip0_1_11">
<rect width="5" height="4.40476" fill="white" transform="translate(2.5 2.85714)"/>
</clipPath>
</defs>
</svg>
