<svg width="16" height="16" viewBox="0 0 16 16" fill="none" xmlns="http://www.w3.org/2000/svg">
  <path d="M14.9279 11.4611L12.6168 13.8366C12.5665 13.8882 12.5057 13.9293 12.4382 13.9574C12.3707 13.9855 12.2978 14 12.2242 14H1.2683C1.21603 14 1.16489 13.9854 1.12118 13.9579C1.07746 13.9304 1.04307 13.8913 1.02224 13.8454C1.0014 13.7994 0.995021 13.7486 1.00389 13.6993C1.01275 13.6499 1.03647 13.6041 1.07214 13.5674L3.385 11.192C3.43511 11.1405 3.4957 11.0995 3.56302 11.0714C3.63036 11.0433 3.703 11.0287 3.77645 11.0286H14.7317C14.784 11.0286 14.8351 11.0432 14.8788 11.0707C14.9225 11.0982 14.9569 11.1373 14.9778 11.1832C14.9986 11.2292 15.005 11.2799 14.9961 11.3293C14.9872 11.3787 14.9635 11.4245 14.9279 11.4611ZM12.6168 6.67771C12.5665 6.62611 12.5057 6.58497 12.4382 6.55685C12.3707 6.52875 12.2978 6.51425 12.2242 6.51429H1.2683C1.21603 6.51429 1.16489 6.52892 1.12118 6.5564C1.07746 6.58388 1.04307 6.62299 1.02224 6.66893C1.0014 6.71488 0.995021 6.76566 1.00389 6.81504C1.01275 6.8644 1.03647 6.91022 1.07214 6.94686L3.385 9.32229C3.43511 9.37375 3.4957 9.4148 3.56302 9.44292C3.63036 9.47102 3.703 9.4856 3.77645 9.48571H14.7317C14.784 9.48571 14.8351 9.47108 14.8788 9.4436C14.9225 9.41612 14.9569 9.37701 14.9778 9.33107C14.9986 9.28512 15.005 9.23434 14.9961 9.18496C14.9872 9.1356 14.9635 9.08978 14.9279 9.05314L12.6168 6.67771ZM1.2683 4.97143H12.2242C12.2978 4.97146 12.3707 4.95698 12.4382 4.92886C12.5057 4.90074 12.5665 4.8596 12.6168 4.808L14.9279 2.43257C14.9635 2.39594 14.9872 2.35012 14.9961 2.30075C15.005 2.25138 14.9986 2.2006 14.9778 2.15465C14.9569 2.1087 14.9225 2.06959 14.8788 2.04211C14.8351 2.01464 14.784 2 14.7317 2H3.77645C3.703 2.00012 3.63036 2.01469 3.56302 2.0428C3.4957 2.07091 3.43511 2.11197 3.385 2.16343L1.07273 4.53886C1.0371 4.57545 1.01339 4.62122 1.00451 4.67053C0.995622 4.71985 1.00195 4.7706 1.02271 4.81652C1.04348 4.86245 1.07777 4.90156 1.1214 4.92908C1.16502 4.9566 1.21608 4.97131 1.2683 4.97143Z"
    fill="currentColor" />
</svg>
