<svg width="20" height="21" viewBox="0 0 20 21" fill="none" xmlns="http://www.w3.org/2000/svg">
<path fill-rule="evenodd" clip-rule="evenodd" d="M7.5 4.25C7.77905 4.25 8.02429 4.43499 8.10095 4.7033L8.77862 7.07512C9.07523 8.11327 9.88673 8.92477 10.9249 9.22138L13.2967 9.89905C13.565 9.97571 13.75 10.2209 13.75 10.5C13.75 10.7791 13.565 11.0243 13.2967 11.101L10.9249 11.7786C9.88673 12.0752 9.07523 12.8867 8.77862 13.9249L8.10095 16.2967C8.02429 16.565 7.77905 16.75 7.5 16.75C7.22095 16.75 6.97571 16.565 6.89905 16.2967L6.22138 13.9249C5.92477 12.8867 5.11327 12.0752 4.07512 11.7786L1.7033 11.101C1.43499 11.0243 1.25 10.7791 1.25 10.5C1.25 10.2209 1.43499 9.97571 1.7033 9.89905L4.07512 9.22138C5.11327 8.92477 5.92477 8.11327 6.22138 7.07512L6.89905 4.7033C6.97571 4.43499 7.22095 4.25 7.5 4.25Z" fill="currentColor"/>
<path fill-rule="evenodd" clip-rule="evenodd" d="M15 1.75C15.2868 1.75 15.5368 1.94519 15.6063 2.22342L15.8221 3.0863C16.018 3.87005 16.63 4.482 17.4137 4.67794L18.2766 4.89366C18.5548 4.96322 18.75 5.21321 18.75 5.5C18.75 5.78679 18.5548 6.03678 18.2766 6.10634L17.4137 6.32206C16.63 6.518 16.018 7.12995 15.8221 7.9137L15.6063 8.77658C15.5368 9.05481 15.2868 9.25 15 9.25C14.7132 9.25 14.4632 9.05481 14.3937 8.77658L14.1779 7.9137C13.982 7.12995 13.37 6.518 12.5863 6.32206L11.7234 6.10634C11.4452 6.03678 11.25 5.78679 11.25 5.5C11.25 5.21321 11.4452 4.96322 11.7234 4.89366L12.5863 4.67794C13.37 4.482 13.982 3.87005 14.1779 3.0863L14.3937 2.22342C14.4632 1.94519 14.7132 1.75 15 1.75Z" fill="currentColor"/>
<path fill-rule="evenodd" clip-rule="evenodd" d="M13.75 13C14.019 13 14.2579 13.1721 14.3429 13.4274L14.6715 14.413C14.7959 14.7862 15.0888 15.0791 15.462 15.2035L16.4476 15.5321C16.7029 15.6171 16.875 15.856 16.875 16.125C16.875 16.394 16.7029 16.6329 16.4476 16.7179L15.462 17.0465C15.0888 17.1709 14.7959 17.4638 14.6715 17.837L14.3429 18.8226C14.2579 19.0779 14.019 19.25 13.75 19.25C13.481 19.25 13.2421 19.0779 13.1571 18.8226L12.8285 17.837C12.7041 17.4638 12.4112 17.1709 12.038 17.0465L11.0524 16.7179C10.7971 16.6329 10.625 16.394 10.625 16.125C10.625 15.856 10.7971 15.6171 11.0524 15.5321L12.038 15.2035C12.4112 15.0791 12.7041 14.7862 12.8285 14.413L13.1571 13.4274C13.2421 13.1721 13.481 13 13.75 13Z" fill="currentColor"/>
</svg>
