<svg width="14" height="14" viewBox="0 0 14 14" fill="none" xmlns="http://www.w3.org/2000/svg">
<path d="M6.58894 1.40623C6.61665 1.33537 6.66385 1.27476 6.72453 1.2321C6.78521 1.18944 6.85662 1.16666 6.92969 1.16666C7.00275 1.16666 7.07416 1.18944 7.13484 1.2321C7.19552 1.27476 7.24272 1.33537 7.27043 1.40623L8.6629 4.91643C8.68896 4.98211 8.73181 5.03898 8.78673 5.08079C8.84164 5.12259 8.9065 5.14771 8.97415 5.15337L12.59 5.45694C12.917 5.48441 13.0493 5.91228 12.8003 6.13549L10.0455 8.60932C9.99406 8.65547 9.95571 8.71557 9.93467 8.78305C9.91364 8.85053 9.91073 8.92277 9.92627 8.99187L10.7683 12.6903C10.7852 12.7645 10.7808 12.8422 10.7556 12.9138C10.7303 12.9854 10.6854 13.0475 10.6265 13.0923C10.5676 13.1371 10.4974 13.1627 10.4246 13.1657C10.3519 13.1687 10.28 13.149 10.2179 13.1092L7.12168 11.1278C7.06387 11.0908 6.99743 11.0712 6.92969 11.0712C6.86194 11.0712 6.7955 11.0908 6.73769 11.1278L3.6415 13.1099C3.57942 13.1497 3.50746 13.1694 3.43473 13.1664C3.362 13.1634 3.29175 13.1378 3.23285 13.093C3.17395 13.0482 3.12905 12.986 3.10381 12.9145C3.07858 12.8429 3.07414 12.7651 3.09107 12.6909L3.9331 8.99187C3.94871 8.92277 3.94584 8.85051 3.9248 8.78301C3.90376 8.71552 3.86536 8.65542 3.81384 8.60932L1.05905 6.13549C1.00357 6.08593 0.963382 6.02022 0.943562 5.9467C0.923742 5.87318 0.925185 5.79515 0.94771 5.72249C0.970234 5.64982 1.01283 5.5858 1.07009 5.53853C1.12736 5.49126 1.19672 5.46286 1.26939 5.45694L4.88522 5.15337C4.95287 5.14771 5.01773 5.12259 5.07264 5.08079C5.12756 5.03898 5.17041 4.98211 5.19647 4.91643L6.58894 1.40623Z" stroke="currentColor" stroke-width="1.25" stroke-linecap="round" stroke-linejoin="round"/>
</svg>
