<svg width="16" height="16" viewBox="0 0 16 16" fill="none" xmlns="http://www.w3.org/2000/svg">
<path d="M10.7833 9.1298L10.7833 9.1298C10.511 9.33778 10.3973 9.69345 10.4985 10.0208L10.4985 10.0208L11.7702 14.1362L8.49629 11.6351C8.20328 11.4113 7.79672 11.4113 7.50372 11.6351L7.5037 11.6351L4.22979 14.1362L5.50153 10.0208L5.50153 10.0208C5.60268 9.69345 5.48898 9.33778 5.21675 9.1298L5.21674 9.1298L1.85759 6.56363H5.96681C6.32534 6.56363 6.64204 6.33003 6.7479 5.98748L6.27019 5.83986L6.7479 5.98748L8 1.93557L9.2521 5.98748L9.71411 5.84471L9.2521 5.98748C9.35796 6.33003 9.67466 6.56363 10.0332 6.56363H14.1424L10.7833 9.1298Z" stroke="currentColor"/>
</svg>
