<svg width="64" height="64" viewBox="0 0 64 64" fill="none" xmlns="http://www.w3.org/2000/svg">
<rect width="64" height="64" rx="32" transform="matrix(-1 0 0 1 64 0)" fill="#2CCC98" fill-opacity="0.16"/>
<path fill-rule="evenodd" clip-rule="evenodd" d="M46.7492 19.1364C46.922 19.2676 47.0673 19.4315 47.1766 19.6189C47.286 19.8063 47.3573 20.0134 47.3865 20.2283C47.4157 20.4433 47.4023 20.6619 47.3469 20.8717C47.2915 21.0815 47.1954 21.2782 47.0638 21.4508L29.4638 44.5508C29.3211 44.7379 29.1399 44.8923 28.9326 45.0036C28.7252 45.115 28.4964 45.1807 28.2616 45.1963C28.0268 45.2119 27.7913 45.1771 27.571 45.0943C27.3507 45.0114 27.1507 44.8823 26.9844 44.7158L17.0844 34.8158C16.793 34.503 16.6343 34.0893 16.6419 33.6618C16.6494 33.2344 16.8226 32.8265 17.1249 32.5242C17.4272 32.2219 17.835 32.0487 18.2625 32.0412C18.69 32.0337 19.1037 32.1923 19.4164 32.4838L27.9832 41.0484L44.4392 19.451C44.7041 19.1033 45.0961 18.8749 45.5292 18.8159C45.9623 18.7569 46.4011 18.8722 46.7492 19.1364Z" fill="#3ED9A4"/>
</svg>
