<svg width="13" height="14" viewBox="0 0 13 14" fill="none" xmlns="http://www.w3.org/2000/svg">
<path fill-rule="evenodd" clip-rule="evenodd" d="M0.291341 4.43929C0.534168 4.66477 0.913806 4.65071 1.13929 4.40788L2.69961 2.72753L2.69961 9.59961C2.69961 9.93098 2.96824 10.1996 3.29961 10.1996C3.63098 10.1996 3.89961 9.93098 3.89961 9.59961V2.72753L5.45994 4.40788C5.68542 4.65071 6.06506 4.66477 6.30788 4.43929C6.55071 4.2138 6.56477 3.83417 6.33929 3.59134L3.73929 0.791339C3.62576 0.669079 3.46645 0.599609 3.29961 0.599609C3.13277 0.599609 2.97346 0.669079 2.85994 0.791339L0.259936 3.59134C0.0344542 3.83417 0.0485149 4.2138 0.291341 4.43929ZM6.69134 9.55993C6.44852 9.78542 6.43445 10.1651 6.65994 10.4079L9.25994 13.2079C9.37346 13.3301 9.53277 13.3996 9.69961 13.3996C9.86645 13.3996 10.0258 13.3301 10.1393 13.2079L12.7393 10.4079C12.9648 10.1651 12.9507 9.78542 12.7079 9.55993C12.4651 9.33445 12.0854 9.34851 11.8599 9.59134L10.2996 11.2717V4.39961C10.2996 4.06824 10.031 3.79961 9.69961 3.79961C9.36824 3.79961 9.09961 4.06824 9.09961 4.39961V11.2717L7.53929 9.59134C7.31381 9.34851 6.93417 9.33445 6.69134 9.55993Z" fill="currentColor"/>
</svg>
