<svg width="16" height="16" fill="none" viewBox="0 0 16 16" xmlns="http://www.w3.org/2000/svg"><rect x="0.5" y="1.5" width="15" height="13" rx="0.5" stroke="currentColor"/><path d="M3.67793 8.61754C3.46671 8.79542 3.43967 9.11084 3.61754 9.32207C3.79542 9.53329 4.11084 9.56033 4.32207 9.38246L3.67793 8.61754ZM6.375 7L6.69707 7.38246L7.15123 7L6.69707 6.61754L6.375 7ZM7 10.5C6.72386 10.5 6.5 10.7239 6.5 11C6.5 11.2761 6.72386 11.5 7 11.5V10.5ZM12 11.5C12.2761 11.5 12.5 11.2761 12.5 11C12.5 10.7239 12.2761 10.5 12 10.5V11.5ZM4.32207 4.61754C4.11084 4.43967 3.79542 4.46671 3.61754 4.67793C3.43967 4.88916 3.46671 5.20458 3.67793 5.38246L4.32207 4.61754ZM4.32207 9.38246L6.69707 7.38246L6.05293 6.61754L3.67793 8.61754L4.32207 9.38246ZM7 11.5H12V10.5H7V11.5ZM6.69707 6.61754L4.32207 4.61754L3.67793 5.38246L6.05293 7.38246L6.69707 6.61754Z" fill="currentColor"/></svg>
