<svg width="14" height="14" viewBox="0 0 14 14" fill="none" xmlns="http://www.w3.org/2000/svg">
  <path d="M2 8.25V1.125M2 8.25C2.33152 8.25 2.64946 8.3817 2.88388 8.61612C3.1183 8.85054 3.25 9.16848 3.25 9.5C3.25 9.83152 3.1183 10.1495 2.88388 10.3839C2.64946 10.6183 2.33152 10.75 2 10.75M2 8.25C1.66848 8.25 1.35054 8.3817 1.11612 8.61612C0.881696 8.85054 0.75 9.16848 0.75 9.5C0.75 9.83152 0.881696 10.1495 1.11612 10.3839C1.35054 10.6183 1.66848 10.75 2 10.75M2 10.75V12.875M12 8.25V1.125M12 8.25C12.3315 8.25 12.6495 8.3817 12.8839 8.61612C13.1183 8.85054 13.25 9.16848 13.25 9.5C13.25 9.83152 13.1183 10.1495 12.8839 10.3839C12.6495 10.6183 12.3315 10.75 12 10.75M12 8.25C11.6685 8.25 11.3505 8.3817 11.1161 8.61612C10.8817 8.85054 10.75 9.16848 10.75 9.5C10.75 9.83152 10.8817 10.1495 11.1161 10.3839C11.3505 10.6183 11.6685 10.75 12 10.75M12 10.75V12.875M7 3.25V1.125M7 3.25C7.33152 3.25 7.64946 3.3817 7.88388 3.61612C8.1183 3.85054 8.25 4.16848 8.25 4.5C8.25 4.83152 8.1183 5.14946 7.88388 5.38388C7.64946 5.6183 7.33152 5.75 7 5.75M7 3.25C6.66848 3.25 6.35054 3.3817 6.11612 3.61612C5.8817 3.85054 5.75 4.16848 5.75 4.5C5.75 4.83152 5.8817 5.14946 6.11612 5.38388C6.35054 5.6183 6.66848 5.75 7 5.75M7 5.75V12.875" stroke="currentColor" stroke-width="1.5" stroke-linecap="round" stroke-linejoin="round"/>
</svg>
