<svg width="26" height="26" viewBox="0 0 26 26" fill="none" xmlns="http://www.w3.org/2000/svg">
    <path fill-rule="evenodd" clip-rule="evenodd"
        d="M25.6156 18.4129C25.5 18.307 25.3644 18.2247 25.2165 18.1706C25.0686 18.1165 24.9114 18.0916 24.7538 18.0975C24.5962 18.1034 24.4414 18.1398 24.298 18.2048C24.1547 18.2698 24.0258 18.362 23.9186 18.4761L20.7966 21.7955L20.7966 10.0243C20.7966 9.70993 20.6701 9.4084 20.4449 9.18608C20.2197 8.96376 19.9143 8.83887 19.5959 8.83887C19.2774 8.83887 18.972 8.96376 18.7468 9.18608C18.5216 9.4084 18.3951 9.70993 18.3951 10.0243L18.3951 21.7955L15.2732 18.4761C15.166 18.362 15.037 18.2698 14.8937 18.2048C14.7504 18.1399 14.5955 18.1034 14.4379 18.0975C14.2803 18.0917 14.1231 18.1165 13.9753 18.1706C13.8274 18.2247 13.6918 18.3071 13.5761 18.4129C13.4605 18.5188 13.3671 18.6461 13.3013 18.7876C13.2355 18.9291 13.1986 19.082 13.1926 19.2376C13.1867 19.3931 13.2118 19.5484 13.2667 19.6943C13.3215 19.8403 13.4049 19.9742 13.5121 20.0884L18.7153 25.6206C18.8277 25.7403 18.964 25.8358 19.1155 25.9011C19.267 25.9664 19.4305 26.0001 19.5959 26.0001C19.7612 26.0001 19.9247 25.9664 20.0763 25.9011C20.2278 25.8358 20.364 25.7403 20.4764 25.6206L25.6796 20.0884C25.7869 19.9742 25.8703 19.8403 25.9251 19.6943C25.9799 19.5484 26.0051 19.3931 25.9991 19.2376C25.9932 19.082 25.9563 18.9291 25.8905 18.7876C25.8247 18.6461 25.7313 18.5188 25.6156 18.4129Z"
        fill="currentColor" />
    <path
        d="M12.6986 7.21251C12.6328 7.354 12.5394 7.48131 12.4237 7.58716C12.3081 7.69303 12.1725 7.77538 12.0246 7.8295C11.8767 7.88363 11.7195 7.90846 11.5619 7.90259C11.4043 7.89672 11.2495 7.86026 11.1061 7.79529C10.9628 7.73032 10.8339 7.63811 10.7267 7.52394L7.60473 4.20462L7.60473 15.9757C7.60473 16.2902 7.47822 16.5917 7.25304 16.814C7.02785 17.0363 6.72244 17.1612 6.40398 17.1612C6.08552 17.1612 5.78011 17.0363 5.55493 16.814C5.32974 16.5917 5.20324 16.2902 5.20324 15.9757L5.20324 4.20462L2.0813 7.52394C1.97407 7.6381 1.84512 7.73029 1.70181 7.79526C1.55849 7.86022 1.40362 7.89668 1.24604 7.90255C1.08845 7.90842 0.931238 7.88359 0.783372 7.82947C0.635505 7.77536 0.499879 7.69302 0.384244 7.58716C0.268609 7.4813 0.175229 7.35399 0.109429 7.2125C0.0436293 7.07101 0.00670307 6.9181 0.000755968 6.76252C-0.00519114 6.60694 0.0199573 6.45173 0.0747687 6.30574C0.12958 6.15976 0.212983 6.02586 0.320208 5.91169L5.52344 0.379505C5.63584 0.259806 5.77207 0.164314 5.92359 0.0990108C6.07511 0.0337073 6.23865 -2.8716e-07 6.40398 -2.79933e-07C6.56931 -2.72706e-07 6.73286 0.0337074 6.88438 0.0990108C7.0359 0.164314 7.17213 0.259806 7.28453 0.379505L12.4878 5.9117C12.595 6.02585 12.6784 6.15975 12.7332 6.30573C12.788 6.45172 12.8132 6.60694 12.8073 6.76252C12.8013 6.91811 12.7644 7.07101 12.6986 7.21251Z"
        fill="currentColor" />
</svg>