<svg width="28" height="28" viewBox="0 0 28 28" fill="none" xmlns="http://www.w3.org/2000/svg">
    <path fill-rule="evenodd" clip-rule="evenodd"
        d="M22.9835 21.9836C22.4584 22.5087 21.7463 22.8037 21.0037 22.8037L7.00365 22.8037C6.26105 22.8037 5.54886 22.5087 5.02375 21.9836C4.49865 21.4585 4.20365 20.7463 4.20365 20.0037L4.20365 7.40371C4.20365 8.14632 4.49865 8.85851 5.02375 9.38361C5.54886 9.90871 6.26105 10.2037 7.00365 10.2037L21.0037 10.2037C21.7463 10.2037 22.4584 10.4987 22.9835 11.0238C23.5087 11.5489 23.8036 12.2611 23.8036 13.0037L23.8036 20.0037C23.8036 20.7463 23.5087 21.4585 22.9835 21.9836ZM19.2526 17.7529C19.943 17.7529 20.5026 17.1933 20.5026 16.5029C20.5026 15.8126 19.943 15.2529 19.2526 15.2529C18.5623 15.2529 18.0026 15.8126 18.0026 16.5029C18.0026 17.1933 18.5623 17.7529 19.2526 17.7529Z"
        fill="currentColor" />
    <path
        d="M18.2018 8.80225L18.2018 7.40225C18.2018 6.65964 17.9068 5.94745 17.3817 5.42235C16.8566 4.89725 16.1444 4.60225 15.4018 4.60225L7.70178 4.60225C7.14483 4.60225 6.61068 4.8235 6.21686 5.21732C5.82303 5.61115 5.60178 6.14529 5.60178 6.70225C5.60178 7.2592 5.82303 7.79334 6.21686 8.18717C6.61068 8.581 7.14483 8.80225 7.70178 8.80225L18.2018 8.80225Z"
        fill="currentColor" />
</svg>