<svg width="20" height="20" viewBox="0 0 20 20" fill="none" xmlns="http://www.w3.org/2000/svg">
<path fill-rule="evenodd" clip-rule="evenodd" d="M12.577 15.3435C12.6842 15.7254 13.0954 15.952 13.4955 15.8497L18.2766 14.6268C18.4687 14.5777 18.6326 14.4577 18.732 14.2933C18.8315 14.1288 18.8584 13.9334 18.8069 13.75L17.5258 9.18628C17.4186 8.80437 17.0074 8.57772 16.6073 8.68006C16.2072 8.78239 15.9698 9.17495 16.077 9.55686L16.8864 12.4406C14.6303 11.1136 12.7541 9.41411 11.2935 7.47433C11.165 7.30375 10.9646 7.19562 10.7452 7.1786C10.5259 7.16158 10.3098 7.23739 10.1541 7.38593L6.99999 10.3967L2.28033 5.89158C1.98743 5.612 1.51256 5.612 1.21967 5.89158C0.926777 6.17116 0.926777 6.62445 1.21967 6.90403L6.46966 11.9154C6.76255 12.195 7.23742 12.195 7.53032 11.9154L10.6039 8.9815C12.1048 10.8073 13.9633 12.4109 16.1492 13.6886L13.1073 14.4667C12.7072 14.569 12.4698 14.9616 12.577 15.3435Z" fill="currentColor"/>
</svg>
