<svg width="21" height="21" viewBox="0 0 21 21" fill="none" xmlns="http://www.w3.org/2000/svg">
<path d="M5.94245 17.0556C6.10625 17.2194 6.32185 17.302 6.53605 17.302C6.75165 17.302 6.96725 17.2194 7.13105 17.0556C7.45865 16.7266 7.45865 16.196 7.13105 15.867C5.27885 14.0148 5.27885 11.002 7.13105 9.1498C8.98185 7.299 11.9961 7.299 13.8469 9.1498L14.1507 9.4536H12.1459C11.6825 9.4536 11.3059 9.8302 11.3059 10.2936C11.3059 10.7584 11.6825 11.1336 12.1459 11.1336H16.0995C16.5629 11.1336 16.9395 10.7584 16.9395 10.2936V6.34C16.9395 5.8766 16.5629 5.5 16.0995 5.5C15.6361 5.5 15.2595 5.8766 15.2595 6.34V8.1866L15.0355 7.9626C12.5281 5.4552 8.44985 5.4552 5.94245 7.9626C3.43505 10.47 3.43505 14.5482 5.94245 17.0556Z" fill="currentColor"/>
</svg>
