<svg xmlns="http://www.w3.org/2000/svg" width="14" height="14" viewBox="0 0 14 14" fill="none">
  <path fill-rule="evenodd" clip-rule="evenodd" d="M6.69083 1.44088C6.77286 1.35895 6.88406 1.31293 7 1.31293C7.11594 1.31293 7.22713 1.35895 7.30917 1.44088L9.93417 4.06588C10.0114 4.14881 10.0535 4.25851 10.0515 4.37185C10.0495 4.48519 10.0036 4.59333 9.92345 4.67349C9.84329 4.75365 9.73515 4.79956 9.6218 4.80156C9.50846 4.80356 9.39877 4.76149 9.31583 4.68421L7.4375 2.80588V9.62504C7.4375 9.74108 7.39141 9.85236 7.30936 9.9344C7.22731 10.0164 7.11603 10.0625 7 10.0625C6.88397 10.0625 6.77269 10.0164 6.69064 9.9344C6.60859 9.85236 6.5625 9.74108 6.5625 9.62504V2.80588L4.68417 4.68421C4.60123 4.76149 4.49154 4.80356 4.3782 4.80156C4.26485 4.79956 4.15671 4.75365 4.07655 4.67349C3.9964 4.59333 3.95048 4.48519 3.94848 4.37185C3.94648 4.25851 3.98855 4.14881 4.06583 4.06588L6.69083 1.44088ZM1.75 9.18754C1.86603 9.18754 1.97731 9.23364 2.05936 9.31568C2.14141 9.39773 2.1875 9.50901 2.1875 9.62504V10.9375C2.1875 11.1696 2.27969 11.3922 2.44378 11.5563C2.60788 11.7204 2.83044 11.8125 3.0625 11.8125H10.9375C11.1696 11.8125 11.3921 11.7204 11.5562 11.5563C11.7203 11.3922 11.8125 11.1696 11.8125 10.9375V9.62504C11.8125 9.50901 11.8586 9.39773 11.9406 9.31568C12.0227 9.23364 12.134 9.18754 12.25 9.18754C12.366 9.18754 12.4773 9.23364 12.5594 9.31568C12.6414 9.39773 12.6875 9.50901 12.6875 9.62504V10.9375C12.6875 11.4017 12.5031 11.8468 12.1749 12.175C11.8467 12.5032 11.4016 12.6875 10.9375 12.6875H3.0625C2.59837 12.6875 2.15325 12.5032 1.82506 12.175C1.49687 11.8468 1.3125 11.4017 1.3125 10.9375V9.62504C1.3125 9.50901 1.35859 9.39773 1.44064 9.31568C1.52269 9.23364 1.63397 9.18754 1.75 9.18754Z" fill="#C8C7D8"/>
</svg>