<svg width="24" height="25" viewBox="0 0 24 25" fill="none" xmlns="http://www.w3.org/2000/svg">
<circle cx="12" cy="12.0664" r="12" fill="white"/>
<path d="M12 24.0664C5.37193 24.0664 0 18.6945 0 12.0665C0 5.43834 5.37193 0.0664062 12 0.0664062C18.6281 0.0664062 24 5.43834 24 12.0665C24 15.2491 22.7357 18.3012 20.4853 20.5517C18.2348 22.8021 15.1826 24.0664 12 24.0664ZM11.2851 7.61367C10.6285 7.64623 10.0079 7.92305 9.54492 8.38977C9.08196 8.85649 8.8102 9.4794 8.78298 10.1362C8.78298 11.372 9.53873 12.1788 11.1421 12.5158L12.2656 12.7814C13.3583 13.0367 13.8077 13.4043 13.8077 14.0273C13.8077 14.6503 13.0213 15.263 12 15.263C11.6373 15.2963 11.2725 15.2268 10.9474 15.0624C10.6223 14.8981 10.35 14.6455 10.1617 14.3337C10.1059 14.2154 10.0178 14.1152 9.90764 14.0447C9.79742 13.9743 9.66955 13.9364 9.53873 13.9354H8.93618C8.88985 13.944 8.84566 13.9616 8.80618 13.9874C8.76669 14.0131 8.73269 14.0464 8.7061 14.0853C8.67952 14.1242 8.66092 14.168 8.65131 14.2141C8.64172 14.2603 8.64136 14.3078 8.65023 14.3541C8.797 14.9532 9.13826 15.4866 9.62059 15.871C10.1029 16.2554 10.6991 16.469 11.3158 16.4784V17.3362C11.3158 17.5272 11.3916 17.7104 11.5266 17.8454C11.6617 17.9804 11.8448 18.0562 12.0358 18.0562C12.2267 18.0562 12.4098 17.9804 12.5449 17.8454C12.6799 17.7104 12.7558 17.5272 12.7558 17.3362V16.4682C13.4531 16.4603 14.1197 16.1804 14.6138 15.6883C15.1079 15.1961 15.3903 14.5305 15.4009 13.8333C15.4009 12.5362 14.6553 11.7907 12.8885 11.4128L11.8672 11.1881C10.846 10.9328 10.366 10.5958 10.366 10.0239C10.366 9.45198 10.9787 8.81878 12 8.81878C12.3216 8.78519 12.6461 8.84542 12.9343 8.99221C13.2224 9.139 13.4619 9.36609 13.6238 9.64602C13.6895 9.78581 13.7934 9.90414 13.9235 9.9873C14.0537 10.0704 14.2047 10.115 14.3592 10.1158H14.8392C14.9483 10.0891 15.0426 10.0207 15.1018 9.92517C15.161 9.82968 15.1804 9.71478 15.1558 9.60516C15.0174 9.05208 14.7079 8.55681 14.2714 8.19001C13.8349 7.82324 13.2938 7.60366 12.7251 7.5626V6.85792C12.7251 6.66696 12.6493 6.48383 12.5142 6.34881C12.3792 6.21379 12.1961 6.13792 12.0051 6.13792C11.8142 6.13792 11.631 6.21379 11.496 6.34881C11.361 6.48383 11.2851 6.66696 11.2851 6.85792V7.61367ZM3.00256 12.0665C3.00373 13.9477 3.59589 15.7811 4.69542 17.3076C5.79493 18.834 7.34624 19.9766 9.13022 20.5737H9.27321C9.39509 20.5737 9.51198 20.5253 9.59818 20.4392C9.68435 20.353 9.73277 20.236 9.73277 20.114V19.8996C9.73311 19.7095 9.677 19.5236 9.57154 19.3655C9.4661 19.2073 9.31605 19.084 9.14044 19.0111C7.7511 18.4504 6.56103 17.4872 5.72302 16.2452C4.88501 15.0032 4.43726 13.5392 4.43726 12.0409C4.43726 10.5427 4.88501 9.07859 5.72302 7.83663C6.56103 6.59467 7.7511 5.63146 9.14044 5.07069C9.31524 4.99968 9.46493 4.87821 9.57044 4.72179C9.67594 4.56536 9.73246 4.38107 9.73277 4.19238V3.95748C9.73345 3.88852 9.71745 3.82041 9.6862 3.75894C9.65492 3.69745 9.60929 3.64441 9.55318 3.60434C9.49704 3.56425 9.43208 3.53828 9.3638 3.52865C9.29551 3.519 9.22589 3.52597 9.16087 3.54897C7.3695 4.14142 5.81034 5.28321 4.70485 6.81222C3.59935 8.34122 3.00373 10.1797 3.00256 12.0665ZM20.9974 12.0665C20.9942 10.1869 20.4011 8.35584 19.3015 6.83139C18.2022 5.30692 16.6522 4.16597 14.8698 3.5694H14.7166C14.5893 3.5694 14.4672 3.61998 14.3772 3.71C14.2872 3.8 14.2366 3.92211 14.2366 4.04939V4.2026C14.2407 4.39956 14.3017 4.59115 14.4123 4.75423C14.5228 4.91731 14.6782 5.04495 14.8596 5.12175C16.2458 5.68418 17.4327 6.64743 18.2681 7.88822C19.1038 9.12903 19.5502 10.591 19.5502 12.0869C19.5502 13.5828 19.1038 15.0447 18.2681 16.2855C17.4327 17.5263 16.2458 18.4895 14.8596 19.052C14.6816 19.1297 14.5295 19.2563 14.4209 19.4172C14.3124 19.5783 14.252 19.7669 14.2468 19.961V20.1345C14.2477 20.2103 14.2665 20.2848 14.3016 20.3519C14.3368 20.4189 14.3872 20.4767 14.449 20.5204C14.5107 20.5643 14.582 20.5928 14.6569 20.6039C14.7318 20.6149 14.8083 20.6081 14.88 20.5838C16.6636 19.9844 18.2141 18.8396 19.3117 17.3112C20.4094 15.7829 20.9992 13.9482 20.9974 12.0665Z" fill="#366EDD"/>
</svg>
