<svg width="28" height="29" viewBox="0 0 28 29" fill="none" xmlns="http://www.w3.org/2000/svg">
<g clip-path="url(#clip0_41641_31961)">
<path d="M14 28.5C21.732 28.5 28 22.232 28 14.5C28 6.76801 21.732 0.5 14 0.5C6.26801 0.5 0 6.76801 0 14.5C0 22.232 6.26801 28.5 14 28.5Z" fill="#366EDD"/>
<path d="M14.0003 23.8326C8.84515 23.8326 4.66699 19.6545 4.66699 14.4994C4.66699 9.34418 8.84515 5.16602 14.0003 5.16602C19.1555 5.16602 23.3336 9.34418 23.3336 14.4994C23.3336 16.9747 22.3503 19.3486 20.6 21.0989C18.8496 22.8493 16.4757 23.8326 14.0003 23.8326ZM13.4443 11.0361C12.9336 11.0614 12.4509 11.2767 12.0908 11.6397C11.7307 12.0027 11.5194 12.4872 11.4982 12.9981C11.4982 13.9592 12.086 14.5867 13.3331 14.8489L14.2069 15.0554C15.0568 15.254 15.4063 15.5399 15.4063 16.0245C15.4063 16.509 14.7946 16.9856 14.0003 16.9856C13.7182 17.0115 13.4345 16.9574 13.1816 16.8296C12.9287 16.7017 12.717 16.5053 12.5705 16.2627C12.5272 16.1707 12.4586 16.0928 12.3729 16.038C12.2872 15.9832 12.1877 15.9537 12.086 15.953H11.6173C11.5813 15.9596 11.5469 15.9734 11.5162 15.9934C11.4855 16.0134 11.4591 16.0393 11.4384 16.0695C11.4177 16.0998 11.4032 16.1339 11.3958 16.1698C11.3883 16.2056 11.388 16.2426 11.3949 16.2786C11.5091 16.7446 11.7745 17.1595 12.1497 17.4584C12.5248 17.7574 12.9885 17.9235 13.4681 17.9309V18.598C13.4681 18.7466 13.5271 18.889 13.6321 18.994C13.7372 19.099 13.8796 19.158 14.0281 19.158C14.1766 19.158 14.3191 19.099 14.4241 18.994C14.5291 18.889 14.5881 18.7466 14.5881 18.598V17.9229C15.1305 17.9167 15.649 17.6991 16.0333 17.3163C16.4175 16.9335 16.6372 16.4159 16.6454 15.8735C16.6454 14.8647 16.0656 14.2849 14.6914 13.991L13.8971 13.8162C13.1027 13.6177 12.7294 13.3555 12.7294 12.9107C12.7294 12.4659 13.206 11.9734 14.0003 11.9734C14.2505 11.9473 14.5029 11.9941 14.727 12.1083C14.9511 12.2225 15.1374 12.3991 15.2633 12.6168C15.3143 12.7255 15.3952 12.8176 15.4964 12.8822C15.5976 12.9469 15.7151 12.9816 15.8352 12.9822H16.2086C16.2934 12.9614 16.3668 12.9082 16.4128 12.8339C16.4589 12.7597 16.4739 12.6703 16.4548 12.585C16.3472 12.1549 16.1065 11.7696 15.767 11.4844C15.4275 11.1991 15.0066 11.0283 14.5643 10.9964V10.4483C14.5643 10.2998 14.5053 10.1573 14.4003 10.0523C14.2952 9.9473 14.1528 9.88829 14.0043 9.88829C13.8558 9.88829 13.7133 9.9473 13.6083 10.0523C13.5033 10.1573 13.4443 10.2998 13.4443 10.4483V11.0361ZM7.00232 14.4994C7.00323 15.9626 7.46379 17.3885 8.31898 18.5758C9.17415 19.763 10.3807 20.6516 11.7683 21.1161H11.8795C11.9743 21.1161 12.0652 21.0785 12.1322 21.0114C12.1993 20.9444 12.2369 20.8534 12.2369 20.7586V20.5918C12.2372 20.4439 12.1935 20.2994 12.1115 20.1763C12.0295 20.0533 11.9128 19.9574 11.7762 19.9007C10.6956 19.4646 9.77001 18.7154 9.11822 17.7495C8.46643 16.7835 8.11819 15.6448 8.11819 14.4795C8.11819 13.3142 8.46643 12.1755 9.11822 11.2095C9.77001 10.2435 10.6956 9.49438 11.7762 9.05823C11.9122 9.003 12.0286 8.90851 12.1107 8.78685C12.1927 8.66519 12.2367 8.52185 12.2369 8.3751V8.1924C12.2374 8.13876 12.225 8.08579 12.2007 8.03798C12.1764 7.99015 12.1409 7.9489 12.0972 7.91773C12.0536 7.88655 12.003 7.86635 11.9499 7.85886C11.8968 7.85136 11.8427 7.85678 11.7921 7.87467C10.3988 8.33546 9.18614 9.22351 8.32631 10.4127C7.46648 11.602 7.00323 13.0319 7.00232 14.4994ZM20.9983 14.4994C20.9958 13.0375 20.5345 11.6133 19.6793 10.4277C18.8242 9.24196 17.6187 8.35455 16.2324 7.89056H16.1132C16.0142 7.89056 15.9193 7.9299 15.8492 7.99991C15.7792 8.06991 15.7399 8.16489 15.7399 8.26388V8.38304C15.7431 8.53624 15.7906 8.68525 15.8765 8.81209C15.9625 8.93893 16.0833 9.03821 16.2244 9.09793C17.3026 9.53538 18.2257 10.2846 18.8755 11.2496C19.5255 12.2147 19.8727 13.3517 19.8727 14.5152C19.8727 15.6787 19.5255 16.8158 18.8755 17.7808C18.2257 18.7459 17.3026 19.4951 16.2244 19.9326C16.086 19.9929 15.9677 20.0915 15.8832 20.2166C15.7988 20.3419 15.7519 20.4885 15.7478 20.6396V20.7745C15.7485 20.8335 15.7631 20.8914 15.7904 20.9435C15.8178 20.9957 15.8571 21.0407 15.9051 21.0746C15.9531 21.1087 16.0085 21.131 16.0668 21.1395C16.125 21.1481 16.1845 21.1429 16.2403 21.124C17.6276 20.6578 18.8335 19.7674 19.6872 18.5786C20.541 17.3899 20.9997 15.9629 20.9983 14.4994Z" fill="white"/>
</g>
<defs>
<clipPath id="clip0_41641_31961">
<rect width="28" height="28" fill="white" transform="translate(0 0.5)"/>
</clipPath>
</defs>
</svg>
