<svg width="16" height="16" viewBox="0 0 16 16" fill="none" xmlns="http://www.w3.org/2000/svg">
<path d="M11.9997 14.0003C11.9997 12.5858 11.4378 11.2293 10.4376 10.2291C9.43738 9.2289 8.08083 8.66699 6.66634 8.66699C5.25185 8.66699 3.8953 9.2289 2.89511 10.2291C1.89491 11.2293 1.33301 12.5858 1.33301 14.0003" stroke="currentColor" stroke-linecap="round" stroke-linejoin="round"/>
<path d="M6.66634 8.66667C8.50729 8.66667 9.99967 7.17428 9.99967 5.33333C9.99967 3.49238 8.50729 2 6.66634 2C4.82539 2 3.33301 3.49238 3.33301 5.33333C3.33301 7.17428 4.82539 8.66667 6.66634 8.66667Z" stroke="currentColor" stroke-linecap="round" stroke-linejoin="round"/>
<path d="M14.6669 13.3335C14.6669 11.0868 13.3335 9.00013 12.0002 8.00013C12.4385 7.67131 12.7889 7.23952 13.0206 6.74298C13.2522 6.24643 13.3579 5.70044 13.3282 5.15333C13.2985 4.60622 13.1345 4.07485 12.8505 3.60626C12.5666 3.13767 12.1715 2.7463 11.7002 2.4668" stroke="currentColor" stroke-linecap="round" stroke-linejoin="round"/>
</svg>
