<svg width="24" height="25" viewBox="0 0 24 25" fill="none" xmlns="http://www.w3.org/2000/svg">
<path fill-rule="evenodd" clip-rule="evenodd" d="M8.25 7.25C8.25 6.25544 8.64509 5.30161 9.34835 4.59835C10.0516 3.89509 11.0054 3.5 12 3.5C12.9946 3.5 13.9484 3.89509 14.6517 4.59835C15.3549 5.30161 15.75 6.25544 15.75 7.25C15.75 8.24456 15.3549 9.19839 14.6517 9.90165C13.9484 10.6049 12.9946 11 12 11C11.0054 11 10.0516 10.6049 9.34835 9.90165C8.64509 9.19839 8.25 8.24456 8.25 7.25ZM15.75 10.25C15.75 9.45435 16.0661 8.69129 16.6287 8.12868C17.1913 7.56607 17.9544 7.25 18.75 7.25C19.5456 7.25 20.3087 7.56607 20.8713 8.12868C21.4339 8.69129 21.75 9.45435 21.75 10.25C21.75 11.0456 21.4339 11.8087 20.8713 12.3713C20.3087 12.9339 19.5456 13.25 18.75 13.25C17.9544 13.25 17.1913 12.9339 16.6287 12.3713C16.0661 11.8087 15.75 11.0456 15.75 10.25ZM2.25 10.25C2.25 9.45435 2.56607 8.69129 3.12868 8.12868C3.69129 7.56607 4.45435 7.25 5.25 7.25C6.04565 7.25 6.80871 7.56607 7.37132 8.12868C7.93393 8.69129 8.25 9.45435 8.25 10.25C8.25 11.0456 7.93393 11.8087 7.37132 12.3713C6.80871 12.9339 6.04565 13.25 5.25 13.25C4.45435 13.25 3.69129 12.9339 3.12868 12.3713C2.56607 11.8087 2.25 11.0456 2.25 10.25ZM6.31 15.617C6.91995 14.661 7.76108 13.8743 8.75562 13.3294C9.75016 12.7846 10.866 12.4994 12 12.5C12.9498 12.4991 13.8891 12.6989 14.7564 13.0862C15.6237 13.4734 16.3994 14.0395 17.0327 14.7474C17.6661 15.4552 18.1428 16.2888 18.4317 17.1936C18.7205 18.0985 18.815 19.0541 18.709 19.998C18.696 20.1153 18.6556 20.2278 18.591 20.3265C18.5263 20.4252 18.4393 20.5073 18.337 20.566C16.4086 21.6725 14.2233 22.2532 12 22.25C9.695 22.25 7.53 21.638 5.663 20.566C5.56069 20.5073 5.47368 20.4252 5.40904 20.3265C5.34441 20.2278 5.30396 20.1153 5.291 19.998C5.12305 18.4646 5.48246 16.9198 6.31 15.618V15.617Z" fill="currentColor"/>
<path d="M5.08208 14.754C4.09584 16.2764 3.63633 18.0803 3.77408 19.889C3.17359 19.798 2.58299 19.6506 2.01008 19.449L1.89508 19.409C1.79248 19.3726 1.70263 19.3072 1.63643 19.2208C1.57023 19.1343 1.53051 19.0305 1.52208 18.922L1.51208 18.801C1.47169 18.299 1.53284 17.7939 1.69188 17.316C1.85093 16.8382 2.10462 16.3972 2.4378 16.0195C2.77099 15.6418 3.17685 15.3351 3.63116 15.1177C4.08547 14.9002 4.57893 14.7766 5.08208 14.754ZM20.2261 19.889C20.3638 18.0803 19.9043 16.2764 18.9181 14.754C19.4212 14.7766 19.9147 14.9002 20.369 15.1177C20.8233 15.3351 21.2292 15.6418 21.5624 16.0195C21.8955 16.3972 22.1492 16.8382 22.3083 17.316C22.4673 17.7939 22.5285 18.299 22.4881 18.801L22.4781 18.922C22.4695 19.0304 22.4297 19.1339 22.3635 19.2202C22.2973 19.3064 22.2075 19.3717 22.1051 19.408L21.9901 19.448C21.4231 19.648 20.8341 19.797 20.2261 19.889Z" fill="currentColor"/>
</svg>
