<svg width="16" height="16" viewBox="0 0 16 16" fill="none" xmlns="http://www.w3.org/2000/svg">
  <path d="M13.3337 8.66664C13.3337 12 11.0003 13.6666 8.22699 14.6333C8.08177 14.6825 7.92402 14.6802 7.78033 14.6266C5.00033 13.6666 2.66699 12 2.66699 8.66664V3.99997C2.66699 3.82316 2.73723 3.65359 2.86225 3.52857C2.98728 3.40355 3.15685 3.33331 3.33366 3.33331C4.66699 3.33331 6.33366 2.53331 7.49366 1.51997C7.6349 1.39931 7.81456 1.33301 8.00033 1.33301C8.18609 1.33301 8.36576 1.39931 8.50699 1.51997C9.67366 2.53997 11.3337 3.33331 12.667 3.33331C12.8438 3.33331 13.0134 3.40355 13.1384 3.52857C13.2634 3.65359 13.3337 3.82316 13.3337 3.99997V8.66664Z"
    stroke="currentColor" stroke-linecap="round" stroke-linejoin="round" />
  <path d="M4.25 12.6071C4.53447 11.8419 5.04628 11.1821 5.71668 10.7162C6.38708 10.2503 7.18398 10.0008 8.00036 10.001C8.81674 10.0012 9.61351 10.2512 10.2837 10.7174C10.9538 11.1837 11.4653 11.8438 11.7493 12.6091"
    stroke="currentColor" stroke-linecap="round" stroke-linejoin="round" />
  <path d="M8.00065 10.0003C9.47341 10.0003 10.6673 8.80642 10.6673 7.33366C10.6673 5.8609 9.47341 4.66699 8.00065 4.66699C6.52789 4.66699 5.33398 5.8609 5.33398 7.33366C5.33398 8.80642 6.52789 10.0003 8.00065 10.0003Z"
    stroke="currentColor" stroke-linecap="round" stroke-linejoin="round" />
</svg>
