<svg width="20" height="21" viewBox="0 0 20 21" fill="none" xmlns="http://www.w3.org/2000/svg">
<path d="M5 3C3.61929 3 2.5 4.11929 2.5 5.5V6.75C2.5 7.09518 2.77982 7.375 3.125 7.375C3.47018 7.375 3.75 7.09518 3.75 6.75V5.5C3.75 4.80964 4.30964 4.25 5 4.25H6.25C6.59518 4.25 6.875 3.97018 6.875 3.625C6.875 3.27982 6.59518 3 6.25 3H5Z" fill="currentColor"/>
<path d="M13.75 3C13.4048 3 13.125 3.27982 13.125 3.625C13.125 3.97018 13.4048 4.25 13.75 4.25H15C15.6904 4.25 16.25 4.80964 16.25 5.5V6.75C16.25 7.09518 16.5298 7.375 16.875 7.375C17.2202 7.375 17.5 7.09518 17.5 6.75V5.5C17.5 4.11929 16.3807 3 15 3H13.75Z" fill="currentColor"/>
<path d="M10 7.375C8.27411 7.375 6.875 8.77411 6.875 10.5C6.875 12.2259 8.27411 13.625 10 13.625C11.7259 13.625 13.125 12.2259 13.125 10.5C13.125 8.77411 11.7259 7.375 10 7.375Z" fill="currentColor"/>
<path d="M3.75 14.25C3.75 13.9048 3.47018 13.625 3.125 13.625C2.77982 13.625 2.5 13.9048 2.5 14.25V15.5C2.5 16.8807 3.61929 18 5 18H6.25C6.59518 18 6.875 17.7202 6.875 17.375C6.875 17.0298 6.59518 16.75 6.25 16.75H5C4.30964 16.75 3.75 16.1904 3.75 15.5V14.25Z" fill="currentColor"/>
<path d="M17.5 14.25C17.5 13.9048 17.2202 13.625 16.875 13.625C16.5298 13.625 16.25 13.9048 16.25 14.25V15.5C16.25 16.1904 15.6904 16.75 15 16.75H13.75C13.4048 16.75 13.125 17.0298 13.125 17.375C13.125 17.7202 13.4048 18 13.75 18H15C16.3807 18 17.5 16.8807 17.5 15.5V14.25Z" fill="currentColor"/>
</svg>
