<svg width="16" height="16" viewBox="0 0 16 16" fill="none" xmlns="http://www.w3.org/2000/svg">
<path d="M1.51533 3.75C2.0629 3.26569 2.76898 2.99887 3.5 3H12.5C13.2607 3 13.9553 3.28333 14.4847 3.75C14.4238 3.26662 14.1885 2.8221 13.8231 2.49988C13.4577 2.17767 12.9872 1.99991 12.5 2H3.5C3.0128 1.99991 2.54233 2.17767 2.1769 2.49988C1.81148 2.8221 1.57623 3.26662 1.51533 3.75ZM1.51533 5.75C2.0629 5.26569 2.76898 4.99887 3.5 5H12.5C13.2607 5 13.9553 5.28333 14.4847 5.75C14.4238 5.26662 14.1885 4.8221 13.8231 4.49988C13.4577 4.17767 12.9872 3.99991 12.5 4H3.5C3.0128 3.99991 2.54233 4.17767 2.1769 4.49988C1.81148 4.8221 1.57623 5.26662 1.51533 5.75ZM3.5 6C2.96957 6 2.46086 6.21071 2.08579 6.58579C1.71071 6.96086 1.5 7.46957 1.5 8V12C1.5 12.5304 1.71071 13.0391 2.08579 13.4142C2.46086 13.7893 2.96957 14 3.5 14H12.5C13.0304 14 13.5391 13.7893 13.9142 13.4142C14.2893 13.0391 14.5 12.5304 14.5 12V8C14.5 7.46957 14.2893 6.96086 13.9142 6.58579C13.5391 6.21071 13.0304 6 12.5 6H10C9.86739 6 9.74022 6.05268 9.64645 6.14645C9.55268 6.24022 9.5 6.36739 9.5 6.5C9.5 6.89782 9.34196 7.27936 9.06066 7.56066C8.77936 7.84196 8.39782 8 8 8C7.60218 8 7.22064 7.84196 6.93934 7.56066C6.65804 7.27936 6.5 6.89782 6.5 6.5C6.5 6.36739 6.44732 6.24022 6.35355 6.14645C6.25979 6.05268 6.13261 6 6 6H3.5Z" fill="currentColor"/>
</svg>
