<svg width="16" height="17" viewBox="0 0 16 17" fill="none" xmlns="http://www.w3.org/2000/svg">
<path fill-rule="evenodd" clip-rule="evenodd" d="M10.4667 6.5C9.3621 6.5 8.46667 7.39543 8.46667 8.5C8.46667 9.60457 9.36209 10.5 10.4667 10.5H14.0667V6.5H10.4667ZM10.3333 9.5C10.8488 9.5 11.2667 9.05228 11.2667 8.5C11.2667 7.94771 10.8488 7.5 10.3333 7.5C9.81787 7.5 9.4 7.94771 9.4 8.5C9.4 9.05228 9.81787 9.5 10.3333 9.5Z" fill="currentColor"/>
<path fill-rule="evenodd" clip-rule="evenodd" d="M13 3.5H2C1.44772 3.5 1 3.94772 1 4.5V12.5C1 13.0523 1.44772 13.5 2 13.5H13C13.5523 13.5 14 13.0523 14 12.5V4.5C14 3.94772 13.5523 3.5 13 3.5ZM2 2.5C0.895431 2.5 0 3.39543 0 4.5V12.5C0 13.6046 0.89543 14.5 2 14.5H13C14.1046 14.5 15 13.6046 15 12.5V4.5C15 3.39543 14.1046 2.5 13 2.5H2Z" fill="currentColor"/>
</svg>
