<svg width="21" height="20" viewBox="0 0 21 20" fill="none" xmlns="http://www.w3.org/2000/svg">
<path fill-rule="evenodd" clip-rule="evenodd" d="M19.6632 18.3306C19.1273 18.8667 18.4006 19.168 17.6429 19.168H3.35714C2.59938 19.168 1.87265 18.8667 1.33684 18.3306C0.801018 17.7944 0.499999 17.0672 0.499999 16.3089V3.443C0.499999 4.20128 0.801018 4.9285 1.33684 5.46468C1.87265 6.00086 2.59938 6.30209 3.35714 6.30209L17.6429 6.30209C18.4006 6.30209 19.1273 6.60331 19.6632 7.13949C20.199 7.67568 20.5 8.40289 20.5 9.16117V16.3089C20.5 17.0672 20.199 17.7944 19.6632 18.3306ZM16.5718 14.5231C17.5581 14.5231 18.3576 13.723 18.3576 12.7361C18.3576 11.7493 17.5581 10.9492 16.5718 10.9492C15.5856 10.9492 14.7861 11.7493 14.7861 12.7361C14.7861 13.723 15.5856 14.5231 16.5718 14.5231Z" fill="currentColor"/>
<path d="M14.7852 4.87109V3.44155C14.7852 2.68328 14.4841 1.95606 13.9483 1.41987C13.4125 0.883692 12.6858 0.582467 11.928 0.582467L4.07087 0.582467C3.50255 0.582467 2.95751 0.808386 2.55564 1.21052C2.15378 1.61266 1.92801 2.15807 1.92801 2.72678C1.92801 3.29549 2.15378 3.8409 2.55564 4.24304C2.95751 4.64518 3.50255 4.87109 4.07087 4.87109L14.7852 4.87109Z" fill="currentColor"/>
</svg>
