<svg width="20" height="18" viewBox="0 0 20 18" fill="none" xmlns="http://www.w3.org/2000/svg">
  <path fill-rule="evenodd" clip-rule="evenodd" d="M8.67165 1.31998L0.445121 14.835C-0.366144 16.1678 0.593236 17.8749 2.15352 17.8749H17.921C19.4476 17.8749 20.4114 16.2335 19.6675 14.9004L12.1266 1.38536C11.3801 0.047507 9.46822 0.0113231 8.67165 1.31998ZM1.29932 15.3549L9.52585 1.83992C9.92413 1.1856 10.8801 1.20369 11.2533 1.87262L18.7943 15.3876C19.1662 16.0542 18.6843 16.8749 17.921 16.8749H2.15352C1.37338 16.8749 0.893687 16.0213 1.29932 15.3549ZM11.3741 13.9315C11.3741 14.5116 10.923 14.9628 10.3429 14.9628C9.76281 14.9628 9.31163 14.5116 9.31163 13.9315C9.31163 13.3514 9.76281 12.9003 10.3429 12.9003C10.923 12.9003 11.3741 13.3514 11.3741 13.9315ZM10.3429 11.9335C9.94705 11.9335 9.62202 11.6206 9.607 11.225L9.44054 6.84168V6.77722C9.44054 6.27887 9.84453 5.87488 10.3429 5.87488C10.8412 5.87488 11.2452 6.27887 11.2452 6.77722V6.84168L11.0788 11.225C11.0638 11.6206 10.7387 11.9335 10.3429 11.9335Z" fill="currentColor"/>
</svg>
