<svg width="19" height="16" viewBox="0 0 19 16" fill="none" xmlns="http://www.w3.org/2000/svg">
<path fill-rule="evenodd" clip-rule="evenodd" d="M7.33415 1.50244C8.29665 -0.164225 10.7033 -0.164225 11.665 1.50244L17.7942 12.1258C18.7558 13.7924 17.5525 15.8758 15.6283 15.8758H3.37082C1.44665 15.8758 0.244153 13.7924 1.20582 12.1258L7.33332 1.50244H7.33415ZM9.49999 5.87494C9.66575 5.87494 9.82472 5.94079 9.94193 6.058C10.0591 6.17521 10.125 6.33418 10.125 6.49994V9.62494C10.125 9.7907 10.0591 9.94967 9.94193 10.0669C9.82472 10.1841 9.66575 10.2499 9.49999 10.2499C9.33423 10.2499 9.17525 10.1841 9.05804 10.0669C8.94083 9.94967 8.87499 9.7907 8.87499 9.62494V6.49994C8.87499 6.33418 8.94083 6.17521 9.05804 6.058C9.17525 5.94079 9.33423 5.87494 9.49999 5.87494ZM9.49999 12.7499C9.66575 12.7499 9.82472 12.6841 9.94193 12.5669C10.0591 12.4497 10.125 12.2907 10.125 12.1249C10.125 11.9592 10.0591 11.8002 9.94193 11.683C9.82472 11.5658 9.66575 11.4999 9.49999 11.4999C9.33423 11.4999 9.17525 11.5658 9.05804 11.683C8.94083 11.8002 8.87499 11.9592 8.87499 12.1249C8.87499 12.2907 8.94083 12.4497 9.05804 12.5669C9.17525 12.6841 9.33423 12.7499 9.49999 12.7499Z" fill="currentColor"/>
</svg>
