<svg width="20" height="20" viewBox="0 0 20 20" fill="none" xmlns="http://www.w3.org/2000/svg">
<path fill-rule="evenodd" clip-rule="evenodd" d="M9.99995 17.8C12.0686 17.8 14.0526 16.9782 15.5154 15.5154C16.9782 14.0526 17.8 12.0686 17.8 9.99995C17.8 7.93126 16.9782 5.9473 15.5154 4.48452C14.0526 3.02173 12.0686 2.19995 9.99995 2.19995C7.93126 2.19995 5.9473 3.02173 4.48452 4.48452C3.02173 5.9473 2.19995 7.93126 2.19995 9.99995C2.19995 12.0686 3.02173 14.0526 4.48452 15.5154C5.9473 16.9782 7.93126 17.8 9.99995 17.8ZM4.47365 8.07628C4.83566 7.03957 5.48159 6.1254 6.33785 5.43793C6.59915 5.8367 7.0496 6.09995 7.56245 6.09995C7.95033 6.09995 8.32232 6.25404 8.5966 6.52831C8.87087 6.80258 9.02495 7.17457 9.02495 7.56245V8.04995C9.02495 8.56712 9.2304 9.06311 9.59609 9.42881C9.96179 9.79451 10.4578 9.99995 10.975 9.99995C11.4921 9.99995 11.9881 9.79451 12.3538 9.42881C12.7195 9.06311 12.925 8.56712 12.925 8.04995C12.9248 7.61356 13.071 7.18974 13.3402 6.84628C13.6094 6.50283 13.9861 6.25961 14.4099 6.15553C15.3403 7.2199 15.8521 8.58622 15.85 9.99995C15.85 10.3315 15.8227 10.6581 15.769 10.975H14.875C14.3578 10.975 13.8618 11.1804 13.4961 11.5461C13.1304 11.9118 12.925 12.4078 12.925 12.925V15.067C12.036 15.5813 11.0269 15.8514 9.99995 15.85V13.9C9.99995 13.3828 9.79451 12.8868 9.42881 12.5211C9.06311 12.1554 8.56712 11.95 8.04995 11.95C7.53278 11.95 7.03679 11.7445 6.67109 11.3788C6.3054 11.0131 6.09995 10.5171 6.09995 9.99995C6.10012 9.53878 5.93684 9.09246 5.6391 8.74028C5.34136 8.38809 4.92843 8.15283 4.47365 8.07628Z" fill="currentColor"/>
</svg>
