<svg width="16" height="16" viewBox="0 0 16 16" fill="none" xmlns="http://www.w3.org/2000/svg">
<path fill-rule="evenodd" clip-rule="evenodd" d="M7.9998 15.2C9.90936 15.2 11.7407 14.4414 13.091 13.0912C14.4412 11.7409 15.1998 9.90955 15.1998 7.99999C15.1998 6.09043 14.4412 4.25908 13.091 2.90882C11.7407 1.55856 9.90936 0.799988 7.9998 0.799988C6.09025 0.799988 4.2589 1.55856 2.90864 2.90882C1.55837 4.25908 0.799805 6.09043 0.799805 7.99999C0.799805 9.90955 1.55837 11.7409 2.90864 13.0912C4.2589 14.4414 6.09025 15.2 7.9998 15.2ZM2.8986 6.22429C3.23277 5.26733 3.82901 4.42348 4.6194 3.78889C4.8606 4.15699 5.2764 4.39999 5.7498 4.39999C6.10785 4.39999 6.45122 4.54222 6.7044 4.79539C6.95757 5.04857 7.0998 5.39195 7.0998 5.74999V6.19999C7.0998 6.67738 7.28945 7.13521 7.62701 7.47278C7.96458 7.81035 8.42241 7.99999 8.8998 7.99999C9.37719 7.99999 9.83503 7.81035 10.1726 7.47278C10.5102 7.13521 10.6998 6.67738 10.6998 6.19999C10.6997 5.79717 10.8346 5.40594 11.0831 5.08891C11.3316 4.77188 11.6793 4.54736 12.0705 4.45129C12.9294 5.43379 13.4018 6.69501 13.3998 7.99999C13.3998 8.30599 13.3746 8.60749 13.3251 8.89999H12.4998C12.0224 8.89999 11.5646 9.08963 11.227 9.4272C10.8894 9.76476 10.6998 10.2226 10.6998 10.7V12.6773C9.87927 13.152 8.94778 13.4014 7.9998 13.4V11.6C7.9998 11.1226 7.81016 10.6648 7.4726 10.3272C7.13503 9.98963 6.67719 9.79999 6.1998 9.79999C5.72241 9.79999 5.26458 9.61034 4.92701 9.27278C4.58945 8.93521 4.3998 8.47738 4.3998 7.99999C4.39996 7.57429 4.24924 7.16231 3.9744 6.83721C3.69956 6.51212 3.3184 6.29495 2.8986 6.22429Z" fill="currentColor"/>
</svg>
