<svg width="16" height="16" viewBox="0 0 16 16" fill="none" xmlns="http://www.w3.org/2000/svg">
<path fill-rule="evenodd" clip-rule="evenodd" d="M2 2.48333C2 1.9971 2.21071 1.53078 2.58579 1.18696C2.96086 0.843148 3.46957 0.649994 4 0.649994H8.586C9.11639 0.650098 9.62501 0.84332 10 1.18716L13.414 4.31666C13.7891 4.6604 13.9999 5.12664 14 5.61283V13.4833C14 13.9696 13.7893 14.4359 13.4142 14.7797C13.0391 15.1235 12.5304 15.3167 12 15.3167H4C3.46957 15.3167 2.96086 15.1235 2.58579 14.7797C2.21071 14.4359 2 13.9696 2 13.4833V2.48333ZM4 7.98333C4 7.74021 4.10536 7.50706 4.29289 7.33515C4.48043 7.16324 4.73478 7.06666 5 7.06666H11C11.2652 7.06666 11.5196 7.16324 11.7071 7.33515C11.8946 7.50706 12 7.74021 12 7.98333C12 8.22644 11.8946 8.4596 11.7071 8.63151C11.5196 8.80342 11.2652 8.89999 11 8.89999H5C4.73478 8.89999 4.48043 8.80342 4.29289 8.63151C4.10536 8.4596 4 8.22644 4 7.98333ZM5 10.7333C4.73478 10.7333 4.48043 10.8299 4.29289 11.0018C4.10536 11.1737 4 11.4069 4 11.65C4 11.8931 4.10536 12.1263 4.29289 12.2982C4.48043 12.4701 4.73478 12.5667 5 12.5667H11C11.2652 12.5667 11.5196 12.4701 11.7071 12.2982C11.8946 12.1263 12 11.8931 12 11.65C12 11.4069 11.8946 11.1737 11.7071 11.0018C11.5196 10.8299 11.2652 10.7333 11 10.7333H5Z" fill="currentColor"/>
</svg>
