<svg xmlns="http://www.w3.org/2000/svg" width="18" height="18" viewBox="0 0 18 18" fill="none">
  <path d="M13.2426 6.2573C14.0817 7.09641 14.6531 8.16551 14.8846 9.3294C15.1162 10.4933 14.9973 11.6997 14.5432 12.796C14.0891 13.8924 13.32 14.8295 12.3334 15.4888C11.3467 16.148 10.1866 16.4999 8.99993 16.4999C7.81324 16.4999 6.6532 16.148 5.66651 15.4888C4.67981 14.8295 3.91078 13.8924 3.45665 12.796C3.00253 11.6997 2.88371 10.4933 3.11522 9.3294C3.34673 8.16551 3.91817 7.09641 4.75729 6.2573" stroke="currentColor" stroke-width="1.35" stroke-linecap="round"/>
  <path d="M11.25 2.9375L9 0.6875M9 0.6875L6.75 2.9375M9 0.6875V10.25" stroke="currentColor" stroke-width="1.35" stroke-linecap="round" stroke-linejoin="round"/>
</svg>