<svg width="21" height="22" viewBox="0 0 21 22" fill="none" xmlns="http://www.w3.org/2000/svg">
<g clip-path="url(#clip0_15573_24254)">
<path d="M10.8258 21.1535C16.3926 21.1535 20.9991 16.5505 20.9991 10.9957C20.9991 5.43307 16.3848 0.830078 10.818 0.830078C5.25886 0.830078 0.660156 5.43307 0.660156 10.9957C0.660156 16.5505 5.26668 21.1535 10.8258 21.1535ZM10.8258 19.7023C6.00059 19.7023 2.12019 15.8171 2.12019 10.9957C2.12019 6.16642 5.99279 2.28899 10.818 2.28899C15.6509 2.28899 19.539 6.16642 19.539 10.9957C19.539 15.8171 15.6587 19.7023 10.8258 19.7023Z" fill="currentColor"/>
<path d="M7.3355 15.1857C7.53069 15.1857 7.70247 15.1155 7.843 14.9672L10.8178 11.987L13.808 14.9672C13.9408 15.1077 14.1125 15.1857 14.3077 15.1857C14.6981 15.1857 15.0105 14.8736 15.0105 14.4913C15.0105 14.2885 14.9323 14.1324 14.7918 13.992L11.8092 11.004L14.7996 8.00812C14.948 7.85989 15.0182 7.70385 15.0182 7.51661C15.0182 7.12653 14.7059 6.82227 14.3156 6.82227C14.136 6.82227 13.9798 6.89248 13.8315 7.04071L10.8178 10.0366L7.82739 7.04851C7.68685 6.90809 7.53069 6.83786 7.3355 6.83786C6.94512 6.83786 6.64062 7.13433 6.64062 7.52441C6.64062 7.71165 6.71089 7.88329 6.85142 8.01592L9.84176 11.004L6.85142 13.9998C6.71089 14.1324 6.64062 14.2963 6.64062 14.4913C6.64062 14.8736 6.94512 15.1857 7.3355 15.1857Z" fill="currentColor"/>
</g>
<defs>
<clipPath id="clip0_15573_24254">
<rect width="20.339" height="20.339" fill="white" transform="translate(0.660156 0.830078)"/>
</clipPath>
</defs>
</svg>
