<svg width="16" height="16" viewBox="0 0 16 16" fill="none" xmlns="http://www.w3.org/2000/svg">
<path fill-rule="evenodd" clip-rule="evenodd" d="M1.5 2.75C1.5 2.05964 2.05964 1.5 2.75 1.5H6V0H2.75C1.23122 0 0 1.23122 0 2.75V13.25C0 14.7688 1.23122 16 2.75 16H13.25C14.7688 16 16 14.7688 16 13.25V10H14.5V13.25C14.5 13.9404 13.9404 14.5 13.25 14.5H2.75C2.05964 14.5 1.5 13.9404 1.5 13.25V2.75ZM8.99931 1.5H13.4387L6.64545 8.2932L7.70611 9.35386L14.4993 2.56066V7.04498H15.9993V0.75V0H15.2493H8.99931V1.5Z" fill="currentColor"/>
</svg>
