<svg width="90" height="39" viewBox="0 0 90 39" fill="none" xmlns="http://www.w3.org/2000/svg">
<rect y="31.2344" width="2.57142" height="7.71427" fill="#3ED9A4"/>
<rect x="5.14258" y="28.6648" width="2.57142" height="5.14284" fill="#E45555"/>
<rect x="25.7139" y="26.0923" width="2.57142" height="10.2857" fill="#E45555"/>
<rect x="51.4283" y="28.6648" width="2.57142" height="5.14284" fill="#E45555"/>
<rect x="56.5712" y="31.2344" width="2.57142" height="5.14284" fill="#E45555"/>
<rect x="77.1426" y="18.3767" width="2.57142" height="5.14284" fill="#E45555"/>
<rect x="41.1427" y="23.5198" width="2.57142" height="5.14284" fill="#E45555"/>
<rect x="10.2856" y="28.6648" width="2.57142" height="10.2857" fill="#3ED9A4"/>
<rect x="61.7143" y="23.5198" width="2.57142" height="10.2857" fill="#3ED9A4"/>
<rect x="66.8569" y="20.9492" width="2.57142" height="5.14284" fill="#3ED9A4"/>
<rect x="71.9997" y="13.2346" width="2.57142" height="7.71427" fill="#3ED9A4"/>
<rect x="82.2856" y="10.6631" width="2.57142" height="10.2857" fill="#3ED9A4"/>
<rect x="87.4287" y="0.37793" width="2.57142" height="15.4285" fill="#3ED9A4"/>
<rect x="15.4284" y="26.0923" width="2.57142" height="5.14284" fill="#3ED9A4"/>
<rect x="20.5714" y="23.5198" width="2.57142" height="5.14284" fill="#3ED9A4"/>
<rect x="30.857" y="31.2344" width="2.57142" height="5.14284" fill="#3ED9A4"/>
<rect x="35.9999" y="26.0923" width="2.57142" height="5.14284" fill="#3ED9A4"/>
<rect x="46.2853" y="26.0923" width="2.57142" height="2.57142" fill="#3ED9A4"/>
</svg>
