<svg width="593" height="624" viewBox="0 0 593 624" fill="none" xmlns="http://www.w3.org/2000/svg">
<rect x="6" y="6" width="581" height="611.119" rx="26" fill="#F56E0F"/>
<rect x="6" y="6" width="581" height="611.119" rx="26" stroke="black" stroke-width="12"/>
<path d="M346.688 47.8518C352.317 50.7605 357.684 54.0069 363.062 57.3518C374.947 64.7222 386.412 69.5945 400 72.7893C399 74.7893 399 74.7893 396.797 75.6409C383.41 79.0391 368.772 79.4936 355.477 75.5237C342.26 71.6047 328.11 74.1673 315 76.7893C314.67 87.6793 314.34 98.5693 314 109.789C316.64 109.789 319.28 109.789 322 109.789C349.601 113.394 375.771 122.947 400.672 135.093C415.163 142.207 428.743 150.69 441.833 160.108C462.294 174.883 480.66 193.952 495.738 214.114C514.687 240.027 527.36 269.448 535.048 300.511C542.845 333.832 541.332 372.056 529.141 404.044C521.245 424.412 510.88 441.546 496.008 457.571C493.95 459.786 493.95 459.786 492.062 462.301C487.688 467.578 481.79 471.428 476.586 475.832C454.496 494.339 427.212 504.419 399.912 512.4C396.192 513.428 393.682 513.939 390 512.789C395.821 503.562 401.281 494.116 406.672 484.633C431.675 440.661 457.318 397.051 482.618 353.249C485.175 348.698 486.242 346.123 486 340.789C476.619 341.967 467.814 348.255 459.657 352.721C452.58 356.586 445.418 360.284 438.25 363.977C431.861 367.274 425.551 370.823 419 373.789C452.5 298 444.391 280.973 430.102 237.793C428.03 231.962 425.549 226.305 423.056 220.646C415.13 202.921 403.146 189.556 391.375 174.539C387.407 169.944 382.645 166.164 378.004 162.285C359.239 146.89 337.735 136.057 315 127.789C315 138.349 315 148.909 315 159.789C343.633 171.732 372.144 184.504 396 204.789C401.562 209.349 406.977 214.067 412.321 218.88C430.159 235.176 439.159 244.887 441 257.5C449.683 299.784 450.439 302.638 419 373.789C419 373.789 407.475 380.01 401.188 382.852C384.344 390.708 367.266 398.044 350.212 405.429C323.016 417.182 294.826 426.814 266.573 435.619C261.709 437.1 257.058 438.241 252 438.789C255.447 435.197 258.982 432.195 263 429.227C274.827 420.285 284.383 409.724 293.941 398.512C315.69 372.809 325.653 340.692 330.578 307.946C333.566 282.812 328.947 257.983 322.176 233.852C314.091 207.512 296.588 169.843 273 153.789C290.774 186.766 300.104 223.351 304.294 260.392C305.617 273.229 305.105 286.145 304.978 299.022C304.268 343.051 284.931 384.998 258.848 419.649C253.045 427.101 246.405 433.772 240.186 440.856C237.068 443.613 233.2 444.237 229.283 445.115C222.983 446.409 216.676 447.638 210.35 448.8C158.554 458.142 158.554 458.142 142 457.789C148.544 452.64 154.517 446.837 160.938 441.539C182.821 422.342 197.652 392.134 204.701 363.92C214.706 323.543 213.009 283.363 205.023 242.903C202.601 231.14 198.456 219.864 194.192 208.669C188.192 193.246 179.439 178.831 169.426 165.688C168 163.789 168 163.789 167 161.789C180.841 164.735 194.41 168.878 208 172.789C207.314 150.607 202.198 132.786 191 113.789C191.33 113.129 191.66 112.469 192 111.789C219.817 119.608 247.076 128.947 273.726 140.115C284.518 144.776 294.492 150.285 305 155.789C305.33 118.169 305.66 80.5493 306 41.7893C319.518 37.2832 334.46 42.0252 346.688 47.8518Z" fill="black"/>
<path d="M173 409.789C203.339 351.833 202.125 285.06 187 222.789C167.75 218.566 113 206.789 113 206.789C120.251 222.615 127.287 238.062 130.543 255.328C131.979 263.064 132.943 270.788 133.289 278.656C134.616 323.813 119.944 370.218 89 403.789C86.9279 405.795 84 407.686 84 410.789C111.43 410.845 138.861 410.793 166.291 410.914C168.701 410.909 171.189 411.6 173 409.789Z" fill="black"/>
<path d="M553 494.789C549.935 496.832 547.624 497.566 544.102 498.551C536.141 500.938 528.699 504.544 521.219 508.104C511.753 512.689 503.025 518.211 494.5 524.352C484.97 531.205 475.526 538.186 466.11 545.196C435.308 568.117 400.589 582.921 361.828 583.119C349.462 583.01 337.634 580.719 325.968 576.736C305.929 569.684 288.753 558.247 272.996 544.098C264.271 536.347 254.363 530.653 244.09 525.262C229.491 518.351 211.947 517.212 196 516.789C214.053 505.976 252.901 509.496 272.71 514.207C288.118 518.124 303.236 523.073 318.234 528.324C365.327 544.495 409.057 531.554 453.188 513.395C483.685 500.848 519.507 488.144 553 494.789Z" fill="black"/>
<path d="M252 542.789C249 545.283 246.316 546.523 242.602 547.676C234.559 550.244 226.611 553.092 218.659 555.927C211.812 558.381 205.008 560.913 198.25 563.602C190.983 566.49 183.643 568.882 176.149 571.114C174.529 571.623 172.919 572.167 171.316 572.728C162.914 575.661 154.252 577.442 145.535 579.119C126.538 582.691 106.914 583.55 87.9722 579.238C86.0085 578.791 84.0392 578.385 82.0664 577.981C67.206 574.766 53.0508 568.532 40 560.789C40 560.459 40 560.129 40 559.789C40.7423 559.815 41.4847 559.842 42.2495 559.869C73.9144 560.829 102.23 553.812 131.965 543.301C137.174 541.462 142.378 539.609 147.567 537.713C181.172 525.559 220.958 521.281 252 542.789Z" fill="black"/>
</svg>
