<svg xmlns="http://www.w3.org/2000/svg" width="534" height="111" viewBox="0 0 534 111" fill="none">
  <path opacity="0.5" fill-rule="evenodd" clip-rule="evenodd" d="M22.4986 79.1982V60.3215H42.2444V79.1982H22.4986ZM20.9326 79.1982V60.3215H1.96992V79.1982H20.9326ZM42.2444 58.7593H22.4986V39.1014H42.2444V58.7593ZM20.9326 58.7593V39.1014H1.96992V58.7593H20.9326ZM42.2444 37.5392H22.4986V17.8814H42.2444V37.5392ZM20.9326 37.5392V17.8814H1.96992V37.5392H20.9326ZM42.2444 16.3192H22.4986V-3.33866H42.2444V16.3192ZM20.9326 16.3192V-3.33866H1.96992V16.3192H20.9326ZM42.2444 -4.90088H22.4986V-24.5587H42.2444V-4.90088ZM20.9326 -4.90088V-24.5587H1.96992V-4.90088H20.9326ZM42.2444 -26.1209H22.4986V-45.7788H42.2444V-26.1209ZM20.9326 -26.1209V-45.7788H1.96992V-26.1209H20.9326ZM42.2444 -47.341H22.4986V-66.9988H42.2444V-47.341ZM20.9326 -47.341V-66.9988H1.96992V-47.341H20.9326ZM42.2444 -68.5611H22.4986V-87.4378H42.2444V-68.5611ZM20.9326 -68.5611V-87.4378H1.96992V-68.5611H20.9326ZM21.7156 -89H20.9326H1.96992H0.40391V-88.2189V-87.4378V-68.5611V-67.7799V-66.9988V-47.341V-46.5599V-45.7788V-26.1209V-25.3398V-24.5587V-4.90088V-4.11977V-3.33866V16.3192V17.1003V17.8814V37.5392V38.3203V39.1014V58.7593V59.5404V60.3215V79.1982V79.9793V80.2396V80.7605V81.0207V80.8018V99.6785V100.46V101.241V120.899V121.68V122.461V142.119V142.9V143.681V163.339V164.12V164.901V184.559V185.34V186.121V205.779V206.56V207.341V226.999V227.78V228.561V247.438V248.219V249H1.96992H20.9326H21.7156H22.4986H42.2444H43.0274H43.8104H63.5561H64.3391H65.1221H84.8678H85.6508H86.4338H106.18H106.963H107.746H127.491H128.274H129.057H148.803H149.586H150.369H170.115H170.898H171.681H191.426H192.209H192.992H212.738H213.521H214.304H234.05H234.833H235.616H255.362H256.145H256.928H276.673H277.456H278.239H297.985H298.768H299.551H319.297H320.08H320.863H340.609H341.392H342.175H361.92H362.703H363.486H383.232H384.015H384.798H404.544H405.327H406.11H425.856H426.639H427.422H447.167H447.95H448.733H468.479H469.262H470.045H489.791H490.574H491.357H511.102H511.885H512.668H531.631H533.197V248.219V247.438V228.561V227.78V226.999V207.341V206.56V205.779V186.121V185.34V184.559V164.901V164.12V163.339V143.681V142.9V142.119V122.461V121.68V120.899V101.241V100.46V99.6785V80.8018V81.0207V80.7605V80.2396V79.9793V79.1982V60.3215V59.5404V58.7593V39.1014V38.3203V37.5392V17.8814V17.1003V16.3192V-3.33866V-4.11977V-4.90088V-24.5587V-25.3398V-26.1209V-45.7788V-46.5599V-47.341V-66.9988V-67.7799V-68.5611V-87.4378V-88.2189V-89H531.631H512.668H511.885H511.102H491.357H490.574H489.791H470.045H469.262H468.479H448.733H447.95H447.167H427.422H426.639H425.856H406.11H405.327H404.544H384.798H384.015H383.232H363.486H362.703H361.92H342.175H341.392H340.609H320.863H320.08H319.297H299.551H298.768H297.985H278.239H277.456H276.673H256.928H256.145H255.362H235.616H234.833H234.05H214.304H213.521H212.738H192.992H192.209H191.426H171.681H170.898H170.115H150.369H149.586H148.803H129.057H128.274H127.491H107.746H106.963H106.18H86.4338H85.6508H84.8678H65.1221H64.3391H63.5561H43.8104H43.0274H42.2444H22.4986H21.7156ZM63.5561 79.1982H43.8104V60.3215H63.5561V79.1982ZM63.5561 58.7593H43.8104V39.1014H63.5561V58.7593ZM63.5561 37.5392H43.8104V17.8814H63.5561V37.5392ZM63.5561 16.3192H43.8104V-3.33866H63.5561V16.3192ZM63.5561 -4.90088H43.8104V-24.5587H63.5561V-4.90088ZM63.5561 -26.1209H43.8104V-45.7788H63.5561V-26.1209ZM63.5561 -47.341H43.8104V-66.9988H63.5561V-47.341ZM63.5561 -68.5611H43.8104V-87.4378H63.5561V-68.5611ZM65.1221 -68.5611V-87.4378H84.8678V-68.5611H65.1221ZM86.4338 -68.5611V-87.4378H106.18V-68.5611H86.4338ZM107.746 -68.5611V-87.4378H127.491V-68.5611H107.746ZM129.057 -68.5611V-87.4378H148.803V-68.5611H129.057ZM150.369 -68.5611V-87.4378H170.115V-68.5611H150.369ZM171.681 -68.5611V-87.4378H191.426V-68.5611H171.681ZM192.992 -68.5611V-87.4378H212.738V-68.5611H192.992ZM214.304 -68.5611V-87.4378H234.05V-68.5611H214.304ZM235.616 -68.5611V-87.4378H255.362V-68.5611H235.616ZM256.928 -68.5611V-87.4378H276.673V-68.5611H256.928ZM278.239 -68.5611V-87.4378H297.985V-68.5611H278.239ZM299.551 -68.5611V-87.4378H319.297V-68.5611H299.551ZM320.863 -68.5611V-87.4378H340.609V-68.5611H320.863ZM342.175 -68.5611V-87.4378H361.92V-68.5611H342.175ZM363.486 -68.5611V-87.4378H383.232V-68.5611H363.486ZM384.798 -68.5611V-87.4378H404.544V-68.5611H384.798ZM406.11 -68.5611V-87.4378H425.856V-68.5611H406.11ZM427.422 -68.5611V-87.4378H447.167V-68.5611H427.422ZM448.733 -68.5611V-87.4378H468.479V-68.5611H448.733ZM470.045 -68.5611V-87.4378H489.791V-68.5611H470.045ZM491.357 -68.5611V-87.4378H511.102V-68.5611H491.357ZM512.668 -68.5611V-87.4378H531.631V-68.5611H512.668ZM512.668 -66.9988H531.631V-47.341H512.668V-66.9988ZM512.668 -45.7788H531.631V-26.1209H512.668V-45.7788ZM512.668 -24.5587H531.631V-4.90088H512.668V-24.5587ZM512.668 -3.33866H531.631V16.3192H512.668V-3.33866ZM512.668 17.8814H531.631V37.5392H512.668V17.8814ZM512.668 39.1014H531.631V58.7593H512.668V39.1014ZM512.668 60.3215H531.631V79.1982H512.668V60.3215ZM511.102 60.3215V79.1982H491.357V60.3215H511.102ZM489.791 60.3215V79.1982H470.045V60.3215H489.791ZM468.479 60.3215V79.1982H448.733V60.3215H468.479ZM447.167 60.3215V79.1982H427.422V60.3215H447.167ZM425.856 60.3215V79.1982H406.11V60.3215H425.856ZM404.544 60.3215V79.1982H384.798V60.3215H404.544ZM383.232 60.3215V79.1982H363.486V60.3215H383.232ZM361.92 60.3215V79.1982H342.175V60.3215H361.92ZM340.609 60.3215V79.1982H320.863V60.3215H340.609ZM319.297 60.3215V79.1982H299.551V60.3215H319.297ZM297.985 60.3215V79.1982H278.239V60.3215H297.985ZM276.673 60.3215V79.1982H256.928V60.3215H276.673ZM255.362 60.3215V79.1982H235.616V60.3215H255.362ZM234.05 60.3215V79.1982H214.304V60.3215H234.05ZM212.738 60.3215V79.1982H192.992V60.3215H212.738ZM191.426 60.3215V79.1982H171.681V60.3215H191.426ZM170.115 60.3215V79.1982H150.369V60.3215H170.115ZM148.803 60.3215V79.1982H129.057V60.3215H148.803ZM127.491 60.3215V79.1982H107.746V60.3215H127.491ZM106.18 60.3215V79.1982H86.4338V60.3215H106.18ZM84.8678 60.3215V79.1982H65.1221V60.3215H84.8678ZM84.8678 58.7593H65.1221V39.1014H84.8678V58.7593ZM84.8678 37.5392H65.1221V17.8814H84.8678V37.5392ZM84.8678 16.3192H65.1221V-3.33866H84.8678V16.3192ZM84.8678 -4.90088H65.1221V-24.5587H84.8678V-4.90088ZM84.8678 -26.1209H65.1221V-45.7788H84.8678V-26.1209ZM84.8678 -47.341H65.1221V-66.9988H84.8678V-47.341ZM86.4338 -47.341V-66.9988H106.18V-47.341H86.4338ZM107.746 -47.341V-66.9988H127.491V-47.341H107.746ZM129.057 -47.341V-66.9988H148.803V-47.341H129.057ZM150.369 -47.341V-66.9988H170.115V-47.341H150.369ZM171.681 -47.341V-66.9988H191.426V-47.341H171.681ZM192.992 -47.341V-66.9988H212.738V-47.341H192.992ZM214.304 -47.341V-66.9988H234.05V-47.341H214.304ZM235.616 -47.341V-66.9988H255.362V-47.341H235.616ZM256.928 -47.341V-66.9988H276.673V-47.341H256.928ZM278.239 -47.341V-66.9988H297.985V-47.341H278.239ZM299.551 -47.341V-66.9988H319.297V-47.341H299.551ZM320.863 -47.341V-66.9988H340.609V-47.341H320.863ZM342.175 -47.341V-66.9988H361.92V-47.341H342.175ZM363.486 -47.341V-66.9988H383.232V-47.341H363.486ZM384.798 -47.341V-66.9988H404.544V-47.341H384.798ZM406.11 -47.341V-66.9988H425.856V-47.341H406.11ZM427.422 -47.341V-66.9988H447.167V-47.341H427.422ZM448.733 -47.341V-66.9988H468.479V-47.341H448.733ZM470.045 -47.341V-66.9988H489.791V-47.341H470.045ZM491.357 -47.341V-66.9988H511.102V-47.341H491.357ZM491.357 -45.7788H511.102V-26.1209H491.357V-45.7788ZM491.357 -24.5587H511.102V-4.90088H491.357V-24.5587ZM491.357 -3.33866H511.102V16.3192H491.357V-3.33866ZM491.357 17.8814H511.102V37.5392H491.357V17.8814ZM491.357 39.1014H511.102V58.7593H491.357V39.1014ZM489.791 39.1014V58.7593H470.045V39.1014H489.791ZM468.479 39.1014V58.7593H448.733V39.1014H468.479ZM447.167 39.1014V58.7593H427.422V39.1014H447.167ZM425.856 39.1014V58.7593H406.11V39.1014H425.856ZM404.544 39.1014V58.7593H384.798V39.1014H404.544ZM383.232 39.1014V58.7593H363.486V39.1014H383.232ZM361.92 39.1014V58.7593H342.175V39.1014H361.92ZM340.609 39.1014V58.7593H320.863V39.1014H340.609ZM319.297 39.1014V58.7593H299.551V39.1014H319.297ZM297.985 39.1014V58.7593H278.239V39.1014H297.985ZM276.673 39.1014V58.7593H256.928V39.1014H276.673ZM255.362 39.1014V58.7593H235.616V39.1014H255.362ZM234.05 39.1014V58.7593H214.304V39.1014H234.05ZM212.738 39.1014V58.7593H192.992V39.1014H212.738ZM191.426 39.1014V58.7593H171.681V39.1014H191.426ZM170.115 39.1014V58.7593H150.369V39.1014H170.115ZM148.803 39.1014V58.7593H129.057V39.1014H148.803ZM127.491 39.1014V58.7593H107.746V39.1014H127.491ZM106.18 39.1014V58.7593H86.4338V39.1014H106.18ZM106.18 37.5392H86.4338V17.8814H106.18V37.5392ZM106.18 16.3192H86.4338V-3.33866H106.18V16.3192ZM106.18 -4.90088H86.4338V-24.5587H106.18V-4.90088ZM106.18 -26.1209H86.4338V-45.7788H106.18V-26.1209ZM107.746 -26.1209V-45.7788H127.491V-26.1209H107.746ZM129.057 -26.1209V-45.7788H148.803V-26.1209H129.057ZM150.369 -26.1209V-45.7788H170.115V-26.1209H150.369ZM171.681 -26.1209V-45.7788H191.426V-26.1209H171.681ZM192.992 -26.1209V-45.7788H212.738V-26.1209H192.992ZM214.304 -26.1209V-45.7788H234.05V-26.1209H214.304ZM235.616 -26.1209V-45.7788H255.362V-26.1209H235.616ZM256.928 -26.1209V-45.7788H276.673V-26.1209H256.928ZM278.239 -26.1209V-45.7788H297.985V-26.1209H278.239ZM299.551 -26.1209V-45.7788H319.297V-26.1209H299.551ZM320.863 -26.1209V-45.7788H340.609V-26.1209H320.863ZM342.175 -26.1209V-45.7788H361.92V-26.1209H342.175ZM363.486 -26.1209V-45.7788H383.232V-26.1209H363.486ZM384.798 -26.1209V-45.7788H404.544V-26.1209H384.798ZM406.11 -26.1209V-45.7788H425.856V-26.1209H406.11ZM427.422 -26.1209V-45.7788H447.167V-26.1209H427.422ZM448.733 -26.1209V-45.7788H468.479V-26.1209H448.733ZM470.045 -26.1209V-45.7788H489.791V-26.1209H470.045ZM470.045 -24.5587H489.791V-4.90088H470.045V-24.5587ZM470.045 -3.33866H489.791V16.3192H470.045V-3.33866ZM470.045 17.8814H489.791V37.5392H470.045V17.8814ZM468.479 17.8814V37.5392H448.733V17.8814H468.479ZM447.167 17.8814V37.5392H427.422V17.8814H447.167ZM425.856 17.8814V37.5392H406.11V17.8814H425.856ZM404.544 17.8814V37.5392H384.798V17.8814H404.544ZM383.232 17.8814V37.5392H363.486V17.8814H383.232ZM361.92 17.8814V37.5392H342.175V17.8814H361.92ZM340.609 17.8814V37.5392H320.863V17.8814H340.609ZM319.297 17.8814V37.5392H299.551V17.8814H319.297ZM297.985 17.8814V37.5392H278.239V17.8814H297.985ZM276.673 17.8814V37.5392H256.928V17.8814H276.673ZM255.362 17.8814V37.5392H235.616V17.8814H255.362ZM234.05 17.8814V37.5392H214.304V17.8814H234.05ZM212.738 17.8814V37.5392H192.992V17.8814H212.738ZM191.426 17.8814V37.5392H171.681V17.8814H191.426ZM170.115 17.8814V37.5392H150.369V17.8814H170.115ZM148.803 17.8814V37.5392H129.057V17.8814H148.803ZM127.491 17.8814V37.5392H107.746V17.8814H127.491ZM127.491 16.3192H107.746V-3.33866H127.491V16.3192ZM127.491 -4.90088H107.746V-24.5587H127.491V-4.90088ZM129.057 -4.90088V-24.5587H148.803V-4.90088H129.057ZM150.369 -4.90088V-24.5587H170.115V-4.90088H150.369ZM171.681 -4.90088V-24.5587H191.426V-4.90088H171.681ZM192.992 -4.90088V-24.5587H212.738V-4.90088H192.992ZM214.304 -4.90088V-24.5587H234.05V-4.90088H214.304ZM235.616 -4.90088V-24.5587H255.362V-4.90088H235.616ZM256.928 -4.90088V-24.5587H276.673V-4.90088H256.928ZM278.239 -4.90088V-24.5587H297.985V-4.90088H278.239ZM299.551 -4.90088V-24.5587H319.297V-4.90088H299.551ZM320.863 -4.90088V-24.5587H340.609V-4.90088H320.863ZM342.175 -4.90088V-24.5587H361.92V-4.90088H342.175ZM363.486 -4.90088V-24.5587H383.232V-4.90088H363.486ZM384.798 -4.90088V-24.5587H404.544V-4.90088H384.798ZM406.11 -4.90088V-24.5587H425.856V-4.90088H406.11ZM427.422 -4.90088V-24.5587H447.167V-4.90088H427.422ZM448.733 -4.90088V-24.5587H468.479V-4.90088H448.733ZM448.733 -3.33866H468.479V16.3192H448.733V-3.33866ZM447.167 -3.33866V16.3192H427.422V-3.33866H447.167ZM425.856 -3.33866V16.3192H406.11V-3.33866H425.856ZM404.544 -3.33866V16.3192H384.798V-3.33866H404.544ZM383.232 -3.33866V16.3192H363.486V-3.33866H383.232ZM361.92 -3.33866V16.3192H342.175V-3.33866H361.92ZM340.609 -3.33866V16.3192H320.863V-3.33866H340.609ZM319.297 -3.33866V16.3192H299.551V-3.33866H319.297ZM297.985 -3.33866V16.3192H278.239V-3.33866H297.985ZM276.673 -3.33866V16.3192H256.928V-3.33866H276.673ZM255.362 -3.33866V16.3192H235.616V-3.33866H255.362ZM234.05 -3.33866V16.3192H214.304V-3.33866H234.05ZM212.738 -3.33866V16.3192H192.992V-3.33866H212.738ZM191.426 -3.33866V16.3192H171.681V-3.33866H191.426ZM170.115 -3.33866V16.3192H150.369V-3.33866H170.115ZM148.803 -3.33866V16.3192H129.057V-3.33866H148.803ZM22.4986 247.438V228.561H42.2444V247.438H22.4986ZM20.9326 247.438V228.561H1.96992V247.438H20.9326ZM42.2444 226.999H22.4986V207.341H42.2444V226.999ZM20.9326 226.999V207.341H1.96992V226.999H20.9326ZM42.2444 205.779H22.4986V186.121H42.2444V205.779ZM20.9326 205.779V186.121H1.96992V205.779H20.9326ZM42.2444 184.559H22.4986V164.901H42.2444V184.559ZM20.9326 184.559V164.901H1.96992V184.559H20.9326ZM42.2444 163.339H22.4986V143.681H42.2444V163.339ZM20.9326 163.339V143.681H1.96992V163.339H20.9326ZM42.2444 142.119H22.4986V122.461H42.2444V142.119ZM20.9326 142.119V122.461H1.96992V142.119H20.9326ZM42.2444 120.899H22.4986V101.241H42.2444V120.899ZM20.9326 120.899V101.241H1.96992V120.899H20.9326ZM42.2444 99.6785H22.4986V80.8018H42.2444V99.6785ZM20.9326 99.6785V80.8018H1.96992V99.6785H20.9326ZM63.5561 247.438H43.8104V228.561H63.5561V247.438ZM63.5561 226.999H43.8104V207.341H63.5561V226.999ZM63.5561 205.779H43.8104V186.121H63.5561V205.779ZM63.5561 184.559H43.8104V164.901H63.5561V184.559ZM63.5561 163.339H43.8104V143.681H63.5561V163.339ZM63.5561 142.119H43.8104V122.461H63.5561V142.119ZM63.5561 120.899H43.8104V101.241H63.5561V120.899ZM63.5561 99.6785H43.8104V80.8018H63.5561V99.6785ZM65.1221 99.6785V80.8018H84.8678V99.6785H65.1221ZM86.4338 99.6785V80.8018H106.18V99.6785H86.4338ZM107.746 99.6785V80.8018H127.491V99.6785H107.746ZM129.057 99.6785V80.8018H148.803V99.6785H129.057ZM150.369 99.6785V80.8018H170.115V99.6785H150.369ZM171.681 99.6785V80.8018H191.426V99.6785H171.681ZM192.992 99.6785V80.8018H212.738V99.6785H192.992ZM214.304 99.6785V80.8018H234.05V99.6785H214.304ZM235.616 99.6785V80.8018H255.362V99.6785H235.616ZM256.928 99.6785V80.8018H276.673V99.6785H256.928ZM278.239 99.6785V80.8018H297.985V99.6785H278.239ZM299.551 99.6785V80.8018H319.297V99.6785H299.551ZM320.863 99.6785V80.8018H340.609V99.6785H320.863ZM342.175 99.6785V80.8018H361.92V99.6785H342.175ZM363.486 99.6785V80.8018H383.232V99.6785H363.486ZM384.798 99.6785V80.8018H404.544V99.6785H384.798ZM406.11 99.6785V80.8018H425.856V99.6785H406.11ZM427.422 99.6785V80.8018H447.167V99.6785H427.422ZM448.733 99.6785V80.8018H468.479V99.6785H448.733ZM470.045 99.6785V80.8018H489.791V99.6785H470.045ZM491.357 99.6785V80.8018H511.102V99.6785H491.357ZM512.668 99.6785V80.8018H531.631V99.6785H512.668ZM512.668 101.241H531.631V120.899H512.668V101.241ZM512.668 122.461H531.631V142.119H512.668V122.461ZM512.668 143.681H531.631V163.339H512.668V143.681ZM512.668 164.901H531.631V184.559H512.668V164.901ZM512.668 186.121H531.631V205.779H512.668V186.121ZM512.668 207.341H531.631V226.999H512.668V207.341ZM512.668 228.561H531.631V247.438H512.668V228.561ZM511.102 228.561V247.438H491.357V228.561H511.102ZM489.791 228.561V247.438H470.045V228.561H489.791ZM468.479 228.561V247.438H448.733V228.561H468.479ZM447.167 228.561V247.438H427.422V228.561H447.167ZM425.856 228.561V247.438H406.11V228.561H425.856ZM404.544 228.561V247.438H384.798V228.561H404.544ZM383.232 228.561V247.438H363.486V228.561H383.232ZM361.92 228.561V247.438H342.175V228.561H361.92ZM340.609 228.561V247.438H320.863V228.561H340.609ZM319.297 228.561V247.438H299.551V228.561H319.297ZM297.985 228.561V247.438H278.239V228.561H297.985ZM276.673 228.561V247.438H256.928V228.561H276.673ZM255.362 228.561V247.438H235.616V228.561H255.362ZM234.05 228.561V247.438H214.304V228.561H234.05ZM212.738 228.561V247.438H192.992V228.561H212.738ZM191.426 228.561V247.438H171.681V228.561H191.426ZM170.115 228.561V247.438H150.369V228.561H170.115ZM148.803 228.561V247.438H129.057V228.561H148.803ZM127.491 228.561V247.438H107.746V228.561H127.491ZM106.18 228.561V247.438H86.4338V228.561H106.18ZM84.8678 228.561V247.438H65.1221V228.561H84.8678ZM84.8678 226.999H65.1221V207.341H84.8678V226.999ZM84.8678 205.779H65.1221V186.121H84.8678V205.779ZM84.8678 184.559H65.1221V164.901H84.8678V184.559ZM84.8678 163.339H65.1221V143.681H84.8678V163.339ZM84.8678 142.119H65.1221V122.461H84.8678V142.119ZM84.8678 120.899H65.1221V101.241H84.8678V120.899ZM86.4338 120.899V101.241H106.18V120.899H86.4338ZM107.746 120.899V101.241H127.491V120.899H107.746ZM129.057 120.899V101.241H148.803V120.899H129.057ZM150.369 120.899V101.241H170.115V120.899H150.369ZM171.681 120.899V101.241H191.426V120.899H171.681ZM192.992 120.899V101.241H212.738V120.899H192.992ZM214.304 120.899V101.241H234.05V120.899H214.304ZM235.616 120.899V101.241H255.362V120.899H235.616ZM256.928 120.899V101.241H276.673V120.899H256.928ZM278.239 120.899V101.241H297.985V120.899H278.239ZM299.551 120.899V101.241H319.297V120.899H299.551ZM320.863 120.899V101.241H340.609V120.899H320.863ZM342.175 120.899V101.241H361.92V120.899H342.175ZM363.486 120.899V101.241H383.232V120.899H363.486ZM384.798 120.899V101.241H404.544V120.899H384.798ZM406.11 120.899V101.241H425.856V120.899H406.11ZM427.422 120.899V101.241H447.167V120.899H427.422ZM448.733 120.899V101.241H468.479V120.899H448.733ZM470.045 120.899V101.241H489.791V120.899H470.045ZM491.357 120.899V101.241H511.102V120.899H491.357ZM491.357 122.461H511.102V142.119H491.357V122.461ZM491.357 143.681H511.102V163.339H491.357V143.681ZM491.357 164.901H511.102V184.559H491.357V164.901ZM491.357 186.121H511.102V205.779H491.357V186.121ZM491.357 207.341H511.102V226.999H491.357V207.341ZM489.791 207.341V226.999H470.045V207.341H489.791ZM468.479 207.341V226.999H448.733V207.341H468.479ZM447.167 207.341V226.999H427.422V207.341H447.167ZM425.856 207.341V226.999H406.11V207.341H425.856ZM404.544 207.341V226.999H384.798V207.341H404.544ZM383.232 207.341V226.999H363.486V207.341H383.232ZM361.92 207.341V226.999H342.175V207.341H361.92ZM340.609 207.341V226.999H320.863V207.341H340.609ZM319.297 207.341V226.999H299.551V207.341H319.297ZM297.985 207.341V226.999H278.239V207.341H297.985ZM276.673 207.341V226.999H256.928V207.341H276.673ZM255.362 207.341V226.999H235.616V207.341H255.362ZM234.05 207.341V226.999H214.304V207.341H234.05ZM212.738 207.341V226.999H192.992V207.341H212.738ZM191.426 207.341V226.999H171.681V207.341H191.426ZM170.115 207.341V226.999H150.369V207.341H170.115ZM148.803 207.341V226.999H129.057V207.341H148.803ZM127.491 207.341V226.999H107.746V207.341H127.491ZM106.18 207.341V226.999H86.4338V207.341H106.18ZM106.18 205.779H86.4338V186.121H106.18V205.779ZM106.18 184.559H86.4338V164.901H106.18V184.559ZM106.18 163.339H86.4338V143.681H106.18V163.339ZM106.18 142.119H86.4338V122.461H106.18V142.119ZM107.746 142.119V122.461H127.491V142.119H107.746ZM129.057 142.119V122.461H148.803V142.119H129.057ZM150.369 142.119V122.461H170.115V142.119H150.369ZM171.681 142.119V122.461H191.426V142.119H171.681ZM192.992 142.119V122.461H212.738V142.119H192.992ZM214.304 142.119V122.461H234.05V142.119H214.304ZM235.616 142.119V122.461H255.362V142.119H235.616ZM256.928 142.119V122.461H276.673V142.119H256.928ZM278.239 142.119V122.461H297.985V142.119H278.239ZM299.551 142.119V122.461H319.297V142.119H299.551ZM320.863 142.119V122.461H340.609V142.119H320.863ZM342.175 142.119V122.461H361.92V142.119H342.175ZM363.486 142.119V122.461H383.232V142.119H363.486ZM384.798 142.119V122.461H404.544V142.119H384.798ZM406.11 142.119V122.461H425.856V142.119H406.11ZM427.422 142.119V122.461H447.167V142.119H427.422ZM448.733 142.119V122.461H468.479V142.119H448.733ZM470.045 142.119V122.461H489.791V142.119H470.045ZM470.045 143.681H489.791V163.339H470.045V143.681ZM470.045 164.901H489.791V184.559H470.045V164.901ZM470.045 186.121H489.791V205.779H470.045V186.121ZM468.479 186.121V205.779H448.733V186.121H468.479ZM447.167 186.121V205.779H427.422V186.121H447.167ZM425.856 186.121V205.779H406.11V186.121H425.856ZM404.544 186.121V205.779H384.798V186.121H404.544ZM383.232 186.121V205.779H363.486V186.121H383.232ZM361.92 186.121V205.779H342.175V186.121H361.92ZM340.609 186.121V205.779H320.863V186.121H340.609ZM319.297 186.121V205.779H299.551V186.121H319.297ZM297.985 186.121V205.779H278.239V186.121H297.985ZM276.673 186.121V205.779H256.928V186.121H276.673ZM255.362 186.121V205.779H235.616V186.121H255.362ZM234.05 186.121V205.779H214.304V186.121H234.05ZM212.738 186.121V205.779H192.992V186.121H212.738ZM191.426 186.121V205.779H171.681V186.121H191.426ZM170.115 186.121V205.779H150.369V186.121H170.115ZM148.803 186.121V205.779H129.057V186.121H148.803ZM127.491 186.121V205.779H107.746V186.121H127.491ZM127.491 184.559H107.746V164.901H127.491V184.559ZM127.491 163.339H107.746V143.681H127.491V163.339ZM129.057 163.339V143.681H148.803V163.339H129.057ZM150.369 163.339V143.681H170.115V163.339H150.369ZM171.681 163.339V143.681H191.426V163.339H171.681ZM192.992 163.339V143.681H212.738V163.339H192.992ZM214.304 163.339V143.681H234.05V163.339H214.304ZM235.616 163.339V143.681H255.362V163.339H235.616ZM256.928 163.339V143.681H276.673V163.339H256.928ZM278.239 163.339V143.681H297.985V163.339H278.239ZM299.551 163.339V143.681H319.297V163.339H299.551ZM320.863 163.339V143.681H340.609V163.339H320.863ZM342.175 163.339V143.681H361.92V163.339H342.175ZM363.486 163.339V143.681H383.232V163.339H363.486ZM384.798 163.339V143.681H404.544V163.339H384.798ZM406.11 163.339V143.681H425.856V163.339H406.11ZM427.422 163.339V143.681H447.167V163.339H427.422ZM448.733 163.339V143.681H468.479V163.339H448.733ZM448.733 164.901H468.479V184.559H448.733V164.901ZM447.167 164.901V184.559H427.422V164.901H447.167ZM425.856 164.901V184.559H406.11V164.901H425.856ZM404.544 164.901V184.559H384.798V164.901H404.544ZM383.232 164.901V184.559H363.486V164.901H383.232ZM361.92 164.901V184.559H342.175V164.901H361.92ZM340.609 164.901V184.559H320.863V164.901H340.609ZM319.297 164.901V184.559H299.551V164.901H319.297ZM297.985 164.901V184.559H278.239V164.901H297.985ZM276.673 164.901V184.559H256.928V164.901H276.673ZM255.362 164.901V184.559H235.616V164.901H255.362ZM234.05 164.901V184.559H214.304V164.901H234.05ZM212.738 164.901V184.559H192.992V164.901H212.738ZM191.426 164.901V184.559H171.681V164.901H191.426ZM170.115 164.901V184.559H150.369V164.901H170.115ZM148.803 164.901V184.559H129.057V164.901H148.803Z" fill="url(#paint0_radial_38676_20879)"/>
  <defs>
    <radialGradient id="paint0_radial_38676_20879" cx="0" cy="0" r="1" gradientUnits="userSpaceOnUse" gradientTransform="translate(273.179 79.3489) rotate(89.9808) scale(577.214 276.967)">
      <stop stop-color="#313145"/>
      <stop offset="1" stop-color="#26203B" stop-opacity="0"/>
    </radialGradient>
  </defs>
</svg>