<svg width="513" height="544" viewBox="0 0 513 544" fill="none"
  xmlns="http://www.w3.org/2000/svg">
  <path
    d="M306.688 7.85181C312.317 10.7605 317.684 14.0069 323.062 17.3518C334.947 24.7222 346.412 29.5945 360 32.7893C359 34.7893 359 34.7893 356.797 35.6409C343.41 39.0391 328.772 39.4936 315.477 35.5237C302.26 31.6047 288.11 34.1673 275 36.7893C274.67 47.6793 274.34 58.5693 274 69.7893C276.64 69.7893 279.28 69.7893 282 69.7893C309.601 73.3937 335.771 82.947 360.672 95.0925C375.163 102.207 388.743 110.69 401.833 120.108C422.294 134.883 440.66 153.952 455.738 174.114C474.687 200.027 487.36 229.448 495.048 260.511C502.845 293.832 501.332 332.056 489.141 364.044C481.245 384.412 470.88 401.546 456.008 417.571C453.95 419.786 453.95 419.786 452.062 422.301C447.688 427.578 441.79 431.428 436.586 435.832C414.496 454.339 387.212 464.419 359.912 472.4C356.192 473.428 353.682 473.939 350 472.789C355.821 463.562 361.281 454.116 366.672 444.633C391.675 400.661 417.318 357.051 442.618 313.249C445.175 308.698 446.242 306.123 446 300.789C436.619 301.967 427.814 308.255 419.657 312.721C412.58 316.586 405.418 320.284 398.25 323.977C391.861 327.274 385.551 330.823 379 333.789C412.5 258 404.391 240.973 390.102 197.793C388.03 191.962 385.549 186.305 383.056 180.646C375.13 162.921 363.146 149.556 351.375 134.539C347.407 129.944 342.645 126.164 338.004 122.285C319.239 106.89 297.735 96.0567 275 87.7893C275 98.3493 275 108.909 275 119.789C303.633 131.732 332.144 144.504 356 164.789C361.562 169.349 366.977 174.067 372.321 178.88C390.159 195.176 399.159 204.887 401 217.5C409.683 259.784 410.439 262.638 379 333.789C379 333.789 367.475 340.01 361.188 342.852C344.344 350.708 327.266 358.044 310.212 365.429C283.016 377.182 254.826 386.814 226.573 395.619C221.709 397.1 217.058 398.241 212 398.789C215.447 395.197 218.982 392.195 223 389.227C234.827 380.285 244.383 369.724 253.941 358.512C275.69 332.809 285.653 300.692 290.578 267.946C293.566 242.812 288.947 217.983 282.176 193.852C274.091 167.512 256.588 129.843 233 113.789C250.774 146.766 260.104 183.351 264.294 220.392C265.617 233.229 265.105 246.145 264.978 259.022C264.268 303.051 244.931 344.998 218.848 379.649C213.045 387.101 206.405 393.772 200.186 400.856C197.068 403.613 193.2 404.237 189.283 405.115C182.983 406.409 176.676 407.638 170.35 408.8C118.554 418.142 118.554 418.142 102 417.789C108.544 412.64 114.517 406.837 120.938 401.539C142.821 382.342 157.652 352.134 164.701 323.92C174.706 283.543 173.009 243.363 165.023 202.903C162.601 191.14 158.456 179.864 154.192 168.669C148.192 153.246 139.439 138.831 129.426 125.688C128 123.789 128 123.789 127 121.789C140.841 124.735 154.41 128.878 168 132.789C167.314 110.607 162.198 92.7859 151 73.7893C151.33 73.1293 151.66 72.4693 152 71.7893C179.817 79.6076 207.076 88.9472 233.726 100.115C244.518 104.776 254.492 110.285 265 115.789C265.33 78.1693 265.66 40.5493 266 1.78931C279.518 -2.71683 294.46 2.02519 306.688 7.85181Z"
    fill="#F56E0F">

    <animate attributeName="fill-opacity"
      begin="0s" dur="1s"
      values="1;.2;1" calcMode="linear"
      repeatCount="indefinite" />
  </path>
  <path
    d="M133 369.789C163.339 311.833 162.125 245.06 147 182.789C127.75 178.566 73 166.789 73 166.789C80.2505 182.615 87.2873 198.062 90.5435 215.328C91.9785 223.064 92.9431 230.788 93.2891 238.656C94.6158 283.813 79.9435 330.218 49 363.789C46.9279 365.795 44 367.686 44 370.789C71.43 370.845 98.8612 370.793 126.291 370.914C128.701 370.909 131.189 371.6 133 369.789Z"
    fill="#F56E0F">
    <animate attributeName="fill-opacity"
      begin="100ms" dur="1s"
      values="1;.2;1" calcMode="linear"
      repeatCount="indefinite" />
  </path>
  <path
    d="M513 454.789C509.935 456.832 507.624 457.566 504.102 458.551C496.141 460.938 488.699 464.544 481.219 468.104C471.753 472.689 463.025 478.211 454.5 484.352C444.97 491.205 435.526 498.186 426.11 505.196C395.308 528.117 360.589 542.921 321.828 543.119C309.462 543.01 297.634 540.719 285.968 536.736C265.929 529.684 248.753 518.247 232.996 504.098C224.271 496.347 214.363 490.653 204.09 485.262C189.491 478.351 171.947 477.212 156 476.789C174.053 465.976 212.901 469.496 232.71 474.207C248.118 478.124 263.236 483.073 278.234 488.324C325.327 504.495 369.057 491.554 413.188 473.395C443.685 460.848 479.507 448.144 513 454.789Z"
    fill="#F56E0F">
    <animate attributeName="fill-opacity"
      begin="400ms" dur="1s"
      values="1;.2;1" calcMode="linear"
      repeatCount="indefinite" />
  </path>
  <path
    d="M212 502.789C209 505.283 206.316 506.523 202.602 507.676C194.559 510.244 186.611 513.092 178.659 515.927C171.812 518.381 165.008 520.913 158.25 523.602C150.983 526.49 143.643 528.882 136.149 531.114C134.529 531.623 132.919 532.167 131.316 532.728C122.914 535.661 114.252 537.442 105.535 539.119C86.538 542.691 66.914 543.55 47.9722 539.238C46.0085 538.791 44.0392 538.385 42.0664 537.981C27.206 534.766 13.0508 528.532 0 520.789C0 520.459 0 520.129 0 519.789C0.742339 519.815 1.48468 519.842 2.24951 519.869C33.9144 520.829 62.2297 513.812 91.9648 503.301C97.1739 501.462 102.378 499.609 107.567 497.713C141.172 485.559 180.958 481.281 212 502.789Z"
    fill="#F56E0F">
    <animate attributeName="fill-opacity"
      begin="300ms" dur="1s"
      values="1;.2;1" calcMode="linear"
      repeatCount="indefinite" />
  </path>
</svg>
