<svg width="513" height="544" viewBox="0 0 513 544" fill="none" xmlns="http://www.w3.org/2000/svg">
<path d="M306.688 7.85181C312.317 10.7605 317.684 14.0069 323.062 17.3518C334.947 24.7222 346.412 29.5945 360 32.7893C359 34.7893 359 34.7893 356.797 35.6409C343.41 39.0391 328.772 39.4936 315.477 35.5237C302.26 31.6047 288.11 34.1673 275 36.7893C274.67 47.6793 274.34 58.5693 274 69.7893C276.64 69.7893 279.28 69.7893 282 69.7893C307.941 73.1769 334.645 82.2067 358 93.7893C358.882 94.2194 359.763 94.6494 360.672 95.0925C374.596 101.928 387.483 109.636 400 118.789C400.605 119.225 401.21 119.66 401.833 120.108C411.261 126.916 419.658 134.713 428 142.789C428.681 143.443 429.361 144.096 430.062 144.769C438.88 153.26 446.884 161.816 454 171.789C454.574 172.556 455.147 173.323 455.738 174.114C474.024 199.12 486.927 227.54 494.312 257.539C494.555 258.52 494.798 259.501 495.048 260.511C498.322 274.502 499.413 288.402 499.375 302.727C499.375 303.481 499.375 304.234 499.374 305.011C499.32 324.443 496.993 343.549 490 361.789C489.716 362.533 489.433 363.278 489.141 364.044C481.245 384.412 470.88 401.546 456.008 417.571C453.95 419.786 453.95 419.786 452.062 422.301C449.865 424.952 447.565 426.957 444.875 429.102C443.898 429.882 442.921 430.662 441.914 431.465C440.952 432.232 439.991 432.999 439 433.789C437.805 434.801 437.805 434.801 436.586 435.832C415.57 453.44 388.13 464.43 362 471.789C361.311 471.991 360.622 472.192 359.912 472.4C356.192 473.428 353.682 473.939 350 472.789C350.657 471.747 350.657 471.747 351.328 470.684C356.666 462.124 361.687 453.402 366.672 444.633C370.193 438.441 373.75 432.27 377.312 426.102C377.942 425.011 378.572 423.92 379.221 422.796C380.506 420.571 381.791 418.345 383.077 416.12C385.596 411.757 388.114 407.392 390.632 403.028C391.878 400.867 393.125 398.706 394.372 396.545C397.512 391.104 400.65 385.662 403.785 380.219C409.831 369.727 415.891 359.245 422 348.789C426.766 340.631 431.516 332.464 436.242 324.283C437.228 322.577 438.216 320.87 439.203 319.164C439.801 318.128 440.399 317.091 441.016 316.024C441.544 315.108 442.073 314.193 442.618 313.249C445.175 308.698 446.242 306.123 446 300.789C441.699 301.329 438.528 302.318 434.746 304.422C433.74 304.974 432.734 305.526 431.698 306.095C430.622 306.695 429.546 307.296 428.438 307.914C426.12 309.186 423.801 310.456 421.48 311.723C420.879 312.052 420.277 312.382 419.657 312.721C412.58 316.586 405.418 320.284 398.25 323.977C397.007 324.618 395.764 325.26 394.521 325.901C391.35 327.535 388.178 329.168 385 330.789C383.927 331.368 382.854 331.948 381.749 332.544C380.842 332.955 379.935 333.366 379 333.789C378.34 333.459 377.68 333.129 377 332.789C377.496 331.783 377.993 330.776 378.504 329.739C398.786 288.013 404.932 242.611 390.102 197.793C388.288 192.691 386.22 187.726 384 182.789C383.533 181.728 383.533 181.728 383.056 180.646C375.907 164.658 366.124 150.386 354 137.789C353.112 136.717 352.234 135.635 351.375 134.539C348.214 130.879 344.725 127.865 341 124.789C340.011 123.963 339.023 123.137 338.004 122.285C319.239 106.89 297.735 96.0567 275 87.7893C275 98.3493 275 108.909 275 119.789C279.104 121.501 283.209 123.213 287.438 124.977C311.958 135.406 335.595 147.438 356 164.789C357.016 165.622 358.032 166.455 359.078 167.313C362.796 170.387 366.415 173.561 370 176.789C370.766 177.479 371.532 178.169 372.321 178.88C390.159 195.176 390.159 195.176 392 207.789C392.34 209.446 392.691 211.101 393.051 212.754C401.125 250.425 396.445 285.819 381.875 321.227C381.563 321.99 381.25 322.753 380.929 323.539C380.018 325.663 379.044 327.728 378 329.789C377.69 330.408 377.38 331.026 377.061 331.663C373.408 337.78 367.475 340.01 361.188 342.852C359.428 343.673 359.428 343.673 357.632 344.51C353.77 346.305 349.888 348.053 346 349.789C345.316 350.095 344.632 350.401 343.927 350.715C334.597 354.876 325.235 358.961 315.849 362.994C313.969 363.803 312.09 364.615 310.212 365.429C304.27 367.997 298.331 370.504 292.25 372.727C288.092 374.256 283.943 375.799 279.828 377.442C263.311 384.03 246.423 389.482 229.438 394.727C228.02 395.169 228.02 395.169 226.573 395.619C221.709 397.1 217.058 398.241 212 398.789C215.447 395.197 218.982 392.195 223 389.227C234.044 380.878 243.497 371.74 252 360.789C252.641 360.038 253.281 359.286 253.941 358.512C274.565 334.139 285.53 303.018 290 271.789C290.191 270.521 290.382 269.252 290.578 267.946C293.43 243.958 289.576 219.844 283 196.789C282.728 195.82 282.456 194.851 282.176 193.852C274.091 167.512 256.588 129.843 233 113.789C233.401 114.533 233.802 115.277 234.215 116.043C250.619 147.549 260.115 182.586 264 217.789C264.146 219.078 264.146 219.078 264.294 220.392C265.54 232.48 265.161 244.655 265 256.789C264.993 257.526 264.986 258.263 264.978 259.022C264.309 300.521 245.713 344.077 221 376.789C220.29 377.733 219.579 378.676 218.848 379.649C213.618 386.365 207.84 392.605 202 398.789C201.401 399.471 200.803 400.153 200.186 400.856C197.62 403.126 195.839 403.659 192.512 404.391C191.446 404.63 190.381 404.868 189.283 405.115C188.199 405.337 187.116 405.56 186 405.789C184.528 406.096 184.528 406.096 183.026 406.409C179.96 407.025 176.889 407.601 173.812 408.164C172.67 408.374 171.527 408.584 170.35 408.8C118.554 418.142 118.554 418.142 102 417.789C102.726 417.218 103.451 416.647 104.199 416.059C107.742 413.188 111.09 410.135 114.461 407.067C116.581 405.165 118.742 403.351 120.938 401.539C134.926 389.268 145.147 372.784 152.932 356.062C153.741 354.34 154.575 352.629 155.421 350.924C159.358 342.801 162.004 334.725 164.188 325.977C164.357 325.298 164.527 324.619 164.701 323.92C174.014 286.337 174.501 245.596 166 207.789C165.671 206.161 165.345 204.532 165.023 202.903C162.751 191.869 159.014 181.295 155 170.789C154.733 170.09 154.467 169.39 154.192 168.669C148.192 153.246 139.439 138.831 129.426 125.688C128 123.789 128 123.789 127 121.789C132.956 123.057 138.828 124.506 144.688 126.164C145.456 126.38 146.225 126.595 147.017 126.817C154.018 128.784 161.012 130.778 168 132.789C167.357 111.99 164.444 93.2222 152.223 75.8635C151.819 75.179 151.416 74.4945 151 73.7893C151.33 73.1293 151.66 72.4693 152 71.7893C178.815 79.3259 204.866 87.9428 230.562 98.7893C231.606 99.2268 232.65 99.6643 233.726 100.115C244.518 104.776 254.492 110.285 265 115.789C265.33 78.1693 265.66 40.5493 266 1.78931C279.518 -2.71683 294.46 2.02519 306.688 7.85181Z" fill="white"/>
<path d="M306.688 7.85181C312.317 10.7605 317.684 14.0069 323.062 17.3518C334.947 24.7222 346.412 29.5945 360 32.7893C359 34.7893 359 34.7893 356.797 35.6409C343.41 39.0391 328.772 39.4936 315.477 35.5237C302.26 31.6047 288.11 34.1673 275 36.7893C274.67 47.6793 274.34 58.5693 274 69.7893C276.64 69.7893 279.28 69.7893 282 69.7893C307.941 73.1769 334.645 82.2067 358 93.7893C358.882 94.2194 359.763 94.6494 360.672 95.0925C374.596 101.928 387.483 109.636 400 118.789C400.605 119.225 401.21 119.66 401.833 120.108C411.261 126.916 419.658 134.713 428 142.789C428.681 143.443 429.361 144.096 430.062 144.769C438.88 153.26 446.884 161.816 454 171.789C454.86 172.94 454.86 172.94 455.738 174.114C474.024 199.12 486.927 227.54 494.312 257.539C494.555 258.52 494.798 259.501 495.048 260.511C498.322 274.502 499.413 288.402 499.375 302.727C499.375 303.481 499.375 304.234 499.374 305.011C499.32 324.443 496.993 343.549 490 361.789C489.716 362.533 489.433 363.278 489.141 364.044C481.245 384.412 470.88 401.546 456.008 417.571C453.95 419.786 453.95 419.786 452.062 422.301C449.865 424.952 447.565 426.957 444.875 429.102C443.898 429.882 442.921 430.662 441.914 431.465C440.952 432.232 439.991 432.999 439 433.789C438.203 434.464 437.407 435.138 436.586 435.832C415.57 453.44 388.13 464.43 362 471.789C361.311 471.991 360.622 472.192 359.912 472.4C356.192 473.428 353.682 473.939 350 472.789C350.438 472.095 350.877 471.4 351.328 470.684C356.666 462.124 361.687 453.402 366.672 444.633C370.193 438.441 373.75 432.27 377.312 426.102C377.942 425.011 378.572 423.92 379.221 422.796C380.506 420.571 381.791 418.345 383.077 416.12C385.596 411.757 388.114 407.392 390.632 403.028C391.878 400.867 393.125 398.706 394.372 396.545C397.512 391.104 400.65 385.662 403.785 380.219C409.831 369.727 415.891 359.245 422 348.789C426.766 340.631 431.516 332.464 436.242 324.283C437.228 322.577 438.216 320.87 439.203 319.164C439.801 318.128 440.399 317.091 441.016 316.024C441.544 315.108 442.073 314.193 442.618 313.249C445.175 308.698 446.242 306.123 446 300.789C441.699 301.329 438.528 302.318 434.746 304.422C433.74 304.974 432.735 305.526 431.698 306.095C430.622 306.695 429.546 307.296 428.438 307.914C426.12 309.186 423.801 310.456 421.48 311.723C420.879 312.052 420.277 312.382 419.657 312.721C412.58 316.586 405.418 320.284 398.25 323.977C397.007 324.618 395.764 325.26 394.521 325.901C391.35 327.535 388.178 329.168 385 330.789C383.927 331.368 382.854 331.948 381.749 332.544C380.842 332.955 379.935 333.366 379 333.789C378.34 333.459 377.68 333.129 377 332.789C377.496 331.783 377.993 330.776 378.504 329.739C398.786 288.013 404.932 242.611 390.102 197.793C388.288 192.691 386.22 187.726 384 182.789C383.688 182.082 383.377 181.375 383.056 180.646C375.907 164.658 366.124 150.386 354 137.789C353.112 136.717 352.234 135.635 351.375 134.539C348.214 130.879 344.725 127.865 341 124.789C340.011 123.963 339.023 123.137 338.004 122.285C319.239 106.89 297.735 96.0567 275 87.7893C274.67 97.3593 274.34 106.929 274 116.789C273.34 116.789 272.68 116.789 272 116.789C272 114.479 272 112.169 272 109.789C271.34 109.789 270.68 109.789 270 109.789C269.711 110.387 269.423 110.986 269.125 111.602C268 113.789 268 113.789 266 116.789C266 78.8393 266 40.8893 266 1.78931C279.518 -2.71683 294.46 2.02519 306.688 7.85181Z" fill="white"/>
<path d="M270 109.789C270.66 109.789 271.32 109.789 272 109.789C272 112.099 272 114.409 272 116.789C272.66 116.789 273.32 116.789 274 116.789C274.495 118.274 274.495 118.274 275 119.789C277.368 121.125 277.368 121.125 280.344 122.25C281.476 122.715 282.608 123.179 283.774 123.658C284.381 123.903 284.988 124.148 285.613 124.4C310.865 134.628 335.145 147.056 356 164.789C357.016 165.622 358.032 166.455 359.078 167.312C362.796 170.387 366.415 173.561 370 176.789C370.766 177.479 371.532 178.169 372.321 178.879C390.159 195.176 390.159 195.176 392 207.789C392.34 209.446 392.691 211.101 393.051 212.754C401.125 250.424 396.445 285.819 381.875 321.227C381.563 321.989 381.25 322.752 380.929 323.538C380.018 325.662 379.045 327.728 378 329.789C377.69 330.407 377.38 331.025 377.061 331.662C373.408 337.78 367.475 340.01 361.188 342.852C360.014 343.399 358.841 343.946 357.632 344.51C353.77 346.305 349.888 348.052 346 349.789C345.316 350.095 344.632 350.4 343.927 350.715C334.597 354.876 325.235 358.961 315.849 362.994C313.969 363.803 312.09 364.615 310.212 365.428C304.27 367.997 298.331 370.504 292.25 372.727C288.092 374.256 283.943 375.799 279.828 377.441C263.311 384.03 246.423 389.482 229.438 394.727C228.02 395.168 228.02 395.168 226.573 395.619C221.709 397.099 217.058 398.241 212 398.789C215.447 395.196 218.982 392.195 223 389.227C234.044 380.877 243.497 371.74 252 360.789C252.961 359.662 252.961 359.662 253.941 358.512C274.565 334.138 285.53 303.018 290 271.789C290.191 270.521 290.382 269.252 290.578 267.945C293.43 243.958 289.576 219.844 283 196.789C282.728 195.82 282.456 194.85 282.176 193.852C276.322 174.782 266.686 155.767 254.938 139.664C251.485 134.869 249.884 131.707 250 125.789C250.66 125.789 251.32 125.789 252 125.789C252 124.469 252 123.149 252 121.789C255.667 121.789 259.333 121.789 263 121.789C263.33 120.139 263.66 118.489 264 116.789C264.99 116.789 265.98 116.789 267 116.789C267 115.139 267 113.489 267 111.789C267.66 111.789 268.32 111.789 269 111.789C269.33 111.129 269.66 110.469 270 109.789Z" fill="white"/>
<path d="M73 166.789C78.5695 167.404 83.9153 168.349 89.3633 169.645C90.1455 169.827 90.9278 170.009 91.7338 170.197C93.4011 170.586 95.0679 170.977 96.7343 171.369C101.089 172.395 105.447 173.408 109.805 174.422C110.671 174.624 111.538 174.826 112.431 175.034C120.256 176.856 128.093 178.618 135.938 180.352C137.073 180.603 138.208 180.853 139.378 181.112C141.918 181.672 144.459 182.232 147 182.789C162.125 245.06 163.339 311.833 133 369.789C131.189 371.6 128.701 370.909 126.291 370.913C125.472 370.91 124.652 370.906 123.808 370.903C122.95 370.903 122.091 370.903 121.207 370.903C118.355 370.902 115.504 370.895 112.652 370.887C110.681 370.885 108.709 370.883 106.738 370.882C101.538 370.879 96.3378 370.869 91.1379 370.858C85.8361 370.848 80.5342 370.843 75.2324 370.838C64.8216 370.827 54.4108 370.81 44 370.789C44 368.789 44 368.789 46.2148 366.484C47.1339 365.595 48.053 364.705 49 363.789C79.9435 330.218 94.6158 283.813 93.2891 238.656C92.978 231.582 92.3737 224.751 91 217.789C90.8493 216.977 90.6987 216.165 90.5435 215.328C88.1529 202.652 84.6188 191.302 78.9414 179.722C77.5657 176.897 76.2855 174.031 75 171.164C74.3342 169.705 73.6679 168.247 73 166.789Z" fill="white"/>
<path d="M513 454.789C509.935 456.832 507.625 457.566 504.102 458.551C497.183 460.625 490.85 463.425 484.375 466.601C483.333 467.097 482.292 467.593 481.219 468.103C471.753 472.689 463.025 478.211 454.5 484.351C453.931 484.761 453.362 485.17 452.775 485.592C447.656 489.286 442.58 493.04 437.5 496.789C435.072 498.578 432.643 500.367 430.214 502.155C428.844 503.166 427.476 504.179 426.11 505.196C396.11 527.52 363.032 542.92 325.188 543.101C323.525 543.11 323.525 543.11 321.828 543.118C310.357 543.018 299.537 541.406 288.688 537.664C287.79 537.357 286.893 537.051 285.968 536.735C265.929 529.684 248.753 518.246 232.996 504.097C224.963 496.961 216.584 491.628 207 486.789C206.04 486.285 205.079 485.781 204.09 485.261C189.491 478.351 171.947 477.212 156 476.789C174.053 465.976 212.901 469.496 232.71 474.207C244.186 477.124 255.457 480.569 266.672 484.363C267.655 484.695 267.655 484.695 268.657 485.033C271.855 486.114 275.047 487.209 278.234 488.324C325.327 504.495 369.057 491.554 413.188 473.394C443.685 460.848 479.507 448.144 513 454.789Z" fill="white"/>
<path d="M151 71.7891C194.058 83.3182 194.058 83.3182 205 88.7891C205 89.4491 205 90.1091 205 90.7891C204.237 90.9128 203.474 91.0366 202.688 91.1641C199.797 91.6701 199.797 91.6701 197 93.7891C196.34 93.4591 195.68 93.1291 195 92.7891C194.381 92.6447 193.762 92.5003 193.125 92.3516C191 91.7891 191 91.7891 189.258 90.7617C186.312 89.4928 183.944 89.5946 180.75 89.6641C179.134 89.6911 179.134 89.6911 177.484 89.7188C176.665 89.742 175.845 89.7652 175 89.7891C174.101 92.9552 174.183 94.6218 175 97.7891C174.505 99.2741 174.505 99.2741 174 100.789C174.626 101.03 175.253 101.271 175.898 101.52C178.545 103.118 178.807 104.169 179.625 107.102C180.385 109.694 181.134 112.107 182.188 114.602C183 116.789 183 116.789 183 120.789C183.66 120.789 184.32 120.789 185 120.789C185.042 123.122 185.041 125.456 185 127.789C184.67 128.119 184.34 128.449 184 128.789C185.485 129.779 185.485 129.779 187 130.789C187.688 133.914 187.688 133.914 188 136.789C186.02 137.779 186.02 137.779 184 138.789C185.722 142.038 185.722 142.038 189 142.789C188.01 143.284 188.01 143.284 187 143.789C187 144.449 187 145.109 187 145.789C185.515 146.284 185.515 146.284 184 146.789C183.34 146.129 182.68 145.469 182 144.789C179.773 145.851 179.773 145.851 177 147.789C174.375 147.414 174.375 147.414 172 146.789C171.67 146.789 171.34 146.789 171 146.789C170.505 148.769 170.505 148.769 170 150.789C169.34 150.789 168.68 150.789 168 150.789C168 151.449 168 152.109 168 152.789C168.66 152.789 169.32 152.789 170 152.789C170.66 153.449 171.32 154.109 172 154.789C172.99 154.789 173.98 154.789 175 154.789C175.33 154.129 175.66 153.469 176 152.789C176 153.449 176 154.109 176 154.789C176.66 154.789 177.32 154.789 178 154.789C178 154.129 178 153.469 178 152.789C179.375 151.164 179.375 151.164 181 149.789C181.66 149.789 182.32 149.789 183 149.789C183.33 150.779 183.66 151.769 184 152.789C183.01 152.789 182.02 152.789 181 152.789C181 153.449 181 154.109 181 154.789C181.66 155.119 182.32 155.449 183 155.789C183 156.449 183 157.109 183 157.789C181.515 158.284 181.515 158.284 180 158.789C180.33 159.449 180.66 160.109 181 160.789C180.257 161.346 180.257 161.346 179.5 161.914C177.402 164.536 177.783 166.527 178 169.789C179.98 170.779 181.96 171.769 184 172.789C184 174.109 184 175.429 184 176.789C185.98 177.779 185.98 177.779 188 178.789C187 180.789 187 180.789 185 181.789C185.717 188.018 185.717 188.018 188 193.789C190.017 195.133 190.017 195.133 192 195.789C191.67 196.449 191.34 197.109 191 197.789C190.01 197.789 189.02 197.789 188 197.789C187.01 198.284 187.01 198.284 186 198.789C186.309 199.346 186.619 199.903 186.938 200.477C188.058 202.914 188.56 205.151 189 207.789C188.01 208.449 187.02 209.109 186 209.789C186 210.449 186 211.109 186 211.789C186.66 212.119 187.32 212.449 188 212.789C187.34 212.789 186.68 212.789 186 212.789C186 213.779 186 214.769 186 215.789C187.98 214.469 189.96 213.149 192 211.789C192.33 212.779 192.66 213.769 193 214.789C192.34 215.449 191.68 216.109 191 216.789C191.298 218.131 191.641 219.462 192 220.789C192 223.122 192 225.456 192 227.789C192.186 228.49 192.371 229.192 192.562 229.914C193.148 232.424 192.538 234.28 192 236.789C191.538 241.756 192.783 245.713 194.258 250.391C196.504 257.648 196.504 257.648 195.062 260.914C194.712 261.533 194.361 262.152 194 262.789C194 264.109 194 265.429 194 266.789C194.99 266.789 195.98 266.789 197 266.789C196.67 267.449 196.34 268.109 196 268.789C196 270.945 196.447 272.714 197 274.789C196.34 274.789 195.68 274.789 195 274.789C194.67 275.779 194.34 276.769 194 277.789C193.34 277.789 192.68 277.789 192 277.789C192.186 278.428 192.371 279.068 192.562 279.727C192.779 280.747 192.779 280.747 193 281.789C192.67 282.119 192.34 282.449 192 282.789C191.395 286.887 191 290.642 191 294.789C190.34 295.779 189.68 296.769 189 297.789C189.99 298.119 190.98 298.449 192 298.789C191.34 299.779 190.68 300.769 190 301.789C190.27 304.131 190.613 306.464 191 308.789C191.375 312.539 191.375 312.539 191 315.789C188.5 317.539 188.5 317.539 186 318.789C186 321.947 186.596 323.981 188 326.789C187.67 327.408 187.34 328.027 187 328.664C185.758 331.303 186.273 332.041 187 334.789C186.729 336.799 186.406 338.803 186 340.789C187.32 341.119 188.64 341.449 190 341.789C190.33 341.129 190.66 340.469 191 339.789C191.33 341.109 191.66 342.429 192 343.789C190.02 344.449 188.04 345.109 186 345.789C186 345.129 186 344.469 186 343.789C185.34 343.789 184.68 343.789 184 343.789C184.588 344.532 184.588 344.532 185.188 345.289C186.311 348.747 185.426 350.791 184.07 354.082C183 355.789 183 355.789 180.312 356.789C179.549 356.789 178.786 356.789 178 356.789C178.33 358.439 178.66 360.089 179 361.789C177.02 362.449 175.04 363.109 173 363.789C173 364.779 173 365.769 173 366.789C173.66 367.119 174.32 367.449 175 367.789C174.67 368.449 174.34 369.109 174 369.789C174.66 370.119 175.32 370.449 176 370.789C174.35 372.109 172.7 373.429 171 374.789C170.67 374.459 170.34 374.129 170 373.789C169.67 374.449 169.34 375.109 169 375.789C168.34 375.789 167.68 375.789 167 375.789C167.33 377.769 167.66 379.749 168 381.789C167.34 382.119 166.68 382.449 166 382.789C165.505 381.304 165.505 381.304 165 379.789C162.69 379.459 160.38 379.129 158 378.789C156.372 380.599 156.372 380.599 155 382.789C155.495 384.274 155.495 384.274 156 385.789C154.35 385.789 152.7 385.789 151 385.789C150.67 386.779 150.34 387.769 150 388.789C149.01 389.449 148.02 390.109 147 390.789C145.808 392.839 145.808 392.839 145 394.789C144.34 394.789 143.68 394.789 143 394.789C142.67 395.779 142.34 396.769 142 397.789C141.67 397.129 141.34 396.469 141 395.789C141.33 395.129 141.66 394.469 142 393.789C141.34 393.789 140.68 393.789 140 393.789C139.67 394.449 139.34 395.109 139 395.789C138.34 395.789 137.68 395.789 137 395.789C136.67 397.439 136.34 399.089 136 400.789C135.67 400.129 135.34 399.469 135 398.789C131.781 399.147 130.893 399.899 128.562 402.289C125.879 404.907 124.652 405.476 121 405.789C121.33 406.449 121.66 407.109 122 407.789C123.65 407.789 125.3 407.789 127 407.789C127.33 408.779 127.66 409.769 128 410.789C127.67 411.449 127.34 412.109 127 412.789C128.65 413.119 130.3 413.449 132 413.789C132 414.119 132 414.449 132 414.789C127.938 415.294 123.875 415.792 119.812 416.289C118.662 416.432 117.512 416.575 116.326 416.723C115.214 416.858 114.103 416.993 112.957 417.133C111.936 417.258 110.915 417.384 109.863 417.514C107.219 417.768 104.654 417.84 102 417.789C102.726 417.218 103.451 416.647 104.199 416.059C107.742 413.188 111.09 410.134 114.461 407.066C116.581 405.165 118.742 403.351 120.938 401.539C134.926 389.268 145.147 372.783 152.932 356.062C153.741 354.34 154.575 352.629 155.421 350.924C159.358 342.801 162.004 334.725 164.188 325.977C164.357 325.298 164.527 324.619 164.701 323.92C174.014 286.337 174.501 245.595 166 207.789C165.671 206.161 165.345 204.532 165.023 202.902C162.751 191.868 159.014 181.295 155 170.789C154.733 170.089 154.467 169.389 154.192 168.668C148.192 153.246 139.439 138.831 129.426 125.688C128 123.789 128 123.789 127 121.789C132.956 123.057 138.828 124.506 144.688 126.164C145.456 126.38 146.225 126.595 147.017 126.817C154.018 128.783 161.012 130.778 168 132.789C167.356 111.975 164.377 93.3214 152.32 75.8633C151 73.7891 151 73.7891 151 71.7891ZM185 135.789C186 137.789 186 137.789 186 137.789L185 135.789ZM185 201.789C186 204.789 186 204.789 186 204.789L185 201.789ZM190 230.789C191 232.789 191 232.789 191 232.789L190 230.789ZM171 368.789C171.99 370.274 171.99 370.274 173 371.789C173 370.799 173 369.809 173 368.789C172.34 368.789 171.68 368.789 171 368.789ZM146 384.789C146.33 385.779 146.66 386.769 147 387.789C147.33 386.799 147.66 385.809 148 384.789C147.34 384.789 146.68 384.789 146 384.789ZM183 148.789C185 149.789 185 149.789 185 149.789L183 148.789ZM189 196.789C189.66 197.449 190.32 198.109 191 198.789C190.34 198.789 189.68 198.789 189 198.789C189 198.129 189 197.469 189 196.789ZM198 272.789C199.485 273.779 199.485 273.779 201 274.789C200.01 275.119 199.02 275.449 198 275.789C198 274.799 198 273.809 198 272.789ZM190 320.789C190.33 321.449 190.66 322.109 191 322.789C190.01 322.459 189.02 322.129 188 321.789C188.66 321.459 189.32 321.129 190 320.789ZM191 322.789C191.66 322.789 192.32 322.789 193 322.789C192.67 323.449 192.34 324.109 192 324.789C191.67 324.129 191.34 323.469 191 322.789ZM128 407.789C130.64 408.119 133.28 408.449 136 408.789C135.67 409.449 135.34 410.109 135 410.789C133.02 410.789 131.04 410.789 129 410.789C128.67 409.799 128.34 408.809 128 407.789ZM136 410.789C138 411.789 138 411.789 138 411.789L136 410.789ZM139 410.789C141 411.789 141 411.789 141 411.789L139 410.789Z" fill="white"/>
<path d="M212 502.789C209 505.283 206.316 506.523 202.602 507.676C195.807 509.846 189.092 512.202 182.375 514.602C181.149 515.039 179.923 515.476 178.659 515.926C171.812 518.381 165.008 520.913 158.25 523.602C150.983 526.49 143.643 528.882 136.149 531.114C134.529 531.623 132.919 532.167 131.316 532.728C123.915 535.311 116.58 537.065 108.875 538.477C107.773 538.689 106.671 538.901 105.535 539.119C86.538 542.691 66.914 543.55 47.9722 539.238C46.0085 538.791 44.0392 538.385 42.0664 537.98C27.206 534.765 13.0508 528.532 0 520.789C0 520.459 0 520.129 0 519.789C0.742339 519.815 1.48468 519.841 2.24951 519.868C33.9144 520.829 62.2297 513.812 91.9648 503.301C92.8374 502.993 93.7099 502.685 94.6089 502.367C98.9356 500.836 103.256 499.288 107.567 497.713C141.172 485.559 180.958 481.281 212 502.789Z" fill="white"/>
<path d="M257 130.789C257.99 131.449 258.98 132.109 260 132.789C261.99 133.179 263.99 133.521 266 133.789C265.01 134.779 264.02 135.769 263 136.789C263.804 137.346 264.609 137.903 265.438 138.477C268.242 141.008 268.694 142.115 269 145.789C269.66 145.789 270.32 145.789 271 145.789C271.33 145.129 271.66 144.469 272 143.789C274 149.539 274 149.539 274 151.789C273.34 151.789 272.68 151.789 272 151.789C272 152.449 272 153.109 272 153.789C272.557 154.057 273.114 154.325 273.688 154.602C276.212 155.898 278.637 157.214 281 158.789C281 159.449 281 160.109 281 160.789C281.66 160.789 282.32 160.789 283 160.789C283.495 161.779 283.495 161.779 284 162.789C284.99 162.789 285.98 162.789 287 162.789C287 163.449 287 164.109 287 164.789C287.66 164.789 288.32 164.789 289 164.789C289 165.449 289 166.109 289 166.789C289.66 167.119 290.32 167.449 291 167.789C290.649 168.532 290.299 169.274 289.938 170.039C288.925 173.01 288.895 173.934 290 176.789C290.33 177.449 290.66 178.109 291 178.789C292 180.789 292 180.789 292.375 182.852C292.835 184.976 292.835 184.976 294.965 186.059C297.661 188.351 297.727 189.956 298.188 193.414C298.41 196.911 298.41 196.911 300 199.789C300.202 202.078 300.319 204.365 300.426 206.66C300.783 208.975 300.783 208.975 302.992 209.957C303.655 210.232 304.317 210.506 305 210.789C306.277 213.735 305.967 215.78 305 218.789C305.66 219.119 306.32 219.449 307 219.789C307 220.779 307 221.769 307 222.789C307.309 223.748 307.309 223.748 307.625 224.727C308 226.789 308 226.789 306.938 228.727C305.695 230.819 305.695 230.819 306.875 233.164C307.246 234.03 307.618 234.897 308 235.789C308.442 240.545 307.436 244.823 306.34 249.422C305.98 251.926 306.276 253.396 307 255.789C307.251 259.884 307.326 261.3 305 264.789C305.66 264.789 306.32 264.789 307 264.789C306.814 265.511 306.629 266.233 306.438 266.977C305.976 269.946 306.314 271.892 307 274.789C307 276.456 307 278.122 307 279.789C306.34 280.119 305.68 280.449 305 280.789C304.67 281.779 304.34 282.769 304 283.789C303.01 284.119 302.02 284.449 301 284.789C301.012 285.537 301.023 286.284 301.035 287.055C301.044 288.04 301.053 289.024 301.062 290.039C301.074 291.014 301.086 291.988 301.098 292.992C301.011 295.467 300.691 297.43 300 299.789C299.659 301.454 299.324 303.121 299 304.789C299.66 305.119 300.32 305.449 301 305.789C300.01 306.449 299.02 307.109 298 307.789C297.276 309.848 297.276 309.848 297 311.789C295.68 311.789 294.36 311.789 293 311.789C293.206 312.903 293.412 314.017 293.625 315.164C293.749 316.36 293.872 317.557 294 318.789C293.34 319.449 292.68 320.109 292 320.789C292 321.449 292 322.109 292 322.789C291.34 322.789 290.68 322.789 290 322.789C289.67 323.449 289.34 324.109 289 324.789C288.34 325.119 287.68 325.449 287 325.789C286.342 328.818 286.342 328.818 286 331.789C286.99 331.459 287.98 331.129 289 330.789C289.75 333.539 289.75 333.539 290 336.789C288.375 339.227 288.375 339.227 286 340.789C283.25 340.539 283.25 340.539 281 339.789C281 340.779 281 341.769 281 342.789C278.562 345.227 276.09 347.244 273 348.789C273 350.109 273 351.429 273 352.789C272.34 352.789 271.68 352.789 271 352.789C271 353.449 271 354.109 271 354.789C270.34 354.789 269.68 354.789 269 354.789C268.34 357.099 267.68 359.409 267 361.789C266.01 360.799 265.02 359.809 264 358.789C264 359.779 264 360.769 264 361.789C262.023 362.52 260.019 363.183 258 363.789C257.34 363.459 256.68 363.129 256 362.789C255.505 365.759 255.505 365.759 255 368.789C253.02 369.119 251.04 369.449 249 369.789C249.33 370.779 249.66 371.769 250 372.789C248.35 372.459 246.7 372.129 245 371.789C246.241 375.227 247.443 378.138 250 380.789C252.484 381.453 252.484 381.453 255 381.789C255.99 382.449 256.98 383.109 258 383.789C258 384.449 258 385.109 258 385.789C238.957 391.648 238.957 391.648 235.493 392.712C233.123 393.443 230.754 394.179 228.387 394.921C227.239 395.28 226.09 395.638 224.906 396.008C223.874 396.332 222.842 396.656 221.779 396.99C218.502 397.932 215.39 398.474 212 398.789C215.447 395.196 218.982 392.195 223 389.227C234.044 380.877 243.497 371.74 252 360.789C252.961 359.662 252.961 359.662 253.941 358.512C274.565 334.138 285.53 303.018 290 271.789C290.191 270.521 290.382 269.252 290.578 267.945C293.43 243.958 289.576 219.844 283 196.789C282.728 195.82 282.456 194.85 282.176 193.852C275.582 172.369 264.221 151.864 251 133.789C254 132.789 254 132.789 257 132.789C257 132.129 257 131.469 257 130.789ZM279 158.789C280 160.789 280 160.789 280 160.789L279 158.789ZM270 350.789C271 352.789 271 352.789 271 352.789L270 350.789ZM308 226.789C308.66 226.789 309.32 226.789 310 226.789C309.67 227.779 309.34 228.769 309 229.789C308.67 228.799 308.34 227.809 308 226.789ZM307 254.789C309 255.789 309 255.789 309 255.789L307 254.789Z" fill="white"/>
<path d="M306.688 7.85181C312.317 10.7605 317.684 14.0069 323.062 17.3518C334.947 24.7222 346.412 29.5945 360 32.7893C359 34.7893 359 34.7893 356.797 35.6409C343.41 39.0391 328.772 39.4936 315.477 35.5237C302.26 31.6047 288.11 34.1673 275 36.7893C274.67 47.6793 274.34 58.5693 274 69.7893C276.64 69.7893 279.28 69.7893 282 69.7893C282 70.1193 282 70.4493 282 70.7893C280.35 70.7893 278.7 70.7893 277 70.7893C278.049 73.4112 278.649 74.583 281.125 76.0393C282.053 76.4106 282.053 76.4106 283 76.7893C281.35 78.1093 279.7 79.4293 278 80.7893C278.99 80.7893 279.98 80.7893 281 80.7893C281 81.4493 281 82.1093 281 82.7893C281.66 83.1193 282.32 83.4493 283 83.7893C282.01 83.7893 281.02 83.7893 280 83.7893C281.32 85.1093 282.64 86.4293 284 87.7893C284.66 86.7993 285.32 85.8093 286 84.7893C289 85.7893 289 85.7893 292 87.7893C293.485 87.2943 293.485 87.2943 295 86.7893C295.289 87.6968 295.577 88.6043 295.875 89.5393C296.765 92.1113 297.715 94.4028 299 96.7893C293.79 95.1201 288.715 93.1613 283.625 91.1643C280.779 90.0506 277.932 88.9368 275 87.7893C274.67 97.3593 274.34 106.929 274 116.789C273.34 116.789 272.68 116.789 272 116.789C272 114.479 272 112.169 272 109.789C271.34 109.789 270.68 109.789 270 109.789C269.711 110.387 269.423 110.986 269.125 111.602C268 113.789 268 113.789 266 116.789C266 78.8393 266 40.8893 266 1.78931C279.518 -2.71683 294.46 2.02519 306.688 7.85181ZM290 88.7893C291 90.7893 291 90.7893 291 90.7893L290 88.7893ZM282 70.7893C291.567 71.4065 300.692 73.6095 310 75.7893C307.411 78.3786 305.973 78.1633 302.375 78.4143C301.372 78.4891 300.369 78.5638 299.336 78.6409C298.18 78.7144 298.18 78.7144 297 78.7893C296.67 80.1093 296.34 81.4293 296 82.7893C295.01 82.4593 294.02 82.1293 293 81.7893C292.01 83.2743 292.01 83.2743 291 84.7893C288.03 84.2943 288.03 84.2943 285 83.7893C285.33 83.1293 285.66 82.4693 286 81.7893C284.851 80.4912 284.851 80.4912 282 79.7893C283.933 77.7647 285.632 76.3683 288 74.7893C286.02 74.1293 284.04 73.4693 282 72.7893C282 72.1293 282 71.4693 282 70.7893ZM297 81.7893C298.98 82.4493 300.96 83.1093 303 83.7893C299.99 84.7235 299.133 84.8338 296 83.7893C296.33 83.1293 296.66 82.4693 297 81.7893ZM293 83.7893C293.33 84.4493 293.66 85.1093 294 85.7893C293.34 85.4593 292.68 85.1293 292 84.7893C292.33 84.4593 292.66 84.1293 293 83.7893Z" fill="white"/>
<path d="M341 123.789C345.713 125.056 348.372 126.658 351.75 130.164C352.508 130.935 353.266 131.706 354.047 132.5C356 134.789 356 134.789 357.109 137.023C357.888 139.074 357.888 139.074 360.5 139.664C361.325 139.705 362.15 139.747 363 139.789C363.66 139.129 364.32 138.469 365 137.789C367.625 137.664 367.625 137.664 370 137.789C369.67 138.779 369.34 139.769 369 140.789C369.99 141.449 370.98 142.109 372 142.789C372.688 144.914 372.688 144.914 373 146.789C373.66 146.789 374.32 146.789 375 146.789C375.495 149.759 375.495 149.759 376 152.789C376.784 152.603 377.568 152.418 378.375 152.227C381 151.789 381 151.789 383 152.789C383.34 153.903 383.34 153.903 383.688 155.039C385.091 157.98 385.866 158.566 388.5 160.289C391.687 162.376 393.023 163.991 394 167.789C394.66 167.789 395.32 167.789 396 167.789C396 168.449 396 169.109 396 169.789C397.32 170.449 398.64 171.109 400 171.789C399.917 172.862 399.835 173.934 399.75 175.039C399.638 178.829 399.638 178.829 402 181.227C402.66 181.742 403.32 182.258 404 182.789C403.67 183.779 403.34 184.769 403 185.789C403.99 186.119 404.98 186.449 406 186.789C406 187.779 406 188.769 406 189.789C405.34 189.789 404.68 189.789 404 189.789C404 190.779 404 191.769 404 192.789C404.66 192.789 405.32 192.789 406 192.789C408.429 196.433 408.083 197.718 407.625 201.977C407.514 203.063 407.403 204.15 407.289 205.27C407.194 206.101 407.098 206.932 407 207.789C406.34 207.789 405.68 207.789 405 207.789C405 208.449 405 209.109 405 209.789C406.485 210.284 406.485 210.284 408 210.789C410.25 213.102 410.25 213.102 412 215.789C411.75 218.102 411.75 218.102 411 219.789C411.99 219.459 412.98 219.129 414 218.789C414.731 220.767 415.394 222.77 416 224.789C415.67 225.449 415.34 226.109 415 226.789C414.835 227.614 414.67 228.439 414.5 229.289C414 231.789 414 231.789 413 233.789C413.66 233.789 414.32 233.789 415 233.789C415.966 238.403 415.939 242.399 415.5 247.102C415.109 251.301 415.019 255.107 415.562 259.289C416.058 263.129 415.674 265.245 414 268.789C413.749 271.956 413.749 271.956 414 274.789C414.33 275.119 414.66 275.449 415 275.789C414.959 276.697 414.918 277.604 414.875 278.539C415.015 282.187 415.924 283.848 418 286.789C417.34 287.119 416.68 287.449 416 287.789C416 289.109 416 290.429 416 291.789C414 294.539 414 294.539 412 296.789C411.546 295.964 411.092 295.139 410.625 294.289C410.089 293.464 409.552 292.639 409 291.789C408.34 291.789 407.68 291.789 407 291.789C407 293.109 407 294.429 407 295.789C406.67 296.449 406.34 297.109 406 297.789C402.424 297.789 400.947 296.701 398 294.789C398.66 291.489 399.32 288.189 400 284.789C399.34 284.789 398.68 284.789 398 284.789C397.505 287.759 397.505 287.759 397 290.789C396.01 290.789 395.02 290.789 394 290.789C394.182 289.691 394.182 289.691 394.367 288.571C400.291 251.924 399.5 217.257 384 182.789C383.688 182.082 383.377 181.375 383.056 180.646C375.907 164.658 366.124 150.386 354 137.789C353.112 136.717 352.234 135.635 351.375 134.539C348.681 131.42 345.729 128.848 342.574 126.207C342.055 125.739 341.535 125.271 341 124.789C341 124.459 341 124.129 341 123.789ZM394 168.789C395 170.789 395 170.789 395 170.789L394 168.789Z" fill="white"/>
<path d="M127 121.789C133.255 123.129 139.408 124.672 145.562 126.414C146.38 126.644 147.198 126.873 148.041 127.109C150.028 127.667 152.014 128.228 154 128.789C152 131.789 152 131.789 149.375 132.477C148.591 132.58 147.808 132.683 147 132.789C147.33 133.779 147.66 134.769 148 135.789C147.817 137.295 147.584 138.796 147.312 140.289C146.945 142.639 146.945 142.639 147 144.789C148.805 146.791 148.805 146.791 151 147.789C151 148.449 151 149.109 151 149.789C151.66 149.789 152.32 149.789 153 149.789C153.33 149.129 153.66 148.469 154 147.789C155.333 150.456 156.667 153.122 158 155.789C158.66 155.789 159.32 155.789 160 155.789C160.289 156.903 160.577 158.017 160.875 159.164C161.692 162.792 161.692 162.792 164 164.789C164.398 166.777 164.738 168.779 165 170.789C167.475 170.294 167.475 170.294 170 169.789C170.193 170.499 170.387 171.21 170.586 171.941C170.846 172.861 171.107 173.78 171.375 174.727C171.63 175.643 171.885 176.56 172.148 177.504C172.767 179.957 172.767 179.957 175 180.789C175 181.449 175 182.109 175 182.789C175.495 183.284 175.99 183.779 176.5 184.289C176.995 184.784 177.49 185.279 178 185.789C178 186.449 178 187.109 178 187.789C178.639 189.467 179.303 191.135 180 192.789C179.67 193.119 179.34 193.449 179 193.789C178.861 197.322 178.959 200.552 179.562 204.039C180 206.789 180 206.789 179 209.789C179.271 211.831 179.271 211.831 179.875 213.914C180.058 214.618 180.241 215.322 180.43 216.047C180.857 217.797 180.857 217.797 182 218.789C182.041 220.455 182.043 222.123 182 223.789C182.99 224.284 182.99 224.284 184 224.789C184 225.449 184 226.109 184 226.789C183.01 227.449 182.02 228.109 181 228.789C180.709 232.205 180.913 234.527 182 237.789C182 238.449 182 239.109 182 239.789C181.34 239.789 180.68 239.789 180 239.789C180.33 240.779 180.66 241.769 181 242.789C181.068 244.517 181.085 246.247 181.062 247.977C181.053 248.878 181.044 249.779 181.035 250.707C181.024 251.394 181.012 252.081 181 252.789C180.01 251.799 180.01 251.799 179 250.789C177.644 251.914 177.644 251.914 177.938 254.852C177.958 255.821 177.979 256.79 178 257.789C178.99 257.459 179.98 257.129 181 256.789C181.756 262.024 182.206 266.562 181 271.789C180.34 271.789 179.68 271.789 179 271.789C178.897 272.428 178.794 273.068 178.688 273.727C178.461 274.407 178.234 275.088 178 275.789C177.01 276.119 176.02 276.449 175 276.789C174.505 279.759 174.505 279.759 174 282.789C174.33 282.129 174.66 281.469 175 280.789C176.32 281.119 177.64 281.449 179 281.789C178.745 283.105 178.471 284.417 178.188 285.727C178.037 286.457 177.886 287.188 177.73 287.941C177.489 288.551 177.248 289.161 177 289.789C176.01 290.119 175.02 290.449 174 290.789C173.67 291.779 173.34 292.769 173 293.789C173.66 294.119 174.32 294.449 175 294.789C174.34 294.789 173.68 294.789 173 294.789C173.227 295.717 173.454 296.645 173.688 297.602C174 300.789 174 300.789 172.562 302.664C172.047 303.035 171.531 303.407 171 303.789C169.518 300.825 170.148 298.404 170.414 295.109C172.512 265.849 172.451 236.479 166 207.789C165.671 206.161 165.345 204.532 165.023 202.902C162.751 191.868 159.014 181.295 155 170.789C154.6 169.739 154.6 169.739 154.192 168.668C148.192 153.246 139.439 138.831 129.426 125.688C128 123.789 128 123.789 127 121.789ZM166 171.789C167 173.789 167 173.789 167 173.789L166 171.789Z" fill="white"/>
<path d="M452 295.789C454.438 296.977 454.438 296.977 457 298.789C457.75 301.352 457.75 301.352 458 303.789C458.495 304.779 458.495 304.779 459 305.789C458.34 305.789 457.68 305.789 457 305.789C457.602 307.81 458.273 309.81 459 311.789C459.66 312.119 460.32 312.449 461 312.789C460.67 313.449 460.34 314.109 460 314.789C458.515 315.284 458.515 315.284 457 315.789C457.062 316.717 457.124 317.645 457.188 318.602C457 321.789 457 321.789 455.812 323.727C454 324.789 454 324.789 451.312 324.477C450.549 324.25 449.786 324.023 449 323.789C448.01 325.274 448.01 325.274 447 326.789C447.99 327.779 447.99 327.779 449 328.789C446.69 328.789 444.38 328.789 442 328.789C441.79 332.93 441.79 332.93 443 336.789C442.01 337.779 441.02 338.769 440 339.789C439.67 339.459 439.34 339.129 439 338.789C438.34 339.779 437.68 340.769 437 341.789C436.01 341.789 435.02 341.789 434 341.789C434 341.129 434 340.469 434 339.789C433.051 340.614 432.103 341.439 431.125 342.289C428.25 344.789 428.25 344.789 426 344.789C426.495 347.264 426.495 347.264 427 349.789C428.485 350.284 428.485 350.284 430 350.789C429.67 353.759 429.34 356.729 429 359.789C428.34 359.459 427.68 359.129 427 358.789C425.348 362.287 424.773 364.108 426 367.789C426 368.779 426 369.769 426 370.789C424.02 370.789 422.04 370.789 420 370.789C420 371.449 420 372.109 420 372.789C419.34 372.789 418.68 372.789 418 372.789C418.351 373.408 418.701 374.027 419.062 374.664C419.372 375.365 419.681 376.067 420 376.789C419.67 377.449 419.34 378.109 419 378.789C419.99 379.284 419.99 379.284 421 379.789C420.34 379.789 419.68 379.789 419 379.789C419.66 381.109 420.32 382.429 421 383.789C420.01 384.779 419.02 385.769 418 386.789C417.01 385.799 417.01 385.799 416 384.789C415.67 385.449 415.34 386.109 415 386.789C414.01 387.119 413.02 387.449 412 387.789C412.33 388.449 412.66 389.109 413 389.789C412.402 390.346 411.804 390.903 411.188 391.477C409.014 393.775 407.531 396.033 406 398.789C406.66 398.789 407.32 398.789 408 398.789C407.505 400.274 407.505 400.274 407 401.789C406.01 402.119 405.02 402.449 404 402.789C403.01 402.294 403.01 402.294 402 401.789C401.938 402.346 401.876 402.903 401.812 403.477C400.672 406.722 398.437 408.413 396 410.789C394.951 413.937 394.933 414.782 396 417.789C396.99 418.779 396.99 418.779 398 419.789C398.125 422.914 398.125 422.914 398 425.789C395.108 426.615 393.113 426.789 390 426.789C389.897 427.408 389.794 428.027 389.688 428.664C389 430.789 389 430.789 386 432.789C385.67 431.139 385.34 429.489 385 427.789C384.67 428.779 384.34 429.769 384 430.789C382.333 431.456 380.667 432.122 379 432.789C378.67 433.779 378.34 434.769 378 435.789C377.34 436.119 376.68 436.449 376 436.789C375.317 438.449 374.654 440.117 374 441.789C373.283 443.005 372.553 444.213 371.812 445.414C371.214 446.528 370.616 447.642 370 448.789C370.33 449.779 370.66 450.769 371 451.789C370.562 453.977 370.562 453.977 370 455.789C368.35 455.789 366.7 455.789 365 455.789C364.01 457.769 364.01 457.769 363 459.789C362.01 459.459 361.02 459.129 360 458.789C360 459.449 360 460.109 360 460.789C359.34 460.459 358.68 460.129 358 459.789C366.312 445.205 374.681 430.655 383.077 416.12C385.596 411.756 388.114 407.392 390.632 403.028C391.878 400.867 393.125 398.706 394.372 396.545C397.512 391.104 400.65 385.662 403.785 380.219C409.831 369.727 415.891 359.244 422 348.789C426.766 340.631 431.516 332.464 436.242 324.283C437.228 322.576 438.216 320.87 439.203 319.164C439.801 318.128 440.399 317.091 441.016 316.023C441.809 314.65 441.809 314.65 442.618 313.249C445.205 308.705 445.205 308.705 446.375 303.664C446.581 302.715 446.787 301.767 447 300.789C449 299.602 449 299.602 451 298.789C451.33 297.799 451.66 296.809 452 295.789ZM386 428.789C387 430.789 387 430.789 387 430.789L386 428.789Z" fill="white"/>
<path d="M280 150.789C280 152.439 280 154.089 280 155.789C280.99 156.119 281.98 156.449 283 156.789C283 157.449 283 158.109 283 158.789C283.835 159.16 283.835 159.16 284.688 159.539C288.04 161.351 291.266 163.32 293 166.789C293.66 166.789 294.32 166.789 295 166.789C295.11 167.453 295.219 168.117 295.332 168.801C296.508 175.35 297.692 179.642 302.688 184.289C305 186.789 305 186.789 305.312 189.602C305.158 190.684 305.158 190.684 305 191.789C305.99 191.789 306.98 191.789 308 191.789C308 192.779 308 193.769 308 194.789C308.99 194.789 309.98 194.789 311 194.789C311 194.129 311 193.469 311 192.789C311.66 192.789 312.32 192.789 313 192.789C313.66 193.779 314.32 194.769 315 195.789C314.67 196.779 314.34 197.769 314 198.789C313.01 199.119 312.02 199.449 311 199.789C311.495 203.254 311.495 203.254 312 206.789C311.34 206.789 310.68 206.789 310 206.789C310.33 207.449 310.66 208.109 311 208.789C312.32 208.789 313.64 208.789 315 208.789C314 211.789 314 211.789 312 213.789C312.309 214.408 312.619 215.027 312.938 215.664C313.625 217.039 314.312 218.414 315 219.789C314.34 219.789 313.68 219.789 313 219.789C312.115 222.347 312.006 223.82 312.5 226.52C313.033 230.007 312.886 232.969 312.562 236.477C311.792 246.11 311.725 254.384 314 263.789C313.67 264.119 313.34 264.449 313 264.789C312.867 268.713 312.869 272.123 313.625 275.977C314.064 279.27 313.336 280.803 312 283.789C312 285.109 312 286.429 312 287.789C311.34 287.789 310.68 287.789 310 287.789C308.882 289.907 308.882 289.907 308 292.789C307.67 293.449 307.34 294.109 307 294.789C308.32 295.449 309.64 296.109 311 296.789C310.381 296.913 309.762 297.037 309.125 297.164C306.809 297.661 306.809 297.661 305 299.789C305.322 302.888 305.322 302.888 306 305.789C305.34 306.119 304.68 306.449 304 306.789C304.33 307.779 304.66 308.769 305 309.789C303.02 311.769 303.02 311.769 301 313.789C302.32 315.109 303.64 316.429 305 317.789C303.639 317.418 303.639 317.418 302.25 317.039C298.912 316.406 298.912 316.406 296.625 318.727C296.089 319.407 295.553 320.088 295 320.789C296.32 321.449 297.64 322.109 299 322.789C297.143 330.361 297.143 330.361 294 332.789C294.495 333.779 294.495 333.779 295 334.789C294.34 334.789 293.68 334.789 293 334.789C291.536 338.578 290.66 340.904 292 344.789C292 345.779 292 346.769 292 347.789C291.01 347.789 290.02 347.789 289 347.789C289.33 348.779 289.66 349.769 290 350.789C289.01 351.779 289.01 351.779 288 352.789C287.67 353.449 287.34 354.109 287 354.789C284.821 353.7 283.608 352.607 282 350.789C281.67 349.799 281.34 348.809 281 347.789C280.34 347.789 279.68 347.789 279 347.789C278.567 348.965 278.567 348.965 278.125 350.164C277 352.789 277 352.789 275 354.789C273.873 358.919 273.873 358.919 275 362.789C274.34 362.789 273.68 362.789 273 362.789C272.67 363.779 272.34 364.769 272 365.789C270.68 365.789 269.36 365.789 268 365.789C266.769 359.389 266.769 359.389 267.938 356.352C268.288 355.836 268.639 355.32 269 354.789C269.66 354.789 270.32 354.789 271 354.789C271.031 353.149 271.031 353.149 271.062 351.477C272 347.789 272 347.789 273.625 346.656C275.562 345.852 275.562 345.852 279 344.789C279 344.129 279 343.469 279 342.789C279.66 342.789 280.32 342.789 281 342.789C281.33 341.799 281.66 340.809 282 339.789C282.784 339.665 283.568 339.542 284.375 339.414C287.141 338.998 287.141 338.998 289 336.789C288.68 334.186 288.68 334.186 288 331.789C287.34 331.789 286.68 331.789 286 331.789C285.635 326.311 285.635 326.311 287.312 323.914C289 322.789 289 322.789 292 322.789C291.505 320.809 291.505 320.809 291 318.789C291.66 318.789 292.32 318.789 293 318.789C292.67 316.479 292.34 314.169 292 311.789C293.65 311.459 295.3 311.129 297 310.789C297.144 310.17 297.289 309.552 297.438 308.914C298 306.789 298 306.789 299 304.789C299 303.469 299 302.149 299 300.789C299 296.789 299 296.789 300 294.789C300.07 293.082 300.084 291.372 300.062 289.664C300.053 288.754 300.044 287.844 300.035 286.906C300.024 286.208 300.012 285.509 300 284.789C301.32 284.459 302.64 284.129 304 283.789C304 282.469 304 281.149 304 279.789C305.5 278.039 305.5 278.039 307 276.789C306.34 275.469 305.68 274.149 305 272.789C305.66 272.789 306.32 272.789 307 272.789C306.629 272.212 306.257 271.634 305.875 271.039C305 268.789 305 268.789 305.875 266.539C306.246 265.962 306.618 265.384 307 264.789C306.34 264.789 305.68 264.789 305 264.789C305.168 264.102 305.335 263.415 305.508 262.707C305.711 261.806 305.915 260.905 306.125 259.977C306.334 259.083 306.543 258.19 306.758 257.27C307.289 254.537 307.289 254.537 305 251.789C305.242 248.828 305.242 248.828 305.875 245.414C307.475 238.438 307.475 238.438 305.875 231.789C305.586 231.129 305.298 230.469 305 229.789C305.667 228.122 306.333 226.456 307 224.789C306.2 222.605 306.2 222.605 305 220.789C305 219.31 305.025 217.83 305.062 216.352C305.122 213.667 305.122 213.667 304 210.789C303.334 210.491 302.667 210.194 301.98 209.887C301 209.343 301 209.343 300 208.789C299.426 206.66 299.426 206.66 299.312 204.227C299.377 201.208 299.377 201.208 298 198.789C297.743 196.794 297.488 194.798 297.281 192.797C297.034 190.588 297.034 190.588 296 187.789C295.175 187.191 294.35 186.593 293.5 185.977C290.42 183.282 290.43 181.75 290 177.789C289.34 177.129 288.68 176.469 288 175.789C288.363 172.96 289.097 170.498 290 167.789C289.67 166.799 289.34 165.809 289 164.789C288.34 164.789 287.68 164.789 287 164.789C287 164.129 287 163.469 287 162.789C285.68 163.119 284.36 163.449 283 163.789C283 162.799 283 161.809 283 160.789C282.34 160.789 281.68 160.789 281 160.789C280.67 160.129 280.34 159.469 280 158.789C278.357 157.751 276.688 156.753 275 155.789C274.01 155.129 273.02 154.469 272 153.789C272 153.129 272 152.469 272 151.789C276.625 149.664 276.625 149.664 280 150.789ZM307 199.789C308 201.789 308 201.789 308 201.789L307 199.789ZM308 226.789C308.33 227.779 308.66 228.769 309 229.789C309.33 228.799 309.66 227.809 310 226.789C309.34 226.789 308.68 226.789 308 226.789ZM307 262.789C308 264.789 308 264.789 308 264.789L307 262.789ZM291 330.789C292 333.789 292 333.789 292 333.789L291 330.789ZM290 348.789C292 349.789 292 349.789 292 349.789L290 348.789ZM283 352.789C283.99 353.284 283.99 353.284 285 353.789C284.01 354.284 284.01 354.284 283 354.789C283 354.129 283 353.469 283 352.789ZM264 358.789C264.66 359.119 265.32 359.449 266 359.789C266.625 362.852 266.625 362.852 267 365.789C265.855 365.944 265.855 365.944 264.688 366.102C261.757 366.851 261.022 367.675 259 369.789C258.01 369.789 257.02 369.789 256 369.789C254.667 372.789 254.667 372.789 256 375.789C254.886 375.48 254.886 375.48 253.75 375.164C250.625 374.738 249.678 375.312 247 376.789C246.34 376.459 245.68 376.129 245 375.789C245 374.469 245 373.149 245 371.789C246.32 371.789 247.64 371.789 249 371.789C248.67 370.799 248.34 369.809 248 368.789C249.98 368.459 251.96 368.129 254 367.789C254.33 366.139 254.66 364.489 255 362.789C255.99 362.789 256.98 362.789 258 362.789C260.003 362.475 262.004 362.144 264 361.789C264 360.799 264 359.809 264 358.789ZM258 366.789C259 368.789 259 368.789 259 368.789L258 366.789Z" fill="white"/>
<path d="M94 196.789C94.6394 197.119 95.2787 197.449 95.9375 197.789C97.7679 198.862 97.7679 198.862 99 198.789C99 200.769 99 202.749 99 204.789C99.99 205.119 100.98 205.449 102 205.789C102 207.439 102 209.089 102 210.789C102.784 210.851 103.567 210.913 104.375 210.977C105.241 211.245 106.107 211.513 107 211.789C108.188 214.227 108.188 214.227 109 216.789C109.66 217.449 110.32 218.109 111 218.789C111.283 221.604 111.466 224.342 111.562 227.164C111.623 228.693 111.686 230.222 111.754 231.75C111.778 232.429 111.802 233.107 111.826 233.806C111.938 235.784 111.938 235.784 112.511 237.611C113.195 240.658 113.092 243.552 113.062 246.672C113.059 247.327 113.055 247.983 113.051 248.658C113.039 250.744 113.02 252.829 113 254.914C112.973 257.667 112.953 260.419 112.938 263.172C112.926 264.393 112.914 265.614 112.902 266.872C112.795 269.726 112.795 269.726 114 271.789C113.01 272.284 113.01 272.284 112 272.789C111.374 276.169 111 279.351 111 282.789C111 283.449 111 284.109 111 284.789C109.02 285.284 109.02 285.284 107 285.789C107.33 287.109 107.66 288.429 108 289.789C107.34 289.789 106.68 289.789 106 289.789C105.259 292.095 104.897 293.424 105.562 295.789C106 297.789 106 297.789 105 299.727C103.669 302.471 104.402 303.827 105 306.789C105.02 309.613 105.02 309.613 104.812 312.477C104.757 313.429 104.702 314.382 104.645 315.363C104 317.789 104 317.789 102.074 319.121C100 319.789 100 319.789 98 319.789C98 321.769 98 323.749 98 325.789C97.34 326.119 96.68 326.449 96 326.789C95.34 326.459 94.68 326.129 94 325.789C94.5354 327.395 95.073 329.001 95.625 330.602C96.1215 333.498 95.5846 335.931 95 338.789C93.68 338.789 92.36 338.789 91 338.789C91.66 340.769 92.32 342.749 93 344.789C92.4225 345.037 91.845 345.284 91.25 345.539C88.6997 346.956 86.9821 348.665 85 350.789C86.65 351.119 88.3 351.449 90 351.789C90 352.449 90 353.109 90 353.789C93.8271 355.59 96.7785 356.07 101 355.789C101.66 355.459 102.32 355.129 103 354.789C101.993 357.811 101.21 358.675 99 360.789C99 361.119 99 361.449 99 361.789C98.2034 361.777 97.4067 361.766 96.5859 361.754C91.2442 361.708 86.2672 361.819 81 362.789C80.34 362.459 79.68 362.129 79 361.789C79 362.449 79 363.109 79 363.789C76.69 364.119 74.38 364.449 72 364.789C72 363.122 72 361.456 72 359.789C72.66 359.789 73.32 359.789 74 359.789C74.33 357.809 74.66 355.829 75 353.789C74.34 353.459 73.68 353.129 73 352.789C73.66 352.459 74.32 352.129 75 351.789C75.165 350.964 75.33 350.139 75.5 349.289C75.665 348.464 75.83 347.639 76 346.789C76.66 346.459 77.32 346.129 78 345.789C79.8833 343.107 79.8833 343.107 81 339.789C80.3136 336.474 80.3136 336.474 79 333.789C78.01 333.789 77.02 333.789 76 333.789C75.67 331.479 75.34 329.169 75 326.789C75.99 326.789 76.98 326.789 78 326.789C78.66 325.139 79.32 323.489 80 321.789C80.66 321.789 81.32 321.789 82 321.789C82.66 323.109 83.32 324.429 84 325.789C84.99 325.789 85.98 325.789 87 325.789C87.66 325.789 88.32 325.789 89 325.789C89.1702 325.163 89.3403 324.536 89.5156 323.891C89.758 323.073 90.0003 322.256 90.25 321.414C90.482 320.602 90.7141 319.79 90.9531 318.953C92.2215 316.331 93.3242 315.795 96 314.789C95.01 313.799 94.02 312.809 93 311.789C96.3231 306.989 96.3231 306.989 99.75 305.977C100.493 305.915 101.235 305.853 102 305.789C101.34 305.459 100.68 305.129 100 304.789C99.4453 301.953 99.4453 301.953 99.125 298.414C99.0038 297.251 98.8827 296.089 98.7578 294.891C98.8377 293.867 98.9177 292.844 99 291.789C100.918 290.18 100.918 290.18 103 288.789C103.872 286.476 103.872 286.476 104.188 283.914C104.325 283.071 104.463 282.228 104.605 281.359C104.736 280.511 104.866 279.663 105 278.789C105.223 277.92 105.446 277.051 105.676 276.156C106.302 273.525 106.302 273.525 104 270.789C103.67 271.779 103.34 272.769 103 273.789C102.34 273.789 101.68 273.789 101 273.789C100.711 273.17 100.423 272.552 100.125 271.914C99.0628 269.656 99.0628 269.656 97 267.789C96.875 264.164 96.875 264.164 97 260.789C97.33 262.109 97.66 263.429 98 264.789C98.66 264.789 99.32 264.789 100 264.789C101.033 256.651 101.661 248.888 100 240.789C99.67 240.789 99.34 240.789 99 240.789C98.4344 235.133 100.286 231.563 103 226.789C104.32 227.119 105.64 227.449 107 227.789C107 228.449 107 229.109 107 229.789C107.66 229.789 108.32 229.789 109 229.789C109.201 226.178 109.027 223.829 107 220.789C104.397 218.438 103.579 217.789 100 217.789C99.505 215.314 99.505 215.314 99 212.789C98.01 212.459 97.02 212.129 96 211.789C95.67 213.109 95.34 214.429 95 215.789C94.34 215.459 93.68 215.129 93 214.789C91.6385 208.443 91.7141 202.84 94 196.789ZM102 230.789C103 232.789 103 232.789 103 232.789L102 230.789ZM99 315.789C99.33 316.779 99.66 317.769 100 318.789C100 317.799 100 316.809 100 315.789C99.67 315.789 99.34 315.789 99 315.789ZM100 221.789C100.33 221.789 100.66 221.789 101 221.789C102.354 229.174 102.354 229.174 100.562 232.289C100.047 232.784 99.5312 233.279 99 233.789C97.6312 229.272 98.5292 226.201 100 221.789ZM100 327.789C102 329.539 102 329.539 104 331.789C104 333.109 104 334.429 104 335.789C103.01 335.789 102.02 335.789 101 335.789C100.34 333.479 99.68 331.169 99 328.789C99.33 328.459 99.66 328.129 100 327.789ZM98 330.789C100 331.789 100 331.789 100 331.789L98 330.789ZM96 331.789C98 332.789 98 332.789 98 332.789L96 331.789ZM93 338.789C93.66 339.449 94.32 340.109 95 340.789C94.34 340.789 93.68 340.789 93 340.789C93 340.129 93 339.469 93 338.789ZM95 340.789C97 341.789 97 341.789 97 341.789L95 340.789Z" fill="white"/>
<path d="M182 291.789C182.495 293.769 182.495 293.769 183 295.789C183.66 295.789 184.32 295.789 185 295.789C185 296.779 185 297.769 185 298.789C184.34 298.789 183.68 298.789 183 298.789C184.074 301.704 184.778 303.567 187 305.789C185.68 306.119 184.36 306.449 183 306.789C183 308.769 183 310.749 183 312.789C182.34 313.119 181.68 313.449 181 313.789C181.012 314.525 181.023 315.261 181.035 316.02C181.044 316.995 181.053 317.971 181.062 318.977C181.074 319.939 181.086 320.902 181.098 321.895C181.005 324.65 180.574 327.101 180 329.789C180.021 330.676 180.041 331.563 180.062 332.477C180 334.789 180 334.789 178 336.789C176.579 340.421 176 342.844 176 346.789C175.01 347.779 175.01 347.779 174 348.789C173.34 348.129 172.68 347.469 172 346.789C173 347.789 173 347.789 173.062 350.852C173.042 351.821 173.021 352.79 173 353.789C174.485 354.284 174.485 354.284 176 354.789C174.25 358.664 174.25 358.664 172 359.789C171.67 360.119 171.34 360.449 171 360.789C171 361.779 171 362.769 171 363.789C169.642 369.333 169.642 369.333 167.062 371.164C165 371.789 165 371.789 162 371.789C162.33 372.449 162.66 373.109 163 373.789C162.072 374.006 162.072 374.006 161.125 374.227C158.967 374.721 158.967 374.721 157 375.789C157 375.129 157 374.469 157 373.789C156.01 373.789 155.02 373.789 154 373.789C154 374.779 154 375.769 154 376.789C153.01 377.119 152.02 377.449 151 377.789C149.333 379.289 149.333 379.289 148 380.789C148 380.129 148 379.469 148 378.789C144.722 379.541 144.722 379.541 143 382.789C142.01 383.119 141.02 383.449 140 383.789C140.33 384.408 140.66 385.027 141 385.664C142 387.789 142 387.789 142 389.789C141.34 389.789 140.68 389.789 140 389.789C140 390.449 140 391.109 140 391.789C139.34 391.789 138.68 391.789 138 391.789C137.34 394.759 136.68 397.729 136 400.789C135.67 400.129 135.34 399.469 135 398.789C131.781 399.147 130.893 399.899 128.562 402.289C125.879 404.907 124.652 405.476 121 405.789C121.495 406.779 121.495 406.779 122 407.789C123.65 407.789 125.3 407.789 127 407.789C127.33 408.779 127.66 409.769 128 410.789C127.67 411.449 127.34 412.109 127 412.789C128.65 413.119 130.3 413.449 132 413.789C132 414.119 132 414.449 132 414.789C127.938 415.294 123.875 415.792 119.812 416.289C118.662 416.432 117.512 416.575 116.326 416.723C115.214 416.858 114.103 416.993 112.957 417.133C111.425 417.321 111.425 417.321 109.863 417.514C107.219 417.768 104.654 417.84 102 417.789C102.726 417.218 103.451 416.647 104.199 416.059C107.742 413.188 111.09 410.134 114.461 407.066C116.581 405.165 118.742 403.351 120.938 401.539C134.923 389.27 145.158 372.782 152.933 356.058C153.737 354.347 154.57 352.65 155.417 350.959C159.237 343.128 161.753 335.424 163.816 327.003C164.317 324.957 164.838 322.917 165.361 320.877C166.967 314.541 168.424 308.309 169 301.789C169.33 301.789 169.66 301.789 170 301.789C170 303.439 170 305.089 170 306.789C170.99 306.789 171.98 306.789 173 306.789C173 307.449 173 308.109 173 308.789C172.34 308.789 171.68 308.789 171 308.789C171.206 309.346 171.412 309.903 171.625 310.477C172.107 313.447 171.126 315.045 170 317.789C170.495 319.274 170.495 319.274 171 320.789C171.66 320.129 172.32 319.469 173 318.789C174.333 329.347 174.333 329.347 173 333.789C173.66 333.789 174.32 333.789 175 333.789C175.061 333.151 175.121 332.513 175.184 331.855C175.309 330.616 175.309 330.616 175.438 329.352C175.559 328.116 175.559 328.116 175.684 326.855C176 324.789 176 324.789 177 323.789C177.072 322.27 177.084 320.747 177.062 319.227C177.053 318.4 177.044 317.574 177.035 316.723C177.024 316.085 177.012 315.446 177 314.789C176.67 314.789 176.34 314.789 176 314.789C175.505 311.819 175.505 311.819 175 308.789C175.66 308.789 176.32 308.789 177 308.789C177 306.149 177 303.509 177 300.789C177.99 300.459 178.98 300.129 180 299.789C180.144 299.026 180.289 298.263 180.438 297.477C181 294.789 181 294.789 182 291.789ZM171 352.789C170.67 354.109 170.34 355.429 170 356.789C170.99 356.459 171.98 356.129 173 355.789C172.67 354.799 172.34 353.809 172 352.789C171.67 352.789 171.34 352.789 171 352.789ZM128 407.789C130.64 408.119 133.28 408.449 136 408.789C135.67 409.449 135.34 410.109 135 410.789C133.02 410.789 131.04 410.789 129 410.789C128.67 409.799 128.34 408.809 128 407.789ZM136 410.789C138 411.789 138 411.789 138 411.789L136 410.789ZM139 410.789C141 411.789 141 411.789 141 411.789L139 410.789Z" fill="white"/>
<path d="M92 191.789C92.33 191.789 92.66 191.789 93 191.789C92.9884 192.635 92.9768 193.48 92.9648 194.352C92.8801 201.935 92.8801 201.935 93.5625 209.477C94 212.789 94 212.789 93 214.789C93.66 214.789 94.32 214.789 95 214.789C95.33 213.799 95.66 212.809 96 211.789C97.32 212.119 98.64 212.449 100 212.789C100 214.439 100 216.089 100 217.789C100.598 217.562 101.196 217.335 101.812 217.102C102.534 216.998 103.256 216.895 104 216.789C105.625 218.102 105.625 218.102 107 219.789C107.66 220.449 108.32 221.109 109 221.789C108.67 222.449 108.34 223.109 108 223.789C108.99 224.284 108.99 224.284 110 224.789C109.67 226.439 109.34 228.089 109 229.789C108.34 229.789 107.68 229.789 107 229.789C106.67 229.129 106.34 228.469 106 227.789C104.515 227.294 104.515 227.294 103 226.789C102.67 227.779 102.34 228.769 102 229.789C101.34 229.129 100.68 228.469 100 227.789C99.0658 230.799 98.9555 231.656 100 234.789C100.039 236.455 100.045 238.123 100 239.789C100.33 239.789 100.66 239.789 101 239.789C102.615 260.328 102.615 260.328 101 266.789C100.505 265.799 100.505 265.799 100 264.789C99.34 264.789 98.68 264.789 98 264.789C98.33 266.109 98.66 267.429 99 268.789C99.99 268.294 99.99 268.294 101 267.789C101 269.769 101 271.749 101 273.789C101.66 273.789 102.32 273.789 103 273.789C103.33 272.469 103.66 271.149 104 269.789C104.66 270.119 105.32 270.449 106 270.789C105.67 271.449 105.34 272.109 105 272.789C105.66 273.119 106.32 273.449 107 273.789C106.856 274.47 106.711 275.15 106.562 275.852C106.15 278.008 105.805 280.177 105.5 282.352C105.335 283.486 105.17 284.62 105 285.789C104.897 286.552 104.794 287.315 104.688 288.102C103.725 290.465 102.254 290.759 100 291.789C100.107 292.681 100.214 293.573 100.324 294.492C100.444 295.663 100.564 296.833 100.688 298.039C100.815 299.199 100.943 300.359 101.074 301.555C101 304.789 101 304.789 99.707 307.211C98 308.789 98 308.789 95 308.789C94.67 309.779 94.34 310.769 94 311.789C94.99 312.779 95.98 313.769 97 314.789C96.01 315.779 96.01 315.779 95 316.789C94.01 316.789 93.02 316.789 92 316.789C92 318.439 92 320.089 92 321.789C91.34 321.789 90.68 321.789 90 321.789C90.33 323.109 90.66 324.429 91 325.789C89.02 326.779 89.02 326.779 87 327.789C86.67 327.129 86.34 326.469 86 325.789C85.34 326.119 84.68 326.449 84 326.789C83.34 326.129 82.68 325.469 82 324.789C82 323.799 82 322.809 82 321.789C81.34 321.789 80.68 321.789 80 321.789C79.67 323.769 79.34 325.749 79 327.789C77.68 327.459 76.36 327.129 75 326.789C76.4071 322.401 78.0479 318.17 79.8125 313.914C95.6862 274.281 95.3554 235.809 86 194.789C86.99 194.129 87.98 193.469 89 192.789C89 193.779 89 194.769 89 195.789C89.99 196.119 90.98 196.449 92 196.789C92 195.139 92 193.489 92 191.789ZM100 305.789C100.66 305.789 101.32 305.789 102 305.789C101.67 306.449 101.34 307.109 101 307.789C100.67 307.129 100.34 306.469 100 305.789Z" fill="white"/>
<path d="M151 71.7891C194.058 83.3182 194.058 83.3182 205 88.7891C205 89.4491 205 90.1091 205 90.7891C204.237 90.9128 203.474 91.0366 202.688 91.1641C199.797 91.6701 199.797 91.6701 197 93.7891C196.34 93.4591 195.68 93.1291 195 92.7891C194.072 92.5725 194.072 92.5725 193.125 92.3516C191 91.7891 191 91.7891 189.258 90.7617C186.312 89.4928 183.944 89.5946 180.75 89.6641C179.134 89.6911 179.134 89.6911 177.484 89.7188C176.255 89.7536 176.255 89.7536 175 89.7891C174.101 92.9552 174.183 94.6218 175 97.7891C174.67 98.7791 174.34 99.7691 174 100.789C174.626 101.03 175.253 101.271 175.898 101.52C178.545 103.118 178.807 104.169 179.625 107.102C180.385 109.694 181.134 112.107 182.188 114.602C183 116.789 183 116.789 183 120.789C183.66 120.789 184.32 120.789 185 120.789C185.182 125.423 184.769 128.543 183 132.789C183.33 133.779 183.66 134.769 184 135.789C183.438 137.852 183.438 137.852 182 139.789C177.525 141.925 174.758 141.646 170 140.789C168.62 140.963 167.245 141.173 165.875 141.414C162 141.789 162 141.789 159.75 140.477C159.172 139.92 158.595 139.363 158 138.789C156.682 138.093 155.352 137.417 154 136.789C154.66 135.799 155.32 134.809 156 133.789C155.34 133.459 154.68 133.129 154 132.789C154 132.129 154 131.469 154 130.789C157.547 129.538 159.723 130.066 163.25 131.227C164.588 131.658 164.588 131.658 165.953 132.098C166.629 132.326 167.304 132.554 168 132.789C167.356 111.975 164.377 93.3214 152.32 75.8633C151 73.7891 151 73.7891 151 71.7891Z" fill="white"/>
<path d="M257 130.789C257.99 131.449 258.98 132.109 260 132.789C261.99 133.179 263.99 133.521 266 133.789C265.01 134.779 264.02 135.769 263 136.789C263.804 137.346 264.609 137.903 265.438 138.477C268.242 141.008 268.694 142.115 269 145.789C269.66 145.789 270.32 145.789 271 145.789C271.33 145.129 271.66 144.469 272 143.789C274 149.539 274 149.539 274 151.789C273.34 151.789 272.68 151.789 272 151.789C272 152.449 272 153.109 272 153.789C272.557 154.057 273.114 154.325 273.688 154.602C276.212 155.898 278.637 157.214 281 158.789C281 159.449 281 160.109 281 160.789C281.66 160.789 282.32 160.789 283 160.789C283.495 161.779 283.495 161.779 284 162.789C284.99 162.789 285.98 162.789 287 162.789C287 163.449 287 164.109 287 164.789C287.66 164.789 288.32 164.789 289 164.789C289 165.449 289 166.109 289 166.789C289.99 167.284 289.99 167.284 291 167.789C290.474 168.903 290.474 168.903 289.938 170.039C288.925 173.01 288.895 173.934 290 176.789C290.33 177.449 290.66 178.109 291 178.789C292 180.789 292 180.789 292.375 182.852C292.835 184.976 292.835 184.976 294.965 186.059C297.661 188.351 297.727 189.956 298.188 193.414C298.41 196.911 298.41 196.911 300 199.789C300.202 202.078 300.319 204.365 300.426 206.66C300.783 208.975 300.783 208.975 302.992 209.957C303.986 210.369 303.986 210.369 305 210.789C306.277 213.735 305.967 215.78 305 218.789C305.99 219.284 305.99 219.284 307 219.789C307 220.779 307 221.769 307 222.789C307.206 223.428 307.412 224.068 307.625 224.727C308 226.789 308 226.789 306.938 228.727C305.695 230.819 305.695 230.819 306.875 233.164C307.246 234.03 307.618 234.897 308 235.789C308.442 240.545 307.436 244.823 306.34 249.422C305.98 251.926 306.266 253.397 307 255.789C307.394 259.575 307.521 261.129 305.125 264.164C303 265.789 303 265.789 301 265.789C299.171 262.131 299.531 257.793 299.281 253.758C299.187 250.863 299.187 250.863 298 248.789C298.66 248.789 299.32 248.789 300 248.789C300 238.559 300 228.329 300 217.789C299.34 217.789 298.68 217.789 298 217.789C298 217.129 298 216.469 298 215.789C298.66 215.789 299.32 215.789 300 215.789C299.367 213.11 298.703 210.45 298 207.789C297.794 206.987 297.588 206.185 297.375 205.359C295.955 200.343 295.955 200.343 292.312 196.727C291.168 196.262 291.168 196.262 290 195.789C290.33 196.779 290.66 197.769 291 198.789C290.34 199.449 289.68 200.109 289 200.789C288.67 198.809 288.34 196.829 288 194.789C286.68 194.789 285.36 194.789 284 194.789C284.33 193.469 284.66 192.149 285 190.789C284.385 190.715 283.77 190.642 283.137 190.566C281 189.789 281 189.789 279.802 187.882C279.475 187.051 279.147 186.22 278.809 185.363C278.427 184.431 278.045 183.499 277.652 182.539C277.251 181.528 276.85 180.518 276.438 179.477C269.662 163.181 261.498 147.993 251 133.789C254 132.789 254 132.789 257 132.789C257 132.129 257 131.469 257 130.789ZM279 158.789C280 160.789 280 160.789 280 160.789L279 158.789ZM308 226.789C308.66 226.789 309.32 226.789 310 226.789C309.67 227.779 309.34 228.769 309 229.789C308.67 228.799 308.34 227.809 308 226.789ZM307 254.789C309 255.789 309 255.789 309 255.789L307 254.789Z" fill="white"/>
<path d="M192 250.789C192.99 251.119 193.98 251.449 195 251.789C195.864 256.283 196.328 258.818 194 262.789C194 264.109 194 265.429 194 266.789C194.99 266.789 195.98 266.789 197 266.789C196.67 267.449 196.34 268.109 196 268.789C196 270.945 196.447 272.714 197 274.789C196.34 274.789 195.68 274.789 195 274.789C194.505 276.274 194.505 276.274 194 277.789C193.34 277.789 192.68 277.789 192 277.789C192.278 278.748 192.278 278.748 192.562 279.727C192.707 280.407 192.851 281.088 193 281.789C192.505 282.284 192.505 282.284 192 282.789C191.395 286.887 191 290.642 191 294.789C190.34 295.779 189.68 296.769 189 297.789C189.99 298.119 190.98 298.449 192 298.789C191.34 299.779 190.68 300.769 190 301.789C190.27 304.131 190.613 306.464 191 308.789C191.375 312.539 191.375 312.539 191 315.789C188.5 317.539 188.5 317.539 186 318.789C186 321.947 186.596 323.981 188 326.789C187.67 327.408 187.34 328.027 187 328.664C185.758 331.303 186.273 332.041 187 334.789C186.729 336.799 186.406 338.803 186 340.789C187.32 341.119 188.64 341.449 190 341.789C190.33 341.129 190.66 340.469 191 339.789C191.33 341.109 191.66 342.429 192 343.789C189.03 344.779 189.03 344.779 186 345.789C186 345.129 186 344.469 186 343.789C185.34 343.789 184.68 343.789 184 343.789C184.392 344.284 184.784 344.779 185.188 345.289C186.311 348.747 185.426 350.791 184.07 354.082C183 355.789 183 355.789 180.312 356.789C179.549 356.789 178.786 356.789 178 356.789C178.33 358.439 178.66 360.089 179 361.789C176.03 362.779 176.03 362.779 173 363.789C173 364.779 173 365.769 173 366.789C173.99 367.284 173.99 367.284 175 367.789C174.67 368.449 174.34 369.109 174 369.789C174.99 370.284 174.99 370.284 176 370.789C174.35 372.109 172.7 373.429 171 374.789C170.505 374.294 170.505 374.294 170 373.789C169.67 374.449 169.34 375.109 169 375.789C168.34 375.789 167.68 375.789 167 375.789C167.33 377.769 167.66 379.749 168 381.789C167.34 382.119 166.68 382.449 166 382.789C165.67 381.799 165.34 380.809 165 379.789C162.69 379.459 160.38 379.129 158 378.789C156.372 380.599 156.372 380.599 155 382.789C155.33 383.779 155.66 384.769 156 385.789C154.35 385.789 152.7 385.789 151 385.789C150.67 386.779 150.34 387.769 150 388.789C148.515 389.779 148.515 389.779 147 390.789C145.808 392.839 145.808 392.839 145 394.789C144.34 394.789 143.68 394.789 143 394.789C142.67 395.779 142.34 396.769 142 397.789C141.67 397.129 141.34 396.469 141 395.789C141.495 394.799 141.495 394.799 142 393.789C141.34 393.789 140.68 393.789 140 393.789C139.505 394.779 139.505 394.779 139 395.789C139.33 393.809 139.66 391.829 140 389.789C140.66 389.789 141.32 389.789 142 389.789C142 389.129 142 388.469 142 387.789C141.34 387.459 140.68 387.129 140 386.789C140 385.122 140 383.456 140 381.789C140.99 381.789 141.98 381.789 143 381.789C143.66 380.799 144.32 379.809 145 378.789C146.32 379.119 147.64 379.449 149 379.789C149.66 378.799 150.32 377.809 151 376.789C151.99 376.789 152.98 376.789 154 376.789C154 375.799 154 374.809 154 373.789C154.578 373.995 155.155 374.202 155.75 374.414C158.52 374.876 159.646 374.219 162 372.789C161.505 371.799 161.505 371.799 161 370.789C163.892 369.963 165.887 369.789 169 369.789C169.765 366.047 170.046 363.45 169 359.789C169.33 359.129 169.66 358.469 170 357.789C171.32 357.789 172.64 357.789 174 357.789C174.495 356.304 174.495 356.304 175 354.789C174.01 354.294 174.01 354.294 173 353.789C172.148 351.941 172.148 351.941 171.375 349.727C170.984 348.626 170.984 348.626 170.586 347.504C170.393 346.938 170.199 346.372 170 345.789C171.65 346.119 173.3 346.449 175 346.789C175.99 345.304 175.99 345.304 177 343.789C176.01 343.294 176.01 343.294 175 342.789C175.812 339.352 175.812 339.352 177 335.789C177.99 335.459 178.98 335.129 180 334.789C179.752 333.428 179.752 333.428 179.5 332.039C179 328.789 179 328.789 179 324.789C179.66 324.129 180.32 323.469 181 322.789C181.023 320.339 181.023 320.339 180.625 317.664C180.514 316.754 180.403 315.844 180.289 314.906C180.146 313.858 180.146 313.858 180 312.789C180.66 312.459 181.32 312.129 182 311.789C182.342 310.124 182.674 308.457 183 306.789C183.66 306.129 184.32 305.469 185 304.789C184.34 304.129 183.68 303.469 183 302.789C183 301.469 183 300.149 183 298.789C183.66 298.789 184.32 298.789 185 298.789C184.794 297.49 184.588 296.19 184.375 294.852C183.837 289.992 184.11 285.349 186 280.789C186.99 280.129 187.98 279.469 189 278.789C189.724 277.077 189.724 277.077 190 274.789C190.103 274.163 190.206 273.536 190.312 272.891C190.868 269.157 191.01 266.449 190 262.789C190.308 261.118 190.644 259.451 191 257.789C191 256.717 191 255.644 191 254.539C191 251.789 191 251.789 192 250.789ZM171 368.789C171.99 370.274 171.99 370.274 173 371.789C173 370.799 173 369.809 173 368.789C172.34 368.789 171.68 368.789 171 368.789ZM146 384.789C146.33 385.779 146.66 386.769 147 387.789C147.33 386.799 147.66 385.809 148 384.789C147.34 384.789 146.68 384.789 146 384.789ZM198 272.789C199.485 273.779 199.485 273.779 201 274.789C200.01 275.119 199.02 275.449 198 275.789C198 274.799 198 273.809 198 272.789ZM190 320.789C190.33 321.449 190.66 322.109 191 322.789C190.01 322.459 189.02 322.129 188 321.789C188.66 321.459 189.32 321.129 190 320.789ZM191 322.789C191.66 322.789 192.32 322.789 193 322.789C192.67 323.449 192.34 324.109 192 324.789C191.67 324.129 191.34 323.469 191 322.789ZM171 352.789C171.66 353.119 172.32 353.449 173 353.789C173 354.449 173 355.109 173 355.789C172.01 356.119 171.02 356.449 170 356.789C170.33 355.469 170.66 354.149 171 352.789Z" fill="white"/>
<path d="M397 207C399 208 399 208 399 208L397 207ZM396 208C398 210 398 210 399 213C400.65 213.33 402.3 213.66 404 214C404 215.32 404 216.64 404 218C405.32 218 406.64 218 408 218C410.134 222.502 410.683 226.854 411.188 231.75C411.274 232.586 411.361 233.422 411.45 234.284C412.152 241.935 411.864 249.342 411.178 256.979C410.884 260.316 410.667 263.658 410.438 267C410.354 268.134 410.27 269.269 410.184 270.438C410.049 272.217 410.049 272.217 410 274C410 274.66 410 275.32 410 276C410.66 276.33 411.32 276.66 412 277C412 277.99 412 278.98 412 280C411.34 280 410.68 280 410 280C410.021 280.763 410.041 281.526 410.062 282.312C410 285 410 285 409 288C407.35 288 405.7 288 404 288C404 289.98 404 291.96 404 294C402.062 293.688 402.062 293.688 400 293C398.903 289.71 399.2 288.287 400 285C399.34 285 398.68 285 398 285C397.67 286.98 397.34 288.96 397 291C396.01 291 395.02 291 394 291C394.121 290.268 394.242 289.536 394.367 288.782C398.276 264.602 400.39 241.041 394.875 216.902C394 213 394 213 394 210C394.66 210 395.32 210 396 210C396 209.34 396 208.68 396 208Z" fill="white"/>
<path d="M281 189.789C282.938 190.102 282.938 190.102 285 190.789C285.33 191.779 285.66 192.769 286 193.789C286.99 193.789 287.98 193.789 289 193.789C289.33 195.439 289.66 197.089 290 198.789C290.99 198.129 291.98 197.469 293 196.789C293.99 197.119 294.98 197.449 296 197.789C296.914 199.934 296.914 199.934 297.625 202.602C297.865 203.474 298.105 204.347 298.352 205.246C298.566 206.085 298.78 206.924 299 207.789C299.193 208.474 299.387 209.158 299.586 209.863C300 211.789 300 211.789 300 215.789C299.34 215.789 298.68 215.789 298 215.789C298 216.449 298 217.109 298 217.789C298.66 217.789 299.32 217.789 300 217.789C299.995 218.693 299.99 219.598 299.984 220.529C299.963 224.783 299.948 229.036 299.938 233.289C299.936 234.056 299.934 234.823 299.932 235.613C299.912 246.695 300.109 257.735 300.732 268.803C300.781 269.706 300.829 270.609 300.879 271.539C300.926 272.318 300.973 273.096 301.022 273.898C301 275.789 301 275.789 300 277.789C299.34 277.789 298.68 277.789 298 277.789C297.299 281.84 296.911 284.841 298 288.789C297.562 291.039 297.562 291.039 297 292.789C295.68 292.789 294.36 292.789 293 292.789C293.035 291.874 293.07 290.959 293.105 290.016C293.133 288.827 293.16 287.639 293.188 286.414C293.222 285.231 293.257 284.047 293.293 282.828C293.196 281.825 293.1 280.822 293 279.789C292.01 279.129 291.02 278.469 290 277.789C290.072 277.092 290.144 276.394 290.219 275.676C292.841 245.853 289.242 218.419 281 189.789ZM290 195.789C290.99 196.284 290.99 196.284 292 196.789C291.01 197.284 291.01 197.284 290 197.789C290 197.129 290 196.469 290 195.789ZM301 275.789C302 279.789 302 279.789 302 279.789L301 275.789Z" fill="white"/>
<path d="M198.375 471.477C199.524 471.472 199.524 471.472 200.697 471.467C210.657 471.442 220.166 472.073 230 473.79C227.009 475.783 224.391 476.684 221 477.79C220.67 478.12 220.34 478.45 220 478.79C221.454 479.439 221.454 479.439 222.938 480.102C226 481.79 226 481.79 227 484.79C227.99 485.45 228.98 486.11 230 486.79C230 487.45 230 488.11 230 488.79C228.35 488.46 226.7 488.13 225 487.79C224.505 490.265 224.505 490.265 224 492.79C224.495 492.295 224.495 492.295 225 491.79C226.485 492.285 226.485 492.285 228 492.79C228.99 492.46 229.98 492.13 231 491.79C231.186 492.78 231.371 493.77 231.562 494.79C232.761 499.158 235.422 501.812 238.539 504.993C240 506.79 240 506.79 240 509.79C235.752 506.734 231.774 503.606 228 499.977C221.758 494.35 214.431 490.604 207 486.79C206.034 486.282 205.069 485.774 204.074 485.251C189.468 478.36 171.947 477.213 156 476.79C167.626 469.826 185.262 471.491 198.375 471.477ZM232 496.79C235 497.79 235 497.79 235 497.79L232 496.79ZM242 503.79C246.601 505.823 249.552 508.155 253 511.79C253.99 512.45 254.98 513.11 256 513.79C256 514.45 256 515.11 256 515.79C255.34 515.79 254.68 515.79 254 515.79C256.007 518.801 256.839 519.42 260 520.79C259.67 521.78 259.34 522.77 259 523.79C257.102 522.543 255.207 521.292 253.312 520.04C252.257 519.344 251.201 518.647 250.113 517.93C242.251 512.524 242.251 512.524 241.125 509.227C241 506.79 241 506.79 242 503.79Z" fill="white"/>
<path d="M101 302.789C102.32 303.119 103.64 303.449 105 303.789C104.94 306.081 104.851 308.373 104.75 310.664C104.704 311.94 104.657 313.216 104.609 314.531C104 317.789 104 317.789 102.078 319.234C100 319.789 100 319.789 98 319.789C98 321.769 98 323.749 98 325.789C97.34 326.119 96.68 326.449 96 326.789C95.34 326.459 94.68 326.129 94 325.789C94.5354 327.395 95.073 329.001 95.625 330.602C96.1215 333.498 95.5846 335.931 95 338.789C93.68 338.789 92.36 338.789 91 338.789C91.66 340.769 92.32 342.749 93 344.789C92.4225 345.037 91.845 345.284 91.25 345.539C88.6997 346.956 86.9821 348.665 85 350.789C86.65 351.119 88.3 351.449 90 351.789C90 352.449 90 353.109 90 353.789C93.8271 355.59 96.7785 356.07 101 355.789C101.99 355.294 101.99 355.294 103 354.789C101.993 357.811 101.21 358.675 99 360.789C99 361.119 99 361.449 99 361.789C98.2034 361.777 97.4067 361.766 96.5859 361.754C91.2442 361.708 86.2672 361.819 81 362.789C80.34 362.459 79.68 362.129 79 361.789C79 362.449 79 363.109 79 363.789C75.535 364.284 75.535 364.284 72 364.789C72 363.122 72 361.456 72 359.789C72.66 359.789 73.32 359.789 74 359.789C74.495 356.819 74.495 356.819 75 353.789C74.34 353.459 73.68 353.129 73 352.789C73.99 352.294 73.99 352.294 75 351.789C75.165 350.964 75.33 350.139 75.5 349.289C75.665 348.464 75.83 347.639 76 346.789C76.99 346.294 76.99 346.294 78 345.789C79.8833 343.107 79.8833 343.107 81 339.789C80.3136 336.474 80.3136 336.474 79 333.789C78.01 333.789 77.02 333.789 76 333.789C75.67 331.479 75.34 329.169 75 326.789C75.99 326.789 76.98 326.789 78 326.789C78.66 325.139 79.32 323.489 80 321.789C80.66 321.789 81.32 321.789 82 321.789C82.66 323.109 83.32 324.429 84 325.789C84.99 325.789 85.98 325.789 87 325.789C87.66 325.789 88.32 325.789 89 325.789C89.1702 325.163 89.3403 324.536 89.5156 323.891C89.758 323.073 90.0003 322.256 90.25 321.414C90.482 320.602 90.7141 319.79 90.9531 318.953C92.2215 316.331 93.3242 315.795 96 314.789C95.01 313.799 94.02 312.809 93 311.789C96.3231 306.989 96.3231 306.989 99.75 305.977C100.493 305.915 101.235 305.853 102 305.789C101.34 305.459 100.68 305.129 100 304.789C100.33 304.129 100.66 303.469 101 302.789ZM99 315.789C99.33 316.779 99.66 317.769 100 318.789C100 317.799 100 316.809 100 315.789C99.67 315.789 99.34 315.789 99 315.789ZM100 327.789C102 329.539 102 329.539 104 331.789C104 333.109 104 334.429 104 335.789C103.01 335.789 102.02 335.789 101 335.789C100.34 333.479 99.68 331.169 99 328.789C99.33 328.459 99.66 328.129 100 327.789ZM98 330.789C100 331.789 100 331.789 100 331.789L98 330.789ZM96 331.789C98 332.789 98 332.789 98 332.789L96 331.789ZM93 338.789C93.66 339.449 94.32 340.109 95 340.789C94.34 340.789 93.68 340.789 93 340.789C93 340.129 93 339.469 93 338.789ZM95 340.789C97 341.789 97 341.789 97 341.789L95 340.789Z" fill="white"/>
<path d="M143 490.789C142.777 492.649 142.777 492.649 142 494.789C140.004 496.055 140.004 496.055 137.562 497.039C136.358 497.542 136.358 497.542 135.129 498.055C133 498.789 133 498.789 131 498.789C130.34 499.779 129.68 500.769 129 501.789C127 501.789 125 501.789 123 501.789C119.359 502.858 115.907 504.391 112.438 505.914C110 506.789 110 506.789 106.625 507.227C103.683 507.683 101.927 508.154 99.3125 509.352C96 510.789 96 510.789 92 510.789C92 511.449 92 512.109 92 512.789C90.398 513.153 88.7933 513.505 87.1875 513.852C86.2942 514.049 85.4009 514.246 84.4805 514.449C81.4617 514.863 79.6905 514.134 77 512.789C74.991 513.33 74.991 513.33 72.875 514.227C72.1505 514.514 71.4261 514.802 70.6797 515.098C70.1254 515.326 69.5711 515.554 69 515.789C69.6394 515.913 70.2788 516.037 70.9375 516.164C71.9584 516.474 71.9584 516.474 73 516.789C73.495 517.779 73.495 517.779 74 518.789C73.2369 518.913 72.4738 519.037 71.6875 519.164C68.7973 519.67 68.7973 519.67 66 521.789C64.0004 521.829 61.9995 521.833 60 521.789C59.67 522.119 59.34 522.449 59 522.789C56.7458 523.072 54.4916 523.237 52.2266 523.41C49.7208 523.681 49.7208 523.681 47 525.789C45.0103 526.179 43.0098 526.521 41 526.789C41 525.799 41 524.809 41 523.789C37.04 522.799 33.08 521.809 29 520.789C29 520.459 29 520.129 29 519.789C29.6462 519.68 30.2924 519.57 30.9583 519.457C51.9722 515.825 72.0096 510.34 92.1055 503.266C92.9875 502.955 93.8695 502.645 94.7782 502.325C99.165 500.777 103.546 499.213 107.918 497.625C132.274 488.845 132.274 488.845 143 490.789Z" fill="white"/>
<path d="M444 280.789C447.6 281.989 447.6 281.989 449 284.789C449.598 284.603 450.196 284.418 450.812 284.227C453 283.789 453 283.789 456 284.789C456 285.779 456 286.769 456 287.789C456.99 288.449 457.98 289.109 459 289.789C458.34 290.119 457.68 290.449 457 290.789C458.32 291.449 459.64 292.109 461 292.789C461 293.449 461 294.109 461 294.789C461.66 294.789 462.32 294.789 463 294.789C462.67 295.449 462.34 296.109 462 296.789C461.648 298.118 461.312 299.451 461 300.789C461.66 301.119 462.32 301.449 463 301.789C465.513 308.8 465.513 308.8 464 312.789C463.856 313.511 463.711 314.233 463.562 314.977C463.284 315.874 463.284 315.874 463 316.789C462.01 317.284 462.01 317.284 461 317.789C460.814 319.15 460.814 319.15 460.625 320.539C460 323.789 460 323.789 457.875 326.352C455.668 328.652 455.668 328.652 456.25 331.602C456.497 332.323 456.745 333.045 457 333.789C456.34 333.789 455.68 333.789 455 333.789C455 334.779 455 335.769 455 336.789C454.01 336.789 453.02 336.789 452 336.789C451.34 337.779 450.68 338.769 450 339.789C450 337.479 450 335.169 450 332.789C449.34 332.789 448.68 332.789 448 332.789C448.206 333.738 448.413 334.687 448.625 335.664C448.749 336.695 448.872 337.727 449 338.789C448.34 339.449 447.68 340.109 447 340.789C446.303 342.107 445.63 343.438 445 344.789C444.34 344.129 443.68 343.469 443 342.789C442.34 343.449 441.68 344.109 441 344.789C440.01 344.789 439.02 344.789 438 344.789C438 345.449 438 346.109 438 346.789C438.66 347.119 439.32 347.449 440 347.789C438.824 348.006 438.824 348.006 437.625 348.227C435.036 348.667 435.036 348.667 433 349.789C432.67 349.459 432.34 349.129 432 348.789C431.67 349.779 431.34 350.769 431 351.789C429.35 351.459 427.7 351.129 426 350.789C426 348.809 426 346.829 426 344.789C426.619 344.521 427.237 344.253 427.875 343.977C430.3 342.833 430.3 342.833 432 339.789C432.66 339.789 433.32 339.789 434 339.789C434 340.449 434 341.109 434 341.789C437.278 341.038 437.278 341.038 439 337.789C439.66 338.119 440.32 338.449 441 338.789C441 337.799 441 336.809 441 335.789C441.317 333.453 441.648 331.12 442 328.789C444.475 328.294 444.475 328.294 447 327.789C446.67 327.129 446.34 326.469 446 325.789C446.66 325.789 447.32 325.789 448 325.789C448.33 324.799 448.66 323.809 449 322.789C450.65 323.449 452.3 324.109 454 324.789C454.99 321.819 455.98 318.849 457 315.789C457.66 315.789 458.32 315.789 459 315.789C459.495 314.799 459.495 314.799 460 313.789C459.67 313.459 459.34 313.129 459 312.789C457 309.789 457 309.789 457 305.789C457.33 305.459 457.66 305.129 458 304.789C457.67 304.789 457.34 304.789 457 304.789C456.897 303.84 456.794 302.892 456.688 301.914C456.315 298.498 456.315 298.498 453 296.789C452.01 298.769 451.02 300.749 450 302.789C449.67 302.129 449.34 301.469 449 300.789C443.697 300.471 440.619 301.211 436 303.789C435.34 303.789 434.68 303.789 434 303.789C434 301.789 434 301.789 436.438 299.227C437.283 298.422 438.129 297.618 439 296.789C439.33 296.459 439.66 296.129 440 295.789C440 294.799 440 293.809 440 292.789C440.99 292.459 441.98 292.129 443 291.789C443.33 290.799 443.66 289.809 444 288.789C447.062 287.602 447.062 287.602 450 286.789C447.69 286.459 445.38 286.129 443 285.789C443.33 284.139 443.66 282.489 444 280.789ZM451 332.789C452 335.789 452 335.789 452 335.789L451 332.789ZM442 287.789C442.66 288.119 443.32 288.449 444 288.789C443.01 288.789 442.02 288.789 441 288.789C441.33 288.459 441.66 288.129 442 287.789Z" fill="white"/>
<path d="M180 230.789C181.938 231.352 181.938 231.352 184 232.789C184.407 235.111 184.744 237.446 185 239.789C185.66 240.119 186.32 240.449 187 240.789C186.988 241.465 186.977 242.14 186.965 242.836C186.956 243.728 186.947 244.62 186.938 245.539C186.926 246.421 186.914 247.302 186.902 248.211C186.993 250.593 187.417 252.495 188 254.789C188.065 256.371 188.086 257.956 188.062 259.539C188.053 260.338 188.044 261.138 188.035 261.961C188.024 262.564 188.012 263.167 188 263.789C187.34 263.789 186.68 263.789 186 263.789C186 264.449 186 265.109 186 265.789C186.66 266.119 187.32 266.449 188 266.789C187.147 286.349 187.147 286.349 184 295.789C183.01 295.789 182.02 295.789 181 295.789C180.876 296.428 180.752 297.068 180.625 297.727C180.419 298.407 180.212 299.088 180 299.789C179.01 300.284 179.01 300.284 178 300.789C178 303.759 178 306.729 178 309.789C177.34 309.789 176.68 309.789 176 309.789C176.324 310.346 176.647 310.903 176.98 311.477C178.132 314.087 178.3 315.946 178.312 318.789C178.329 319.635 178.346 320.48 178.363 321.352C177.932 324.242 176.905 325.617 175 327.789C174.01 325.479 173.02 323.169 172 320.789C171.01 321.284 171.01 321.284 170 321.789C169.505 319.314 169.505 319.314 169 316.789C169.66 316.789 170.32 316.789 171 316.789C171 314.149 171 311.509 171 308.789C171.66 308.789 172.32 308.789 173 308.789C173 308.129 173 307.469 173 306.789C172.01 306.789 171.02 306.789 170 306.789C170 305.139 170 303.489 170 301.789C170.66 302.119 171.32 302.449 172 302.789C173.141 299.367 173.098 296.702 173.062 293.102C173.053 291.922 173.044 290.743 173.035 289.527C173.024 288.624 173.012 287.72 173 286.789C174.32 287.119 175.64 287.449 177 287.789C177 286.985 177 286.18 177 285.352C177 284.164 177 282.977 177 281.789C176.01 282.449 175.02 283.109 174 283.789C172.762 280.213 173.251 277.452 174 273.789C174.33 274.779 174.66 275.769 175 276.789C178.248 275.067 178.248 275.067 179 271.789C179.66 271.789 180.32 271.789 181 271.789C181.027 269.831 181.046 267.872 181.062 265.914C181.074 264.824 181.086 263.733 181.098 262.609C181.197 259.837 181.197 259.837 180 257.789C179.01 258.119 178.02 258.449 177 258.789C176.812 255.414 176.812 255.414 177 251.789C177.99 251.129 178.98 250.469 180 249.789C180.364 247.352 180.364 247.352 180.188 244.664C180.147 243.299 180.147 243.299 180.105 241.906C180.053 240.858 180.053 240.858 180 239.789C180.66 239.789 181.32 239.789 182 239.789C181.67 239.232 181.34 238.675 181 238.102C179.869 235.486 179.843 233.608 180 230.789ZM176 303.789C177 305.789 177 305.789 177 305.789L176 303.789ZM172 315.789C173 317.789 173 317.789 173 317.789L172 315.789ZM170 322.789C172 323.789 172 323.789 172 323.789L170 322.789ZM173 328.789C173.99 328.789 174.98 328.789 176 328.789C176 330.769 176 332.749 176 334.789C175.01 334.459 174.02 334.129 173 333.789C173 332.139 173 330.489 173 328.789Z" fill="white"/>
<path d="M254 480.789C259.334 482.353 264.64 483.982 269.918 485.727C288.363 491.812 305.673 496.006 325.188 495.914C326.184 495.912 327.181 495.91 328.207 495.908C336.172 495.862 344.067 495.491 352 494.789C352 495.449 352 496.109 352 496.789C350.68 496.789 349.36 496.789 348 496.789C347.34 498.769 346.68 500.749 346 502.789C342.555 503.65 340.396 503.726 337 502.789C336.34 503.119 335.68 503.449 335 503.789C330.86 504.059 326.711 504.021 322.563 504.039C321.404 504.06 320.246 504.08 319.053 504.102C317.389 504.109 317.389 504.109 315.691 504.117C314.163 504.131 314.163 504.131 312.604 504.146C309.657 503.742 308.789 503.102 307 500.789C305.02 501.449 303.04 502.109 301 502.789C300.34 501.799 299.68 500.809 299 499.789C296.437 499.059 296.437 499.059 294 498.789C294 499.449 294 500.109 294 500.789C291.125 500.914 291.125 500.914 288 500.789C287.34 500.129 286.68 499.469 286 498.789C285.01 498.789 284.02 498.789 283 498.789C279.875 498.414 279.875 498.414 277 497.789C276.67 497.129 276.34 496.469 276 495.789C275.01 495.129 274.02 494.469 273 493.789C273.33 492.799 273.66 491.809 274 490.789C271.532 491.941 269.952 492.837 268 494.789C265.271 494.756 262.703 494.225 260 493.789C260 492.469 260 491.149 260 489.789C261.32 490.119 262.64 490.449 264 490.789C263.67 490.129 263.34 489.469 263 488.789C260.36 488.789 257.72 488.789 255 488.789C253.646 486.08 253.935 483.78 254 480.789ZM271 491.789C271.66 491.789 272.32 491.789 273 491.789C272.67 492.449 272.34 493.109 272 493.789C271.67 493.129 271.34 492.469 271 491.789ZM297 499.789C297.66 499.789 298.32 499.789 299 499.789C298.67 500.449 298.34 501.109 298 501.789C297.67 501.129 297.34 500.469 297 499.789Z" fill="white"/>
<path d="M266 1.78906C266.33 1.78906 266.66 1.78906 267 1.78906C267.33 30.8291 267.66 59.8691 268 89.7891C268.66 88.1391 269.32 86.4891 270 84.7891C270.66 85.1191 271.32 85.4491 272 85.7891C273.963 80.2475 274.016 76.5805 273 70.7891C275.957 69.3107 278.742 69.7287 282 69.7891C282 70.1191 282 70.4491 282 70.7891C280.35 70.7891 278.7 70.7891 277 70.7891C278.049 73.4109 278.649 74.5828 281.125 76.0391C282.053 76.4103 282.053 76.4103 283 76.7891C281.35 78.1091 279.7 79.4291 278 80.7891C278.99 80.7891 279.98 80.7891 281 80.7891C281 81.4491 281 82.1091 281 82.7891C281.66 83.1191 282.32 83.4491 283 83.7891C282.01 83.7891 281.02 83.7891 280 83.7891C281.32 85.1091 282.64 86.4291 284 87.7891C284.66 86.7991 285.32 85.8091 286 84.7891C289 85.7891 289 85.7891 292 87.7891C293.485 87.2941 293.485 87.2941 295 86.7891C295.289 87.6966 295.577 88.6041 295.875 89.5391C296.765 92.1111 297.715 94.4025 299 96.7891C293.79 95.1198 288.715 93.1611 283.625 91.1641C280.779 90.0503 277.932 88.9366 275 87.7891C274.67 97.3591 274.34 106.929 274 116.789C273.34 116.789 272.68 116.789 272 116.789C272 114.479 272 112.169 272 109.789C271.34 109.789 270.68 109.789 270 109.789C269.711 110.387 269.423 110.985 269.125 111.602C268 113.789 268 113.789 266 116.789C266 78.8391 266 40.8891 266 1.78906ZM290 88.7891C291 90.7891 291 90.7891 291 90.7891L290 88.7891ZM282 70.7891C291.567 71.4063 300.692 73.6092 310 75.7891C307.411 78.3783 305.973 78.163 302.375 78.4141C301.372 78.4888 300.369 78.5636 299.336 78.6406C298.18 78.7141 298.18 78.7141 297 78.7891C296.67 80.1091 296.34 81.4291 296 82.7891C295.01 82.4591 294.02 82.1291 293 81.7891C292.01 83.2741 292.01 83.2741 291 84.7891C288.03 84.2941 288.03 84.2941 285 83.7891C285.33 83.1291 285.66 82.4691 286 81.7891C284.851 80.4909 284.851 80.4909 282 79.7891C283.933 77.7645 285.632 76.368 288 74.7891C286.02 74.1291 284.04 73.4691 282 72.7891C282 72.1291 282 71.4691 282 70.7891ZM297 81.7891C298.98 82.4491 300.96 83.1091 303 83.7891C299.99 84.7233 299.133 84.8336 296 83.7891C296.33 83.1291 296.66 82.4691 297 81.7891ZM293 83.7891C293.33 84.4491 293.66 85.1091 294 85.7891C293.34 85.4591 292.68 85.1291 292 84.7891C292.33 84.4591 292.66 84.1291 293 83.7891Z" fill="white"/>
<path d="M271 9.78898C271.33 9.78898 271.66 9.78898 272 9.78898C272.33 11.439 272.66 13.089 273 14.789C273 13.469 273 12.149 273 10.789C276.003 9.28741 278.791 9.69616 282.125 9.72648C283.406 9.7355 284.688 9.74452 286.008 9.75382C286.995 9.76542 287.983 9.77702 289 9.78898C288.393 10.0855 287.786 10.3819 287.16 10.6874C284.891 11.8023 284.891 11.8023 282.438 13.414C280 14.789 280 14.789 277 14.789C276.67 17.759 276.34 20.729 276 23.789C276.804 24.0159 277.609 24.2427 278.438 24.4765C279.706 25.1262 279.706 25.1262 281 25.789C281.812 28.414 281.812 28.414 282 30.789C281.01 30.789 280.02 30.789 279 30.789C278.67 31.449 278.34 32.109 278 32.789C278.99 33.449 279.98 34.109 281 34.789C279.02 35.449 277.04 36.109 275 36.789C275 48.009 275 59.229 275 70.789C274.34 70.789 273.68 70.789 273 70.789C273 71.779 273 72.769 273 73.789C273.66 74.119 274.32 74.449 275 74.789C274.67 76.769 274.34 78.749 274 80.789C274.66 81.119 275.32 81.449 276 81.789C275.505 82.779 275.505 82.779 275 83.789C274.34 83.789 273.68 83.789 273 83.789C272.67 85.109 272.34 86.429 272 87.789C271.67 87.129 271.34 86.469 271 85.789C269.515 90.244 269.515 90.244 268 94.789C267.67 94.789 267.34 94.789 267 94.789C267 70.039 267 45.289 267 19.789C267.33 19.789 267.66 19.789 268 19.789C268.33 22.759 268.66 25.729 269 28.789C269.061 27.5012 269.121 26.2134 269.184 24.8866C269.268 23.2082 269.353 21.5298 269.438 19.8515C269.496 18.5763 269.496 18.5763 269.557 17.2753C269.599 16.4664 269.64 15.6575 269.684 14.8241C269.72 14.0753 269.757 13.3264 269.795 12.5548C270 10.789 270 10.789 271 9.78898Z" fill="white"/>
<path d="M277 70.7891C278.65 70.7891 280.3 70.7891 282 70.7891C282 71.4491 282 72.1091 282 72.7891C284.31 73.4491 286.62 74.1091 289 74.7891C288.67 75.4491 288.34 76.1091 288 76.7891C285.625 77.5391 285.625 77.5391 283 77.7891C282.01 77.1291 281.02 76.4691 280 75.7891C279.67 76.1191 279.34 76.4491 279 76.7891C278.67 76.1291 278.34 75.4691 278 74.7891C277.34 74.4591 276.68 74.1291 276 73.7891C276.33 72.7991 276.66 71.8091 277 70.7891ZM280 77.7891C282.125 78.1016 282.125 78.1016 284 78.7891C284.33 78.7891 284.66 78.7891 285 78.7891C287.004 79.4434 289.004 80.1097 291 80.7891C289 81.7891 287 82.7891 285 83.7891C286.32 84.1191 287.64 84.4491 289 84.7891C288.01 85.1191 287.02 85.4491 286 85.7891C284.333 87.2889 284.333 87.2889 283 88.7891C281.5 87.5391 281.5 87.5391 280 85.7891C280 84.4691 280 83.1491 280 81.7891C279.01 81.4591 278.02 81.1291 277 80.7891C278.25 79.2266 278.25 79.2266 280 77.7891ZM320.098 78.6875C321.229 79.0845 322.36 79.4816 323.525 79.8906C324.693 80.3109 325.86 80.7311 327.062 81.1641C328.234 81.5766 329.405 81.9891 330.611 82.4141C335.444 84.1233 340.251 85.8584 345 87.7891C344.67 88.4491 344.34 89.1091 344 89.7891C341.934 90.2031 341.934 90.2031 339.438 90.4141C338.198 90.5262 338.198 90.5262 336.934 90.6406C335.976 90.7141 335.976 90.7141 335 90.7891C334.505 89.3041 334.505 89.3041 334 87.7891C333.01 88.4491 332.02 89.1091 331 89.7891C328.662 89.1396 326.329 88.4716 324 87.7891C321.362 88.183 321.362 88.183 319 88.7891C316.938 88.4141 316.938 88.4141 315 87.7891C314.402 87.6447 313.804 87.5003 313.188 87.3516C310.107 86.5595 307.056 85.6706 304 84.7891C304 85.7791 304 86.7691 304 87.7891C302.02 88.1191 300.04 88.4491 298 88.7891C300.947 90.5897 303.888 92.2907 307 93.7891C307 94.4491 307 95.1091 307 95.7891C307.99 96.1191 308.98 96.4491 310 96.7891C310.688 98.8516 310.688 98.8516 311 100.789C311.66 100.789 312.32 100.789 313 100.789C312.67 101.779 312.34 102.769 312 103.789C309.868 102.888 307.745 101.968 305.625 101.039C304.442 100.529 303.258 100.018 302.039 99.4922C298.899 97.7325 298.203 97.0413 297 93.7891C296.34 93.1291 295.68 92.4691 295 91.7891C294.375 89.6641 294.375 89.6641 294 87.7891C293.01 88.1191 292.02 88.4491 291 88.7891C291 88.1291 291 87.4691 291 86.7891C290.01 86.4591 289.02 86.1291 288 85.7891C288.99 85.4591 289.98 85.1291 291 84.7891C292.209 82.7889 292.209 82.7889 293 80.7891C293.835 81.5316 293.835 81.5316 294.688 82.2891C297.382 84.0366 298.854 84.0513 302 83.7891C299.525 82.7991 299.525 82.7991 297 81.7891C297 80.4691 297 79.1491 297 77.7891C298.708 77.6189 300.416 77.4531 302.125 77.2891C303.076 77.1962 304.028 77.1034 305.008 77.0078C310.559 76.602 314.813 76.8109 320.098 78.6875ZM293 83.7891C292.67 84.4491 292.34 85.1091 292 85.7891C292.66 85.7891 293.32 85.7891 294 85.7891C293.67 85.1291 293.34 84.4691 293 83.7891ZM296 88.7891C297 90.7891 297 90.7891 297 90.7891L296 88.7891Z" fill="white"/>
</svg>
