<svg width="587" height="846" viewBox="0 0 587 846" fill="none" xmlns="http://www.w3.org/2000/svg">
<path d="M199.177 568.133H177.177C271.177 337.841 149.177 227.984 75.6768 165.325C160.477 147.097 232.01 80.4235 257.177 49.3652C245.977 91.3549 193.177 137.657 168.177 155.56C283.377 317.66 236.843 498.15 199.177 568.133Z" fill="#56565C" stroke="black"/>
<path d="M387.177 568.133H409.177C315.177 337.841 437.177 227.984 510.677 165.325C425.877 147.097 354.343 80.4235 329.177 49.3652C340.377 91.3549 393.177 137.657 418.177 155.56C302.977 317.66 349.51 498.15 387.177 568.133Z" fill="#56565C" stroke="black"/>
<path d="M1.17676 236.122C127.577 268.021 188.51 368.764 203.177 415.148C203.177 293.41 103.843 220.118 54.1768 198.689L1.17676 236.122Z" fill="#56565C" stroke="black"/>
<path d="M585.177 236.122C458.777 268.021 397.843 368.764 383.177 415.148C383.177 293.41 482.51 220.118 532.177 198.689L585.177 236.122Z" fill="#56565C" stroke="black"/>
<path d="M210.177 154.746C265.177 112.633 296.177 0.132812 296.177 0.132812C296.287 9.63281 336.677 127.633 381.177 154.746C345.177 227.17 293.177 434.677 293.177 434.677C293.177 434.677 230.677 191.365 210.177 154.746Z" fill="#56565C" stroke="black"/>
<path d="M328.048 773.131L328.155 773.486L338.057 806.16C370.277 808.713 446.99 819.825 498.889 844.178L498.612 845.127C456.158 839.596 395.184 828.679 295.677 830.475V830.643L295.165 830.631C293.997 830.603 292.834 830.577 291.677 830.553C290.519 830.577 289.356 830.603 288.188 830.631L287.677 830.643V830.475C188.17 828.679 127.196 839.596 84.7412 845.127L84.4648 844.178C136.364 819.825 213.076 808.713 245.297 806.16L255.198 773.486L255.306 773.131H328.048Z" fill="#56565C"/>
<path d="M151.677 754.133H123.677L77.1768 836.133C126.777 813.333 205.51 801.966 238.677 799.133L245.677 771.133L144.177 780.633L151.677 754.133Z" fill="#56565C"/>
<path d="M434.677 754.133H462.677L509.177 836.133C459.577 813.333 380.843 801.966 347.677 799.133L340.677 771.133L442.177 780.633L434.677 754.133Z" fill="#56565C"/>
<path d="M56.0008 602.369V683.133H36.2368V602.369H56.0008ZM10.6168 611.153V592.853H81.6208V611.153H10.6168ZM113.227 683.133H93.4633V592.853H128.355C139.335 592.853 147.794 595.415 153.731 600.539C159.75 605.581 162.759 612.779 162.759 622.133C162.759 627.989 161.499 632.991 158.977 637.139C156.537 641.287 152.796 644.662 147.753 647.265L163.613 683.133H142.019L128.477 651.535H113.227V683.133ZM113.227 610.421V634.211H128.233C132.544 634.211 135.879 633.153 138.237 631.039C140.677 628.924 141.897 625.955 141.897 622.133C141.897 618.31 140.718 615.423 138.359 613.471C136.082 611.437 132.747 610.421 128.355 610.421H113.227ZM189.779 683.133H169.161L201.369 592.853H220.645L252.731 683.133H231.747L225.403 664.101H196.245L189.779 683.133ZM208.445 628.233L201.979 647.509H219.791L213.325 628.233C212.837 626.687 212.349 625.101 211.861 623.475C211.373 621.848 211.048 620.506 210.885 619.449C210.723 620.506 210.397 621.848 209.909 623.475C209.503 625.02 209.015 626.606 208.445 628.233ZM298.619 683.133H263.239V592.853H297.399C306.264 592.853 314.031 594.764 320.701 598.587C327.451 602.409 332.738 607.737 336.561 614.569C340.383 621.401 342.295 629.29 342.295 638.237C342.295 647.021 340.424 654.788 336.683 661.539C333.023 668.289 327.899 673.576 321.311 677.399C314.804 681.221 307.24 683.133 298.619 683.133ZM283.003 601.881V674.349L273.609 664.833H296.667C301.872 664.833 306.305 663.775 309.965 661.661C313.706 659.546 316.553 656.496 318.505 652.511C320.457 648.525 321.433 643.767 321.433 638.237C321.433 632.543 320.375 627.704 318.261 623.719C316.227 619.652 313.259 616.561 309.355 614.447C305.532 612.251 300.896 611.153 295.447 611.153H273.609L283.003 601.881ZM375.813 592.853V683.133H356.049V592.853H375.813ZM414.171 683.133H394.651V592.853H414.171L458.335 659.465H452.235V592.853H471.755V683.133H452.235L408.071 616.643H414.171V683.133ZM531.185 609.933C525.736 609.933 521.181 611.153 517.521 613.593C513.861 615.951 511.096 619.286 509.225 623.597C507.354 627.907 506.419 632.991 506.419 638.847C506.419 644.865 507.476 649.908 509.591 653.975C511.706 658.041 514.593 661.091 518.253 663.125C521.994 665.077 526.264 666.053 531.063 666.053C535.13 666.053 538.586 665.524 541.433 664.467C544.28 663.409 546.557 661.945 548.265 660.075C550.054 658.204 551.356 656.089 552.169 653.731C553.064 651.372 553.511 648.932 553.511 646.411V639.213L562.905 648.607H529.477V631.283H571.933V683.133H554.975L553.389 670.811L555.585 672.641C554.284 674.999 552.25 677.073 549.485 678.863C546.801 680.652 543.629 682.035 539.969 683.011C536.39 683.987 532.568 684.475 528.501 684.475C520.124 684.475 512.682 682.563 506.175 678.741C499.75 674.837 494.707 669.428 491.047 662.515C487.387 655.601 485.557 647.509 485.557 638.237C485.557 629.127 487.468 621.075 491.291 614.081C495.114 607.005 500.482 601.474 507.395 597.489C514.308 593.422 522.401 591.389 531.673 591.389C538.912 591.389 545.418 592.731 551.193 595.415C557.049 598.017 561.807 601.759 565.467 606.639C569.127 611.437 571.282 617.09 571.933 623.597H551.193C550.054 618.798 547.614 615.341 543.873 613.227C540.132 611.031 535.902 609.933 531.185 609.933Z" fill="white"/>
<path d="M169.127 708.133V745.133H161.027V708.133H169.127ZM162.477 745.133V737.633H183.727V745.133H162.477ZM227.31 745.133H203.81V708.133H227.31V715.633H209.66L211.91 713.533V722.883H225.56V729.983H211.91V739.733L209.66 737.633H227.31V745.133ZM253.987 745.133H245.537L258.737 708.133H266.637L279.787 745.133H271.187L268.587 737.333H256.637L253.987 745.133ZM261.637 722.633L258.987 730.533H266.287L263.637 722.633C263.437 721.999 263.237 721.349 263.037 720.683C262.837 720.016 262.704 719.466 262.637 719.033C262.57 719.466 262.437 720.016 262.237 720.683C262.07 721.316 261.87 721.966 261.637 722.633ZM313.741 715.133C311.508 715.133 309.641 715.633 308.141 716.633C306.641 717.599 305.508 718.966 304.741 720.733C303.975 722.499 303.591 724.583 303.591 726.983C303.591 729.449 304.025 731.516 304.891 733.183C305.758 734.849 306.941 736.099 308.441 736.933C309.975 737.733 311.725 738.133 313.691 738.133C315.358 738.133 316.775 737.916 317.941 737.483C319.108 737.049 320.041 736.449 320.741 735.683C321.475 734.916 322.008 734.049 322.341 733.083C322.708 732.116 322.891 731.116 322.891 730.083V727.133L326.741 730.983H313.041V723.883H330.441V745.133H323.491L322.841 740.083L323.741 740.833C323.208 741.799 322.375 742.649 321.241 743.383C320.141 744.116 318.841 744.683 317.341 745.083C315.875 745.483 314.308 745.683 312.641 745.683C309.208 745.683 306.158 744.899 303.491 743.333C300.858 741.733 298.791 739.516 297.291 736.683C295.791 733.849 295.041 730.533 295.041 726.733C295.041 722.999 295.825 719.699 297.391 716.833C298.958 713.933 301.158 711.666 303.991 710.033C306.825 708.366 310.141 707.533 313.941 707.533C316.908 707.533 319.575 708.083 321.941 709.183C324.341 710.249 326.291 711.783 327.791 713.783C329.291 715.749 330.175 718.066 330.441 720.733H321.941C321.475 718.766 320.475 717.349 318.941 716.483C317.408 715.583 315.675 715.133 313.741 715.133ZM351.88 731.233V708.133H359.98V730.683C359.98 733.016 360.597 734.799 361.83 736.033C363.064 737.266 364.814 737.883 367.08 737.883C369.38 737.883 371.147 737.249 372.38 735.983C373.647 734.716 374.28 732.949 374.28 730.683V708.133H382.38V731.233C382.38 734.166 381.747 736.716 380.48 738.883C379.247 741.049 377.48 742.733 375.18 743.933C372.88 745.133 370.18 745.733 367.08 745.733C364.014 745.733 361.33 745.149 359.03 743.983C356.764 742.783 354.997 741.099 353.73 738.933C352.497 736.733 351.88 734.166 351.88 731.233ZM428.326 745.133H404.826V708.133H428.326V715.633H410.676L412.926 713.533V722.883H426.576V729.983H412.926V739.733L410.676 737.633H428.326V745.133Z" fill="white"/>
<path d="M314.211 466.912L254.368 553.905H272.741L332.895 466.912H314.211Z" fill="white"/>
<path d="M274.655 466.912L292.263 492.546L283.076 506.528L255.899 466.912H274.655Z" fill="url(#paint0_linear_17304_105)"/>
<path d="M315.995 553.914L296.473 525.561L305.66 511.968L334.368 553.914H315.995Z" fill="url(#paint1_linear_17304_105)"/>
<defs>
<linearGradient id="paint0_linear_17304_105" x1="270.445" y1="472.35" x2="296.088" y2="502.858" gradientUnits="userSpaceOnUse">
<stop stop-color="white"/>
<stop offset="1" stop-color="white" stop-opacity="0.55"/>
</linearGradient>
<linearGradient id="paint1_linear_17304_105" x1="320.205" y1="547.311" x2="288.652" y2="505.389" gradientUnits="userSpaceOnUse">
<stop stop-color="#6966FF"/>
<stop offset="1" stop-color="#6966FF" stop-opacity="0.36"/>
</linearGradient>
</defs>
</svg>
