<svg width="448" height="360" viewBox="0 0 448 360" fill="none" xmlns="http://www.w3.org/2000/svg">
<path opacity="0.2" d="M233.1 203.533L242.136 194.503M242.136 194.503H251.171L252.726 192.949M242.136 194.503L264.725 171.926M264.725 171.926H269.816M264.725 171.926L296.352 140.318M296.352 140.318L297.664 139.006M296.352 140.318L314.424 122.256M314.424 122.256L316.318 120.364M314.424 122.256L382.193 54.5268M382.193 54.5268L386.296 50.426M382.193 54.5268L436.752 0M224.064 194.503L242.136 176.441M224.064 194.503L205.992 176.441M224.064 194.503V122.256M242.136 176.441L278.279 140.318M242.136 176.441V140.318L246.654 135.802V126.772L260.207 113.226V104.195M278.279 140.318L282.798 135.802M278.279 140.318V122.256L305.388 95.1645M282.798 135.802H291.834L300.87 126.772M282.798 135.802L314.424 104.195M314.424 104.195L319.442 99.1798M314.424 104.195L332.496 86.1339M332.496 86.1339V77.1033M332.496 86.1339L373.157 45.4962M332.496 77.1033V74.2985M332.496 77.1033V68.0727M260.207 104.195L278.279 86.1339M260.207 104.195V13.8878M278.279 86.1339V78.9043M278.279 86.1339L296.352 68.0727V31.949M296.352 31.949V29.0663M296.352 31.949V0M296.352 31.949L328.32 0M205.992 176.441V158.38M205.992 176.441L156.293 126.772M156.293 126.772L151.775 122.256M156.293 126.772L152.837 123.318M151.775 122.256V113.226M151.775 122.256L133.704 104.195M133.704 104.195L124.668 95.1645M133.704 104.195V0M124.668 95.1645L122.702 93.2003M124.668 95.1645L115.632 86.1339M115.632 86.1339V50.0115M115.632 86.1339L97.5601 68.0727M115.632 50.0115V38.6224M115.632 50.0115V0M151.775 113.226V109.218M151.775 113.226V104.195L156.293 99.6798M97.5601 68.0727L88.5242 59.0421M97.5601 68.0727V0M88.5242 59.0421L79.4883 50.0115M88.5242 59.0421L88.1554 58.6735M79.4883 50.0115V31.949M79.4883 50.0115L61.4166 31.949M61.4166 31.949V13.8878M61.4166 31.949V17.1543M61.4166 31.949V17.3163M61.4166 31.949L38.8256 9.37245M61.4166 13.8878V10.9987M61.4166 13.8878L47.8627 0.341837L47.5194 0M61.4166 13.8878V0M38.8256 9.37245H29.7897L25.2717 4.85714M38.8256 9.37245L29.4476 0M205.992 158.38V140.318M205.992 158.38L204.752 157.14M205.992 140.318L187.92 122.256M205.992 140.318V113.226M187.92 122.256L169.848 104.195M187.92 122.256V86.1339M169.848 104.195V86.1339M169.848 104.195L151.775 86.1339M151.775 86.1339V80.2538M151.775 86.1339V68.0727M151.775 68.0727V59.4885M151.775 68.0727V31.949M151.775 31.949V22.9184M151.775 31.949V31.0957M151.775 22.9184V14.7997M151.775 22.9184V0M224.064 122.256V121.031M224.064 122.256L237.618 108.71M224.064 122.256V86.1339M237.618 108.71L242.136 104.195V77.1033M237.618 108.71L238.77 107.559M242.136 77.1033V70.713M242.136 77.1033V40.9809M169.848 86.1339L165.331 81.6186V79.7092M169.848 86.1339V40.9809M169.848 40.9809V36.2997M169.848 40.9809V0M187.92 86.1339L178.884 77.1033M187.92 86.1339V0M332.496 68.0727V50.0115M332.496 68.0727L364.969 35.6186M260.207 13.8878V0M260.207 13.8878L265.862 8.23724M332.496 50.0115V34.6327M332.496 50.0115L359.603 22.9184M359.603 22.9184L363.823 18.7028M359.603 22.9184L368.639 13.8878M359.603 22.9184L362.957 19.5676M373.157 45.4962H382.193M373.157 45.4962L418.68 0M224.064 86.1339V68.0727M224.064 86.1339L233.1 77.1033M224.064 68.0727L227.349 64.7895M224.064 68.0727V0M368.639 13.8878V0M368.639 13.8878L370.767 11.7615M368.639 13.8878L382.193 0.341837L382.536 0M79.4883 31.949V19.1952M79.4883 31.949V0M242.136 212.564H260.207M242.136 212.564L260.207 194.503M242.136 212.564L278.279 248.686M260.207 194.503H278.279M260.207 194.503L282.798 171.926M282.798 171.926H286.035M282.798 171.926L305.388 149.348M305.388 149.348L312.78 141.96M305.388 149.348L373.157 81.6186M373.157 81.6186H382.193M373.157 81.6186L440.928 13.8878M382.193 81.6186L385.201 78.6135M382.193 81.6186L395.747 68.0727H404.784M278.279 194.503H287.316M278.279 194.503L305.388 167.411M305.388 167.411H323.46L332.496 158.38M305.388 167.411L332.496 140.318M332.496 140.318L337.014 135.802M332.496 140.318H386.711L392.268 134.765M337.014 135.802H346.05L359.603 122.256H440.928M337.014 135.802L368.639 104.195M368.639 104.195L373.157 99.6798M368.639 104.195H377.107M368.639 104.195H440.928M373.157 99.6798H382.193L391.229 90.6492H400.266L404.784 86.1339H440.928M373.157 99.6798L377.675 95.1645M440.928 86.1339L445.446 81.6186H454.481M440.928 86.1339H458.999M458.999 86.1339L460.942 84.1926M458.999 86.1339L468.035 77.1033M440.928 104.195H441.261M440.928 104.195H441.009M440.928 104.195L445.446 99.6798H454.481L458.999 95.1645M440.928 104.195H468.035M468.035 104.195H468.268M468.035 104.195H513.215L543 74.4286M260.207 212.564L278.279 230.625H296.352L314.424 248.686M260.207 212.564H296.352M314.424 248.686H386.711M314.424 248.686L332.496 266.747H350.568M278.279 248.686L305.388 275.779M278.279 248.686H296.352L302.03 254.361M305.388 275.779L314.424 284.81M305.388 275.779L311.385 281.773M314.424 284.81H332.496M314.424 284.81L391.229 361.57H400.266M332.496 284.81H368.639M332.496 284.81L350.568 302.871M368.639 284.81L386.711 302.871M368.639 284.81H477.071M386.711 302.871L404.784 320.932M386.711 302.871L387.193 303.352M404.784 320.932H422.856L440.928 338.994M404.784 320.932H415.445M404.784 320.932L418.338 334.478M440.928 338.994H452.418M440.928 338.994L458.999 357.055M418.338 334.478L420.03 336.17M418.338 334.478L508.697 424.786L508.913 425M458.999 357.055H477.071L495.143 375.116M458.999 357.055H459.427M495.143 375.116L499.661 379.631M495.143 375.116H531.288M531.288 375.116L540.324 384.148M531.288 375.116H543M296.352 212.564L297.049 211.866M296.352 212.564L305.388 203.533M296.352 212.564H332.496M305.388 203.533L314.424 194.503M305.388 203.533L312.868 196.056M314.424 194.503L332.496 176.441H350.568M314.424 194.503H386.711L391.229 189.987H400.266L404.784 185.472M350.568 176.441H359.603M350.568 176.441L355.085 171.926H364.121L366.616 169.432M359.603 176.441H361.248M359.603 176.441H360.244M359.603 176.441H386.711M477.071 284.81L482.582 290.318M477.071 284.81H495.143L499.661 289.325H508.697L540.324 320.932M477.071 284.81H489.904M350.568 302.871L353.23 305.531M350.568 302.871L386.711 338.994M386.711 338.994H404.784L445.446 379.631H454.481L463.517 388.662M386.711 338.994L472.768 425M468.035 77.1033L477.071 68.0727M468.035 77.1033L468.605 76.5344M477.071 68.0727H495.143L526.77 36.4656M477.071 68.0727H480.272M332.496 212.564H338.95M332.496 212.564H386.711M386.711 212.564H422.856M386.711 212.564L422.856 248.686H531.288M422.856 212.564H440.928M422.856 212.564L431.892 203.533M440.928 212.564L449.964 203.533H460.578M440.928 212.564H458.999M440.928 212.564L444.458 209.036M440.928 212.564L454.481 226.11M458.999 212.564H473.242M458.999 212.564H494.922M531.288 248.686H542.576M531.288 248.686L543 260.393M404.784 68.0727L410.569 62.2895M404.784 68.0727L422.856 50.0115M422.856 50.0115L472.895 0M422.856 50.0115H458.999M440.928 122.256L449.964 113.226M440.928 122.256H490.625M540.324 320.932H543M540.324 320.932L543 323.607M458.999 50.0115H466.671M458.999 50.0115H486.107M332.496 158.38L337.014 153.865M332.496 158.38H386.711M386.711 158.38H388.771M386.711 158.38H388.022M386.711 158.38H412.163M440.928 13.8878L443.53 11.287M440.928 13.8878L454.824 0M386.711 176.441L391.229 171.926H400.266L404.784 167.411M386.711 176.441H404.784M404.784 176.441L406.715 174.51M404.784 176.441H477.071L485.257 168.26M224.064 230.625V248.686M224.064 230.625L205.992 248.686M224.064 230.625L332.496 338.994V357.055M205.992 248.686V266.747L187.92 284.81M205.992 248.686L133.704 320.932M133.704 320.932L124.668 329.963M133.704 320.932V338.994L124.668 348.024M124.668 329.963L120.15 334.478M124.668 329.963L121.06 333.569M120.15 334.478L119.634 334.994M120.15 334.478L97.5601 357.055M97.5601 357.055L88.5242 366.085M97.5601 357.055V374.513M97.5601 357.055V393.179M88.5242 366.085L85.4153 369.193M88.5242 366.085L61.4166 393.179M61.4166 393.179V411.24M61.4166 393.179L58.8487 395.744M61.4166 393.179L29.5753 425M61.4166 411.24L58.1889 414.464M61.4166 411.24L47.8627 424.786L47.647 425M224.064 248.686L242.136 266.747M224.064 248.686V302.871M242.136 266.747V284.81M242.136 266.747L260.207 284.81M242.136 284.81V302.871M242.136 284.81V288.006M242.136 302.871V306.247M242.136 302.871L260.207 320.932M242.136 302.871V320.932M260.207 320.932L269.243 329.963V348.024L278.279 357.055V425M260.207 320.932V425M124.668 348.024L115.632 357.055V393.179M124.668 348.024L117.528 355.159M115.632 393.179V393.856M115.632 393.179V411.24M115.632 411.24V425M115.632 411.24L102.078 424.786M187.92 284.81L178.884 293.841M187.92 284.81L183.11 289.616M187.92 284.81L192.438 289.325M187.92 284.81V302.871M178.884 293.841L169.848 302.871M178.884 293.841V311.902L169.848 320.932V329.963M169.848 302.871L166.692 306.024M169.848 302.871L151.775 320.932M332.496 357.055V359.541M332.496 357.055V393.179M332.496 357.055V372.534M332.496 357.055V370.193M332.496 357.055L400.481 425M97.5601 393.179L88.5242 402.209M97.5601 393.179V425M88.5242 402.209L85.317 405.415M88.5242 402.209L67.3142 423.407M169.848 329.963V333.02M169.848 329.963V393.179M169.848 393.179L151.775 411.24V425M169.848 393.179V425M224.064 302.871V320.932M224.064 302.871V304.929M224.064 302.871L205.992 320.932V338.309M224.064 320.932L219.546 325.448V334.478L210.51 343.509V352.54M224.064 320.932V425M332.496 393.179L335.481 396.162M332.496 393.179L341.532 402.209M341.532 402.209L350.568 411.24M341.532 402.209V420.27L346.264 425M350.568 411.24L355.375 416.043M350.568 411.24L364.336 425M260.207 284.81V302.871L264.725 307.386M260.207 284.81L296.352 320.932M296.352 320.932V338.994M296.352 320.932L300.87 325.448V334.478L309.906 343.509V352.54L314.424 357.055V366.085M296.352 320.932L309.906 334.478M151.775 320.932L147.257 325.448V334.478L138.222 343.509V352.54L133.704 357.055V393.179L129.186 397.694V406.724M151.775 320.932V375.116M151.775 375.116L150.761 376.13M151.775 375.116V393.179L147.257 397.694V398.2M296.352 338.994V348.024L300.87 352.54M296.352 338.994V393.179M187.92 302.871V311.237M187.92 302.871V338.994M187.92 338.994V339.596M187.92 338.994V425M264.725 307.386V316.417L269.243 320.932M264.725 307.386L272.069 314.724M296.352 393.179V404.693M296.352 393.179V425M314.424 366.085V372.837M314.424 366.085V411.24M314.424 411.24V416.051M314.424 411.24V425M242.136 320.932L246.654 325.448V334.478L255.689 343.509V352.54M242.136 320.932V357.055L251.171 366.085V384.148M205.992 212.564L201.474 208.048M205.992 212.564L187.92 230.625M205.992 212.564H178.884M187.92 230.625L183.402 235.14M187.92 230.625H178.884M183.402 235.14V244.171L178.884 248.686L178.601 248.968M183.402 235.14L169.848 248.686M169.848 248.686L156.293 262.232M169.848 248.686H140.575M156.293 262.232L151.775 266.747M156.293 262.232L153.419 265.106M151.775 266.747L147.257 271.264M151.775 266.747H97.5601M147.257 271.264H138.222L129.186 280.295H123.736M147.257 271.264L115.632 302.871M115.632 302.871L97.5601 320.932M115.632 302.871H79.4883M97.5601 320.932H79.4883M97.5601 320.932L79.4883 338.994M79.4883 338.994L70.4525 348.024M79.4883 338.994H52.4904M70.4525 348.024L61.4166 357.055M70.4525 348.024L64.0648 354.408M61.4166 357.055L52.3807 366.085M61.4166 357.055L57.6746 360.795M61.4166 357.055H7.19997M52.3807 366.085L43.3435 375.116M52.3807 366.085L51.7949 366.671M52.3807 366.085L46.4691 371.994M43.3435 375.116L42.2906 376.168M43.3435 375.116L25.2717 393.179M43.3435 375.116H7.19997M25.2717 393.179L-6.56827 425M25.2717 393.179H-10.8718L-42.7118 425M201.474 208.048H192.438L183.402 199.018H174.366L151.775 176.441M201.474 208.048L142.583 149.191M151.775 176.441H133.704M151.775 176.441L106.596 131.287M106.596 131.287L97.5601 122.256M106.596 131.287H88.5242L79.4883 122.256M97.5601 122.256L79.4883 104.195M97.5601 122.256L86.0776 110.781M97.5601 122.256L85.9807 110.684M79.4883 104.195H43.3435M79.4883 104.195H49.638M79.4883 104.195H70.3312M79.4883 104.195H49.5219M79.4883 104.195H63.5581M79.4883 104.195L-10.8718 13.8878M43.3435 104.195L25.2717 86.1339M43.3435 104.195H34.3076M43.3435 104.195H37.1626M43.3435 104.195L34.3076 95.1645H16.2359L7.19997 86.1339M43.3435 104.195H7.19997M25.2717 86.1339L16.2359 77.1033M25.2717 86.1339L24.0478 84.9107M16.2359 77.1033L7.19997 68.0727M16.2359 77.1033L7.31483 68.1862M7.19997 68.0727L2.68202 63.5574M7.19997 68.0727H5.41193M7.19997 68.0727H-10.8718M-10.8718 68.0727L-15.3897 63.5574H-24.4256L-37.9795 50.0115H-47.0154L-95 2.05485M-10.8718 68.0727H-28.9436L-33.4615 63.5574H-42.4974L-51.5333 54.5268M178.884 212.564H173.973M178.884 212.564H151.775M151.775 212.564H133.704M151.775 212.564H134.154M133.704 212.564L124.668 203.533M133.704 212.564H79.4883M79.4883 212.564H-19.9077M79.4883 212.564L61.4166 194.503H25.2717M-19.9077 212.564H-28.9436M-19.9077 212.564H-27.4823M-28.9436 212.564H-65.0871M-28.9436 212.564H-47.2425M-65.0871 212.564H-83.1602L-95 200.731M-65.0871 212.564H-95M178.884 230.625H169.848M178.884 230.625H171.702M169.848 230.625L165.331 235.14H156.293L152.951 238.481M169.848 230.625H97.5601L79.4883 248.686H7.19997M7.19997 248.686H-6.00289M7.19997 248.686H-28.9436M-28.9436 248.686H-65.0871M-28.9436 248.686L-47.0154 266.747H-65.0871L-68.9848 270.643M-65.0871 248.686H-67.2631M-65.0871 248.686H-95M7.19997 375.116L2.68202 379.631H-6.35387L-6.63336 379.911M7.19997 375.116H-19.9077L-33.4615 388.662M-33.4615 388.662L-37.9795 393.179M-33.4615 388.662L-35.247 390.446M-37.9795 393.179L-42.2958 397.491M-37.9795 393.179L-56.0512 411.24H-65.0871L-69.6063 415.755M133.704 176.441L106.596 149.348H88.5242L79.4883 140.318M133.704 176.441H43.3435L25.2717 158.38H-1.83593M79.4883 140.318H73.3585M79.4883 140.318H25.2717M79.4883 140.318L70.4525 131.287M25.2717 140.318L16.2359 131.287L13.608 133.915M25.2717 140.318V131.287M25.2717 140.318H-28.9436M-28.9436 140.318H-42.6863M-28.9436 140.318H-65.0871L-68.0927 137.315M97.5601 266.747H54.0156M97.5601 266.747L79.4883 284.81H61.4166M2.68202 63.5574H-6.35387L-15.3897 54.5268H-24.4256M2.68202 63.5574L-1.83593 59.0421M25.2717 194.503H24.9118M25.2717 194.503H-1.83593M-1.83593 194.503H-3.05346M-1.83593 194.503H-28.9436L-33.4615 189.987M79.4883 302.871H76.8018M79.4883 302.871H-28.9436M61.4166 284.81H61.3949M61.4166 284.81H-26.3068M-1.83593 59.0421L-4.55817 56.3202M-1.83593 59.0421L-28.9436 31.949H-29.4107M79.4883 122.256L74.9704 126.772M79.4883 122.256H61.4166M61.4166 122.256H56.3626M61.4166 122.256H-19.9077M-19.9077 122.256H-21.3945M-19.9077 122.256H-47.0154L-51.5333 117.741M-51.5333 117.741L-55.5101 113.767M-51.5333 117.741L-65.0871 104.195M-65.0871 104.195H-74.123L-92.1961 86.1339H-95M-65.0871 104.195L-69.4634 99.8214M-65.0871 104.195L-82.5935 86.699M79.4883 320.932L71.1225 329.293M79.4883 320.932H-28.9436L-47.0154 338.994M7.19997 357.055H-17.9372M7.19997 357.055H-10.8718L-28.9436 375.116H-47.0154L-56.0512 384.148M7.19997 357.055H-28.9436L-37.9795 366.085M-10.8718 13.8878H-28.9436L-42.8394 0M-10.8718 13.8878L-24.7677 0M-69.6063 415.755H-78.6422M-69.6063 415.755L-78.8566 425M7.19997 104.195L2.68202 99.6798H-6.35387L-15.3897 90.6492M7.19997 104.195H-19.9077M-19.9077 104.195H-28.9436L-33.4615 99.6798H-42.4974L-47.0154 95.1645M-19.9077 104.195H-22.5712M7.19997 86.1339L2.80837 81.7449M7.19997 86.1339H-16.5716M-28.9436 302.871H-47.0154L-83.1602 338.994H-95M-28.9436 302.871H-38.0471M233.1 221.594L323.46 311.902M323.46 311.902L327.723 316.162M323.46 311.902L368.639 357.055M368.639 357.055L370.52 358.935M368.639 357.055L404.784 393.179M404.784 393.179L422.856 411.24M404.784 393.179L417.493 405.88M422.856 411.24L431.892 402.209M422.856 411.24L436.624 425M215.028 203.533L210.51 199.018M210.51 199.018L208.821 197.33M210.51 199.018L196.956 185.472M196.956 185.472L194.21 182.727M196.956 185.472L169.848 158.38M169.848 158.38L165.528 154.063M169.848 158.38L115.632 104.195M115.632 104.195H97.5601L90.14 96.7793M115.632 104.195L88.5242 77.1033M88.5242 77.1033L82.6101 71.1926M88.5242 77.1033L25.2717 13.8878M25.2717 13.8878L22.6899 11.3074M25.2717 13.8878L11.3759 0M215.028 221.594L205.992 230.625M205.992 230.625L201.688 234.926M205.992 230.625L187.92 248.686M187.92 248.686L183.402 253.202M187.92 248.686L186.579 250.027M183.402 253.202V262.232L174.366 271.264M183.402 253.202L25.2717 411.24M25.2717 411.24L23.5194 412.991M25.2717 411.24L20.7538 415.755H11.7179L2.46762 425" stroke="#807E98" stroke-width="2" stroke-linecap="round" stroke-linejoin="round"/>
</svg>
