<svg width="448" height="360" viewBox="0 0 448 360" fill="none" xmlns="http://www.w3.org/2000/svg">
<path opacity="0.3" d="M-59.4351 364.876H-68H-23.936M-59.4351 364.876V383M-59.4351 364.876H-41.6849M-41.6849 364.876L-41.6849 383M-41.6849 364.876H-23.936M-23.936 364.876V383V374.116M-23.936 364.876V374.116M-23.936 364.876H-15.061M-23.936 364.876V290.949M-23.936 364.876V327.912M-23.936 364.876H11.563M-23.936 374.116H-15.061M-15.061 374.116V383M-15.061 374.116V364.876M-15.061 374.116H-6.1859M-15.061 364.876H-6.1859M-6.1859 364.876V374.116M-6.1859 364.876H2.68916M-6.1859 374.116V383M-6.1859 374.116H2.68916M2.68916 374.116V383M2.68916 374.116V364.876M2.68916 374.116H11.563M2.68916 364.876H11.563M11.563 364.876V374.116M11.563 364.876H20.4381M11.563 364.876V327.912M11.563 364.876V355.635M11.563 374.116V383M11.563 374.116H20.4381M20.4381 374.116V383M20.4381 374.116V364.876M20.4381 374.116H29.3132M20.4381 364.876H29.3132M20.4381 364.876V355.635M29.3132 364.876V374.116M29.3132 364.876H38.1882M29.3132 364.876V355.635M29.3132 374.116V383M29.3132 374.116H38.1882M38.1882 374.116V383M38.1882 374.116V364.876M38.1882 374.116H47.0621M38.1882 364.876H47.0621M38.1882 364.876V355.635M47.0621 364.876L47.0621 374.116M47.0621 364.876H55.9371M47.0621 364.876L47.0621 355.635M47.0621 364.876L47.0621 346.394M47.0621 364.876H64.8122M47.0621 374.116V383M47.0621 374.116H55.9371M55.9371 374.116V383M55.9371 374.116V364.876M55.9371 374.116H64.8122M55.9371 364.876H64.8122M64.8122 364.876L64.8122 374.116M64.8122 364.876L64.8122 383V374.116M64.8122 364.876H82.5623M64.8122 364.876V346.394M82.5623 364.876L82.5623 383M82.5623 364.876H100.311M82.5623 364.876L82.5623 346.394M100.311 364.876V383M100.311 364.876H118.061M100.311 364.876V346.394M118.061 364.876V383M118.061 364.876H153.56M118.061 364.876V346.394M118.061 364.876H135.81M153.56 364.876V383M153.56 364.876H171.309M153.56 364.876V355.635M153.56 364.876H144.685M153.56 364.876H162.435M171.309 364.876L171.309 383M171.309 364.876H189.059M171.309 364.876L171.309 355.635M171.309 364.876H162.435M171.309 364.876L171.309 346.394M189.059 364.876L189.059 383M189.059 364.876H206.808M189.059 364.876L189.059 346.394M206.808 364.876V383M206.808 364.876H224.559M206.808 364.876V346.394M224.559 364.876V383M224.559 364.876H242.309M224.559 364.876V346.394M224.559 364.876V327.912M224.559 364.876H260.058M242.309 364.876V383M242.309 364.876H260.058M260.058 364.876V383M260.058 364.876H277.808M260.058 364.876V327.912M260.058 364.876H295.557M277.808 364.876L277.808 383M277.808 364.876H295.557M295.557 364.876L295.557 383V374.116M295.557 364.876L295.557 374.116M295.557 364.876H304.432M295.557 364.876L295.557 327.912M295.557 364.876L295.557 355.635M295.557 374.116H304.432M304.432 374.116L304.432 383M304.432 374.116V364.876M304.432 374.116H313.307M304.432 364.876H313.307M304.432 364.876V355.635M313.307 364.876V374.116M313.307 364.876V383V374.116M313.307 364.876H331.056M313.307 364.876V355.635M313.307 364.876V346.394M331.056 364.876V383V374.116M331.056 364.876V374.116M331.056 364.876H339.931M331.056 364.876V346.394M331.056 364.876V355.635M331.056 374.116H339.931M339.931 374.116V383M339.931 374.116V364.876M339.931 374.116H348.806M339.931 364.876H348.806M339.931 364.876V355.635M348.806 364.876V374.116M348.806 364.876H357.681M348.806 364.876V355.635M348.806 374.116V383M348.806 374.116H357.681M357.681 374.116V383M357.681 374.116V364.876M357.681 374.116H366.555M357.681 364.876H366.555M357.681 364.876V355.635M366.555 364.876L366.555 374.116M366.555 364.876L366.555 383V374.116M366.555 364.876H384.305M366.555 364.876L366.555 355.635M366.555 364.876H375.43M384.305 364.876L384.305 383M384.305 364.876H402.055M384.305 364.876L384.305 355.635M384.305 364.876H375.43M384.305 364.876L384.305 346.394M402.055 364.876L402.055 383M402.055 364.876H419.804M402.055 364.876L402.055 346.394M419.804 364.876L419.804 383V374.116M419.804 364.876L419.804 374.116M419.804 364.876H428.679M419.804 364.876V346.394M419.804 364.876L419.804 355.635M419.804 374.116H428.679M428.679 374.116L428.679 383M428.679 374.116V364.876M428.679 374.116H437.554M428.679 364.876H437.554M428.679 364.876V355.635M437.554 364.876V374.116M437.554 364.876V383V374.116M437.554 364.876H473.053M437.554 364.876V355.635M437.554 364.876V346.394M437.554 364.876H455.303M473.053 364.876V383M473.053 364.876H508.552M473.053 364.876V346.394M473.053 364.876H455.303M473.053 364.876V290.949M473.053 364.876H517H508.552M508.552 364.876V383V374.116M508.552 364.876V374.116M508.552 374.116H517M-23.936 290.949H-68L-59.4351 290.949M-23.936 290.949V300.19M-23.936 290.949H-15.061M-23.936 290.949V253.987M-23.936 290.949L-59.4351 290.949M-23.936 290.949V281.71M-23.936 327.912H11.563M-23.936 327.912V318.672M-23.936 327.912H-15.061M11.563 327.912V309.431M11.563 327.912H-6.1859M11.563 327.912V290.949M11.563 327.912H47.0621M11.563 327.912V337.153M11.563 327.912H20.4381M-23.936 318.672H-15.061M-23.936 318.672V309.431M-15.061 318.672V327.912M-15.061 318.672V309.431M-15.061 318.672H-6.1859M-15.061 327.912H-6.1859M-23.936 309.431H-15.061M-23.936 309.431V300.19M-15.061 309.431H-6.1859M-15.061 309.431V300.19M-6.1859 309.431V318.672M-6.1859 309.431V300.19M-6.1859 309.431H2.68916M-6.1859 309.431V327.912M-6.1859 309.431H11.563M-6.1859 318.672V327.912M-23.936 300.19H-15.061M-15.061 300.19V290.949M-15.061 300.19H-6.1859M-15.061 290.949H-6.1859M-15.061 290.949V281.71M-6.1859 290.949V300.19M-6.1859 290.949H2.68916M-6.1859 290.949V281.71M-6.1859 300.19H2.68916M2.68916 300.19V309.431M2.68916 300.19V290.949M2.68916 300.19H11.563M2.68916 309.431H11.563M2.68916 290.949H11.563M2.68916 290.949V281.71M11.563 290.949V300.19M11.563 290.949H47.0621M11.563 290.949V281.71M11.563 290.949V253.987M11.563 300.19V309.431M47.0621 290.949V327.912M47.0621 290.949V309.431M47.0621 290.949H64.8122M47.0621 290.949V253.987M47.0621 290.949V272.469M47.0621 327.912H38.1882M47.0621 327.912V337.153M47.0621 327.912V346.394M47.0621 327.912H64.8122M47.0621 327.912V309.431M11.563 355.635H20.4381M11.563 355.635V346.394M20.4381 355.635V346.394M20.4381 355.635H29.3132M11.563 346.394H20.4381M11.563 346.394V337.153M20.4381 346.394H29.3132M20.4381 346.394V337.153M29.3132 346.394V355.635M29.3132 346.394V337.153M29.3132 346.394H38.1882M29.3132 355.635H38.1882M11.563 337.153H20.4381M20.4381 337.153V327.912M20.4381 337.153H29.3132M20.4381 327.912H29.3132M29.3132 327.912V337.153M29.3132 327.912H38.1882M29.3132 337.153H38.1882M38.1882 337.153V346.394M38.1882 337.153V327.912M38.1882 337.153H47.0621M38.1882 346.394H47.0621M38.1882 346.394V355.635M47.0621 337.153V346.394M47.0621 346.394V355.635M47.0621 346.394H64.8122M38.1882 355.635H47.0621M64.8122 346.394V327.912M64.8122 346.394H82.5623M64.8122 327.912H82.5623M64.8122 327.912V309.431M82.5623 327.912L82.5623 346.394M82.5623 327.912L82.5623 309.431M82.5623 327.912H100.311M82.5623 346.394H100.311M47.0621 309.431H64.8122M64.8122 309.431V290.949M64.8122 309.431L82.5623 309.431M64.8122 290.949H82.5623M64.8122 290.949V272.469M64.8122 290.949L64.8122 281.71M64.8122 290.949L73.6873 290.949M82.5623 290.949L82.5623 309.431M82.5623 290.949L82.5623 300.19M82.5623 290.949H91.4362M82.5623 290.949L82.5623 281.71M82.5623 290.949L73.6873 290.949M82.5623 309.431L100.311 309.431M82.5623 309.431V300.19M82.5623 309.431L91.4362 309.431M100.311 309.431V327.912M100.311 309.431V300.19M100.311 309.431H91.4362M100.311 309.431V290.949M100.311 309.431L118.061 309.431M100.311 327.912H118.061M100.311 327.912V346.394M82.5623 300.19H91.4362M91.4362 300.19V309.431M91.4362 300.19V290.949M91.4362 300.19H100.311M91.4362 290.949H100.311M91.4362 290.949V281.71M100.311 290.949V300.19M100.311 290.949H118.061M100.311 290.949V281.71M100.311 290.949V272.469M118.061 290.949V309.431M118.061 290.949H135.81M118.061 290.949V272.469M118.061 309.431V327.912M118.061 309.431L135.81 309.431M118.061 327.912V346.394M118.061 327.912H135.81M100.311 346.394H118.061M118.061 346.394H135.81M135.81 346.394V364.876M135.81 346.394V327.912M135.81 346.394V337.153M135.81 346.394H144.685M135.81 346.394V355.635M135.81 364.876V355.635M135.81 364.876H144.685M135.81 327.912V337.153M135.81 327.912H144.685M135.81 327.912V309.431M135.81 327.912V318.672M135.81 337.153H144.685M144.685 337.153L144.685 346.394M144.685 337.153V327.912M144.685 337.153H153.56M144.685 346.394H153.56M144.685 346.394L144.685 355.635M144.685 327.912H153.56M144.685 327.912V318.672M153.56 327.912L153.56 337.153M153.56 327.912L153.56 318.672M153.56 327.912H162.435M153.56 337.153V346.394M153.56 337.153H162.435M153.56 346.394V355.635M153.56 346.394H162.435M135.81 355.635H144.685M144.685 355.635L144.685 364.876M144.685 355.635H153.56M153.56 355.635H162.435M135.81 309.431V290.949M135.81 309.431L153.56 309.431M135.81 309.431V318.672M135.81 309.431H144.685M135.81 290.949H153.56M135.81 290.949V272.469M153.56 290.949V309.431M153.56 290.949H171.309M153.56 290.949V272.469M153.56 290.949V281.71M153.56 290.949L162.435 290.949M153.56 309.431L144.685 309.431M153.56 309.431V318.672M153.56 309.431L162.435 309.431M153.56 309.431L171.309 309.431M135.81 318.672H144.685M144.685 318.672V309.431M144.685 318.672H153.56M153.56 318.672H162.435M162.435 318.672L162.435 327.912M162.435 318.672V309.431M162.435 318.672H171.309M162.435 327.912H171.309M162.435 327.912L162.435 337.153M162.435 309.431H171.309M171.309 309.431V318.672M171.309 309.431L171.309 290.949M171.309 309.431V300.19M171.309 309.431H180.184M171.309 318.672V327.912M171.309 318.672H180.184M171.309 327.912H180.184M171.309 327.912V337.153M171.309 290.949L171.309 300.19M171.309 290.949H180.184M171.309 290.949L171.309 281.71M171.309 290.949L162.435 290.949M171.309 290.949L171.309 272.469M171.309 290.949H189.059M171.309 300.19H180.184M180.184 300.19L180.184 309.431M180.184 300.19V290.949M180.184 300.19H189.059M180.184 309.431H189.059M180.184 309.431L180.184 318.672M180.184 290.949H189.059M189.059 290.949V300.19M189.059 290.949H197.935M189.059 290.949V272.469M189.059 290.949H206.808M189.059 300.19V309.431M189.059 300.19H197.935M189.059 309.431V318.672M189.059 309.431H197.935M180.184 318.672L180.184 327.912M180.184 318.672H189.059M180.184 327.912H189.059M180.184 327.912L180.184 337.153M189.059 318.672V327.912M189.059 318.672H197.935M189.059 327.912V337.153M189.059 327.912V346.394M189.059 327.912H206.808M189.059 327.912H197.935M162.435 355.635L162.435 364.876M162.435 355.635V346.394M162.435 355.635H171.309M162.435 346.394H171.309M162.435 346.394V337.153M171.309 346.394V355.635M171.309 346.394V337.153M171.309 346.394H180.184M171.309 346.394H189.059M162.435 337.153H171.309M171.309 337.153H180.184M180.184 337.153L180.184 346.394M180.184 337.153H189.059M180.184 346.394H189.059M189.059 337.153V346.394M189.059 346.394H206.808M206.808 346.394V327.912M206.808 346.394H224.559M206.808 327.912H224.559M206.808 327.912V318.672M206.808 327.912H197.935M206.808 327.912H215.683M224.559 327.912V346.394M224.559 327.912V318.672M224.559 327.912H215.683M224.559 327.912V290.949M224.559 327.912H260.058M197.935 318.672V327.912M197.935 318.672V309.431M197.935 318.672H206.808M197.935 309.431H206.808M197.935 309.431V300.19M206.808 309.431V318.672M206.808 309.431V300.19M206.808 309.431H215.683M206.808 318.672H215.683M197.935 300.19V290.949M197.935 300.19H206.808M197.935 290.949H206.808M206.808 290.949V300.19M206.808 290.949H215.683M206.808 290.949V272.469M206.808 290.949V281.71M206.808 300.19H215.683M215.683 300.19V309.431M215.683 300.19V290.949M215.683 300.19H224.559M215.683 309.431H224.559M215.683 309.431V318.672M215.683 290.949H224.559M215.683 290.949V281.71M224.559 290.949V300.19M224.559 290.949H260.058M224.559 290.949V281.71M224.559 290.949L233.434 290.949M224.559 300.19V309.431M224.559 309.431V318.672M215.683 318.672V327.912M215.683 318.672H224.559M260.058 290.949V327.912M260.058 290.949H295.557M260.058 290.949V272.469M260.058 290.949L242.309 290.949M260.058 290.949L277.808 290.949M260.058 327.912H295.557M295.557 327.912V290.949M295.557 327.912V309.431M295.557 327.912H313.307M295.557 327.912V346.394M295.557 290.949V300.19M295.557 290.949H304.432M295.557 290.949V281.71M295.557 290.949L286.682 290.949M295.557 309.431H313.307M295.557 309.431V300.19M295.557 309.431H304.432M313.307 309.431L313.307 327.912M313.307 309.431L313.307 300.19M313.307 309.431H304.432M313.307 309.431H322.182M313.307 309.431H331.056M313.307 327.912H331.056M313.307 327.912V346.394M295.557 300.19H304.432M304.432 300.19L304.432 309.431M304.432 300.19V290.949M304.432 300.19H313.307M304.432 290.949H313.307M304.432 290.949V281.71M313.307 290.949V300.19M313.307 290.949H322.182M313.307 290.949V281.71M313.307 300.19H322.182M322.182 300.19V309.431M322.182 300.19V290.949M322.182 300.19H331.056M322.182 309.431H331.056M322.182 290.949H331.056M322.182 290.949V281.71M331.056 290.949V300.19M331.056 290.949V309.431M331.056 290.949H348.806M331.056 290.949V281.71M331.056 290.949L339.931 290.949M331.056 300.19V309.431M331.056 309.431V327.912M331.056 309.431H348.806M331.056 327.912V346.394M331.056 327.912V337.153M331.056 327.912H339.931M331.056 327.912H348.806M295.557 355.635H304.432M295.557 355.635V346.394M304.432 355.635V346.394M304.432 355.635H313.307M295.557 346.394H304.432M295.557 346.394H313.307M304.432 346.394H313.307M313.307 346.394V355.635M313.307 346.394H331.056M331.056 346.394V355.635M331.056 346.394H339.931M331.056 346.394V337.153M331.056 355.635H339.931M339.931 355.635V346.394M339.931 355.635H348.806M339.931 346.394H348.806M339.931 346.394V337.153M348.806 346.394V355.635M348.806 346.394V337.153M348.806 346.394H357.681M348.806 355.635H357.681M331.056 337.153H339.931M339.931 337.153V327.912M339.931 337.153H348.806M339.931 327.912H348.806M348.806 327.912V337.153M348.806 327.912H357.681M348.806 327.912V309.431M348.806 327.912V318.672M348.806 337.153H357.681M357.681 337.153V346.394M357.681 337.153V327.912M357.681 337.153H366.555M357.681 346.394H366.555M357.681 346.394V355.635M357.681 327.912H366.555M357.681 327.912V318.672M366.555 327.912L366.555 337.153M366.555 327.912L366.555 318.672M366.555 327.912H375.43M366.555 337.153V346.394M366.555 337.153H375.43M366.555 346.394V355.635M366.555 346.394H375.43M357.681 355.635H366.555M366.555 355.635H375.43M348.806 309.431V290.949M348.806 309.431V300.19M348.806 309.431H357.681M348.806 309.431V318.672M348.806 290.949V300.19M348.806 290.949H357.681M348.806 290.949V281.71M348.806 290.949L339.931 290.949M348.806 300.19H357.681M357.681 300.19V309.431M357.681 300.19V290.949M357.681 300.19H366.555M357.681 309.431H366.555M357.681 309.431V318.672M357.681 290.949H366.555M357.681 290.949V281.71M366.555 290.949L366.555 300.19M366.555 290.949H375.43M366.555 290.949L366.555 281.71M366.555 300.19V309.431M366.555 300.19H375.43M366.555 309.431V318.672M366.555 309.431H375.43M348.806 318.672H357.681M357.681 318.672H366.555M366.555 318.672H375.43M375.43 318.672V327.912M375.43 318.672V309.431M375.43 318.672H384.305M375.43 327.912H384.305M375.43 327.912V337.153M375.43 309.431H384.305M375.43 309.431V300.19M384.305 309.431V318.672M384.305 309.431V300.19M384.305 309.431H393.18M384.305 309.431V327.912M384.305 309.431H402.055M384.305 318.672V327.912M384.305 327.912H402.055M384.305 327.912V337.153M384.305 327.912V346.394M375.43 300.19V290.949M375.43 300.19H384.305M375.43 290.949H384.305M375.43 290.949V281.71M384.305 290.949V300.19M384.305 290.949H393.18M384.305 290.949V281.71M384.305 290.949V272.469M384.305 290.949H402.055M384.305 300.19H393.18M393.18 300.19V309.431M393.18 300.19V290.949M393.18 300.19H402.055M393.18 309.431H402.055M393.18 290.949H402.055M402.055 290.949L402.055 300.19M402.055 290.949L402.055 327.912M402.055 290.949H437.554M402.055 290.949L402.055 272.469M402.055 290.949L419.804 290.949M402.055 300.19V309.431M402.055 309.431V327.912M402.055 327.912V346.394M402.055 327.912H419.804M402.055 327.912H437.554M375.43 355.635V364.876M375.43 355.635V346.394M375.43 355.635H384.305M375.43 346.394H384.305M375.43 346.394V337.153M384.305 346.394V355.635M384.305 346.394V337.153M384.305 346.394H402.055M375.43 337.153H384.305M402.055 346.394H419.804M419.804 346.394V327.912M419.804 346.394H437.554M419.804 346.394L419.804 355.635M419.804 346.394H428.679M419.804 327.912H437.554M437.554 327.912L437.554 346.394M437.554 327.912L437.554 290.949M437.554 327.912L437.554 309.431M437.554 327.912H455.303M437.554 346.394H428.679M437.554 346.394V355.635M437.554 346.394H455.303M419.804 355.635H428.679M428.679 355.635V346.394M428.679 355.635H437.554M437.554 290.949V309.431M437.554 290.949H455.303M437.554 290.949V272.469M437.554 290.949L419.804 290.949M437.554 309.431H455.303M455.303 309.431L455.303 327.912M455.303 309.431V290.949M455.303 309.431L473.053 309.431M455.303 309.431L455.303 318.672M455.303 309.431H464.178M455.303 327.912V318.672M455.303 327.912H464.178M455.303 327.912L455.303 346.394M455.303 327.912H473.053M455.303 290.949H473.053M455.303 290.949V272.469M473.053 290.949V309.431M473.053 290.949H517L508.552 290.949M473.053 290.949V272.469M473.053 290.949V253.987M473.053 290.949L508.552 290.949M473.053 309.431L464.178 309.431M473.053 309.431V318.672M455.303 318.672H464.178M464.178 318.672V327.912M464.178 318.672V309.431M464.178 318.672H473.053M464.178 327.912H473.053M473.053 318.672V327.912M473.053 327.912V346.394M455.303 346.394L455.303 364.876M455.303 346.394H473.053M-68 253.987H-59.4351M-59.4351 253.987V290.949M-59.4351 253.987V235.506M-59.4351 253.987H-41.6849M-59.4351 253.987H-23.936M-68 217.024H-59.4351M-59.4351 217.024V235.506M-59.4351 217.024V226.265M-59.4351 217.024H-50.56M-59.4351 217.024V207.783M-59.4351 235.506L-68 235.506M-59.4351 235.506L-41.6849 235.506M-59.4351 235.506V226.265M-59.4351 235.506H-50.56M-41.6849 235.506L-41.6849 253.987M-41.6849 235.506L-41.6849 226.265M-41.6849 235.506L-50.56 235.506M-41.6849 235.506L-32.8111 235.506M-41.6849 235.506L-23.936 235.506M-41.6849 253.987H-23.936M-59.4351 226.265H-50.56M-50.56 226.265V235.506M-50.56 226.265V217.024M-50.56 226.265H-41.6849M-50.56 217.024H-41.6849M-50.56 217.024V207.783M-41.6849 217.024L-41.6849 226.265M-41.6849 217.024H-32.8111M-41.6849 217.024L-41.6849 207.783M-41.6849 217.024V198.543M-41.6849 217.024H-23.936M-41.6849 226.265H-32.8111M-32.8111 226.265V235.506M-32.8111 226.265V217.024M-32.8111 226.265H-23.936M-32.8111 235.506H-23.936M-32.8111 217.024H-23.936M-23.936 217.024V226.265M-23.936 217.024V253.987M-23.936 217.024H11.563M-23.936 217.024V198.543M-23.936 217.024V180.061M-23.936 226.265V235.506M-23.936 235.506V253.987M-23.936 253.987V272.469M-23.936 253.987H-6.1859M-23.936 253.987H11.563M-23.936 281.71H-15.061M-23.936 281.71V272.469M-15.061 281.71V272.469M-15.061 281.71H-6.1859M-23.936 272.469H-15.061M-23.936 272.469H-6.1859M-15.061 272.469H-6.1859M-6.1859 272.469V281.71M-6.1859 272.469L-6.1859 253.987M-6.1859 272.469V263.228M-6.1859 272.469H2.68916M-6.1859 281.71H2.68916M-6.1859 253.987L-6.1859 263.228M-6.1859 253.987H2.68916M-6.1859 263.228H2.68916M2.68916 263.228V272.469M2.68916 263.228V253.987M2.68916 263.228H11.563M2.68916 272.469H11.563M2.68916 272.469V281.71M2.68916 253.987H11.563M11.563 253.987V263.228M11.563 253.987V217.024M11.563 253.987V235.506M11.563 253.987H29.3132M11.563 253.987H47.0621M11.563 263.228V272.469M11.563 272.469V281.71M2.68916 281.71H11.563M11.563 217.024V235.506M11.563 217.024H29.3132M11.563 217.024V180.061M11.563 217.024V198.543M11.563 235.506H29.3132M29.3132 235.506V253.987M29.3132 235.506V217.024M29.3132 235.506L47.0621 235.506M29.3132 253.987H47.0621M29.3132 217.024H47.0621M29.3132 217.024V198.543M29.3132 217.024V207.783M29.3132 217.024H38.1882M47.0621 217.024L47.0621 235.506M47.0621 217.024L47.0621 226.265M47.0621 217.024H55.9371M47.0621 217.024L47.0621 207.783M47.0621 217.024H38.1882M47.0621 217.024L47.0621 180.061M47.0621 217.024H82.5623M47.0621 235.506V253.987M47.0621 235.506V244.746M47.0621 235.506L55.9371 235.506M47.0621 235.506V226.265M47.0621 253.987V272.469M47.0621 253.987H64.8122M47.0621 253.987V244.746M47.0621 253.987H55.9371M47.0621 272.469H64.8122M64.8122 272.469V253.987M64.8122 272.469H82.5623M64.8122 272.469L64.8122 281.71M64.8122 272.469H73.6873M64.8122 253.987H82.5623M64.8122 253.987L64.8122 244.746M64.8122 253.987H55.9371M64.8122 253.987H73.6873M82.5623 253.987L82.5623 272.469M82.5623 253.987L82.5623 244.746M82.5623 253.987H73.6873M82.5623 253.987L82.5623 235.506M82.5623 253.987H100.311M82.5623 253.987L82.5623 263.228M82.5623 253.987H91.4362M82.5623 272.469H73.6873M82.5623 272.469V281.71M82.5623 272.469H91.4362M82.5623 272.469V263.228M64.8122 281.71H73.6873M73.6873 281.71L73.6873 290.949M73.6873 281.71V272.469M73.6873 281.71H82.5623M82.5623 281.71H91.4362M47.0621 244.746H55.9371M55.9371 244.746V253.987M55.9371 244.746V235.506M55.9371 244.746L64.8122 244.746M55.9371 235.506H64.8122M55.9371 235.506V226.265M64.8122 235.506L64.8122 244.746M64.8122 235.506L64.8122 226.265M64.8122 235.506V217.024M64.8122 235.506L82.5623 235.506M64.8122 235.506H73.6873M64.8122 244.746L73.6873 244.746M47.0621 226.265H55.9371M55.9371 226.265V217.024M55.9371 226.265H64.8122M55.9371 217.024H64.8122M64.8122 217.024L64.8122 226.265M64.8122 217.024H82.5623M82.5623 217.024L82.5623 235.506M82.5623 217.024H100.311M82.5623 217.024L82.5623 180.061M82.5623 217.024L82.5623 207.783M82.5623 217.024H91.4362M82.5623 235.506L73.6873 235.506M82.5623 235.506V244.746M82.5623 235.506L100.311 235.506M73.6873 244.746L73.6873 253.987M73.6873 244.746V235.506M73.6873 244.746L82.5623 244.746M100.311 235.506V253.987M100.311 235.506V217.024M100.311 235.506L118.061 235.506M100.311 253.987H118.061M100.311 253.987H91.4362M100.311 253.987V263.228M100.311 253.987H109.186M100.311 217.024H118.061M100.311 217.024V207.783M100.311 217.024H91.4362M100.311 217.024V198.543M118.061 217.024V235.506M118.061 217.024H135.81M118.061 217.024V198.543M118.061 235.506V253.987M118.061 235.506L135.81 235.506M118.061 253.987H109.186M118.061 253.987V263.228M118.061 253.987V272.469M118.061 253.987H135.81M91.4362 281.71V272.469M91.4362 281.71H100.311M91.4362 272.469H100.311M91.4362 272.469V263.228M100.311 272.469V281.71M100.311 272.469V263.228M100.311 272.469H109.186M100.311 272.469H118.061M82.5623 263.228H91.4362M91.4362 263.228V253.987M91.4362 263.228H100.311M100.311 263.228H109.186M109.186 263.228V272.469M109.186 263.228V253.987M109.186 263.228H118.061M109.186 272.469H118.061M118.061 263.228V272.469M118.061 272.469H135.81M135.81 272.469V253.987M135.81 272.469V263.228M135.81 272.469H144.685M135.81 272.469H153.56M135.81 253.987V263.228M135.81 253.987H144.685M135.81 253.987V235.506M135.81 253.987H153.56M135.81 263.228H144.685M144.685 263.228L144.685 272.469M144.685 263.228V253.987M144.685 263.228H153.56M144.685 272.469H153.56M144.685 253.987H153.56M153.56 253.987L153.56 263.228M153.56 253.987L153.56 235.506M153.56 253.987H171.309M153.56 253.987H162.435M153.56 263.228V272.469M153.56 263.228H162.435M153.56 272.469V281.71M153.56 272.469H162.435M135.81 235.506V217.024M135.81 235.506L153.56 235.506M135.81 217.024H153.56M135.81 217.024V198.543M153.56 217.024V235.506M153.56 217.024H171.309M153.56 217.024V198.543M153.56 235.506L171.309 235.506M171.309 235.506L171.309 253.987M171.309 235.506V217.024M171.309 235.506L189.059 235.506M171.309 253.987H189.059M171.309 253.987H162.435M171.309 253.987V263.228M171.309 253.987H180.184M171.309 217.024H189.059M171.309 217.024V198.543M189.059 217.024L189.059 235.506M189.059 217.024H206.808M189.059 217.024L189.059 198.543M189.059 217.024L189.059 143.098M189.059 217.024H260.058M189.059 235.506V253.987M189.059 235.506V244.746M189.059 235.506L197.935 235.506M189.059 235.506L206.808 235.506M189.059 253.987H180.184M189.059 253.987V263.228M189.059 253.987V272.469M189.059 253.987H206.808M189.059 253.987V244.746M189.059 253.987H197.935M153.56 281.71H162.435M162.435 281.71L162.435 290.949M162.435 281.71V272.469M162.435 281.71H171.309M162.435 272.469H171.309M162.435 272.469V263.228M171.309 272.469V281.71M171.309 272.469V263.228M171.309 272.469H180.184M171.309 272.469H189.059M162.435 263.228V253.987M162.435 263.228H171.309M171.309 263.228H180.184M180.184 263.228L180.184 272.469M180.184 263.228V253.987M180.184 263.228H189.059M180.184 272.469H189.059M189.059 263.228V272.469M189.059 272.469H206.808M206.808 272.469V253.987M206.808 272.469H224.559M206.808 272.469V281.71M206.808 272.469H215.683M206.808 253.987H224.559M206.808 253.987V244.746M206.808 253.987H197.935M206.808 253.987V235.506M224.559 253.987V272.469M224.559 253.987V235.506M224.559 253.987V244.746M224.559 253.987H233.434M224.559 253.987V263.228M224.559 272.469H215.683M224.559 272.469V281.71M224.559 272.469H233.434M224.559 272.469V263.228M206.808 281.71H215.683M215.683 281.71V272.469M215.683 281.71H224.559M224.559 281.71H233.434M189.059 244.746H197.935M197.935 244.746V253.987M197.935 244.746V235.506M197.935 244.746L206.808 244.746M197.935 235.506H206.808M206.808 235.506V244.746M206.808 235.506V217.024M206.808 235.506L224.559 235.506M206.808 217.024H224.559M224.559 217.024V235.506M224.559 217.024H242.309M224.559 235.506V244.746M224.559 235.506L233.434 235.506M224.559 235.506L242.309 235.506M224.559 244.746H233.434M233.434 244.746V253.987M233.434 244.746V235.506M233.434 244.746L242.309 244.746M233.434 253.987H242.309M233.434 253.987V263.228M233.434 235.506H242.309M242.309 235.506V244.746M242.309 235.506V217.024M242.309 235.506V226.265M242.309 235.506L251.183 235.506M242.309 244.746V253.987M242.309 244.746L251.183 244.746M242.309 253.987H251.183M242.309 253.987V263.228M242.309 217.024V226.265M242.309 217.024H251.183M242.309 226.265H251.183M251.183 226.265V235.506M251.183 226.265V217.024M251.183 226.265H260.058M251.183 235.506H260.058M251.183 235.506V244.746M251.183 217.024H260.058M260.058 217.024V226.265M260.058 217.024V235.506M260.058 217.024H277.808M260.058 217.024V143.098M260.058 217.024H331.056M260.058 226.265V235.506M260.058 235.506V244.746M260.058 235.506L268.933 235.506M260.058 235.506L277.808 235.506M251.183 244.746V253.987M251.183 244.746L260.058 244.746M251.183 253.987H260.058M251.183 253.987V263.228M260.058 244.746V253.987M260.058 244.746L268.933 244.746M260.058 253.987V263.228M260.058 253.987H268.933M233.434 281.71V290.949M233.434 281.71V272.469M233.434 281.71H242.309M233.434 290.949H242.309M233.434 272.469H242.309M233.434 272.469V263.228M242.309 272.469V281.71M242.309 272.469V263.228M242.309 272.469H251.183M242.309 272.469V290.949M242.309 272.469H260.058M242.309 281.71V290.949M224.559 263.228H233.434M233.434 263.228H242.309M242.309 263.228H251.183M251.183 263.228V272.469M251.183 263.228H260.058M251.183 272.469H260.058M260.058 263.228V272.469M260.058 263.228H268.933M260.058 272.469H277.808M260.058 272.469H268.933M277.808 272.469L277.808 290.949M277.808 272.469L277.808 263.228M277.808 272.469H268.933M277.808 272.469H286.682M277.808 272.469L277.808 281.71M277.808 290.949V281.71M277.808 290.949H286.682M268.933 263.228V272.469M268.933 263.228V253.987M268.933 263.228H277.808M268.933 253.987H277.808M268.933 253.987V244.746M277.808 253.987L277.808 263.228M277.808 253.987H286.682M277.808 253.987L277.808 244.746M277.808 263.228H286.682M286.682 263.228L286.682 272.469M286.682 263.228V253.987M286.682 263.228H295.557M286.682 272.469H295.557M286.682 272.469L286.682 281.71M286.682 253.987H295.557M286.682 253.987V244.746M295.557 253.987V263.228M295.557 253.987V244.746M295.557 253.987H304.432M295.557 253.987V272.469M295.557 253.987H313.307M295.557 263.228V272.469M295.557 272.469V281.71M295.557 272.469H304.432M295.557 272.469H313.307M277.808 281.71H286.682M286.682 281.71L286.682 290.949M286.682 281.71H295.557M295.557 281.71H304.432M268.933 244.746V235.506M268.933 244.746L277.808 244.746M268.933 235.506H277.808M277.808 235.506L277.808 244.746M277.808 235.506V217.024M277.808 235.506L295.557 235.506M277.808 235.506H286.682M277.808 244.746L286.682 244.746M277.808 217.024H295.557M295.557 217.024L295.557 235.506M295.557 217.024L295.557 226.265M295.557 217.024H304.432M295.557 235.506L286.682 235.506M295.557 235.506V244.746M295.557 235.506L304.432 235.506M295.557 235.506V226.265M286.682 244.746V235.506M286.682 244.746L295.557 244.746M295.557 244.746L304.432 244.746M304.432 244.746L304.432 253.987M304.432 244.746V235.506M304.432 244.746L313.307 244.746M304.432 253.987H313.307M304.432 235.506H313.307M304.432 235.506V226.265M313.307 235.506V244.746M313.307 235.506V226.265M313.307 235.506L322.182 235.506M313.307 244.746V253.987M313.307 244.746L322.182 244.746M313.307 253.987H322.182M313.307 253.987V272.469M313.307 253.987H331.056M295.557 226.265H304.432M304.432 226.265V217.024M304.432 226.265H313.307M304.432 217.024H313.307M313.307 217.024V226.265M313.307 217.024H322.182M313.307 226.265H322.182M322.182 226.265V235.506M322.182 226.265V217.024M322.182 226.265H331.056M322.182 235.506H331.056M322.182 235.506V244.746M322.182 217.024H331.056M331.056 217.024V226.265M331.056 217.024H339.931M331.056 217.024L331.056 143.098M331.056 217.024V180.061M331.056 217.024H366.555M331.056 226.265V235.506M331.056 226.265H339.931M331.056 235.506V244.746M331.056 235.506L339.931 235.506M322.182 244.746V253.987M322.182 244.746L331.056 244.746M322.182 253.987H331.056M331.056 244.746V253.987M331.056 244.746L339.931 244.746M331.056 253.987V272.469M331.056 253.987V263.228M331.056 253.987H339.931M304.432 281.71V272.469M304.432 281.71H313.307M304.432 272.469H313.307M313.307 272.469V281.71M313.307 272.469H331.056M313.307 272.469H322.182M313.307 281.71H322.182M331.056 272.469H322.182M331.056 272.469V281.71M331.056 272.469H339.931M331.056 272.469V263.228M322.182 281.71V272.469M322.182 281.71H331.056M331.056 281.71H339.931M339.931 281.71V290.949M339.931 281.71V272.469M339.931 281.71H348.806M339.931 272.469H348.806M339.931 272.469V263.228M348.806 272.469V281.71M348.806 272.469V263.228M348.806 272.469H357.681M348.806 281.71H357.681M331.056 263.228H339.931M339.931 263.228V253.987M339.931 263.228H348.806M339.931 253.987H348.806M339.931 253.987V244.746M348.806 253.987V263.228M348.806 253.987H357.681M348.806 253.987V244.746M348.806 253.987V235.506M348.806 253.987H366.555M348.806 263.228H357.681M357.681 263.228V272.469M357.681 263.228V253.987M357.681 263.228H366.555M357.681 272.469H366.555M357.681 272.469V281.71M357.681 253.987H366.555M366.555 253.987L366.555 263.228M366.555 253.987L366.555 235.506M366.555 253.987H384.305M366.555 253.987L366.555 272.469M366.555 263.228V272.469M366.555 272.469V281.71M366.555 272.469H375.43M366.555 272.469H384.305M357.681 281.71H366.555M366.555 281.71H375.43M339.931 244.746V235.506M339.931 244.746L348.806 244.746M339.931 235.506H348.806M339.931 235.506V226.265M348.806 235.506V244.746M348.806 235.506V226.265M348.806 235.506V217.024M348.806 235.506L366.555 235.506M339.931 226.265V217.024M339.931 226.265H348.806M339.931 217.024H348.806M348.806 217.024V226.265M348.806 217.024H366.555M366.555 217.024V235.506M366.555 217.024H384.305M366.555 217.024V180.061M366.555 217.024H402.055M366.555 235.506L384.305 235.506M384.305 235.506L384.305 253.987M384.305 235.506V217.024M384.305 235.506L402.055 235.506M384.305 253.987H402.055M384.305 253.987V272.469M384.305 217.024H402.055M402.055 217.024L402.055 235.506M402.055 217.024H419.804M402.055 217.024L402.055 180.061M402.055 217.024H437.554M402.055 235.506V253.987M402.055 235.506L419.804 235.506M402.055 253.987V272.469M402.055 253.987H419.804M375.43 281.71V272.469M375.43 281.71H384.305M375.43 272.469H384.305M384.305 272.469V281.71M384.305 272.469H402.055M402.055 272.469H419.804M419.804 272.469L419.804 290.949M419.804 272.469V253.987M419.804 272.469H437.554M419.804 253.987H437.554M419.804 253.987V235.506M437.554 253.987L437.554 272.469M437.554 253.987L437.554 235.506M437.554 253.987V217.024M437.554 253.987L473.053 253.987M437.554 253.987H455.303M437.554 272.469H455.303M419.804 235.506V217.024M419.804 235.506L437.554 235.506M419.804 217.024H437.554M437.554 217.024L437.554 235.506M437.554 217.024H473.053M437.554 217.024L437.554 180.061M473.053 217.024V253.987M473.053 217.024H508.552M473.053 217.024V180.061M473.053 253.987L455.303 253.987M473.053 253.987V272.469M473.053 253.987L508.552 253.987M455.303 272.469V253.987M455.303 272.469H473.053M508.552 253.987V290.949M508.552 253.987V217.024M508.552 253.987V235.506M508.552 253.987H517M508.552 253.987V272.469M508.552 290.949V281.71M508.552 217.024V226.265M508.552 217.024H517M508.552 217.024V180.061M508.552 217.024V207.783M508.552 235.506H517M508.552 235.506V226.265M508.552 226.265H517M508.552 281.71H517M508.552 281.71V272.469M508.552 272.469H517M-68 180.061H-59.4351M-59.4351 180.061V189.302M-59.4351 180.061V170.82M-59.4351 180.061H-50.56M-59.4351 189.302H-68M-59.4351 189.302V198.543M-59.4351 189.302H-50.56M-59.4351 198.543H-68M-59.4351 198.543V207.783M-59.4351 198.543H-50.56M-59.4351 207.783H-68M-59.4351 207.783H-50.56M-68 143.098H-59.4351M-59.4351 143.098V152.339M-59.4351 143.098H-50.56M-59.4351 143.098V133.857M-59.4351 152.339H-68M-59.4351 152.339V161.579M-59.4351 152.339H-50.56M-59.4351 161.579H-68M-59.4351 161.579V170.82M-59.4351 161.579H-50.56M-59.4351 170.82H-68M-59.4351 170.82H-50.56M-50.56 170.82V180.061M-50.56 170.82V161.579M-50.56 170.82H-41.6849M-50.56 180.061H-41.6849M-50.56 180.061V189.302M-50.56 161.579H-41.6849M-50.56 161.579V152.339M-41.6849 161.579L-41.6849 170.82M-41.6849 161.579L-41.6849 152.339M-41.6849 161.579H-32.8111M-41.6849 161.579L-41.6849 180.061M-41.6849 161.579H-23.936M-41.6849 170.82V180.061M-41.6849 180.061H-23.936M-41.6849 180.061V189.302M-41.6849 180.061L-41.6849 198.543M-50.56 152.339V143.098M-50.56 152.339H-41.6849M-50.56 143.098H-41.6849M-50.56 143.098V133.857M-41.6849 143.098L-41.6849 152.339M-41.6849 143.098H-32.8111M-41.6849 143.098L-41.6849 133.857M-41.6849 152.339H-32.8111M-32.8111 152.339V161.579M-32.8111 152.339V143.098M-32.8111 152.339H-23.936M-32.8111 161.579H-23.936M-32.8111 143.098H-23.936M-32.8111 143.098V133.857M-23.936 143.098V152.339M-23.936 143.098H-15.061M-23.936 143.098V133.857M-23.936 152.339V161.579M-23.936 152.339H-15.061M-23.936 161.579V180.061M-23.936 161.579H-6.1859M-23.936 161.579H-15.061M-23.936 180.061V198.543M-23.936 180.061H11.563M-23.936 180.061H-6.1859M-50.56 207.783V198.543M-50.56 207.783H-41.6849M-50.56 198.543H-41.6849M-50.56 198.543V189.302M-41.6849 198.543L-41.6849 207.783M-41.6849 198.543L-41.6849 189.302M-41.6849 198.543H-23.936M-50.56 189.302H-41.6849M11.563 180.061V170.82M11.563 180.061H2.68916M11.563 180.061H20.4381M11.563 180.061V189.302M-6.1859 161.579L-6.1859 180.061M-6.1859 161.579L-6.1859 152.339M-6.1859 161.579H-15.061M-6.1859 161.579H2.68916M-6.1859 161.579L-6.1859 170.82M-6.1859 180.061V170.82M-6.1859 180.061H2.68916M-15.061 152.339V161.579M-15.061 152.339V143.098M-15.061 152.339H-6.1859M-15.061 143.098H-6.1859M-15.061 143.098V133.857M-6.1859 143.098V152.339M-6.1859 143.098H2.68916M-6.1859 143.098V133.857M-6.1859 143.098V124.616M-6.1859 143.098H11.563M-6.1859 152.339H2.68916M2.68916 152.339V161.579M2.68916 152.339V143.098M2.68916 152.339H11.563M2.68916 161.579H11.563M2.68916 161.579V170.82M2.68916 143.098H11.563M11.563 143.098V152.339M11.563 143.098H20.4381M11.563 143.098V124.616M11.563 143.098V133.857M11.563 152.339V161.579M11.563 152.339H20.4381M11.563 161.579V170.82M11.563 161.579H20.4381M-6.1859 170.82H2.68916M2.68916 170.82V180.061M2.68916 170.82H11.563M11.563 170.82H20.4381M20.4381 170.82V180.061M20.4381 170.82V161.579M20.4381 170.82H29.3132M20.4381 180.061H29.3132M20.4381 180.061V189.302M20.4381 161.579H29.3132M20.4381 161.579V152.339M29.3132 161.579V170.82M29.3132 161.579V152.339M29.3132 161.579H38.1882M29.3132 170.82V180.061M29.3132 170.82H38.1882M29.3132 180.061H38.1882M29.3132 180.061V189.302M29.3132 180.061V198.543M29.3132 180.061H47.0621M20.4381 152.339V143.098M20.4381 152.339H29.3132M20.4381 143.098H29.3132M20.4381 143.098V133.857M29.3132 143.098V152.339M29.3132 143.098H38.1882M29.3132 143.098V133.857M29.3132 152.339H38.1882M38.1882 152.339V161.579M38.1882 152.339V143.098M38.1882 152.339H47.0621M38.1882 161.579H47.0621M38.1882 161.579V170.82M38.1882 143.098H47.0621M38.1882 143.098V133.857M47.0621 143.098L47.0621 152.339M47.0621 143.098L47.0621 161.579M47.0621 143.098H64.8122M47.0621 143.098L47.0621 133.857M47.0621 143.098L47.0621 106.135M47.0621 143.098H82.5623M47.0621 152.339V161.579M47.0621 161.579V170.82M47.0621 161.579V180.061M47.0621 161.579H64.8122M38.1882 170.82V180.061M38.1882 170.82H47.0621M38.1882 180.061H47.0621M47.0621 170.82V180.061M47.0621 180.061V198.543M47.0621 180.061H82.5623M47.0621 180.061H64.8122M11.563 198.543H29.3132M11.563 198.543V189.302M11.563 198.543H20.4381M29.3132 198.543V189.302M29.3132 198.543H20.4381M29.3132 198.543H47.0621M29.3132 198.543V207.783M29.3132 198.543H38.1882M11.563 189.302H20.4381M20.4381 189.302V198.543M20.4381 189.302H29.3132M47.0621 198.543H38.1882M47.0621 198.543V207.783M29.3132 207.783H38.1882M38.1882 207.783V217.024M38.1882 207.783V198.543M38.1882 207.783H47.0621M82.5623 180.061V161.579M82.5623 180.061H64.8122M82.5623 180.061H100.311M82.5623 180.061V189.302M82.5623 180.061H91.4362M64.8122 161.579L64.8122 180.061M64.8122 161.579V143.098M64.8122 161.579H82.5623M64.8122 143.098H82.5623M82.5623 143.098L82.5623 161.579M82.5623 143.098L82.5623 152.339M82.5623 143.098H91.4362M82.5623 143.098L82.5623 106.135M82.5623 143.098H118.061M82.5623 161.579H100.311M82.5623 161.579V152.339M82.5623 161.579H91.4362M100.311 161.579V180.061M100.311 161.579V152.339M100.311 161.579H91.4362M100.311 161.579H109.186M100.311 161.579V170.82M100.311 180.061V170.82M100.311 180.061H109.186M100.311 180.061H91.4362M100.311 180.061V189.302M82.5623 152.339H91.4362M91.4362 152.339V161.579M91.4362 152.339V143.098M91.4362 152.339H100.311M91.4362 143.098H100.311M100.311 143.098V152.339M100.311 143.098H109.186M100.311 152.339H109.186M109.186 152.339V161.579M109.186 152.339V143.098M109.186 152.339H118.061M109.186 161.579H118.061M109.186 161.579V170.82M109.186 143.098H118.061M118.061 143.098L118.061 152.339M118.061 143.098H126.935M118.061 143.098L118.061 106.135M118.061 143.098L118.061 133.857M118.061 152.339V161.579M118.061 152.339H126.935M118.061 161.579V170.82M118.061 161.579H126.935M100.311 170.82H109.186M109.186 170.82V180.061M109.186 170.82H118.061M109.186 180.061H118.061M109.186 180.061V189.302M118.061 170.82V180.061M118.061 170.82H126.935M118.061 180.061V189.302M118.061 180.061H126.935M82.5623 207.783H91.4362M82.5623 207.783V198.543M91.4362 207.783V217.024M91.4362 207.783V198.543M91.4362 207.783H100.311M82.5623 198.543H91.4362M82.5623 198.543V189.302M91.4362 198.543H100.311M91.4362 198.543V189.302M100.311 198.543V207.783M100.311 198.543V189.302M100.311 198.543H109.186M100.311 198.543H118.061M82.5623 189.302H91.4362M91.4362 189.302V180.061M91.4362 189.302H100.311M100.311 189.302H109.186M109.186 189.302V198.543M109.186 189.302H118.061M109.186 198.543H118.061M118.061 189.302V198.543M118.061 189.302H126.935M118.061 198.543H135.81M118.061 198.543H126.935M135.81 198.543V189.302M135.81 198.543H126.935M135.81 198.543H144.685M135.81 198.543H153.56M126.935 189.302V198.543M126.935 189.302V180.061M126.935 189.302H135.81M126.935 180.061H135.81M126.935 180.061V170.82M135.81 180.061V189.302M135.81 180.061H144.685M135.81 180.061V170.82M135.81 189.302H144.685M144.685 189.302L144.685 198.543M144.685 189.302V180.061M144.685 189.302H153.56M144.685 198.543H153.56M144.685 180.061H153.56M144.685 180.061V170.82M153.56 180.061L153.56 189.302M153.56 180.061L153.56 170.82M153.56 180.061H162.435M153.56 189.302V198.543M153.56 189.302H162.435M153.56 198.543H171.309M153.56 198.543H162.435M126.935 170.82V161.579M126.935 170.82H135.81M126.935 161.579H135.81M126.935 161.579V152.339M135.81 161.579V170.82M135.81 161.579V152.339M135.81 161.579H144.685M135.81 170.82H144.685M126.935 152.339V143.098M126.935 152.339H135.81M126.935 143.098H135.81M126.935 143.098V133.857M135.81 143.098V152.339M135.81 143.098H144.685M135.81 143.098V133.857M135.81 152.339H144.685M144.685 152.339L144.685 161.579M144.685 152.339V143.098M144.685 152.339H153.56M144.685 161.579H153.56M144.685 161.579L144.685 170.82M144.685 143.098H153.56M144.685 143.098V133.857M153.56 143.098L153.56 152.339M153.56 143.098H162.435M153.56 143.098L153.56 133.857M153.56 152.339V161.579M153.56 152.339H162.435M153.56 161.579V170.82M153.56 161.579H162.435M144.685 170.82H153.56M153.56 170.82H162.435M162.435 170.82L162.435 180.061M162.435 170.82V161.579M162.435 170.82H171.309M162.435 180.061H171.309M162.435 180.061L162.435 189.302M162.435 161.579H171.309M162.435 161.579V152.339M171.309 161.579V170.82M171.309 161.579V152.339M171.309 161.579H180.184M171.309 170.82V180.061M171.309 170.82H180.184M171.309 180.061H180.184M171.309 180.061V189.302M162.435 152.339V143.098M162.435 152.339H171.309M162.435 143.098H171.309M162.435 143.098V133.857M171.309 143.098V152.339M171.309 143.098H180.184M171.309 143.098V133.857M171.309 152.339H180.184M180.184 152.339L180.184 161.579M180.184 152.339V143.098M180.184 152.339H189.059M180.184 161.579H189.059M180.184 161.579L180.184 170.82M180.184 143.098H189.059M180.184 143.098V133.857M189.059 143.098V152.339M189.059 143.098H260.058M189.059 143.098V133.857M189.059 143.098V69.1725M189.059 152.339V161.579M189.059 161.579V170.82M180.184 170.82L180.184 180.061M180.184 170.82H189.059M180.184 180.061H189.059M180.184 180.061L180.184 189.302M189.059 170.82V180.061M189.059 180.061V189.302M171.309 198.543L171.309 189.302M171.309 198.543H162.435M171.309 198.543H180.184M171.309 198.543H189.059M162.435 189.302L162.435 198.543M162.435 189.302H171.309M171.309 189.302H180.184M180.184 189.302L180.184 198.543M180.184 189.302H189.059M180.184 198.543H189.059M189.059 189.302V198.543M260.058 143.098H331.056M260.058 143.098V69.1725M260.058 143.098V124.616M260.058 143.098H277.808M331.056 143.098L331.056 180.061M331.056 143.098H366.555M331.056 143.098L331.056 124.616M331.056 143.098H313.307M331.056 143.098L331.056 106.135M331.056 180.061H366.555M366.555 180.061V143.098M366.555 180.061H402.055M366.555 143.098H402.055M366.555 143.098V106.135M366.555 143.098V124.616M366.555 143.098H384.305M402.055 143.098V180.061M402.055 143.098V161.579M402.055 143.098H419.804M402.055 143.098V124.616M402.055 143.098H384.305M402.055 180.061H437.554M402.055 180.061V161.579M402.055 180.061H419.804M437.554 180.061V161.579M437.554 180.061H419.804M437.554 180.061H455.303M437.554 180.061H473.053M402.055 161.579H419.804M419.804 161.579L419.804 180.061M419.804 161.579V143.098M419.804 161.579H437.554M419.804 143.098H437.554M419.804 143.098V124.616M437.554 143.098L437.554 161.579M437.554 143.098H455.303M437.554 143.098L437.554 124.616M437.554 161.579H455.303M455.303 161.579L455.303 180.061M455.303 161.579V143.098M455.303 161.579H473.053M455.303 180.061H473.053M455.303 143.098H473.053M455.303 143.098V124.616M473.053 143.098V161.579M473.053 143.098V180.061M473.053 143.098H508.552M473.053 143.098V124.616M473.053 143.098V106.135M473.053 161.579V180.061M473.053 180.061H508.552M508.552 180.061V143.098M508.552 180.061V161.579M508.552 180.061H517M508.552 180.061V189.302M508.552 143.098V161.579M508.552 143.098H517M508.552 143.098V106.135M508.552 143.098V124.616M508.552 161.579H517M508.552 207.783H517M508.552 207.783V198.543M508.552 198.543H517M508.552 198.543V189.302M508.552 189.302H517M-68 106.135H-59.4351M-59.4351 106.135V115.376M-59.4351 106.135V69.1725M-59.4351 106.135V87.6533M-59.4351 106.135H-41.6849M-59.4351 106.135V124.616M-59.4351 115.376H-68M-59.4351 115.376V124.616M-59.4351 124.616H-68M-59.4351 124.616V133.857M-59.4351 124.616H-50.56M-59.4351 124.616H-41.6849M-59.4351 133.857H-68M-59.4351 133.857H-50.56M-59.4351 69.1725H-68H-23.936M-59.4351 69.1725V78.4123M-59.4351 69.1725H-50.56M-59.4351 87.6533H-41.6849M-59.4351 87.6533V78.4123M-59.4351 87.6533H-50.56M-41.6849 87.6533L-41.6849 106.135M-41.6849 87.6533L-41.6849 78.4123M-41.6849 87.6533H-50.56M-41.6849 87.6533V69.1725M-41.6849 87.6533H-23.936M-41.6849 106.135H-23.936M-41.6849 106.135L-41.6849 124.616M-59.4351 78.4123H-50.56M-50.56 78.4123V87.6533M-50.56 78.4123V69.1725M-50.56 78.4123H-41.6849M-50.56 69.1725H-41.6849M-41.6849 69.1725L-41.6849 78.4123M-41.6849 69.1725H-23.936M-23.936 69.1725V87.6533M-23.936 69.1725H-6.1859M-23.936 69.1725V-4.75437M-23.936 69.1725V50.6905M-23.936 87.6533V106.135M-23.936 87.6533H-6.1859M-23.936 106.135V124.616M-23.936 106.135H-6.1859M-50.56 133.857V124.616M-50.56 133.857H-41.6849M-50.56 124.616H-41.6849M-41.6849 124.616L-41.6849 133.857M-41.6849 124.616H-23.936M-41.6849 124.616H-32.8111M-41.6849 133.857H-32.8111M-23.936 124.616H-32.8111M-23.936 124.616V133.857M-23.936 124.616H-15.061M-23.936 124.616H-6.1859M-32.8111 133.857V124.616M-32.8111 133.857H-23.936M-23.936 133.857H-15.061M-15.061 133.857V124.616M-15.061 133.857H-6.1859M-15.061 124.616H-6.1859M-6.1859 124.616V133.857M-6.1859 124.616L-6.1859 106.135M-6.1859 124.616H11.563M-6.1859 106.135H11.563M-6.1859 106.135V87.6533M11.563 106.135V124.616M11.563 106.135V87.6533M11.563 106.135H29.3132M11.563 124.616V133.857M11.563 124.616H20.4381M11.563 124.616H29.3132M-6.1859 87.6533V69.1725M-6.1859 87.6533H11.563M-6.1859 69.1725H11.563M-6.1859 69.1725V50.6905M11.563 69.1725V87.6533M11.563 69.1725V78.4123M11.563 69.1725H20.4381M11.563 69.1725V50.6905M11.563 69.1725V59.9315M11.563 87.6533H29.3132M11.563 87.6533V78.4123M11.563 87.6533H20.4381M29.3132 87.6533V106.135M29.3132 87.6533V78.4123M29.3132 87.6533H20.4381M29.3132 87.6533H38.1882M29.3132 87.6533V96.8943M29.3132 106.135V96.8943M29.3132 106.135H38.1882M29.3132 106.135V124.616M29.3132 106.135V115.376M11.563 78.4123H20.4381M20.4381 78.4123V87.6533M20.4381 78.4123V69.1725M20.4381 78.4123H29.3132M20.4381 69.1725H29.3132M20.4381 69.1725V59.9315M29.3132 69.1725V78.4123M29.3132 69.1725H38.1882M29.3132 69.1725V59.9315M29.3132 78.4123H38.1882M38.1882 78.4123V87.6533M38.1882 78.4123V69.1725M38.1882 78.4123H47.0621M38.1882 87.6533H47.0621M38.1882 87.6533V96.8943M38.1882 69.1725H47.0621M38.1882 69.1725V59.9315M47.0621 69.1725L47.0621 78.4123M47.0621 69.1725L47.0621 87.6533M47.0621 69.1725H64.8122M47.0621 69.1725L47.0621 59.9315M47.0621 69.1725H55.9371M47.0621 78.4123V87.6533M47.0621 87.6533V96.8943M47.0621 87.6533V106.135M47.0621 87.6533H64.8122M29.3132 96.8943H38.1882M38.1882 96.8943V106.135M38.1882 96.8943H47.0621M38.1882 106.135H47.0621M38.1882 106.135V115.376M47.0621 96.8943V106.135M47.0621 106.135V115.376M47.0621 106.135H82.5623M47.0621 106.135H64.8122M11.563 133.857H20.4381M20.4381 133.857V124.616M20.4381 133.857H29.3132M20.4381 124.616H29.3132M29.3132 124.616V133.857M29.3132 124.616V115.376M29.3132 124.616H38.1882M29.3132 133.857H38.1882M29.3132 115.376H38.1882M38.1882 115.376V124.616M38.1882 115.376H47.0621M38.1882 124.616H47.0621M38.1882 124.616V133.857M47.0621 115.376V124.616M47.0621 124.616V133.857M38.1882 133.857H47.0621M82.5623 106.135V87.6533M82.5623 106.135H64.8122M82.5623 106.135L82.5623 69.1725M82.5623 106.135H118.061M64.8122 87.6533L64.8122 106.135M64.8122 87.6533V69.1725M64.8122 87.6533H82.5623M64.8122 69.1725H82.5623M64.8122 69.1725L64.8122 59.9315M64.8122 69.1725H55.9371M64.8122 69.1725H73.6873M82.5623 69.1725L82.5623 87.6533M82.5623 69.1725H118.061M82.5623 69.1725L82.5623 59.9315M82.5623 69.1725H73.6873M82.5623 69.1725L82.5623 50.6905M82.5623 69.1725L100.311 69.1725M118.061 69.1725V106.135M118.061 69.1725V87.6533M118.061 69.1725H135.81M118.061 69.1725V50.6905M118.061 69.1725L100.311 69.1725M118.061 106.135V124.616M118.061 106.135H135.81M118.061 106.135V87.6533M118.061 133.857H126.935M118.061 133.857V124.616M126.935 133.857V124.616M126.935 133.857H135.81M118.061 124.616H126.935M118.061 124.616H135.81M126.935 124.616H135.81M135.81 124.616V133.857M135.81 124.616V106.135M135.81 124.616V115.376M135.81 124.616H144.685M135.81 133.857H144.685M135.81 106.135V115.376M135.81 106.135H144.685M135.81 106.135V87.6533M135.81 106.135H153.56M135.81 115.376H144.685M144.685 115.376L144.685 124.616M144.685 115.376V106.135M144.685 115.376H153.56M144.685 124.616H153.56M144.685 124.616L144.685 133.857M144.685 106.135H153.56M153.56 106.135L153.56 115.376M153.56 106.135L153.56 87.6533M153.56 106.135L153.56 96.8943M153.56 106.135H162.435M153.56 115.376V124.616M153.56 115.376H162.435M153.56 124.616V133.857M153.56 124.616H162.435M144.685 133.857H153.56M153.56 133.857H162.435M118.061 87.6533H135.81M135.81 87.6533V69.1725M135.81 87.6533H153.56M135.81 69.1725H153.56M135.81 69.1725V50.6905M153.56 69.1725V87.6533M153.56 69.1725V78.4123M153.56 69.1725H162.435M153.56 69.1725V50.6905M153.56 69.1725H171.309M153.56 87.6533V96.8943M153.56 87.6533H162.435M153.56 87.6533V78.4123M153.56 96.8943H162.435M162.435 96.8943L162.435 106.135M162.435 96.8943V87.6533M162.435 96.8943H171.309M162.435 106.135H171.309M162.435 106.135L162.435 115.376M162.435 87.6533H171.309M162.435 87.6533V78.4123M171.309 87.6533V96.8943M171.309 87.6533V78.4123M171.309 87.6533H180.184M171.309 96.8943V106.135M171.309 96.8943H180.184M171.309 106.135H180.184M171.309 106.135V115.376M153.56 78.4123H162.435M162.435 78.4123V69.1725M162.435 78.4123H171.309M162.435 69.1725H171.309M171.309 69.1725V78.4123M171.309 69.1725H180.184M171.309 69.1725L171.309 50.6905M171.309 69.1725H189.059M171.309 78.4123H180.184M180.184 78.4123L180.184 87.6533M180.184 78.4123V69.1725M180.184 78.4123H189.059M180.184 87.6533H189.059M180.184 87.6533L180.184 96.8943M180.184 69.1725H189.059M189.059 69.1725V78.4123M189.059 69.1725H260.058M189.059 69.1725V50.6905M189.059 69.1725V32.2097M189.059 69.1725L224.559 69.1725M189.059 78.4123V87.6533M189.059 87.6533V96.8943M180.184 96.8943L180.184 106.135M180.184 96.8943H189.059M180.184 106.135H189.059M180.184 106.135L180.184 115.376M189.059 96.8943V106.135M189.059 106.135V115.376M162.435 133.857V124.616M162.435 133.857H171.309M162.435 124.616H171.309M162.435 124.616V115.376M171.309 124.616V133.857M171.309 124.616V115.376M171.309 124.616H180.184M171.309 133.857H180.184M162.435 115.376H171.309M171.309 115.376H180.184M180.184 115.376L180.184 124.616M180.184 115.376H189.059M180.184 124.616H189.059M180.184 124.616L180.184 133.857M189.059 115.376V124.616M189.059 124.616V133.857M180.184 133.857H189.059M260.058 69.1725V87.6533M260.058 69.1725H277.808M260.058 69.1725V50.6905M260.058 69.1725L242.309 69.1725M260.058 124.616H277.808M260.058 124.616V106.135M277.808 124.616L277.808 143.098M277.808 124.616V106.135M277.808 124.616H295.557M277.808 143.098H295.557M260.058 106.135H277.808M260.058 106.135V87.6533M277.808 106.135H295.557M277.808 106.135V87.6533M295.557 106.135L295.557 124.616M295.557 106.135L295.557 87.6533M295.557 106.135V69.1725M295.557 106.135H331.056M295.557 106.135H313.307M295.557 124.616V143.098M295.557 124.616H313.307M295.557 143.098H313.307M260.058 87.6533H277.808M277.808 87.6533V69.1725M277.808 87.6533H295.557M277.808 69.1725H295.557M277.808 69.1725V50.6905M295.557 69.1725L295.557 87.6533M295.557 69.1725H331.056M295.557 69.1725L295.557 50.6905M295.557 69.1725V32.2097M331.056 69.1725L331.056 106.135M331.056 69.1725H366.555M331.056 69.1725L331.056 32.2097M331.056 69.1725L331.056 50.6905M331.056 69.1725L348.806 69.1725M331.056 106.135H313.307M331.056 106.135V124.616M331.056 106.135H366.555M313.307 124.616L313.307 143.098M313.307 124.616V106.135M313.307 124.616H331.056M366.555 106.135V69.1725M366.555 106.135H402.055M366.555 106.135V124.616M366.555 106.135H384.305M366.555 69.1725H402.055M366.555 69.1725V59.9315M366.555 69.1725H357.681M366.555 69.1725H375.43M402.055 69.1725V106.135M402.055 69.1725V87.6533M402.055 69.1725H419.804M402.055 69.1725V59.9315M402.055 69.1725H393.18M402.055 69.1725V50.6905M402.055 106.135H384.305M402.055 106.135V124.616M402.055 106.135H419.804M402.055 106.135V87.6533M366.555 124.616H384.305M384.305 124.616L384.305 143.098M384.305 124.616V106.135M384.305 124.616H402.055M402.055 124.616H419.804M419.804 124.616V106.135M419.804 124.616H437.554M419.804 106.135H437.554M419.804 106.135V87.6533M437.554 106.135L437.554 124.616M437.554 106.135L437.554 87.6533M437.554 106.135L437.554 69.1725M437.554 106.135H473.053M437.554 106.135H455.303M437.554 124.616H455.303M402.055 87.6533H419.804M419.804 87.6533V69.1725M419.804 87.6533L419.804 78.4123M419.804 87.6533H428.679M419.804 87.6533H437.554M419.804 69.1725L419.804 78.4123M419.804 69.1725H428.679M419.804 69.1725V50.6905M419.804 69.1725L419.804 59.9315M419.804 78.4123H428.679M428.679 78.4123L428.679 87.6533M428.679 78.4123V69.1725M428.679 78.4123H437.554M428.679 87.6533H437.554M428.679 69.1725H437.554M428.679 69.1725V59.9315M437.554 69.1725V78.4123M437.554 69.1725H473.053M437.554 69.1725V59.9315M437.554 69.1725H446.428M437.554 78.4123V87.6533M473.053 69.1725V106.135M473.053 69.1725V87.6533M473.053 69.1725H490.802M473.053 69.1725V59.9315M473.053 69.1725H464.178M473.053 69.1725H481.928M473.053 106.135H455.303M473.053 106.135V124.616M473.053 106.135H508.552M473.053 106.135V87.6533M473.053 106.135H490.802M455.303 124.616V106.135M455.303 124.616H473.053M508.552 106.135V96.8943M508.552 106.135H499.677M508.552 106.135H517M508.552 106.135V115.376M473.053 87.6533H490.802M490.802 87.6533V106.135M490.802 87.6533V69.1725M490.802 87.6533V78.4123M490.802 87.6533H499.677M490.802 87.6533V96.8943M490.802 106.135V96.8943M490.802 106.135H499.677M490.802 69.1725V78.4123M490.802 69.1725H499.677M490.802 69.1725V59.9315M490.802 69.1725H481.928M490.802 69.1725V50.6905M490.802 69.1725H508.552M490.802 78.4123H499.677M499.677 78.4123L499.677 87.6533M499.677 78.4123V69.1725M499.677 78.4123H508.552M499.677 87.6533H508.552M499.677 87.6533L499.677 96.8943M499.677 69.1725H508.552M508.552 69.1725V78.4123M508.552 69.1725H517M508.552 69.1725V50.6905M508.552 69.1725V59.9315M508.552 78.4123V87.6533M508.552 78.4123H517M508.552 87.6533V96.8943M508.552 87.6533H517M490.802 96.8943H499.677M499.677 96.8943L499.677 106.135M499.677 96.8943H508.552M508.552 96.8943H517M508.552 124.616H517M508.552 124.616V115.376M508.552 115.376H517M-23.936 -4.75437H-68H-59.4351M-23.936 -4.75437V4.48664M-23.936 -4.75437H-15.061M-23.936 -4.75437V-23M-23.936 -4.75437H-41.6849M-23.936 -4.75437H-6.1859M-23.936 50.6905H-6.1859M-23.936 50.6905V32.2097M-6.1859 50.6905V32.2097M-6.1859 50.6905L-6.1859 41.4495M-6.1859 50.6905H2.68916M-6.1859 50.6905H11.563M-23.936 32.2097H-6.1859M-23.936 32.2097V22.9687M-23.936 32.2097H-15.061M-6.1859 32.2097L-6.1859 41.4495M-6.1859 32.2097H2.68916M-6.1859 32.2097L-6.1859 22.9687M-6.1859 32.2097H-15.061M-6.1859 41.4495H2.68916M2.68916 41.4495V50.6905M2.68916 41.4495V32.2097M2.68916 41.4495L11.563 41.4495M2.68916 50.6905H11.563M2.68916 32.2097H11.563M2.68916 32.2097V22.9687M11.563 32.2097V41.4495M11.563 32.2097V22.9687M11.563 32.2097V-4.75437M11.563 32.2097L47.0621 32.2097M11.563 32.2097V50.6905M11.563 32.2097H29.3132M11.563 41.4495V50.6905M11.563 50.6905V59.9315M11.563 50.6905H20.4381M11.563 50.6905H29.3132M-23.936 22.9687H-15.061M-23.936 22.9687V13.7276M-15.061 22.9687V32.2097M-15.061 22.9687V13.7276M-15.061 22.9687H-6.1859M-23.936 13.7276H-15.061M-23.936 13.7276V4.48664M-15.061 13.7276H-6.1859M-15.061 13.7276V4.48664M-6.1859 13.7276V22.9687M-6.1859 13.7276V4.48664M-6.1859 13.7276V-4.75437M-6.1859 13.7276L11.563 13.7276M-6.1859 13.7276H2.68916M-6.1859 22.9687H2.68916M-23.936 4.48664H-15.061M-15.061 4.48664V-4.75437M-15.061 4.48664H-6.1859M-15.061 -4.75437H-6.1859M-6.1859 -4.75437V4.48664M-6.1859 -4.75437H11.563M-6.1859 -4.75437V-23M11.563 -4.75437V13.7276M11.563 -4.75437H47.0621M11.563 -4.75437V-23M11.563 13.7276L2.68916 13.7276M11.563 13.7276V22.9687M2.68916 22.9687V13.7276M2.68916 22.9687H11.563M47.0621 -4.75437V32.2097M47.0621 -4.75437V13.7276M47.0621 -4.75437H64.8122M47.0621 -4.75437V-23M47.0621 -4.75437H82.5623M47.0621 32.2097L29.3132 32.2097M47.0621 32.2097V50.6905M47.0621 32.2097L64.8122 32.2097M47.0621 32.2097V13.7276M11.563 59.9315H20.4381M20.4381 59.9315V50.6905M20.4381 59.9315H29.3132M20.4381 50.6905H29.3132M29.3132 50.6905V59.9315M29.3132 50.6905V32.2097M29.3132 50.6905H47.0621M29.3132 50.6905H38.1882M29.3132 59.9315H38.1882M47.0621 50.6905H38.1882M47.0621 50.6905V59.9315M47.0621 50.6905H55.9371M47.0621 50.6905H64.8122M38.1882 59.9315V50.6905M38.1882 59.9315H47.0621M47.0621 59.9315H55.9371M55.9371 59.9315V69.1725M55.9371 59.9315V50.6905M55.9371 59.9315H64.8122M55.9371 50.6905H64.8122M64.8122 50.6905L64.8122 59.9315M64.8122 50.6905V32.2097M64.8122 50.6905L64.8122 41.4495M64.8122 50.6905H73.6873M64.8122 59.9315H73.6873M64.8122 32.2097L64.8122 41.4495M64.8122 32.2097H73.6873M64.8122 32.2097V13.7276M64.8122 32.2097L64.8122 22.9687M64.8122 41.4495H73.6873M73.6873 41.4495L73.6873 50.6905M73.6873 41.4495V32.2097M73.6873 41.4495L82.5623 41.4495M73.6873 50.6905H82.5623M73.6873 50.6905L73.6873 59.9315M73.6873 32.2097H82.5623M73.6873 32.2097V22.9687M82.5623 32.2097V41.4495M82.5623 32.2097V22.9687M82.5623 32.2097H91.4362M82.5623 32.2097V50.6905M82.5623 32.2097H100.311M82.5623 41.4495V50.6905M82.5623 50.6905V59.9315M82.5623 50.6905H100.311M73.6873 59.9315L73.6873 69.1725M73.6873 59.9315H82.5623M47.0621 13.7276H64.8122M64.8122 13.7276V-4.75437M64.8122 13.7276L64.8122 4.48664M64.8122 13.7276H73.6873M64.8122 13.7276L64.8122 22.9687M64.8122 -4.75437L64.8122 4.48664M64.8122 -4.75437H73.6873M64.8122 4.48664H73.6873M73.6873 4.48664L73.6873 13.7276M73.6873 4.48664V-4.75437M73.6873 4.48664H82.5623M73.6873 13.7276H82.5623M73.6873 13.7276L73.6873 22.9687M73.6873 -4.75437H82.5623M82.5623 -4.75437V4.48664M82.5623 -4.75437H91.4362M82.5623 -4.75437V-23M82.5623 -4.75437H100.311M82.5623 4.48664V13.7276M82.5623 4.48664H91.4362M82.5623 13.7276V22.9687M82.5623 13.7276H91.4362M64.8122 22.9687H73.6873M73.6873 22.9687H82.5623M82.5623 22.9687H91.4362M91.4362 22.9687V32.2097M91.4362 22.9687V13.7276M91.4362 22.9687H100.311M91.4362 32.2097H100.311M91.4362 13.7276H100.311M91.4362 13.7276V4.48664M100.311 13.7276V22.9687M100.311 13.7276V4.48664M100.311 13.7276V-4.75437M100.311 13.7276L118.061 13.7276M100.311 13.7276H109.186M100.311 22.9687V32.2097M100.311 22.9687H109.186M100.311 32.2097H109.186M100.311 32.2097V50.6905M100.311 32.2097H118.061M91.4362 4.48664V-4.75437M91.4362 4.48664H100.311M91.4362 -4.75437H100.311M100.311 -4.75437V4.48664M100.311 -4.75437H118.061M100.311 -4.75437V-23M118.061 -4.75437V13.7276M118.061 -4.75437H135.81M118.061 -4.75437V-23M118.061 13.7276L109.186 13.7276M118.061 13.7276V22.9687M118.061 13.7276L126.935 13.7276M118.061 13.7276L135.81 13.7276M109.186 22.9687V32.2097M109.186 22.9687V13.7276M109.186 22.9687H118.061M109.186 32.2097H118.061M118.061 22.9687V32.2097M118.061 22.9687H126.935M118.061 32.2097V50.6905M118.061 32.2097V41.4495M118.061 32.2097H126.935M100.311 50.6905V69.1725M100.311 50.6905H118.061M118.061 50.6905H135.81M118.061 50.6905V41.4495M118.061 50.6905H126.935M135.81 50.6905V41.4495M135.81 50.6905H126.935M135.81 50.6905V32.2097M135.81 50.6905H153.56M118.061 41.4495H126.935M126.935 41.4495V50.6905M126.935 41.4495V32.2097M126.935 41.4495L135.81 41.4495M126.935 32.2097H135.81M126.935 32.2097V22.9687M135.81 32.2097V41.4495M135.81 32.2097H153.56M135.81 32.2097V22.9687M135.81 32.2097H144.685M153.56 32.2097V50.6905M153.56 32.2097V22.9687M153.56 32.2097H144.685M153.56 32.2097H162.435M153.56 32.2097H171.309M153.56 50.6905H171.309M126.935 22.9687V13.7276M126.935 22.9687H135.81M126.935 13.7276H135.81M135.81 13.7276V22.9687M135.81 13.7276V-4.75437M135.81 13.7276L153.56 13.7276M135.81 13.7276H144.685M135.81 22.9687H144.685M135.81 -4.75437H153.56M135.81 -4.75437V-23M153.56 -4.75437V13.7276M153.56 -4.75437V4.48664M153.56 -4.75437H162.435M153.56 -4.75437V-23V-13.9942M153.56 -4.75437V-13.9942M153.56 13.7276L144.685 13.7276M153.56 13.7276V22.9687M153.56 13.7276L162.435 13.7276M153.56 13.7276V4.48664M144.685 22.9687L144.685 32.2097M144.685 22.9687V13.7276M144.685 22.9687H153.56M153.56 22.9687H162.435M162.435 22.9687L162.435 32.2097M162.435 22.9687V13.7276M162.435 22.9687H171.309M162.435 32.2097H171.309M162.435 13.7276H171.309M162.435 13.7276V4.48664M171.309 13.7276V22.9687M171.309 13.7276V4.48664M171.309 13.7276H180.184M171.309 13.7276V32.2097M171.309 13.7276H189.059M171.309 22.9687V32.2097M171.309 32.2097H189.059M171.309 32.2097L171.309 50.6905M153.56 4.48664H162.435M162.435 4.48664V-4.75437M162.435 4.48664H171.309M162.435 -4.75437H171.309M162.435 -4.75437V-13.9942M171.309 -4.75437V4.48664M171.309 -4.75437H180.184M171.309 -4.75437V-13.9942M171.309 4.48664H180.184M180.184 4.48664L180.184 13.7276M180.184 4.48664V-4.75437M180.184 4.48664H189.059M180.184 13.7276H189.059M180.184 -4.75437H189.059M180.184 -4.75437V-13.9942M189.059 -4.75437V4.48664M189.059 -4.75437V32.2097M189.059 -4.75437H224.559M189.059 -4.75437V-13.9942M189.059 -4.75437V-23V-13.9942M189.059 4.48664V13.7276M189.059 13.7276V32.2097M189.059 32.2097V50.6905M189.059 32.2097H224.559M171.309 50.6905H189.059M224.559 32.2097L224.559 69.1725M224.559 32.2097V-4.75437M224.559 32.2097L260.058 32.2097M224.559 32.2097L224.559 50.6905M224.559 32.2097H242.309M224.559 69.1725V50.6905M224.559 69.1725H242.309M224.559 -4.75437H260.058M224.559 -4.75437L224.559 -23M260.058 -4.75437V32.2097M260.058 -4.75437H295.557M260.058 -4.75437V-23M260.058 32.2097L242.309 32.2097M260.058 32.2097V50.6905M260.058 32.2097L277.808 32.2097M260.058 32.2097L295.557 32.2097M224.559 50.6905H242.309M242.309 50.6905V69.1725M242.309 50.6905V32.2097M242.309 50.6905H260.058M260.058 50.6905H277.808M277.808 50.6905V32.2097M277.808 50.6905H295.557M277.808 32.2097H295.557M295.557 32.2097L295.557 50.6905M295.557 32.2097L295.557 -4.75437M295.557 32.2097L331.056 32.2097M295.557 -4.75437H331.056M295.557 -4.75437V-23M295.557 -4.75437H313.307M331.056 -4.75437L331.056 32.2097M331.056 -4.75437L331.056 13.7276M331.056 -4.75437H348.806M331.056 -4.75437L331.056 -23M331.056 -4.75437H313.307M331.056 -4.75437H366.555M331.056 32.2097V50.6905M331.056 32.2097L348.806 32.2097M331.056 32.2097V13.7276M331.056 50.6905H348.806M348.806 50.6905V69.1725M348.806 50.6905V32.2097M348.806 50.6905V41.4495M348.806 50.6905H357.681M348.806 50.6905V59.9315M348.806 69.1725V59.9315M348.806 69.1725L357.681 69.1725M348.806 32.2097V41.4495M348.806 32.2097H357.681M348.806 32.2097V13.7276M348.806 32.2097H366.555M348.806 41.4495H357.681M357.681 41.4495V50.6905M357.681 41.4495V32.2097M357.681 41.4495L366.555 41.4495M357.681 50.6905H366.555M357.681 50.6905V59.9315M357.681 32.2097H366.555M366.555 32.2097L366.555 41.4495M366.555 32.2097L366.555 13.7276M366.555 32.2097L366.555 22.9687M366.555 32.2097H375.43M366.555 41.4495V50.6905M366.555 41.4495L375.43 41.4495M366.555 50.6905V59.9315M366.555 50.6905H375.43M348.806 59.9315H357.681M357.681 59.9315V69.1725M357.681 59.9315H366.555M366.555 59.9315H375.43M331.056 13.7276H348.806M348.806 13.7276V-4.75437M348.806 13.7276L366.555 13.7276M348.806 -4.75437H366.555M366.555 -4.75437V13.7276M366.555 -4.75437H384.305M366.555 -4.75437V-23M366.555 -4.75437H402.055M366.555 13.7276V22.9687M366.555 13.7276L375.43 13.7276M366.555 13.7276L384.305 13.7276M366.555 22.9687H375.43M375.43 22.9687V32.2097M375.43 22.9687V13.7276M375.43 22.9687H384.305M375.43 32.2097H384.305M375.43 32.2097V41.4495M375.43 13.7276H384.305M384.305 13.7276V22.9687M384.305 13.7276L384.305 -4.75437M384.305 13.7276L402.055 13.7276M384.305 13.7276V32.2097M384.305 22.9687V32.2097M384.305 32.2097H402.055M384.305 32.2097V41.4495M384.305 32.2097H393.18M384.305 -4.75437H402.055M402.055 -4.75437L402.055 13.7276M402.055 -4.75437H419.804M402.055 -4.75437L402.055 -23M402.055 -4.75437H437.554M402.055 13.7276V32.2097M402.055 13.7276L419.804 13.7276M402.055 32.2097H393.18M402.055 32.2097V41.4495M402.055 32.2097V50.6905M402.055 32.2097H419.804M375.43 59.9315V69.1725M375.43 59.9315V50.6905M375.43 59.9315H384.305M375.43 69.1725H384.305M375.43 50.6905H384.305M375.43 50.6905V41.4495M384.305 50.6905V59.9315M384.305 50.6905V41.4495M384.305 50.6905H393.18M384.305 59.9315V69.1725M384.305 59.9315H393.18M384.305 69.1725H393.18M375.43 41.4495L384.305 41.4495M384.305 41.4495L393.18 41.4495M393.18 41.4495V50.6905M393.18 41.4495V32.2097M393.18 41.4495L402.055 41.4495M393.18 50.6905H402.055M393.18 50.6905V59.9315M402.055 41.4495V50.6905M402.055 50.6905V59.9315M402.055 50.6905H419.804M393.18 59.9315V69.1725M393.18 59.9315H402.055M419.804 50.6905V32.2097M419.804 50.6905L419.804 41.4495M419.804 50.6905H428.679M419.804 50.6905L419.804 59.9315M419.804 32.2097L419.804 41.4495M419.804 32.2097H428.679M419.804 32.2097V13.7276M419.804 32.2097L419.804 22.9687M419.804 41.4495H428.679M428.679 41.4495L428.679 50.6905M428.679 41.4495V32.2097M428.679 41.4495L437.554 41.4495M428.679 50.6905H437.554M428.679 50.6905L428.679 59.9315M428.679 32.2097H437.554M428.679 32.2097V22.9687M437.554 32.2097V41.4495M437.554 32.2097V22.9687M437.554 32.2097H446.428M437.554 41.4495V50.6905M437.554 41.4495L446.428 41.4495M437.554 50.6905V59.9315M437.554 50.6905H446.428M419.804 59.9315H428.679M428.679 59.9315H437.554M437.554 59.9315H446.428M419.804 13.7276V-4.75437M419.804 13.7276L437.554 13.7276M419.804 13.7276L419.804 22.9687M419.804 13.7276H428.679M419.804 -4.75437H437.554M437.554 -4.75437L437.554 13.7276M437.554 -4.75437H455.303M437.554 -4.75437L437.554 -23M437.554 13.7276L428.679 13.7276M437.554 13.7276V22.9687M437.554 13.7276L446.428 13.7276M437.554 13.7276L455.303 13.7276M419.804 22.9687H428.679M428.679 22.9687V13.7276M428.679 22.9687H437.554M437.554 22.9687H446.428M446.428 22.9687L446.428 32.2097M446.428 22.9687V13.7276M446.428 22.9687H455.303M446.428 32.2097H455.303M446.428 32.2097L446.428 41.4495M446.428 13.7276H455.303M455.303 13.7276V22.9687M455.303 13.7276L455.303 -4.75437M455.303 13.7276L473.053 13.7276M455.303 13.7276H464.178M455.303 22.9687V32.2097M455.303 22.9687H464.178M455.303 32.2097H464.178M455.303 32.2097V41.4495M455.303 -4.75437H473.053M455.303 -4.75437L455.303 -23M473.053 -4.75437V13.7276M473.053 -4.75437V4.48664M473.053 -4.75437H481.928M473.053 -4.75437V-23M473.053 -4.75437H508.552M473.053 13.7276L464.178 13.7276M473.053 13.7276V22.9687M473.053 13.7276L481.928 13.7276M473.053 13.7276V4.48664M464.178 22.9687V32.2097M464.178 22.9687V13.7276M464.178 22.9687H473.053M464.178 32.2097H473.053M464.178 32.2097V41.4495M473.053 22.9687V32.2097M473.053 22.9687H481.928M473.053 32.2097V41.4495M473.053 32.2097H481.928M446.428 59.9315L446.428 69.1725M446.428 59.9315V50.6905M446.428 59.9315H455.303M446.428 69.1725H455.303M446.428 50.6905H455.303M446.428 50.6905V41.4495M455.303 50.6905V59.9315M455.303 50.6905V41.4495M455.303 50.6905H464.178M455.303 59.9315V69.1725M455.303 59.9315H464.178M455.303 69.1725H464.178M446.428 41.4495L455.303 41.4495M455.303 41.4495L464.178 41.4495M464.178 41.4495V50.6905M464.178 41.4495L473.053 41.4495M464.178 50.6905H473.053M464.178 50.6905V59.9315M473.053 41.4495V50.6905M473.053 41.4495L481.928 41.4495M473.053 50.6905V59.9315M473.053 50.6905H481.928M464.178 59.9315V69.1725M464.178 59.9315H473.053M473.053 59.9315H481.928M481.928 59.9315V69.1725M481.928 59.9315V50.6905M481.928 59.9315H490.802M481.928 50.6905H490.802M481.928 50.6905V41.4495M490.802 50.6905V59.9315M490.802 50.6905V41.4495M490.802 50.6905H499.677M490.802 50.6905H508.552M481.928 41.4495V32.2097M481.928 41.4495L490.802 41.4495M481.928 32.2097H490.802M481.928 32.2097V22.9687M490.802 32.2097V41.4495M490.802 32.2097H499.677M490.802 32.2097V22.9687M490.802 41.4495L499.677 41.4495M499.677 41.4495L499.677 50.6905M499.677 41.4495V32.2097M499.677 41.4495L508.552 41.4495M499.677 50.6905H508.552M499.677 32.2097H508.552M499.677 32.2097V22.9687M508.552 32.2097V41.4495M508.552 32.2097V22.9687M508.552 32.2097H517M508.552 41.4495V50.6905M508.552 41.4495L517 41.4495M508.552 50.6905V59.9315M508.552 50.6905H517M481.928 22.9687V13.7276M481.928 22.9687H490.802M481.928 13.7276H490.802M481.928 13.7276V4.48664M490.802 13.7276V22.9687M490.802 13.7276V4.48664M490.802 13.7276H499.677M490.802 22.9687H499.677M473.053 4.48664H481.928M481.928 4.48664V-4.75437M481.928 4.48664H490.802M481.928 -4.75437H490.802M490.802 -4.75437V4.48664M490.802 -4.75437H499.677M490.802 4.48664H499.677M499.677 4.48664L499.677 13.7276M499.677 4.48664V-4.75437M499.677 4.48664H508.552M499.677 13.7276H508.552M499.677 13.7276L499.677 22.9687M499.677 -4.75437H508.552M508.552 -4.75437V4.48664M508.552 -4.75437H517M508.552 -4.75437V-23M508.552 4.48664V13.7276M508.552 4.48664H517M508.552 13.7276V22.9687M508.552 13.7276H517M499.677 22.9687H508.552M508.552 22.9687H517M508.552 59.9315H517M-59.4351 -23V-4.75437M-59.4351 -4.75437H-41.6849M-41.6849 -23V-4.75437M153.56 -13.9942H162.435M162.435 -13.9942L162.435 -23M162.435 -13.9942H171.309M171.309 -23V-13.9942M171.309 -13.9942H180.184M180.184 -13.9942L180.184 -23M180.184 -13.9942H189.059M313.307 -23V-4.75437" stroke="#38384D" stroke-width="2" stroke-linecap="round" stroke-linejoin="round"/>
</svg>
