<svg width="100" height="100" viewBox="0 0 100 100" fill="none" xmlns="http://www.w3.org/2000/svg">
  <circle cx="50" cy="50" r="50" fill="#F49B33"/>
  <circle cx="50" cy="50" r="50" fill="url(#aave_gradient)"/>
  <path d="M73.4423 68.0145L56.9794 28.0691C56.6966 27.1891 56.1453 26.4199 55.4028 25.8694C54.6604 25.3189 53.7642 25.0149 52.84 25H51.392C50.4706 25.0181 49.5779 25.3237 48.8386 25.8739C48.0993 26.4242 47.5503 27.1917 47.2684 28.0691L40.1072 45.4764H34.6773C33.8965 45.4846 33.1503 45.7995 32.5997 46.3531C32.0491 46.9066 31.7382 47.6545 31.7341 48.4353V48.4668C31.7382 49.2475 32.0491 49.9954 32.5997 50.549C33.1503 51.1025 33.8965 51.4174 34.6773 51.4257H37.589L30.7583 68.0145C30.6282 68.3784 30.559 68.7613 30.5537 69.1477C30.5217 69.9638 30.8097 70.7601 31.3564 71.3669C31.6391 71.6567 31.9807 71.8825 32.3581 72.0291C32.7354 72.1757 33.1399 72.2397 33.5441 72.2168C34.1556 72.2082 34.7495 72.0102 35.2439 71.6502C35.7585 71.2646 36.1607 70.7484 36.4086 70.155L43.9475 51.4257H49.1571C49.9406 51.4215 50.6908 51.1085 51.2448 50.5545C51.7988 50.0004 52.1119 49.2502 52.116 48.4668V48.3881C52.1119 47.6046 51.7988 46.8544 51.2448 46.3004C50.6908 45.7463 49.9406 45.4333 49.1571 45.4291H46.3713L52.116 31.0752L67.7763 70.155C68.0242 70.7484 68.4263 71.2646 68.941 71.6502C69.4354 72.0102 70.0292 72.2082 70.6408 72.2168C71.0476 72.242 71.455 72.1791 71.8353 72.0324C72.2155 71.8857 72.5597 71.6587 72.8442 71.3669C73.3852 70.7577 73.6675 69.9616 73.6312 69.1477C73.651 68.7608 73.5866 68.3741 73.4423 68.0145Z" fill="white"/>
  <defs>
    <linearGradient id="aave_gradient" x1="-5" y1="68" x2="106.944" y2="65.2778" gradientUnits="userSpaceOnUse">
      <stop stop-color="#30BAC6"/>
      <stop offset="1" stop-color="#B6509E"/>
    </linearGradient>
  </defs>
</svg>
