<svg width="148" height="148" viewBox="0 0 148 148" fill="none" xmlns="http://www.w3.org/2000/svg">
  <rect width="148" height="148" rx="74" fill="#0033AD"/>
  <path d="M51.4155 73.8688C51.2022 77.5753 54.0554 80.7485 57.7619 80.9618C57.8953 80.9618 58.0286 80.9618 58.1619 80.9618C61.8951 80.9618 64.9083 77.9486 64.8816 74.2154C64.8816 70.4822 61.8684 67.469 58.1353 67.4957C54.5621 67.4957 51.6022 70.2956 51.4155 73.8688Z" fill="white"/>
  <path d="M26.2955 72.1355C25.0955 72.0555 24.0556 72.9888 24.0022 74.1887C23.9489 75.3887 24.8555 76.4287 26.0555 76.482C27.2554 76.562 28.2687 75.6287 28.3487 74.4287C28.4287 73.2288 27.4954 72.2155 26.2955 72.1355Z" fill="white"/>
  <path d="M50.989 34.777C52.0556 34.2437 52.4823 32.9104 51.9489 31.8438C51.4156 30.7772 50.0824 30.3505 49.0157 30.8838C47.9491 31.4171 47.5225 32.7238 48.0558 33.7904C48.5891 34.8837 49.8957 35.337 50.989 34.777C50.9623 34.777 50.989 34.777 50.989 34.777Z" fill="white"/>
  <path d="M57.8144 46.6965C59.4677 45.8699 60.1343 43.8433 59.3077 42.19C58.481 40.5368 56.4544 39.8701 54.8012 40.6968C53.1479 41.5234 52.4813 43.55 53.3079 45.2032C54.1345 46.8565 56.1611 47.5232 57.8144 46.6965Z" fill="white"/>
  <path d="M34.829 54.8829C36.1089 55.7095 37.8155 55.3628 38.6688 54.0829C39.4955 52.803 39.1488 51.0964 37.8689 50.2431C36.5889 49.4164 34.8823 49.7631 34.029 51.043C33.1757 52.323 33.549 54.0562 34.829 54.8829Z" fill="white"/>
  <path d="M38.9086 70.9355C37.042 70.8289 35.4688 72.2422 35.3621 74.1088C35.2554 75.9753 36.6687 77.5486 38.5353 77.6553C40.4019 77.7619 41.9752 76.3487 42.0818 74.4821C42.1885 72.6421 40.7752 71.0422 38.9086 70.9355Z" fill="white"/>
  <path d="M35.2004 93.5213C33.8405 94.2146 33.2805 95.8679 33.9738 97.2545C34.6671 98.6144 36.3204 99.1744 37.707 98.4811C39.067 97.7878 39.6269 96.1345 38.9336 94.7479C38.2403 93.388 36.5604 92.828 35.2004 93.5213Z" fill="white"/>
  <path d="M48.2693 63.9758C50.1092 65.1758 52.5625 64.6691 53.7357 62.8292C54.9357 60.9893 54.4291 58.5361 52.5891 57.3628C50.7492 56.1628 48.296 56.6695 47.1227 58.5094C45.9227 60.3227 46.4294 62.7759 48.2693 63.9758Z" fill="white"/>
  <path d="M89.7342 46.4299C91.2808 47.4432 93.3874 47.0165 94.4007 45.4699C95.414 43.9233 94.9874 41.8167 93.4408 40.8034C91.8942 39.7901 89.7876 40.2168 88.7743 41.7634C87.7343 43.3367 88.161 45.4166 89.7342 46.4299Z" fill="white"/>
  <path d="M96.6133 34.5637C97.6266 35.2303 98.9598 34.937 99.6265 33.9237C100.293 32.9104 99.9998 31.5771 98.9865 30.9105C97.9732 30.2439 96.6399 30.5372 95.9733 31.5238C95.3333 32.5371 95.6266 33.897 96.6133 34.5637Z" fill="white"/>
  <path d="M90.239 67.4424C86.5325 67.229 83.3326 70.0823 83.146 73.7888C82.9327 77.4953 85.7859 80.6952 89.4924 80.8818C89.6257 80.8818 89.7591 80.8818 89.8657 80.8818C93.5722 80.8818 96.5855 77.8686 96.5855 74.1354C96.6121 70.5889 93.8122 67.629 90.239 67.4424Z" fill="white"/>
  <path d="M60.0279 63.4959C61.1745 65.7624 63.4944 67.2024 66.0543 67.2024C69.7608 67.2024 72.774 64.1892 72.774 60.456C72.774 59.416 72.534 58.3761 72.054 57.4161C70.3741 54.0829 66.3209 52.7496 63.0144 54.4296C59.6812 56.1361 58.3479 60.1893 60.0279 63.4959Z" fill="white"/>
  <path d="M112.799 54.8829C114.159 54.1896 114.692 52.5096 113.999 51.1497C113.306 49.7897 111.626 49.2564 110.266 49.9497C108.906 50.643 108.373 52.2963 109.039 53.6562C109.759 55.0162 111.413 55.5762 112.799 54.8829Z" fill="white"/>
  <path d="M95.733 57.0161C93.7864 58.0027 92.9864 60.376 93.973 62.3226C94.9597 64.2692 97.3329 65.0691 99.2795 64.0825C101.226 63.0959 102.026 60.7226 101.039 58.776C100.053 56.8295 97.6795 56.0562 95.733 57.0161Z" fill="white"/>
  <path d="M73.7343 33.5504C75.2542 33.6304 76.5608 32.4571 76.6675 30.9372C76.7742 29.4172 75.5742 28.1106 74.0543 28.0039C72.5343 27.9239 71.2277 29.0706 71.121 30.5905C71.0411 32.1371 72.2143 33.4437 73.7343 33.5504Z" fill="white"/>
  <path d="M73.7068 50.963C75.8934 51.0964 77.76 49.4164 77.8667 47.2298C78 45.0433 76.32 43.1767 74.1335 43.07C71.9469 42.9367 70.0803 44.6166 69.9736 46.8032C69.867 48.9898 71.5202 50.8564 73.7068 50.963Z" fill="white"/>
  <path d="M52.2668 91.388C54.2134 90.4014 55.0133 88.0282 54.0267 86.0816C53.0401 84.135 50.6669 83.335 48.7203 84.3217C46.7737 85.3083 45.9737 87.6815 46.9603 89.6281C47.947 91.5747 50.3202 92.3747 52.2668 91.388Z" fill="white"/>
  <path d="M76.2669 56.7495C74.2403 59.8693 75.0936 64.0292 78.2135 66.0557C81.3333 68.0823 85.4932 67.229 87.5198 64.1092C89.5463 60.9893 88.693 56.8295 85.5732 54.8029C84.4799 54.0829 83.1999 53.7096 81.8933 53.7096C79.6267 53.7096 77.5202 54.8562 76.2669 56.7495Z" fill="white"/>
  <path d="M87.973 84.9083C86.2931 81.5751 82.2399 80.2418 78.9334 81.9218C75.6002 83.6017 74.2669 87.6549 75.9468 90.9614C77.6267 94.2946 81.6799 95.6279 84.9864 93.948C88.293 92.2947 89.6529 88.2949 87.9997 84.9617C87.9997 84.935 87.9997 84.935 87.973 84.9083Z" fill="white"/>
  <path d="M99.7327 84.4283C97.8928 83.2284 95.4395 83.735 94.2662 85.575C93.0663 87.4149 93.5729 89.8681 95.4129 91.0414C97.2528 92.2414 99.706 91.7347 100.879 89.8948C102.079 88.0815 101.573 85.6283 99.7327 84.4283Z" fill="white"/>
  <path d="M112.638 74.3221C112.745 72.4555 111.332 70.8822 109.465 70.7756C107.599 70.6689 106.025 72.0822 105.919 73.9488C105.812 75.8154 107.225 77.3886 109.092 77.4953C110.932 77.602 112.532 76.162 112.638 74.3221Z" fill="white"/>
  <path d="M121.944 71.9222C120.744 71.8422 119.704 72.7755 119.651 73.9754C119.597 75.1754 120.504 76.2153 121.704 76.2687C122.904 76.3487 123.917 75.4154 123.997 74.2154C124.05 73.0155 123.144 72.0022 121.944 71.9222Z" fill="white"/>
  <path d="M113.171 93.5213C111.891 92.6947 110.184 93.0413 109.331 94.3213C108.504 95.6012 108.851 97.3078 110.131 98.1611C111.411 98.9877 113.117 98.6411 113.971 97.3611C114.824 96.0812 114.451 94.3479 113.171 93.5213Z" fill="white"/>
  <path d="M51.3608 113.84C50.3475 113.174 49.0142 113.467 48.3475 114.454C47.6809 115.467 47.9742 116.8 48.9609 117.467C49.9741 118.134 51.3074 117.84 51.9741 116.854C52.6674 115.867 52.3741 114.507 51.3608 113.84Z" fill="white"/>
  <path d="M97.0138 113.627C95.9471 114.16 95.5205 115.494 96.0538 116.56C96.5871 117.627 97.9204 118.054 98.987 117.52C100.054 116.987 100.48 115.68 99.947 114.614C99.4137 113.521 98.1071 113.067 97.0138 113.627C97.0404 113.627 97.0138 113.627 97.0138 113.627Z" fill="white"/>
  <path d="M71.733 91.6547C73.7596 88.5348 72.9063 84.375 69.7864 82.3218C66.6665 80.2952 62.5067 81.1485 60.4534 84.2683C58.4002 87.3882 59.2802 91.5481 62.4 93.6013C63.4933 94.3213 64.7733 94.6946 66.0799 94.6946C68.3731 94.7213 70.4797 93.5746 71.733 91.6547Z" fill="white"/>
  <path d="M58.2679 101.974C56.7213 100.961 54.6147 101.388 53.6014 102.934C52.5881 104.481 53.0147 106.587 54.5613 107.601C56.1079 108.614 58.2145 108.187 59.2278 106.641C60.2678 105.094 59.8411 102.988 58.2679 101.974Z" fill="white"/>
  <path d="M73.974 114.854C72.4541 114.774 71.1474 115.947 71.0408 117.467C70.9341 118.987 72.1341 120.294 73.654 120.4C75.1739 120.48 76.4806 119.334 76.5872 117.814C76.6672 116.267 75.4939 114.96 73.974 114.854Z" fill="white"/>
  <path d="M74.0003 97.4412C71.8137 97.3078 69.9471 98.9878 69.8404 101.174C69.7071 103.361 71.387 105.228 73.5736 105.334C75.7602 105.441 77.6268 103.788 77.7334 101.601C77.8668 99.4411 76.1868 97.5478 74.0003 97.4412Z" fill="white"/>
  <path d="M90.1863 101.708C88.533 102.561 87.8664 104.588 88.7197 106.241C89.573 107.894 91.5996 108.561 93.2529 107.707C94.9061 106.881 95.5728 104.854 94.7461 103.201C93.8928 101.548 91.8662 100.854 90.1863 101.708Z" fill="white"/>
</svg>
