<svg width="148" height="148" viewBox="0 0 148 148" fill="none" xmlns="http://www.w3.org/2000/svg">
  <path d="M74 148C114.869 148 148 114.869 148 74C148 33.1309 114.869 0 74 0C33.1309 0 0 33.1309 0 74C0 114.869 33.1309 148 74 148Z" fill="black"/>
  <path d="M49.315 107L59.6195 89.2187L69.9239 71.5L80.1655 53.7187L81.8619 50.9012L82.6159 53.7187L85.7575 65.4268L82.2389 71.5L71.9345 89.2187L61.6929 107H74.008L84.3124 89.2187L89.6531 80.015L92.1664 89.2187L96.9416 107H108L103.225 89.2187L98.4496 71.5L97.1929 66.9295L104.858 53.7187H93.6743L93.2973 52.4039L89.4018 37.8783L88.8991 36H78.1549L77.9035 36.3757L67.8504 53.7187L57.546 71.5L47.3044 89.2187L37 107H49.315Z" fill="white"/>
</svg>
