<svg width="148" height="148" viewBox="0 0 148 148" fill="none" xmlns="http://www.w3.org/2000/svg">
  <path d="M74 148C114.869 148 148 114.869 148 74C148 33.1309 114.869 0 74 0C33.1309 0 0 33.1309 0 74C0 114.869 33.1309 148 74 148Z" fill="#2E3148"/>
  <path d="M73.9999 116.938C97.7141 116.938 116.938 97.7142 116.938 74C116.938 50.2858 97.7141 31.0616 73.9999 31.0616C50.2857 31.0616 31.0615 50.2858 31.0615 74C31.0615 97.7142 50.2857 116.938 73.9999 116.938Z" fill="#1B1E36"/>
  <path d="M74.1515 9.44064C66.1636 9.44064 59.6865 38.4131 59.6865 74.1527C59.6865 109.892 66.1636 138.865 74.1515 138.865C82.1393 138.865 88.6164 109.892 88.6164 74.1527C88.6164 38.4131 82.1393 9.44064 74.1515 9.44064ZM75.1502 135.213C74.2367 136.431 73.3233 135.517 73.3233 135.517C69.6446 131.255 67.8052 123.336 67.8052 123.336C61.3708 102.629 62.9023 58.1676 62.9023 58.1676C65.9262 22.8702 71.4271 14.5318 73.299 12.6807C73.4902 12.4917 73.7418 12.3763 74.0097 12.3546C74.2776 12.3329 74.5446 12.4065 74.7636 12.5623C77.4797 14.4868 79.7577 22.5357 79.7577 22.5357C86.4846 47.5068 85.8754 70.9554 85.8754 70.9554C86.4846 91.3586 82.5046 114.198 82.5046 114.198C79.441 131.555 75.1502 135.213 75.1502 135.213Z" fill="#6F7390"/>
  <path d="M130.282 41.9485C126.305 35.0174 97.9536 43.8181 66.9381 61.6029C35.9227 79.3878 14.0447 99.4252 18.0188 106.353C21.9929 113.282 50.3473 104.484 81.3628 86.699C112.378 68.9141 134.256 48.8767 130.282 41.9485ZM21.688 105.403C20.1654 105.211 20.5094 103.959 20.5094 103.959C22.3771 98.6485 28.3208 93.1121 28.3208 93.1121C43.087 77.2252 82.4172 56.4288 82.4172 56.4288C114.536 41.4856 124.512 42.1161 127.043 42.8128C127.302 42.8854 127.528 43.0475 127.68 43.2705C127.832 43.4934 127.899 43.7629 127.872 44.0312C127.567 47.3464 121.705 53.3256 121.705 53.3256C103.405 71.5941 82.7611 82.7367 82.7611 82.7367C65.3664 93.4223 43.5749 101.331 43.5749 101.331C26.9935 107.306 21.6886 105.403 21.6886 105.403H21.688Z" fill="#6F7390"/>
  <path d="M130.143 106.584C134.15 99.6714 112.328 79.5423 81.421 61.6236C50.5145 43.705 22.1666 34.7954 18.1623 41.72C14.158 48.6446 35.9773 68.7619 66.9016 86.6806C97.8259 104.599 126.138 113.509 130.143 106.584ZM20.818 44.3911C20.226 42.9875 21.4757 42.6494 21.4757 42.6494C27.0085 41.6046 34.7803 43.9856 34.7803 43.9856C55.9236 48.8003 93.6251 72.4164 93.6251 72.4164C122.653 92.7285 127.104 101.675 127.772 104.215C127.839 104.476 127.813 104.752 127.697 104.995C127.581 105.238 127.383 105.432 127.138 105.543C124.111 106.929 116.004 104.864 116.004 104.864C91.0179 98.1642 71.0349 85.8891 71.0349 85.8891C53.0802 76.2052 35.3261 61.3045 35.3261 61.3045C21.8356 49.9458 20.8221 44.4065 20.8221 44.4065L20.818 44.3911Z" fill="#6F7390"/>
  <path d="M73.9998 81.6131C78.2045 81.6131 81.613 78.2046 81.613 74C81.613 69.7954 78.2045 66.3869 73.9998 66.3869C69.7952 66.3869 66.3867 69.7954 66.3867 74C66.3867 78.2046 69.7952 81.6131 73.9998 81.6131Z" fill="#B7B9C8"/>
  <path d="M105.214 49.3331C107.652 49.3331 109.629 47.288 109.629 44.7653C109.629 42.2425 107.652 40.1974 105.214 40.1974C102.775 40.1974 100.798 42.2425 100.798 44.7653C100.798 47.288 102.775 49.3331 105.214 49.3331Z" fill="#B7B9C8"/>
  <path d="M32.736 64.8643C35.1748 64.8643 37.1518 62.8192 37.1518 60.2964C37.1518 57.7736 35.1748 55.7285 32.736 55.7285C30.2973 55.7285 28.3203 57.7736 28.3203 60.2964C28.3203 62.8192 30.2973 64.8643 32.736 64.8643Z" fill="#B7B9C8"/>
  <path d="M65.0163 120.897C67.4551 120.897 69.4321 118.852 69.4321 116.329C69.4321 113.806 67.4551 111.761 65.0163 111.761C62.5776 111.761 60.6006 113.806 60.6006 116.329C60.6006 118.852 62.5776 120.897 65.0163 120.897Z" fill="#B7B9C8"/>
</svg>
