<svg width="148" height="148" viewBox="0 0 148 148" fill="none" xmlns="http://www.w3.org/2000/svg">
    <path d="M74 148C114.869 148 148 114.869 148 74C148 33.1309 114.869 0 74 0C33.1309 0 0 33.1309 0 74C0 114.869 33.1309 148 74 148Z" fill="#E84142"/>
    <path d="M95.6566 75.475C97.8326 71.7272 101.344 71.7272 103.52 75.475L117.071 99.1948C119.247 102.943 117.467 106 113.115 106H85.8147C81.512 106 79.7315 102.943 81.8582 99.1948L95.6566 75.475ZM69.4446 29.8109C71.6207 26.063 75.0826 26.063 77.2587 29.8109L80.2756 35.2353L87.3973 47.7116C89.1283 51.2622 89.1283 55.4538 87.3973 59.0044L63.5098 100.28C61.3337 103.633 57.7233 105.753 53.7174 106H33.8853C29.5331 106 27.7527 102.992 29.9287 99.1948L69.4446 29.8109Z" fill="white"/>
</svg>
