<svg width="148" height="148" viewBox="0 0 148 148" fill="none" xmlns="http://www.w3.org/2000/svg">
  <path d="M74 148C114.869 148 148 114.869 148 74C148 33.1309 114.869 0 74 0C33.1309 0 0 33.1309 0 74C0 114.869 33.1309 148 74 148Z" fill="#8DC351"/>
  <path d="M95.312 51.0435C92.0582 42.7748 83.8972 42.0306 74.3981 43.8743L71.0153 32.0784L63.8397 34.1395L67.1306 45.6254C65.2432 46.1632 63.329 46.7552 61.4184 47.3451L58.1079 35.7833L50.9302 37.8408L54.3109 49.6331C52.7654 50.1091 51.2459 50.5797 49.7574 51.0034L49.7458 50.9666L39.8424 53.8038L42.042 61.4707C42.042 61.4707 47.3167 59.8486 47.2564 59.9706C50.1649 59.1386 51.593 60.5556 52.2882 61.9357L56.1432 75.3713C56.3426 75.3143 56.6055 75.2497 56.9163 75.201L56.1575 75.4212L61.555 94.2453C61.6871 95.1953 61.568 96.8085 59.5352 97.3963C59.6529 97.4493 54.3186 98.8928 54.3186 98.8928L55.3498 107.873L64.6953 105.194C66.4332 104.699 68.1524 104.239 69.8316 103.768L73.2561 115.694L80.4281 113.635L77.0452 101.84C79.0253 101.311 80.9356 100.78 82.797 100.247L86.1619 111.995L93.3375 109.934L89.9256 98.0291C101.799 93.8752 109.374 88.4129 107.173 76.777C105.404 67.4087 99.9422 64.564 92.619 64.8852C96.1769 61.5724 97.7056 57.0927 95.312 51.0435ZM92.5792 79.4318C95.1447 88.3447 79.5852 91.7073 74.7198 93.1076L70.1927 77.3005C75.0623 75.9075 89.9174 70.134 92.5792 79.4318ZM82.8475 58.0898C85.1733 66.2018 72.1699 68.902 68.1204 70.0636L64.0107 55.7342C68.0602 54.5726 80.4218 49.6287 82.8475 58.0898Z" fill="white"/>
</svg>
