<svg width="142" height="142" viewBox="0 0 142 142" fill="none" xmlns="http://www.w3.org/2000/svg">
<path d="M71 142C110.212 142 142 110.212 142 71C142 31.7878 110.212 0 71 0C31.7878 0 0 31.7878 0 71C0 110.212 31.7878 142 71 142Z" fill="#F4CE6F"/>
<path d="M61.9103 105.541C75.9665 105.541 87.3612 94.1458 87.3612 80.0896C87.3612 66.0334 75.9665 54.6387 61.9103 54.6387C47.8541 54.6387 36.4594 66.0334 36.4594 80.0896C36.4594 94.1458 47.8541 105.541 61.9103 105.541ZM61.9103 114.176C43.0857 114.176 27.8242 98.9142 27.8242 80.0896C27.8242 61.265 43.0857 46.0036 61.9103 46.0036C80.7349 46.0036 95.9963 61.265 95.9963 80.0896C95.9963 98.9142 80.7349 114.176 61.9103 114.176Z" fill="white"/>
<path d="M80.0861 87.3613C94.1422 87.3613 105.537 75.9666 105.537 61.9104C105.537 47.8542 94.1422 36.4595 80.0861 36.4595C66.0299 36.4595 54.6351 47.8542 54.6351 61.9104C54.6351 75.9666 66.0299 87.3613 80.0861 87.3613ZM80.0861 95.9965C61.2615 95.9965 46 80.735 46 61.9104C46 43.0858 61.2615 27.8243 80.0861 27.8243C98.9107 27.8243 114.172 43.0858 114.172 61.9104C114.172 80.735 98.9107 95.9965 80.0861 95.9965Z" fill="white"/>
</svg>
