<svg width="148" height="148" viewBox="0 0 148 148" fill="none" xmlns="http://www.w3.org/2000/svg">
  <circle cx="74" cy="74" r="74" fill="black"/>
  <path fill-rule="evenodd" clip-rule="evenodd" d="M42.7346 99.7151C40.6809 98.4594 39.4248 96.2223 39.4248 93.8205V80.4073C39.4248 79.8935 39.5624 79.3984 39.819 78.9584C40.6167 77.5834 42.3862 77.1159 43.7614 77.9227L74.035 95.5714C75.8045 96.6071 76.8962 98.4959 76.8962 100.549V114.449C76.8962 115.081 76.7217 115.714 76.3914 116.255C75.3922 117.886 73.2655 118.4 71.6332 117.401L42.7346 99.7151ZM87.8614 74.2462C89.6309 75.2822 90.7218 77.1711 90.7218 79.2247V107.426C90.7218 108.261 90.2721 109.03 89.5481 109.433L82.9198 113.165C82.837 113.211 82.7453 113.248 82.6536 113.275V97.616C82.6536 95.59 81.5902 93.7102 79.8483 92.6647L53.2598 76.758V59.0819C53.2598 58.5685 53.3974 58.0735 53.6541 57.6334C54.4517 56.2581 56.2212 55.7906 57.5965 56.5974L87.8614 74.2462ZM101.11 53.416C102.888 54.4429 103.979 56.3499 103.979 58.4035V99.5965C103.979 100.44 103.512 101.219 102.769 101.623L96.4888 105.015V76.3367C96.4888 74.3104 95.4248 72.4401 93.6926 71.3948L66.5173 55.0938V38.3252C66.5173 37.8118 66.6548 37.3166 66.9024 36.8766C67.7 35.5014 69.4695 35.0338 70.8447 35.8314L101.11 53.416Z" fill="#00D395"/>
</svg>
