<svg width="148" height="148" viewBox="0 0 148 148" fill="none" xmlns="http://www.w3.org/2000/svg">
  <path d="M74 1C114.32 1 147 33.6861 147 74C147 114.32 114.32 147 74 147C33.6861 147 1 114.317 1 74C1 33.6861 33.6861 1 74 1Z" fill="#F5AC37"/>
  <path d="M75.6908 78.1548H103.43C104.021 78.1548 104.3 78.1548 104.343 77.3796C104.57 74.5577 104.57 71.7194 104.343 68.8943C104.343 68.3457 104.07 68.119 103.476 68.119H48.2706C47.5873 68.119 47.4034 68.3457 47.4034 68.9863V77.1069C47.4034 78.1548 47.4034 78.1548 48.4973 78.1548H75.6908V78.1548ZM101.245 58.6286C101.324 58.4216 101.324 58.195 101.245 57.9913C100.782 56.9828 100.233 56.0203 99.596 55.1169C98.6367 53.5729 97.5067 52.1505 96.219 50.8726C95.6112 50.1006 94.9082 49.4075 94.1198 48.8195C90.1712 45.4589 85.4769 43.0805 80.4311 41.8848C77.8852 41.3132 75.2834 41.0405 72.6751 41.0635H48.1753C47.4921 41.0635 47.4001 41.3362 47.4001 41.9308V58.126C47.4001 58.8093 47.4001 58.9932 48.2673 58.9932H100.917C100.917 58.9932 101.373 58.9012 101.465 58.6286H101.242H101.245ZM101.245 87.6453C100.47 87.5599 99.688 87.5599 98.9127 87.6453H48.3166C47.6333 87.6453 47.4034 87.6453 47.4034 88.5585V104.392C47.4034 105.122 47.4034 105.306 48.3166 105.306H71.6765C72.7934 105.391 73.9103 105.312 75.0042 105.079C78.3944 104.836 81.7287 104.1 84.9086 102.888C86.0649 102.487 87.1818 101.965 88.2363 101.337H88.555C94.0311 98.4892 98.4791 94.015 101.284 88.5224C101.284 88.5224 101.603 87.8325 101.245 87.6518V87.6453ZM38.2348 113.515V113.242V102.612V99.0082V88.2859C38.2348 87.6913 38.2348 87.6026 37.5056 87.6026H27.6045C27.0559 87.6026 26.8292 87.6026 26.8292 86.8733V78.2041H37.4136C38.0049 78.2041 38.2348 78.2041 38.2348 77.4288V68.8516C38.2348 68.303 38.2348 68.1683 37.5056 68.1683H27.6045C27.0559 68.1683 26.8292 68.1683 26.8292 67.439V59.4104C26.8292 58.9078 26.8292 58.7731 27.5585 58.7731H37.3676C38.0509 58.7731 38.2348 58.7731 38.2348 57.9059V33.3141C38.2348 32.5848 38.2348 32.4009 39.1481 32.4009H73.365C75.8485 32.4994 78.3155 32.7721 80.7563 33.2221C85.7857 34.1518 90.618 35.9487 95.0363 38.5143C97.9666 40.239 100.664 42.3217 103.065 44.7198C104.872 46.5955 106.501 48.6257 107.947 50.7872C109.382 52.9783 110.575 55.3206 111.511 57.7679C111.626 58.4052 112.237 58.8355 112.874 58.7271H121.041C122.089 58.7271 122.089 58.7271 122.135 59.7324V67.2157C122.135 67.9449 121.862 68.1289 121.129 68.1289H114.832C114.195 68.1289 114.011 68.1289 114.057 68.9502C114.306 71.7293 114.306 74.5183 114.057 77.2974C114.057 78.0727 114.057 78.1647 114.927 78.1647H122.131C122.45 78.5753 122.131 78.9859 122.131 79.3998C122.177 79.9287 122.177 80.4642 122.131 80.9931V86.5152C122.131 87.2905 121.905 87.5204 121.218 87.5204H112.595C111.994 87.4055 111.409 87.7898 111.271 88.3877C109.218 93.7259 105.933 98.5122 101.689 102.349C100.138 103.745 98.5086 105.059 96.807 106.271C94.9805 107.323 93.2033 108.417 91.3308 109.284C87.8848 110.834 84.2713 111.978 80.5625 112.703C77.0409 113.334 73.4701 113.62 69.8861 113.571H38.2217V113.525L38.2348 113.515Z" fill="#FEFEFD"/>
</svg>
