<svg width="142" height="142" viewBox="0 0 142 142" fill="none" xmlns="http://www.w3.org/2000/svg">
  <path d="M71 142C110.212 142 142 110.212 142 71C142 31.7878 110.212 0 71 0C31.7878 0 0 31.7878 0 71C0 110.212 31.7878 142 71 142Z" fill="#7866D5"/>
  <path d="M99.7406 36.4513C102.144 36.7518 104.647 36.952 107.051 37.3526C111.757 38.2539 113.36 40.6573 112.559 45.464C112.358 47.2666 110.956 48.6685 109.154 48.969C108.052 49.1693 106.851 49.2694 105.749 49.1692C90.127 49.1692 74.6052 49.2694 58.9831 49.2694C56.6799 49.2694 54.2765 49.4697 51.9733 49.8702C44.2624 51.0719 41.2582 54.2764 40.6573 62.0874C40.3569 65.6925 40.3569 65.6925 44.0621 65.6925H106.15C106.75 65.6925 107.351 65.6925 107.952 65.6925C108.954 65.6925 109.855 65.9929 110.756 66.4937C113.56 68.2962 112.859 71.2003 112.759 73.8039C112.659 75.9069 111.357 77.1086 109.154 77.5092C108.253 77.7094 107.351 77.7094 106.35 77.7094C85.12 77.7094 63.8901 77.7094 42.6602 77.7094C40.3569 77.7094 40.3569 77.7094 40.5572 80.0127C40.6573 82.1157 40.8576 84.2186 41.3583 86.3216C42.3597 90.1269 44.663 92.5303 48.5685 93.6319C52.7744 94.8336 57.1806 95.0339 61.4867 95.134C76.608 95.134 91.8294 95.134 107.051 95.134C108.954 95.134 110.756 95.3343 111.958 97.1368C113.86 100.141 112.859 104.047 109.855 105.949C109.454 106.25 109.054 106.45 108.553 106.55C105.248 107.652 101.844 107.852 98.3386 107.952C84.0184 108.252 69.7984 108.252 55.5784 107.952C51.1721 107.852 46.7659 107.351 42.4599 106.45C32.3456 104.347 27.2384 99.1396 25.536 88.9253C25.1355 86.622 24.9352 84.2186 24.6348 81.8152V63.189C24.835 61.3865 25.0353 59.4838 25.2356 57.6812C26.5374 46.165 31.7448 40.457 43.0607 37.8533C47.0664 36.952 51.2723 36.7518 55.2779 36.3512L99.7406 36.4513Z" fill="white"/>
  <path d="M76.9082 109.955C69.698 109.955 62.588 109.855 55.478 109.755C50.9717 109.654 46.4653 109.154 42.0591 108.152C31.1437 105.849 25.5358 100.041 23.7333 89.2257C23.4329 87.5233 23.2326 85.8209 23.1325 84.2186C23.0323 83.5176 22.9322 82.8166 22.832 82.0155V81.8152V62.9887L23.0323 61.1862C23.1325 59.8843 23.3327 58.6826 23.4329 57.4809C24.8349 45.1636 30.643 38.8547 42.7601 36.1509C45.9646 35.4499 49.069 35.1495 52.1734 34.8491C53.1748 34.7489 54.1762 34.6488 55.1776 34.5486H55.3779H99.9406H100.041C100.742 34.6488 101.543 34.7489 102.244 34.7489C103.946 34.9492 105.649 35.0494 107.451 35.4499C113.159 36.5515 115.362 39.756 114.361 45.5642C114.061 48.0677 112.058 50.1706 109.354 50.5712C108.152 50.7715 106.951 50.8716 105.649 50.8716C90.1268 50.9718 74.5048 51.0719 58.9829 51.0719C56.7798 51.0719 54.4766 51.2722 52.2735 51.6728C45.3638 52.7743 43.0605 55.2778 42.4597 62.2877C42.4597 62.8886 42.3595 63.4894 42.3595 63.9901C42.7601 63.9901 43.4611 63.9901 44.0619 63.9901H107.952C109.254 63.9901 110.556 64.3907 111.657 64.9915C115.062 67.1946 114.762 70.4993 114.561 72.9027C114.561 73.2031 114.461 73.6037 114.461 73.9041C114.261 76.708 112.558 78.6107 109.454 79.2116C108.352 79.4118 107.351 79.4118 106.35 79.4118H42.7601C42.66 79.4118 42.4597 79.4118 42.3595 79.4118C42.3595 79.512 42.3595 79.6121 42.3595 79.7123V79.8124C42.4597 81.9154 42.66 83.9182 43.1607 85.921C43.9618 89.0254 45.8645 90.9281 49.069 91.8293C53.375 93.031 57.7813 93.2313 61.5866 93.2313C73.4033 93.3314 85.4202 93.3314 97.1367 93.3314H107.151C108.653 93.3314 111.757 93.3314 113.56 96.2355C114.762 98.1382 115.062 100.341 114.561 102.444C114.061 104.547 112.759 106.35 110.856 107.551C110.355 107.852 109.754 108.152 109.154 108.353C105.448 109.554 101.643 109.755 98.4385 109.855C91.3285 109.855 84.1184 109.955 76.9082 109.955ZM26.4371 81.7151C26.5373 82.4161 26.6374 83.1171 26.6374 83.818C26.8377 85.4203 27.038 87.0226 27.2382 88.6248C28.8405 98.0381 33.3468 102.645 42.7601 104.647C46.966 105.549 51.2721 106.049 55.5782 106.149C69.698 106.45 84.1183 106.45 98.3384 106.149C101.242 106.049 104.747 105.849 107.952 104.848C108.252 104.748 108.553 104.547 108.853 104.447C109.855 103.746 110.656 102.745 110.956 101.543C111.257 100.341 111.056 99.1396 110.355 98.0381C109.754 97.1368 108.953 96.8364 107.051 96.8364H97.0365C85.4202 96.8364 73.3031 96.8364 61.4865 96.7362C57.4808 96.7362 52.7742 96.536 48.0676 95.134C43.5612 93.9323 40.7573 91.0282 39.6557 86.5219C39.155 84.3187 38.8546 82.0155 38.8546 79.8124V79.7123C38.7545 78.3103 38.6543 77.3089 39.4554 76.4076C40.2566 75.5063 41.3581 75.5063 42.7601 75.5063H106.45C107.251 75.5063 108.152 75.5063 108.953 75.306C110.556 75.0056 110.956 74.3046 111.056 73.3032C111.056 72.9027 111.156 72.6022 111.156 72.2017C111.357 69.6982 111.357 68.4965 109.955 67.5952C109.454 67.2948 108.753 67.0945 108.152 67.0945H44.0619C41.8588 67.0945 40.557 67.0945 39.5556 66.0931C38.5542 65.0917 38.7545 63.6897 38.8546 61.5867C39.5556 52.9746 43.1607 49.0691 51.6726 47.7673C54.076 47.3667 56.4794 47.1664 58.9829 47.0663C74.6049 47.0663 90.1268 46.9661 105.749 46.9661C106.85 46.9661 107.852 46.9661 108.853 46.7659C109.855 46.6657 110.656 45.8646 110.756 44.8632C111.457 40.8575 110.455 39.5557 106.65 38.7546C105.048 38.4541 103.446 38.2539 101.843 38.1537C101.142 38.0536 100.341 37.9534 99.6402 37.9534H55.3779C54.3765 38.0536 53.375 38.1537 52.3736 38.2539C49.2693 38.5543 46.3652 38.7546 43.3609 39.4556C32.8461 42.0592 28.2396 47.1664 27.038 57.9817C26.9378 59.1833 26.7375 60.385 26.6374 61.6869L26.4371 63.3893V81.7151Z" fill="white"/>
</svg>
