<svg width="148" height="148" viewBox="0 0 148 148" fill="none" xmlns="http://www.w3.org/2000/svg">
  <path d="M74 148C114.869 148 148 114.869 148 74C148 33.1309 114.869 0 74 0C33.1309 0 0 33.1309 0 74C0 114.869 33.1309 148 74 148Z" fill="black"/>
  <path d="M74.3571 22L50.1416 55.488L40 104.992L74.3571 126L108.714 104.992L98.3658 55.28L74.3571 22ZM45.5882 102.704L53.2461 65.056L70.6317 118.096L45.5882 102.704ZM55.7298 56.528L74.3571 30.736L92.9845 56.528L74.3571 113.104L55.7298 56.528ZM77.8756 118.096L95.2612 65.056L102.919 102.704L77.8756 118.096Z" fill="white"/>
</svg>
