<svg width="148" height="148" viewBox="0 0 148 148" fill="none" xmlns="http://www.w3.org/2000/svg">
<path d="M74 148C114.869 148 148 114.869 148 74C148 33.1309 114.869 0 74 0C33.1309 0 0 33.1309 0 74C0 114.869 33.1309 148 74 148Z" fill="#3AB83A"/>
<path d="M73.9922 24.6667V61.1322L104.813 74.9044L73.9922 24.6667Z" fill="white" fill-opacity="0.602"/>
<path d="M73.9911 24.6667L43.166 74.9044L73.9911 61.1322V24.6667Z" fill="white"/>
<path d="M73.9922 98.5352V123.313L104.834 80.6436L73.9922 98.5352Z" fill="white" fill-opacity="0.602"/>
<path d="M73.9911 123.313V98.5311L43.166 80.6436L73.9911 123.313Z" fill="white"/>
<path d="M73.9922 92.8001L104.813 74.9045L73.9922 61.1405V92.8001Z" fill="white" fill-opacity="0.2"/>
<path d="M43.166 74.9045L73.9911 92.8001V61.1405L43.166 74.9045Z" fill="white" fill-opacity="0.602"/>
</svg>
