<svg width="148" height="148" viewBox="0 0 148 148" fill="none" xmlns="http://www.w3.org/2000/svg">
  <circle cx="74" cy="74" r="74" fill="#0090FF"/>
  <path fill-rule="evenodd" clip-rule="evenodd" d="M79.2051 67.5505L77.4205 77.0457L94.3744 79.4195L93.1846 83.8704L76.5282 81.4966C75.3385 85.3541 74.7436 89.5082 73.2564 93.069C71.7692 97.2231 70.2821 101.377 68.4974 105.235C66.1179 110.279 61.9538 113.84 56.3026 114.73C53.0308 115.323 49.4615 115.027 46.7846 112.95C45.8923 112.356 45 111.169 45 110.279C45 109.092 45.5949 107.609 46.4872 107.015C47.0821 106.718 48.5692 107.015 49.4615 107.312C50.3538 108.202 51.2462 109.389 51.841 110.576C53.6256 112.95 56.0051 113.246 58.3846 111.466C61.0615 109.092 62.5487 105.828 63.441 102.564C65.2256 95.4428 67.0103 88.6181 68.4974 81.4966V80.3097L52.7333 77.9359L53.3282 73.485L69.6872 75.8588L71.7692 66.6603L54.8154 63.9897L55.4103 59.2421L72.959 61.6159C73.5538 59.8356 73.8513 58.3519 74.4462 56.8683C75.9333 51.5272 77.4205 46.1862 80.9897 41.4385C84.559 36.6909 88.7231 33.7236 94.9692 34.0204C97.6462 34.0204 100.323 34.9106 102.108 36.9876C102.405 37.2844 103 37.8778 103 38.4713C103 39.6582 103 41.1418 102.108 42.032C100.918 42.9222 99.4308 42.6254 98.241 41.4385C97.3487 40.5484 96.7538 39.6582 95.8615 38.768C94.0769 36.3942 91.4 36.0975 89.3179 38.1745C87.8308 39.6582 86.3436 41.7353 85.4513 43.8123C83.3692 50.0436 81.8821 56.5716 79.8 63.0996L96.159 65.4734L94.9692 69.9243L79.2051 67.5505Z" fill="white"/>
</svg>
