<!-- by TradingView --><svg width="18" height="18" xmlns="http://www.w3.org/2000/svg"><path fill="#AD2931" d="M0 0h18v18H0z"/><path d="M9 15c-.337-2.072-.722-4.16-.975-6.236.373-.164.481-.518.596-.851.072-.36.18-.756.15-1.126-.716.016-1.498.08-2.148.354-.8 0-.854-.993-.018-1.057.716.243 1.432.333 2.196.354-.036-.66-.114-1.284-.397-1.897 0-.18.048-.28.18-.412.482-.275.94-.095 1.017.401-.295.635-.337 1.21-.397 1.887.012.005.024.01.042.021.734-.031 1.474-.09 2.154-.354.825.069.782 1.057-.024 1.057-.65-.285-1.45-.328-2.166-.343.048.39.096 1.823.782 1.971-.036.317-.06.338-.758 4.915-.024.021-.21 1.28-.234 1.316z" fill="#F0F3FA"/></svg>