<?xml version="1.0" encoding="utf-8"?>
<svg xmlns="http://www.w3.org/2000/svg" width="124.139" height="32.002" viewBox="91.297 -0.542 32.842 32.544">
  <defs>
    <clipPath id="clip-path">
      <rect id="Rectangle_7050" data-name="Rectangle 7050" width="124.139" height="32.002" fill="none"/>
    </clipPath>
  </defs>
  <g id="Group_39591" data-name="Group 39591" transform="translate(0 -0.001)">
    <g id="Group_39591-2" data-name="Group 39591" transform="translate(0 0.001)" clip-path="url(#clip-path)">
      <path id="Path_56081" data-name="Path 56081" d="M96.758,15.724A14.758,14.758,0,1,1,82,.965,14.759,14.759,0,0,1,96.758,15.724" transform="translate(26.242 0.376)" fill="#fff"/>
      <path id="Path_56082" data-name="Path 56082" d="M88.265,17.275a5.058,5.058,0,0,0-2.484-.709,5.739,5.739,0,0,0-2.47.7,6.022,6.022,0,0,1-2.661.731,5.482,5.482,0,0,1-2.415-.683,6.029,6.029,0,0,0-2.673-.735,5.865,5.865,0,0,0-2.473.681,6.146,6.146,0,0,1-2.671.72l-.168,0c.11.136.221.27.336.4a6.675,6.675,0,0,0,2.668-.749,5.435,5.435,0,0,1,2.308-.648,5.62,5.62,0,0,1,2.5.7,5.9,5.9,0,0,0,2.584.719,6.409,6.409,0,0,0,2.831-.766,5.325,5.325,0,0,1,2.3-.66,4.678,4.678,0,0,1,2.3.665,5.515,5.515,0,0,0,2.753.765c.118-.135.235-.275.349-.416-.111.008-.217.013-.331.013a5.2,5.2,0,0,1-2.589-.72" transform="translate(27.415 6.464)" fill="#887369"/>
      <path id="Path_56083" data-name="Path 56083" d="M85.6,17.116a5.725,5.725,0,0,0-2.469.7,6.051,6.051,0,0,1-2.661.73,5.5,5.5,0,0,1-2.416-.681,6.006,6.006,0,0,0-2.673-.738,5.847,5.847,0,0,0-2.473.684,6.837,6.837,0,0,1-2.2.692c.115.122.231.245.35.361a7.883,7.883,0,0,0,2.01-.685,5.426,5.426,0,0,1,2.308-.648,5.6,5.6,0,0,1,2.5.7,5.881,5.881,0,0,0,2.586.717,6.384,6.384,0,0,0,2.829-.766,5.343,5.343,0,0,1,2.3-.659,4.649,4.649,0,0,1,2.3.666,6,6,0,0,0,2.073.72c.122-.122.245-.246.361-.371a5.386,5.386,0,0,1-2.252-.709,5.073,5.073,0,0,0-2.484-.708" transform="translate(27.596 6.679)" fill="#887369"/>
      <path id="Path_56084" data-name="Path 56084" d="M85.417,17.665a5.743,5.743,0,0,0-2.469.694,6.033,6.033,0,0,1-2.661.731,5.465,5.465,0,0,1-2.416-.683,6.042,6.042,0,0,0-2.673-.737,5.847,5.847,0,0,0-2.473.684,8.753,8.753,0,0,1-1.543.58c.115.11.235.215.355.324a10.9,10.9,0,0,0,1.354-.535,5.426,5.426,0,0,1,2.308-.648,5.6,5.6,0,0,1,2.5.7,5.863,5.863,0,0,0,2.586.72,6.384,6.384,0,0,0,2.829-.767,5.343,5.343,0,0,1,2.3-.659,4.664,4.664,0,0,1,2.3.666,7.612,7.612,0,0,0,1.392.584l.368-.328a6.267,6.267,0,0,1-1.578-.617,5.058,5.058,0,0,0-2.484-.708" transform="translate(27.779 6.893)" fill="#887369"/>
      <path id="Path_56085" data-name="Path 56085" d="M85.237,18.215a5.706,5.706,0,0,0-2.469.7,6.051,6.051,0,0,1-2.661.728,5.482,5.482,0,0,1-2.416-.681,6.005,6.005,0,0,0-2.673-.735,5.826,5.826,0,0,0-2.473.683c-.293.132-.592.266-.9.381.12.1.242.195.366.291.239-.1.471-.2.7-.3a5.446,5.446,0,0,1,2.308-.648,5.6,5.6,0,0,1,2.5.7,5.863,5.863,0,0,0,2.586.719,6.384,6.384,0,0,0,2.829-.766,5.305,5.305,0,0,1,2.3-.659,4.663,4.663,0,0,1,2.3.665c.236.121.475.239.735.349.121-.092.243-.189.364-.286a9.324,9.324,0,0,1-.918-.421,5.073,5.073,0,0,0-2.484-.708" transform="translate(27.96 7.108)" fill="#887369"/>
      <path id="Path_56086" data-name="Path 56086" d="M85.056,18.764a5.725,5.725,0,0,0-2.469.7,6.069,6.069,0,0,1-2.661.728,5.482,5.482,0,0,1-2.416-.681,6.005,6.005,0,0,0-2.673-.735,5.846,5.846,0,0,0-2.473.683c-.086.038-.172.078-.257.114.127.093.254.184.382.268a.174.174,0,0,0,.04-.015,5.446,5.446,0,0,1,2.308-.648,5.623,5.623,0,0,1,2.5.7,5.863,5.863,0,0,0,2.586.72,6.4,6.4,0,0,0,2.829-.767,5.342,5.342,0,0,1,2.3-.658,4.663,4.663,0,0,1,2.3.663l.089.044c.128-.085.252-.172.378-.261l-.285-.142a5.073,5.073,0,0,0-2.484-.708" transform="translate(28.14 7.322)" fill="#887369"/>
      <path id="Path_56087" data-name="Path 56087" d="M82.4,20.008a6.05,6.05,0,0,1-2.661.727,5.463,5.463,0,0,1-2.413-.678,6.014,6.014,0,0,0-2.675-.737,5.088,5.088,0,0,0-2.055.495c.14.092.281.177.425.26a4.286,4.286,0,0,1,1.629-.352,5.622,5.622,0,0,1,2.5.7,5.892,5.892,0,0,0,2.586.717,6.384,6.384,0,0,0,2.829-.766,5.343,5.343,0,0,1,2.3-.659,3.984,3.984,0,0,1,1.706.377c.14-.083.278-.165.416-.253a4.614,4.614,0,0,0-2.122-.526,5.719,5.719,0,0,0-2.468.7" transform="translate(28.33 7.536)" fill="#887369"/>
      <path id="Path_56088" data-name="Path 56088" d="M82.274,0a16,16,0,1,0,16,16,16,16,0,0,0-16-16m0,29.45A13.448,13.448,0,1,1,95.721,16,13.447,13.447,0,0,1,82.274,29.45" transform="translate(25.863 -0.001)" fill="#e71618"/>
      <path id="Path_56089" data-name="Path 56089" d="M85.1,8.7a2.581,2.581,0,0,1-.89,1.246c-.624.5-4.762,3.034-5.232,3.617a3.446,3.446,0,0,0-.544,2.1l0,4.865h.645V19.267a2.578,2.578,0,0,1,.752-1.635,39.263,39.263,0,0,1,4.133-2.957,3.1,3.1,0,0,0,1.151-2.806V8.545Z" transform="translate(30.609 3.334)" fill="#009b3b"/>
      <path id="Path_56090" data-name="Path 56090" d="M78.759,15.126c.457-.576,4.727-3.181,5.339-3.679a3.074,3.074,0,0,0,1.328-2.223V3.775a3.466,3.466,0,0,1-.983,2.077c-.627.822-3.5,2.376-4.919,3.373a3.708,3.708,0,0,0-1.91,3.217v9.953h.637V17.2a3.319,3.319,0,0,1,.509-2.069" transform="translate(30.289 1.473)" fill="#009b3b"/>
      <path id="Path_56091" data-name="Path 56091" d="M77.582,9.48a50.8,50.8,0,0,1-4.265-3.563,3.749,3.749,0,0,1-1-2.109V8.869a3.785,3.785,0,0,0,1.609,2.949c1.262.922,3.041,2.262,3.574,2.8A4.009,4.009,0,0,1,78.536,17.5v4.883h.63V12.647A3.206,3.206,0,0,0,77.582,9.48" transform="translate(28.224 1.485)" fill="#009b3b"/>
    </g>
  </g>
</svg>