<svg width="100" height="100" viewBox="0 0 100 100" fill="none" xmlns="http://www.w3.org/2000/svg">
  <path d="M50 100C77.6142 100 100 77.6142 100 50C100 22.3858 77.6142 0 50 0C22.3858 0 0 22.3858 0 50C0 77.6142 22.3858 100 50 100Z" fill="#335DD2"/>
  <path d="M49.8522 16.6687L43.7916 20.1536L27.2764 29.699L21.2158 33.1839V66.2144L27.2764 69.6988L43.9431 79.2444L50.0037 82.7294L56.0643 79.2444L72.4281 69.6988L78.4887 66.2144V33.1839L72.4281 29.699L55.9128 20.1536L49.8522 16.6687ZM33.3371 59.2444V40.1536L49.8522 30.6081L66.3675 40.1536V59.2444L49.8522 68.79L33.3371 59.2444Z" fill="white"/>
</svg>
