<svg width="142" height="142" viewBox="0 0 142 142" fill="none" xmlns="http://www.w3.org/2000/svg">
<path d="M71 142C110.212 142 142 110.212 142 71C142 31.7878 110.212 0 71 0C31.7878 0 0 31.7878 0 71C0 110.212 31.7878 142 71 142Z" fill="#172852"/>
<path d="M57.189 31.7299C65.5031 28.6201 74.8608 28.613 83.3312 31.169C94.3575 34.5912 103.666 42.9124 108.529 53.3565C109.871 56.3314 111.156 59.4341 111.284 62.7427C105.086 59.1501 98.2909 56.8213 91.482 54.6984C80.5906 50.7721 69.188 48.0457 58.8788 42.6497C56.479 41.2155 53.4189 39.7458 52.7657 36.7567C52.503 34.1723 55.2365 32.731 57.189 31.7299Z" fill="#FFD83D"/>
<path d="M32.0906 56.8639C34.4975 50.3319 38.4451 44.2685 43.8056 39.7742C45.1688 50.9851 49.94 61.8197 57.821 69.9705C67.2711 79.7898 80.7327 85.8177 94.4286 85.5905C99.8672 85.7609 105.185 84.5042 110.489 83.4889C105.27 102.347 84.6022 114.864 65.4535 111.853C53.8947 110.377 43.2234 103.532 36.7837 93.8691C29.5204 83.1907 27.6886 69.012 32.0906 56.8639Z" fill="#FFD83D"/>
<path d="M91.4824 54.6984C98.2913 56.8213 105.086 59.1501 111.284 62.7427L111.703 62.9628C112.278 67.2867 112.697 71.6958 111.93 76.0268C108.814 74.7062 106.286 72.3845 103.645 70.3326C98.5611 66.101 93.371 61.2588 91.4824 54.6984Z" fill="#FF6F03"/>
</svg>
