<svg width="148" height="148" viewBox="0 0 148 148" fill="none" xmlns="http://www.w3.org/2000/svg">
  <rect width="148" height="148" rx="74" fill="#8247E5"/>
    <g clip-path="url(#matic_clip0)">
      <path d="M98.2552 57.8806C96.487 56.8657 94.2135 56.8657 92.1927 57.8806L78.0469 66.2537L68.4479 71.5821L54.5547 79.9552C52.7865 80.9701 50.513 80.9701 48.4922 79.9552L37.6302 73.3582C35.862 72.3433 34.599 70.3134 34.599 68.0299V55.3433C34.599 53.3134 35.6094 51.2836 37.6302 50.0149L48.4922 43.6716C50.2604 42.6567 52.5339 42.6567 54.5547 43.6716L65.4167 50.2687C67.1849 51.2836 68.4479 53.3134 68.4479 55.597V63.9702L78.0469 58.3881V49.7612C78.0469 47.7313 77.0365 45.7015 75.0156 44.4328L54.8073 32.5075C53.0391 31.4925 50.7656 31.4925 48.7448 32.5075L28.0312 44.6866C26.0104 45.7015 25 47.7313 25 49.7612V73.6119C25 75.6418 26.0104 77.6716 28.0312 78.9403L48.4922 90.8657C50.2604 91.8806 52.5339 91.8806 54.5547 90.8657L68.4479 82.7463L78.0469 77.1642L91.9401 69.0448C93.7083 68.0299 95.9818 68.0299 98.0026 69.0448L108.865 75.3881C110.633 76.403 111.896 78.4328 111.896 80.7164V93.403C111.896 95.4328 110.885 97.4627 108.865 98.7313L98.2552 105.075C96.487 106.09 94.2135 106.09 92.1927 105.075L81.3307 98.7313C79.5625 97.7164 78.2995 95.6866 78.2995 93.403V85.2836L68.7005 90.8657V99.2388C68.7005 101.269 69.7109 103.299 71.7318 104.567L92.1927 116.493C93.9609 117.507 96.2344 117.507 98.2552 116.493L118.716 104.567C120.484 103.552 121.747 101.522 121.747 99.2388V75.1343C121.747 73.1045 120.737 71.0746 118.716 69.806L98.2552 57.8806Z" fill="white"/>
    </g>
  <defs>
  <clipPath id="matic_clip0">
    <rect width="97" height="85" fill="white" transform="translate(25 32)"/>
  </clipPath>
  </defs>
</svg>
