<svg width="143" height="142" viewBox="0 0 143 142" fill="none" xmlns="http://www.w3.org/2000/svg">
<path d="M71.2031 142C110.415 142 142.203 110.212 142.203 71C142.203 31.7878 110.415 0 71.2031 0C31.9909 0 0.203125 31.7878 0.203125 71C0.203125 110.212 31.9909 142 71.2031 142Z" fill="white"/>
<path d="M94.1287 36.9231L78.1129 60.7177C77.0054 62.3381 79.1352 64.2997 80.6686 62.9351L96.4289 49.2042C96.8548 48.8631 97.4512 49.1189 97.4512 49.7159V92.6144C97.4512 93.2114 96.6845 93.4673 96.3437 93.0408L48.6369 35.8997C47.1035 34.0234 44.8885 33 42.418 33H40.7142C36.2843 33 32.6211 36.6673 32.6211 41.1874V101.569C32.6211 106.089 36.2843 109.757 40.7994 109.757C43.6107 109.757 46.2516 108.307 47.785 105.834L63.8009 82.039C64.9083 80.4186 62.7786 78.4571 61.2451 79.8216L45.4849 93.4673C45.0589 93.8084 44.4626 93.5526 44.4626 92.9556V50.1423C44.4626 49.5453 45.2293 49.2895 45.5701 49.7159L93.2768 106.857C94.8103 108.733 97.1104 109.757 99.4957 109.757H101.2C105.715 109.757 109.378 106.089 109.378 101.569V41.1874C109.378 36.6673 105.715 33 101.2 33C98.3031 33 95.6622 34.4498 94.1287 36.9231Z" fill="black"/>
</svg>
