<svg width="148" height="148" viewBox="0 0 148 148" fill="none" xmlns="http://www.w3.org/2000/svg">
  <rect width="148" height="148" rx="74" fill="#170659"/>
  <path d="M54.2998 59.0542C53.7733 58.4368 52.9743 58.0938 52.1209 58.0938H34.5266C34.3813 58.0938 34.2542 58.0423 34.1453 57.9566C34.0545 57.8708 34 57.7679 34 57.6479V46.4492C34 46.3292 34.0545 46.2263 34.1453 46.1405C34.2542 46.0376 34.3813 45.9862 34.5266 46.0033H53.1196C57.8042 46.0033 61.8532 47.8212 65.2668 51.4397L69.788 56.6532L60.9817 66.7886L54.2998 59.0542ZM86.8013 51.3883C90.1967 47.804 94.2639 46.0033 99.003 46.0033H117.542C117.669 45.9862 117.796 46.0376 117.887 46.1062C117.977 46.192 118.014 46.312 117.995 46.4492V57.6479C117.995 57.7679 117.959 57.8708 117.887 57.9566C117.796 58.0595 117.669 58.1109 117.542 58.0938H99.9472C99.1119 58.0766 98.313 58.4368 97.7683 59.0542L84.804 73.9572L97.8228 88.9631C98.3493 89.529 99.1301 89.872 99.929 89.8548H117.523C117.65 89.8377 117.796 89.9063 117.868 89.992C117.941 90.0949 117.995 90.2321 117.977 90.3522V101.551C117.977 101.671 117.941 101.774 117.868 101.86C117.778 101.962 117.65 102.014 117.523 101.997H99.003C94.2639 101.997 90.233 100.179 86.8558 96.5603L76.0704 84.1269L65.2849 96.5603C61.8895 100.179 57.8223 101.997 53.0833 101.997H34.5266C34.3995 102.014 34.2542 101.945 34.1816 101.86C34.0908 101.757 34.0545 101.619 34.0726 101.499V90.3007C34.0726 90.1807 34.1089 90.0778 34.1816 89.992C34.2724 89.8891 34.3995 89.8377 34.5266 89.8548H52.1209C52.9562 89.8548 53.7551 89.4947 54.2998 88.8945L67.028 74.2144L86.8013 51.3883Z" fill="#00D1FF"/>
</svg>
