<svg width="148" height="148" viewBox="0 0 148 148" fill="none" xmlns="http://www.w3.org/2000/svg">
  <circle cx="74" cy="74" r="74" fill="url(#sushi_gradient0)"/>
  <path d="M45.2079 34.1705L121.29 86.119L102.474 113.934L26.3919 61.5764L45.2079 34.1705Z" fill="url(#sushi_gradient1)"/>
  <path d="M121.292 86.1192C114.747 95.5272 92.6587 91.8458 71.7975 77.1202C50.5272 62.8037 39.074 43.5787 45.2097 34.1707C51.7544 24.7627 73.8427 28.4441 94.7039 43.1696C115.974 57.0771 127.427 76.7112 121.292 86.1192Z" fill="url(#sushi_gradient2)"/>
  <path d="M102.475 113.525C95.9304 122.933 73.8421 119.252 52.9809 104.526C32.1196 89.8005 20.2574 70.9845 26.8021 61.1674C33.3468 51.7595 55.4351 55.4408 76.2963 70.1664C97.1575 84.892 108.611 104.117 102.475 113.525Z" fill="url(#sushi_gradient3)"/>
  <path d="M121.291 86.1192L102.475 113.934C95.9301 123.342 73.8418 119.252 52.9806 104.935C48.8901 102.072 45.2087 99.2086 41.5274 95.9362C44.3907 95.5272 48.0721 93.891 51.7534 89.8006C58.2981 82.8468 61.5705 81.2107 64.4338 81.6197C67.2971 81.6197 70.5694 84.483 75.887 91.4367C81.2046 98.3905 88.5674 100.436 93.0668 96.7543C93.4759 96.3453 93.8849 96.3453 94.294 95.9362C97.9753 93.0729 99.2025 91.8458 106.156 78.7564C107.792 75.4841 113.519 70.1665 121.291 72.6208C123.336 77.9383 123.336 82.4378 121.291 86.1192Z" fill="#0E0F23"/>
  <path fill-rule="evenodd" clip-rule="evenodd" d="M118.429 84.4832C112.702 92.6641 92.6588 88.5737 73.4337 75.0752C53.7996 61.5768 42.3464 44.397 48.073 36.2161C53.7996 28.0352 73.8428 32.1257 93.0678 45.6241C112.293 59.1225 123.746 76.3024 118.429 84.4832ZM100.431 72.2119C97.5673 76.3024 87.7503 74.2572 77.9332 67.7125C68.5252 61.1678 62.7986 52.5779 65.6619 48.4874C68.5252 44.397 78.3423 46.4422 88.1593 52.9869C97.5673 59.5316 103.294 68.1215 100.431 72.2119Z" fill="white"/>
  <path d="M43.573 43.5784C43.573 43.1694 43.1639 42.7603 42.7549 43.1694C42.3458 43.5784 41.9368 43.5784 41.9368 43.9875C42.3458 45.2146 42.7549 46.0327 42.7549 46.8508C42.7549 47.2598 43.1639 47.6689 43.573 47.2598C43.982 47.2598 44.3911 46.8508 43.982 46.4417C43.982 45.6236 43.982 44.8056 43.573 43.5784Z" fill="white"/>
  <path d="M45.6188 50.1235C45.6188 49.7145 45.2097 49.3054 44.8007 49.7145C44.3916 50.1235 44.3916 50.1235 44.3916 50.5326C48.8911 60.7586 58.2991 71.8028 70.5704 79.9837C70.9795 80.3927 71.3885 79.9837 71.7975 79.9837C72.2066 79.5746 71.7975 79.1656 71.7975 78.7565C59.1172 70.5757 50.1182 59.9406 45.6188 50.1235Z" fill="white"/>
  <path d="M95.1116 90.2097C94.7026 90.2097 94.2935 90.2097 94.2935 90.6188C94.2935 91.0278 94.2935 91.4369 94.7026 91.4369C95.9297 91.8459 97.5659 92.255 98.793 92.664C99.202 92.664 99.6111 92.664 99.6111 92.255C99.6111 91.8459 99.6111 91.4369 99.202 91.4369C97.9749 91.0278 96.3387 90.6188 95.1116 90.2097Z" fill="white"/>
  <path d="M102.476 91.846C102.067 91.846 101.658 92.255 101.658 92.664C101.658 93.0731 102.067 93.4821 102.476 93.4821C105.748 93.8912 109.429 94.3002 112.293 93.8912C112.702 93.8912 113.111 93.4821 113.111 93.0731C113.111 92.664 112.702 92.255 112.293 92.255C109.02 92.664 105.748 92.255 102.476 91.846Z" fill="white"/>
  <defs>
    <linearGradient id="sushi_gradient0" x1="133.5" y1="-4.5" x2="38.5" y2="153" gradientUnits="userSpaceOnUse">
      <stop stop-color="#CCCFFF"/>
      <stop offset="1" stop-color="#FFBEDC"/>
    </linearGradient>
    <linearGradient id="sushi_gradient1" x1="60.1142" y1="26.7844" x2="75.2022" y2="78.5946" gradientUnits="userSpaceOnUse">
      <stop stop-color="#03B8FF"/>
      <stop offset="1" stop-color="#FA52A0"/>
    </linearGradient>
    <linearGradient id="sushi_gradient2" x1="72.5411" y1="23.1658" x2="87.6295" y2="74.9764" gradientUnits="userSpaceOnUse">
      <stop stop-color="#03B8FF"/>
      <stop offset="1" stop-color="#FA52A0"/>
    </linearGradient>
    <linearGradient id="sushi_gradient3" x1="47.7287" y1="30.3914" x2="62.8171" y2="82.2021" gradientUnits="userSpaceOnUse">
      <stop stop-color="#03B8FF"/>
      <stop offset="1" stop-color="#FA52A0"/>
    </linearGradient>
  </defs>
</svg>
