<svg width="149" height="142" viewBox="0 0 149 142" fill="none" xmlns="http://www.w3.org/2000/svg">
<path d="M74.6016 141.8C115.471 141.8 148.602 110.057 148.602 70.9C148.602 31.743 115.471 0 74.6016 0C33.7325 0 0.601562 31.743 0.601562 70.9C0.601562 110.057 33.7325 141.8 74.6016 141.8Z" fill="#FF060A"/>
<path d="M116.211 58.1836C112.121 54.5655 106.464 49.0406 101.856 45.1221L101.583 44.9393C101.13 44.5902 100.618 44.3165 100.07 44.1295C88.9598 42.1441 37.2516 32.8836 36.2428 33.0011C35.9601 33.039 35.6899 33.1372 35.4521 33.2885L35.1931 33.4844C34.8741 33.7947 34.6319 34.1696 34.4842 34.5815L34.416 34.7513V35.6787V35.8224C40.2371 51.3524 63.2215 102.227 67.7476 114.165C68.0202 114.975 68.5382 116.516 69.5061 116.594H69.7243C70.2423 116.594 72.4508 113.799 72.4508 113.799C72.4508 113.799 111.931 67.9274 115.925 63.0424C116.442 62.4407 116.898 61.7934 117.288 61.1093C117.388 60.5741 117.341 60.0232 117.152 59.5105C116.963 58.9978 116.639 58.5406 116.211 58.1836ZM82.5797 63.5257L99.4296 50.1377L109.313 58.8627L82.5797 63.5257ZM76.0361 62.6506L47.0261 39.8714L93.9629 48.1654L76.0361 62.6506ZM78.6536 68.6196L108.345 64.0351L74.4002 103.219L78.6536 68.6196ZM43.0863 42.1441L73.6095 66.9608L69.1926 103.246L43.0863 42.1441Z" fill="white"/>
</svg>
