<svg width="148" height="148" viewBox="0 0 148 148" fill="none" xmlns="http://www.w3.org/2000/svg">
  <circle cx="74" cy="74" r="74" fill="#FF4A4A"/>
  <g clip-path="url(#uma_clip0)">
    <path d="M88.915 87H84.3052C84.0996 87.0003 83.8959 86.9606 83.7058 86.883C83.5157 86.8055 83.3429 86.6917 83.1973 86.5481C83.0517 86.4046 82.9361 86.2341 82.8571 86.0463C82.7781 85.8586 82.7373 85.6573 82.737 85.4539V73.4402L74.6455 78.4435C74.3125 78.6493 73.9276 78.7585 73.5349 78.7585C73.1421 78.7585 72.7572 78.6493 72.4242 78.4435L64.3311 73.4394V85.4539C64.3308 85.6573 64.29 85.8586 64.211 86.0463C64.132 86.2341 64.0164 86.4046 63.8708 86.5481C63.7252 86.6917 63.5524 86.8055 63.3623 86.883C63.1722 86.9606 62.9686 87.0003 62.763 87H58.1531C57.9475 87.0003 57.7438 86.9606 57.5537 86.883C57.3637 86.8055 57.1909 86.6917 57.0453 86.5481C56.8996 86.4046 56.784 86.2341 56.7051 86.0463C56.6261 85.8586 56.5853 85.6573 56.585 85.4539V62.2983C56.5861 61.9224 56.6908 61.554 56.8878 61.2326C57.0848 60.9112 57.3667 60.649 57.7031 60.4741C58.0396 60.2993 58.4178 60.2184 58.7972 60.2402C59.1767 60.2621 59.5429 60.3857 59.8566 60.598L72.6485 69.2379C72.9096 69.4144 73.2186 69.5088 73.5349 69.5088C73.8511 69.5088 74.1601 69.4144 74.4212 69.2379L87.2108 60.598C87.5243 60.3853 87.8906 60.2612 88.2702 60.2391C88.6498 60.217 89.0282 60.2977 89.3649 60.4725C89.7015 60.6473 89.9835 60.9097 90.1806 61.2312C90.3776 61.5528 90.4823 61.9215 90.4832 62.2975V85.4539C90.4829 85.6573 90.442 85.8586 90.3631 86.0463C90.2841 86.2341 90.1685 86.4046 90.0229 86.5481C89.8773 86.6917 89.7045 86.8055 89.5144 86.883C89.3243 86.9606 89.1206 87.0003 88.915 87Z" fill="white"/>
    <path d="M49.6401 86.7939H21.0805C20.8076 86.7942 20.5372 86.7413 20.2849 86.6382C20.0326 86.5352 19.8033 86.384 19.6101 86.1933C19.4169 86.0026 19.2636 85.7761 19.1589 85.5268C19.0542 85.2775 19.0002 85.0102 19 84.7403V61.5398C19.0002 61.3374 19.0407 61.137 19.1193 60.95C19.1978 60.7631 19.3128 60.5933 19.4576 60.4503C19.6025 60.3074 19.7745 60.194 19.9636 60.1167C20.1528 60.0395 20.3555 59.9998 20.5602 60H25.1486C25.3532 59.9998 25.556 60.0395 25.7451 60.1167C25.9343 60.194 26.1063 60.3074 26.2511 60.4503C26.396 60.5933 26.511 60.7631 26.5895 60.95C26.668 61.137 26.7086 61.3374 26.7088 61.5398V79.1878H44.0119V61.5398C44.012 61.3372 44.0525 61.1366 44.1311 60.9496C44.2097 60.7625 44.3248 60.5926 44.4699 60.4495C44.6149 60.3065 44.7871 60.1932 44.9765 60.1161C45.1659 60.0389 45.3689 59.9995 45.5737 60H50.1621C50.3667 59.9998 50.5695 60.0395 50.7586 60.1167C50.9478 60.194 51.1198 60.3074 51.2646 60.4503C51.4095 60.5933 51.5245 60.7631 51.603 60.95C51.6815 61.137 51.7221 61.3374 51.7223 61.5398V84.7411C51.722 85.011 51.6679 85.2781 51.5632 85.5274C51.4584 85.7766 51.3051 86.003 51.1119 86.1936C50.9187 86.3842 50.6894 86.5353 50.4372 86.6383C50.1849 86.7413 49.9146 86.7942 49.6417 86.7939" fill="white"/>
    <path d="M97.3598 60H125.923C126.196 59.9997 126.466 60.0525 126.718 60.1555C126.97 60.2585 127.2 60.4096 127.393 60.6003C127.586 60.7909 127.739 61.0173 127.844 61.2665C127.949 61.5157 128.003 61.7829 128.003 62.0528V85.2564C128.003 85.4588 127.962 85.6592 127.884 85.8462C127.805 86.0331 127.69 86.2029 127.546 86.3459C127.401 86.4889 127.229 86.6022 127.04 86.6795C126.85 86.7568 126.648 86.7964 126.443 86.7962H121.853C121.648 86.7966 121.445 86.7571 121.256 86.6799C121.067 86.6028 120.894 86.4894 120.749 86.3464C120.604 86.2034 120.489 86.0336 120.411 85.8465C120.332 85.6595 120.291 85.459 120.291 85.2564V68.632C120.29 68.3601 120.18 68.0997 119.985 67.9079C119.79 67.7162 119.526 67.6088 119.251 67.6092H104.031C103.756 67.6088 103.492 67.7162 103.297 67.9079C103.102 68.0997 102.992 68.3601 102.99 68.632V85.2564C102.99 85.4588 102.95 85.6592 102.871 85.8462C102.793 86.0331 102.678 86.2029 102.533 86.3459C102.388 86.4889 102.216 86.6022 102.027 86.6795C101.838 86.7568 101.635 86.7964 101.43 86.7962H96.8395C96.6348 86.7964 96.4321 86.7568 96.2429 86.6795C96.0537 86.6022 95.8818 86.4889 95.7369 86.3459C95.5921 86.2029 95.4771 86.0331 95.3985 85.8462C95.32 85.6592 95.2795 85.4588 95.2793 85.2564V62.0528C95.2796 61.7829 95.3337 61.5157 95.4384 61.2665C95.5431 61.0173 95.6965 60.7909 95.8897 60.6003C96.0829 60.4096 96.3121 60.2585 96.5644 60.1555C96.8166 60.0525 97.0869 59.9997 97.3598 60Z" fill="white"/>
    <path d="M107.784 74.1011V78.6693C107.785 78.8711 107.826 79.0707 107.905 79.2567C107.985 79.4428 108.1 79.6116 108.245 79.7536C108.39 79.8955 108.562 80.0078 108.751 80.0841C108.94 80.1604 109.142 80.1991 109.346 80.1981H113.934C114.138 80.1991 114.34 80.1604 114.529 80.0841C114.718 80.0078 114.89 79.8955 115.035 79.7536C115.18 79.6116 115.295 79.4428 115.374 79.2567C115.453 79.0707 115.494 78.8711 115.495 78.6693V74.1011C115.494 73.8993 115.453 73.6997 115.374 73.5137C115.295 73.3276 115.18 73.1588 115.035 73.0168C114.89 72.8749 114.718 72.7626 114.529 72.6863C114.34 72.61 114.138 72.5713 113.934 72.5723H109.346C109.142 72.5713 108.94 72.61 108.751 72.6863C108.562 72.7626 108.39 72.8749 108.245 73.0168C108.1 73.1588 107.985 73.3276 107.905 73.5137C107.826 73.6997 107.785 73.8993 107.784 74.1011" fill="white"/>
  </g>
  <defs>
    <clipPath id="uma_clip0">
      <rect width="109" height="27" fill="white" transform="translate(19 60)"/>
    </clipPath>
  </defs>
</svg>
