<svg width="100" height="100" viewBox="0 0 100 100" fill="none" xmlns="http://www.w3.org/2000/svg">
  <circle cx="50" cy="50" r="50" fill="#DC6BE5"/>
  <path d="M40.3783 25.1906C39.6818 25.0832 39.6525 25.0706 39.9802 25.0206C40.6083 24.9246 42.0915 25.0554 43.1135 25.2969C45.4995 25.8606 47.6706 27.3047 49.9882 29.8693L50.6039 30.5506L51.4846 30.4099C55.1952 29.8172 58.97 30.2883 62.1273 31.7379C62.9958 32.1367 64.3655 32.9306 64.5366 33.1346C64.591 33.1996 64.691 33.6181 64.7588 34.0647C64.9932 35.6097 64.8758 36.794 64.4006 37.6786C64.1418 38.1599 64.1273 38.3125 64.3014 38.7244C64.4403 39.0532 64.8273 39.2964 65.2106 39.2959C65.9951 39.2949 66.8395 38.0343 67.231 36.2802L67.3866 35.5835L67.6943 35.9302C69.3832 37.832 70.7099 40.4257 70.9377 42.2719L70.9969 42.7532L70.7132 42.3156C70.2247 41.5626 69.7336 41.05 69.1051 40.6366C67.9717 39.8914 66.7736 39.6378 63.6006 39.4716C60.7347 39.3215 59.1127 39.0782 57.5044 38.5569C54.768 37.6702 53.3885 36.4892 50.138 32.2506C48.6943 30.3679 47.8019 29.3263 46.9142 28.4874C44.8972 26.5813 42.9153 25.5817 40.3783 25.1906Z" fill="white"/>
  <path d="M65.1831 29.3941C65.2553 28.1326 65.4271 27.3005 65.7734 26.5406C65.9105 26.2398 66.0386 25.9936 66.0586 25.9936C66.0782 25.9936 66.0186 26.2156 65.926 26.4869C65.6745 27.2244 65.6331 28.2331 65.8064 29.4068C66.0264 30.8959 66.1516 31.1107 67.7353 32.7193C68.4779 33.4738 69.342 34.4254 69.6549 34.8339L70.2245 35.5768L69.6549 35.0459C68.9586 34.3967 67.3571 33.1306 67.0034 32.9496C66.766 32.8282 66.7308 32.8303 66.5845 32.975C66.4497 33.1084 66.4212 33.3088 66.4027 34.2563C66.3734 35.733 66.1708 36.6808 65.6823 37.6285C65.4179 38.1411 65.376 38.0317 65.6153 37.4531C65.7938 37.0211 65.812 36.8313 65.8108 35.4017C65.8079 32.5295 65.4649 31.839 63.4531 30.6561C62.9434 30.3564 62.1034 29.9243 61.5867 29.6957C61.07 29.4671 60.6595 29.268 60.6745 29.2531C60.7314 29.1967 62.6934 29.7659 63.4834 30.0679C64.6582 30.517 64.852 30.5752 64.9945 30.521C65.0905 30.4847 65.1368 30.2079 65.1831 29.3941Z" fill="white"/>
  <path d="M41.7315 34.3078C40.3176 32.373 39.4427 29.4066 39.6321 27.1891L39.6907 26.5029L40.0125 26.5612C40.6169 26.6708 41.659 27.0563 42.147 27.3509C43.4861 28.1592 44.0659 29.2234 44.6556 31.9562C44.8284 32.7566 45.0551 33.6624 45.1594 33.9691C45.3273 34.4627 45.9617 35.6156 46.4776 36.3644C46.8492 36.9037 46.6023 37.1593 45.781 37.0856C44.5267 36.9731 42.8276 35.8076 41.7315 34.3078Z" fill="white"/>
  <path d="M63.4678 48.7072C56.8602 46.0629 54.533 43.7677 54.533 39.8949C54.533 39.325 54.5527 38.8587 54.5767 38.8587C54.6008 38.8587 54.8565 39.0468 55.1448 39.2767C56.4848 40.3449 57.9852 40.8011 62.1389 41.4034C64.5834 41.7578 65.9589 42.0441 67.2278 42.4623C71.2608 43.7917 73.7559 46.4896 74.3511 50.1641C74.5241 51.2319 74.4226 53.2342 74.1422 54.2895C73.9211 55.123 73.2456 56.6254 73.0663 56.6832C73.0167 56.6991 72.9682 56.5099 72.9552 56.2524C72.8874 54.8726 72.1859 53.5293 71.0078 52.523C69.6682 51.379 67.8685 50.4681 63.4678 48.7072Z" fill="white"/>
  <path d="M58.8289 49.8058C58.7461 49.3162 58.6025 48.6908 58.5098 48.4162L58.3412 47.9169L58.6544 48.2663C59.0878 48.7497 59.4302 49.3684 59.7205 50.1924C59.942 50.8213 59.9669 51.0083 59.9653 52.0302C59.9636 53.0335 59.9359 53.2439 59.7313 53.8099C59.4088 54.7025 59.0085 55.3355 58.3368 56.0148C57.1297 57.2359 55.5779 57.9118 53.3385 58.1922C52.9492 58.2407 51.8147 58.3229 50.8172 58.3744C48.3036 58.5044 46.6492 58.7729 45.1626 59.2918C44.9489 59.3663 44.758 59.4118 44.7386 59.3926C44.6785 59.3329 45.6906 58.7333 46.5266 58.3329C47.7054 57.7685 48.8789 57.4607 51.508 57.0255C52.8067 56.8103 54.1479 56.5496 54.4885 56.4459C57.7048 55.4657 59.358 52.9365 58.8289 49.8058Z" fill="white"/>
  <path d="M61.8581 55.1524C60.9802 53.2766 60.7786 51.4655 61.2596 49.7765C61.3111 49.5961 61.3938 49.4484 61.4436 49.4484C61.4933 49.4484 61.7005 49.5597 61.9039 49.6957C62.3085 49.9664 63.12 50.4223 65.2815 51.5937C67.9789 53.0554 69.5171 54.1873 70.563 55.4804C71.4789 56.6128 72.0456 57.9028 72.3185 59.4758C72.473 60.3665 72.3823 62.5102 72.1523 63.4073C71.4271 66.2361 69.7415 68.458 67.3374 69.7547C66.9852 69.9447 66.6689 70.1006 66.6348 70.1013C66.6004 70.1021 66.7289 69.7776 66.92 69.3806C67.7285 67.7002 67.8208 66.0658 67.2093 64.2465C66.8348 63.1324 66.0715 61.7732 64.5304 59.4758C62.7382 56.805 62.2989 56.0943 61.8581 55.1524Z" fill="white"/>
  <path d="M37.0389 65.2731C39.4909 63.2154 42.5419 61.7535 45.3211 61.3046C46.5188 61.1113 48.5141 61.188 49.6232 61.4702C51.401 61.9224 52.9914 62.9354 53.8184 64.142C54.6267 65.3213 54.9735 66.3491 55.3345 68.6357C55.477 69.5379 55.6319 70.4435 55.6788 70.6487C55.9499 71.8339 56.4775 72.7809 57.1314 73.2568C58.1699 74.0124 59.9581 74.0591 61.7172 73.3772C62.0158 73.2613 62.2749 73.1813 62.2931 73.1994C62.3572 73.2624 61.4712 73.8516 60.8463 74.162C60.0054 74.5794 59.3368 74.7409 58.4483 74.7409C56.8372 74.7409 55.4996 73.9265 54.3835 72.2654C54.1638 71.9383 53.6701 70.9594 53.2864 70.0894C52.1079 67.418 51.526 66.6043 50.1577 65.7135C48.9669 64.9387 47.4313 64.7998 46.276 65.3628C44.7585 66.1024 44.3351 68.0298 45.4219 69.2513C45.8539 69.7368 46.6595 70.1554 47.3182 70.2368C48.5505 70.3894 49.6096 69.4576 49.6096 68.2209C49.6096 67.4179 49.2991 66.9598 48.5174 66.6091C47.4498 66.1302 46.3022 66.6902 46.3077 67.6868C46.3101 68.112 46.4963 68.3787 46.925 68.5717C47.2 68.6954 47.2064 68.705 46.9821 68.6587C46.0026 68.4568 45.7731 67.2831 46.5607 66.5039C47.5063 65.5687 49.4616 65.9813 50.1331 67.2583C50.4152 67.7946 50.4479 68.8628 50.202 69.5076C49.6516 70.9513 48.0466 71.7102 46.4185 71.2972C45.3101 71.0157 44.8587 70.7113 43.5222 69.3431C41.1999 66.9654 40.2984 66.5046 36.9504 65.9854L36.3088 65.8857L37.0389 65.2731Z" fill="white"/>
  <path fill-rule="evenodd" clip-rule="evenodd" d="M26.1422 22.7187C33.8976 32.0741 39.2391 35.934 39.8327 36.7495C40.3228 37.4229 40.1384 38.0282 39.2988 38.5027C38.8318 38.7665 37.8719 39.0337 37.3913 39.0337C36.8477 39.0337 36.661 38.8253 36.661 38.8253C36.3458 38.5282 36.1683 38.5801 34.5496 35.7245C32.3024 32.2588 30.4218 29.3838 30.3705 29.3357C30.2519 29.2244 30.2539 29.2281 34.3205 36.46C34.9776 37.9672 34.4512 38.5205 34.4512 38.7352C34.4512 39.1719 34.3313 39.4015 33.7893 40.0024C32.8857 41.0043 32.4818 42.13 32.1902 44.4598C31.8633 47.0715 30.9441 48.9164 28.3969 52.0739C26.9058 53.9222 26.6618 54.261 26.2856 55.0059C25.8116 55.944 25.6813 56.4694 25.6285 57.6539C25.5727 58.9065 25.6814 59.7158 26.0664 60.9132C26.4035 61.9617 26.7553 62.6539 27.6547 64.0384C28.4309 65.2332 28.8779 66.1213 28.8779 66.4687C28.8779 66.745 28.931 66.7454 30.1337 66.4754C33.0121 65.8295 35.3494 64.6932 36.6639 63.3006C37.4774 62.4387 37.6684 61.9628 37.6746 60.7821C37.6787 60.0095 37.6514 59.8476 37.4413 59.4032C37.0993 58.6798 36.4766 58.0784 35.1043 57.1461C33.3063 55.9244 32.5383 54.9409 32.3262 53.5883C32.1521 52.4785 32.354 51.6954 33.3487 49.6234C34.3783 47.4786 34.6334 46.5646 34.806 44.4028C34.9175 43.0061 35.0719 42.4552 35.4756 42.0131C35.8967 41.5521 36.2758 41.3959 37.3179 41.2544C39.0169 41.0237 40.0988 40.5868 40.988 39.7724C41.7594 39.0658 42.0823 38.3851 42.1318 37.3602L42.1694 36.5834L41.7383 36.0839C40.1771 34.2747 25.0967 21.2965 25.0006 21.2965C24.9801 21.2965 25.4938 21.9365 26.1422 22.7187ZM29.7542 59.0713C30.1072 58.4498 29.9196 57.6513 29.3292 57.261C28.7714 56.8924 27.9047 57.0661 27.9047 57.5465C27.9047 57.6932 27.9863 57.7998 28.1701 57.8939C28.4797 58.0521 28.5022 58.2302 28.2586 58.5939C28.012 58.9624 28.0319 59.2865 28.3148 59.5065C28.7707 59.8613 29.4162 59.6661 29.7542 59.0713Z" fill="white"/>
  <path fill-rule="evenodd" clip-rule="evenodd" d="M43.2416 41.662C42.444 41.9055 41.6686 42.7457 41.4286 43.6266C41.2822 44.1641 41.3653 45.1068 41.5846 45.398C41.9389 45.8682 42.2815 45.9921 43.2093 45.9856C45.0256 45.9731 46.6047 45.1988 46.7883 44.2309C46.9388 43.4374 46.2452 42.3378 45.29 41.8551C44.7971 41.6061 43.7488 41.5073 43.2416 41.662ZM45.3649 43.3123C45.645 42.9167 45.5225 42.4892 45.0461 42.2C44.1389 41.6494 42.7669 42.105 42.7669 42.9569C42.7669 43.3809 43.4824 43.8435 44.1382 43.8435C44.5746 43.8435 45.172 43.5848 45.3649 43.3123Z" fill="white"/>
</svg>
