<svg width="18" height="18" viewBox="0 0 18 18" fill="none" xmlns="http://www.w3.org/2000/svg">
  <circle cx="9" cy="9" r="9" fill="#366EDD"/>
  <path d="M9 15C5.68596 15 3 12.314 3 9C3 5.68596 5.68596 3 9 3C12.314 3 15 5.68596 15 9C15 10.5913 14.3679 12.1174 13.2426 13.2426C12.1174 14.3679 10.5913 15 9 15ZM8.64255 6.77362C8.31427 6.7899 8.00392 6.9283 7.77245 7.16167C7.54098 7.39503 7.4051 7.70649 7.39149 8.03489C7.39149 8.65277 7.76936 9.05617 8.57106 9.22468L9.13277 9.35745C9.67915 9.48511 9.90383 9.66894 9.90383 9.98043C9.90383 10.2919 9.51064 10.5983 9 10.5983C8.81862 10.6149 8.63622 10.5802 8.47368 10.498C8.31113 10.4158 8.17499 10.2895 8.08085 10.1336C8.05296 10.0745 8.00892 10.0244 7.95382 9.98914C7.89871 9.95391 7.83477 9.93496 7.76936 9.93447H7.46809C7.44492 9.93876 7.42283 9.94759 7.40308 9.96045C7.38334 9.97331 7.36634 9.98995 7.35305 10.0094C7.33976 10.0289 7.33045 10.0508 7.32565 10.0738C7.32086 10.0969 7.32067 10.1207 7.32511 10.1438C7.39849 10.4433 7.56912 10.7101 7.81029 10.9023C8.05145 11.0945 8.34953 11.2013 8.65787 11.206V11.6349C8.65787 11.7304 8.6958 11.8219 8.76331 11.8895C8.83083 11.957 8.9224 11.9949 9.01787 11.9949C9.11335 11.9949 9.20492 11.957 9.27243 11.8895C9.33994 11.8219 9.37787 11.7304 9.37787 11.6349V11.2009C9.72653 11.1969 10.0599 11.057 10.3069 10.8109C10.5539 10.5648 10.6951 10.232 10.7004 9.8834C10.7004 9.23489 10.3277 8.86213 9.44426 8.67319L8.93362 8.56085C8.42298 8.43319 8.18298 8.26468 8.18298 7.97872C8.18298 7.69277 8.48936 7.37617 9 7.37617C9.16082 7.35937 9.32306 7.38949 9.46714 7.46289C9.61121 7.53628 9.73096 7.64982 9.81192 7.78979C9.84473 7.85969 9.89669 7.91885 9.96176 7.96043C10.0268 8.002 10.1024 8.02428 10.1796 8.02468H10.4196C10.4741 8.01133 10.5213 7.97711 10.5509 7.92937C10.5805 7.88162 10.5902 7.82417 10.5779 7.76936C10.5087 7.49282 10.3539 7.24519 10.1357 7.06179C9.91746 6.8784 9.64688 6.76861 9.36255 6.74809V6.39574C9.36255 6.30027 9.32463 6.2087 9.25711 6.14119C9.1896 6.07367 9.09803 6.03574 9.00255 6.03574C8.90708 6.03574 8.81551 6.07367 8.748 6.14119C8.68048 6.2087 8.64255 6.30027 8.64255 6.39574V6.77362ZM4.50128 9C4.50186 9.94063 4.79794 10.8573 5.3477 11.6206C5.89746 12.3838 6.67312 12.9551 7.56511 13.2536H7.6366C7.69754 13.2536 7.75599 13.2294 7.79908 13.1863C7.84217 13.1432 7.86638 13.0848 7.86638 13.0238V12.9166C7.86655 12.8215 7.83849 12.7286 7.78577 12.6495C7.73304 12.5704 7.65802 12.5087 7.57021 12.4723C6.87554 12.1919 6.28052 11.7104 5.86151 11.0894C5.4425 10.4684 5.21863 9.73636 5.21863 8.98724C5.21863 8.23811 5.4425 7.50608 5.86151 6.8851C6.28052 6.26412 6.87554 5.78252 7.57021 5.50213C7.65762 5.46662 7.73246 5.40589 7.78521 5.32768C7.83796 5.24947 7.86622 5.15732 7.86638 5.06298V4.94553C7.86671 4.91105 7.85872 4.87699 7.84309 4.84625C7.82746 4.81552 7.80464 4.789 7.77658 4.76896C7.74852 4.74891 7.71604 4.73593 7.68189 4.73111C7.64774 4.72629 7.61294 4.72978 7.58043 4.74128C6.68475 5.03749 5.90517 5.60839 5.35242 6.37289C4.79968 7.13739 4.50186 8.05661 4.50128 9ZM13.4987 9C13.4971 8.06024 13.2005 7.14471 12.6508 6.38248C12.1011 5.62025 11.3261 5.04977 10.4349 4.75149H10.3583C10.2946 4.75149 10.2336 4.77678 10.1886 4.82178C10.1436 4.86679 10.1183 4.92784 10.1183 4.99149V5.06809C10.1204 5.16657 10.1509 5.26236 10.2061 5.3439C10.2614 5.42545 10.3391 5.48926 10.4298 5.52766C11.1229 5.80887 11.7163 6.2905 12.1341 6.9109C12.5519 7.5313 12.7751 8.26225 12.7751 9.01021C12.7751 9.75818 12.5519 10.4891 12.1341 11.1095C11.7163 11.7299 11.1229 12.2116 10.4298 12.4928C10.3408 12.5316 10.2647 12.5949 10.2105 12.6754C10.1562 12.7559 10.126 12.8502 10.1234 12.9472V13.034C10.1238 13.0719 10.1332 13.1091 10.1508 13.1427C10.1684 13.1762 10.1936 13.2051 10.2245 13.227C10.2554 13.2489 10.291 13.2632 10.3284 13.2687C10.3659 13.2742 10.4041 13.2708 10.44 13.2587C11.3319 12.959 12.107 12.3866 12.6559 11.6224C13.2047 10.8582 13.4996 9.94088 13.4987 9Z" fill="white"/>
</svg>
