<svg width="32" height="32" viewBox="0 0 32 32" fill="none" xmlns="http://www.w3.org/2000/svg">
<rect width="32" height="32" rx="16" fill="#50AF95"/>
<g clip-path="url(#clip0_9476_110374)">
<path fill-rule="evenodd" clip-rule="evenodd" d="M7.68919 5.8878L2.90735 16.0572C2.88916 16.095 2.88339 16.1377 2.8909 16.1791C2.89841 16.2205 2.91879 16.2583 2.94908 16.2871L15.8637 28.8166C15.9004 28.8522 15.9492 28.8721 16 28.8721C16.0509 28.8721 16.0997 28.8522 16.1364 28.8166L29.051 16.2879C29.0813 16.2591 29.1017 16.2212 29.1092 16.1799C29.1167 16.1385 29.1109 16.0958 29.0927 16.0579L24.3109 5.88858C24.2955 5.85442 24.2706 5.82549 24.2394 5.80524C24.2082 5.78499 24.1718 5.77427 24.1347 5.77437H7.8669C7.82963 5.7739 7.79302 5.78436 7.76149 5.80448C7.72995 5.82461 7.70485 5.85354 7.68919 5.8878V5.8878V5.8878Z" fill="#50AF95"/>
<path fill-rule="evenodd" clip-rule="evenodd" d="M17.6592 17.1015C17.5665 17.1086 17.0875 17.1375 16.0189 17.1375C15.169 17.1375 14.5656 17.1117 14.3539 17.1015C11.0694 16.9552 8.61785 16.3764 8.61785 15.6833C8.61785 14.9902 11.0694 14.4121 14.3539 14.2635V16.525C14.5687 16.5406 15.1837 16.5774 16.0336 16.5774C17.0535 16.5774 17.5642 16.5344 17.6561 16.5258V14.2651C20.9337 14.4129 23.3798 14.9918 23.3798 15.6833C23.3798 16.3748 20.9344 16.9537 17.6561 17.1007L17.6592 17.1015ZM17.6592 14.0312V12.0075H22.2332V8.92145H9.77989V12.0075H14.3531V14.0304C10.636 14.2033 7.84058 14.9487 7.84058 15.8421C7.84058 16.7354 10.636 17.4801 14.3531 17.6538V24.1387H17.6585V17.6515C21.3671 17.4786 24.1579 16.7339 24.1579 15.8413C24.1579 14.9487 21.3694 14.204 17.6585 14.0304L17.6592 14.0312Z" fill="white"/>
</g>
<defs>
<clipPath id="clip0_9476_110374">
<rect width="26.2256" height="23.0977" fill="white" transform="translate(2.88721 5.77441)"/>
</clipPath>
</defs>
</svg>
