<svg width="32" height="32" viewBox="0 0 32 32" fill="none" xmlns="http://www.w3.org/2000/svg">
<g clip-path="url(#clip0_9476_110349)">
<path d="M26.0925 6.71575L25.2139 7.59439C27.3104 9.88714 28.4731 12.8815 28.4731 15.9883C28.4731 19.0951 27.3104 22.0895 25.2139 24.3822L26.0925 25.2609C28.4241 22.7318 29.7186 19.4179 29.7186 15.9781C29.7186 12.5382 28.4241 9.22432 26.0925 6.69525V6.71575Z" fill="#C8C7D8"/>
<path d="M7.61496 6.79185C9.90771 4.69528 12.9021 3.53261 16.0089 3.53261C19.1157 3.53261 22.1101 4.69528 24.4028 6.79185L25.2814 5.91321C22.7524 3.5816 19.4385 2.28711 15.9986 2.28711C12.5588 2.28711 9.24489 3.5816 6.71582 5.91321L7.61496 6.79185Z" fill="#C8C7D8"/>
<path d="M6.79185 24.391C4.69776 22.0987 3.53663 19.1062 3.53663 16.0014C3.53663 12.8967 4.69776 9.90415 6.79185 7.61191L5.91321 6.73328C3.5816 9.26235 2.28711 12.5762 2.28711 16.0161C2.28711 19.4559 3.5816 22.7698 5.91321 25.2989L6.79185 24.391Z" fill="#C8C7D8"/>
<path d="M24.3911 25.2023C22.0983 27.2988 19.104 28.4615 15.9972 28.4615C12.8903 28.4615 9.896 27.2988 7.60325 25.2023L6.72461 26.0809C9.25368 28.4125 12.5676 29.707 16.0074 29.707C19.4473 29.707 22.7612 28.4125 25.2902 26.0809L24.3911 25.2023Z" fill="#C8C7D8"/>
<path d="M21.5471 13.0682C21.3714 11.2348 19.7898 10.6198 17.7895 10.4323V7.90771H16.2431V10.3855C15.836 10.3855 15.4201 10.3855 15.0071 10.3855V7.90771H13.4724V10.4499H10.3357V12.1047C10.3357 12.1047 11.4779 12.0842 11.4604 12.1047C11.6663 12.082 11.873 12.1402 12.0369 12.2669C12.2008 12.3937 12.3091 12.5791 12.339 12.7842V19.743C12.3346 19.8153 12.3157 19.886 12.2835 19.9509C12.2513 20.0158 12.2065 20.0735 12.1515 20.1208C12.0977 20.1689 12.0346 20.2057 11.9662 20.2288C11.8977 20.252 11.8253 20.2611 11.7532 20.2555C11.7737 20.2731 10.6286 20.2555 10.6286 20.2555L10.3357 22.1036H13.4431V24.6868H14.9895V22.1417H16.2255V24.6751H17.7748V22.1211C20.3873 21.963 22.209 21.3187 22.4375 18.8731C22.622 16.905 21.6965 16.0263 20.2174 15.6719C21.1166 15.2297 21.6731 14.4096 21.5471 13.0682ZM19.3798 18.5685C19.3798 20.4898 16.0878 20.2702 15.0393 20.2702V16.861C16.0878 16.864 19.3798 16.5623 19.3798 18.5685ZM18.6623 13.7653C18.6623 15.5226 15.915 15.3088 15.0423 15.3088V12.2101C15.915 12.2101 18.6623 11.9348 18.6623 13.7653Z" fill="#F09242"/>
<path d="M15.9971 32C12.8328 31.9994 9.73979 31.0606 7.10906 29.3023C4.47832 27.544 2.42801 25.0451 1.21737 22.1216C0.00673518 19.1981 -0.309871 15.9813 0.307586 12.8778C0.925043 9.77442 2.44883 6.92376 4.6863 4.6863C6.92376 2.44883 9.77442 0.925043 12.8778 0.307586C15.9813 -0.309871 19.1981 0.00673518 22.1216 1.21737C25.0451 2.42801 27.544 4.47832 29.3023 7.10906C31.0606 9.73979 31.9994 12.8328 32 15.9971C32.0004 18.0987 31.5867 20.1799 30.7826 22.1216C29.9786 24.0633 28.7998 25.8276 27.3137 27.3137C25.8276 28.7998 24.0633 29.9786 22.1216 30.7826C20.1799 31.5867 18.0987 32.0004 15.9971 32V32ZM15.9971 1.24767C13.0818 1.24999 10.2327 2.1165 7.80981 3.7377C5.38691 5.35889 3.49901 7.66198 2.38473 10.3559C1.27045 13.0498 0.97981 16.0135 1.54954 18.8726C2.11927 21.7316 3.5238 24.3576 5.5856 26.4185C7.6474 28.4795 10.2739 29.883 13.1332 30.4516C15.9924 31.0202 18.9561 30.7284 21.6495 29.613C24.343 28.4977 26.6453 26.6089 28.2656 24.1853C29.8858 21.7618 30.7512 18.9123 30.7523 15.9971C30.7531 14.0594 30.3719 12.1407 29.6306 10.3505C28.8893 8.56025 27.8024 6.93372 26.432 5.56388C25.0616 4.19404 23.4346 3.10776 21.6441 2.36715C19.8536 1.62654 17.9347 1.24613 15.9971 1.24767V1.24767Z" fill="#807E98"/>
</g>
<defs>
<clipPath id="clip0_9476_110349">
<rect width="32" height="32" rx="16" fill="white"/>
</clipPath>
</defs>
</svg>
