<svg width="148" height="148" viewBox="0 0 148 148" fill="none" xmlns="http://www.w3.org/2000/svg">
<g clip-path="url(#clip0_417_32)">
<path d="M102.659 129.556C102.875 125.225 98.43 120.818 90.1897 117.191C81.9493 113.564 70.5021 110.976 58.0743 109.931C45.6465 108.886 33.1264 109.458 22.949 111.536C12.7716 113.615 5.66434 117.05 3.00942 121.175C0.354493 125.3 2.34169 129.82 8.58456 133.855C14.8274 137.89 24.8797 141.152 36.7864 143.007C48.6932 144.862 61.6032 145.176 73.0059 143.89C84.4086 142.604 93.4888 139.808 98.4807 136.047L52.2639 127.045L102.659 129.556Z" fill="black"/>
<circle cx="68.2766" cy="65.689" r="62.689" fill="#EF4287" stroke="black" stroke-width="4"/>
<line x1="5.9104" y1="60.0927" x2="18.8482" y2="67.8553" stroke="black" stroke-width="4"/>
<line x1="7.00284" y1="83.2749" x2="21.2344" y2="89.7438" stroke="black" stroke-width="4"/>
<circle cx="82.5082" cy="73.4517" r="62.8076" fill="white" stroke="black" stroke-width="4"/>
<path d="M55.2188 80.6172L58.6641 62.4062H63.9199L58.2422 88H52.9336L48.7676 70.8789L44.6016 88H39.293L33.6152 62.4062H38.8711L42.334 80.582L46.5527 62.4062H51.0176L55.2188 80.6172ZM82.1836 76.9082H72.0586V83.7637H83.9414V88H66.7852V62.4062H83.9062V66.6777H72.0586V72.7773H82.1836V76.9082ZM106.652 66.6777H98.8125V88H93.5391V66.6777H85.8047V62.4062H106.652V66.6777ZM130.506 88H125.232V77.0312H114.949V88H109.676V62.4062H114.949V72.7773H125.232V62.4062H130.506V88Z" fill="black"/>
</g>
<defs>
<clipPath id="clip0_417_32">
<rect width="148" height="148" fill="white"/>
</clipPath>
</defs>
</svg>
