<svg width="149" height="142" viewBox="0 0 149 142" fill="none" xmlns="http://www.w3.org/2000/svg">
  <path d="M74.8008 141.8C115.67 141.8 148.801 110.057 148.801 70.9C148.801 31.743 115.67 0 74.8008 0C33.9317 0 0.800781 31.743 0.800781 70.9C0.800781 110.057 33.9317 141.8 74.8008 141.8Z" fill="black"/>
  <path d="M108.074 43.7436L97.0143 49.1421L43.6101 75.2041C43.4295 73.8844 43.3387 72.555 43.3381 71.224C43.3454 65.9137 44.8006 60.6973 47.5595 56.0916C50.3183 51.4859 54.2852 47.6506 59.0672 44.9658C63.8491 42.2809 69.2802 40.8396 74.8224 40.7845C80.3647 40.7295 85.8258 42.0627 90.6647 44.652L96.9949 41.5618L97.9392 41.1002C92.1404 37.0676 85.2907 34.6497 78.1473 34.1137C71.0039 33.5777 63.8449 34.9444 57.4615 38.0629C51.0782 41.1814 45.719 45.9301 41.9764 51.7843C38.2337 57.6385 36.2533 64.3701 36.2541 71.2352C36.2541 72.1834 36.2916 73.1278 36.3668 74.0685C36.472 75.4007 36.1636 76.7329 35.4804 77.8976C34.7973 79.0622 33.7699 80.0073 32.5275 80.6138L29.1895 82.2445V89.8509L39.017 85.0518L42.1995 83.4955L45.3355 81.9653L101.635 54.4811L107.961 51.3946L121.037 45.0094V37.4068L108.074 43.7436Z" fill="white"/>
  <path d="M121.037 52.6196L48.5336 87.9893L42.2073 91.0833L29.1895 97.4387V105.038L42.1179 98.7269L53.1773 93.3283L106.636 67.2291C106.817 68.5575 106.907 69.8957 106.908 71.2352C106.904 76.5517 105.45 81.7749 102.688 86.3862C99.9266 90.9975 95.9542 94.8366 91.1653 97.5223C86.3765 100.208 80.9377 101.647 75.389 101.696C69.8403 101.746 64.3747 100.404 59.5346 97.8035L59.146 98.0009L52.2835 101.352C58.081 105.384 64.9292 107.803 72.0715 108.34C79.2138 108.878 86.3721 107.513 92.7555 104.396C99.1389 101.28 104.499 96.5335 108.243 90.6814C111.987 84.8293 113.97 78.0994 113.973 71.2352C113.973 70.2784 113.934 69.3215 113.86 68.3759C113.755 67.0442 114.063 65.7124 114.745 64.5479C115.428 63.3834 116.454 62.438 117.695 61.8306L121.037 60.1999V52.6196Z" fill="white"/>
</svg>
