<svg width="148" height="148" viewBox="0 0 148 148" fill="none" xmlns="http://www.w3.org/2000/svg">
  <circle cx="74" cy="74" r="74" fill="white"/>
  <path d="M73.9986 0C33.1368 0 0 33.0095 0 73.716C0 81.8518 1.3239 89.6779 3.7682 97H25.8999V34.9768L73.9997 82.8925L122.098 34.9768V96.9994H144.23C146.676 89.6773 148 81.8513 148 73.7154C147.999 33.0077 114.862 0 73.9986 0Z" fill="#FF6600"/>
  <path d="M62.3938 94.0714L41.313 73.0006V112.324H10C23.0456 133.715 46.6061 148 73.4997 148C100.393 148 123.956 133.715 137 112.324H105.688V73L84.6068 94.0703L73.5003 105.171L62.395 94.0709H62.3938V94.0714Z" fill="#4C4C4C"/>
</svg>
