<svg width="143" height="142" viewBox="0 0 143 142" fill="none" xmlns="http://www.w3.org/2000/svg">
<path d="M71.3023 141.8C110.459 141.8 142.202 110.057 142.202 70.9C142.202 31.743 110.459 0 71.3023 0C32.1454 0 0.402344 31.743 0.402344 70.9C0.402344 110.057 32.1454 141.8 71.3023 141.8Z" fill="#2C7DF7"/>
<path d="M78.1104 111.615C72.3777 111.615 68.1933 110.234 65.5574 107.472C63.1156 105.135 61.6986 101.925 61.6161 98.5459C61.5865 97.5192 61.8244 96.5025 62.3066 95.5956C62.7563 94.812 63.406 94.1618 64.1892 93.7114C65.0996 93.2574 66.103 93.021 67.1203 93.021C68.1376 93.021 69.141 93.2574 70.0514 93.7114C70.8332 94.16 71.4799 94.8109 71.9234 95.5956C72.4195 96.4981 72.6663 97.5164 72.6386 98.5459C72.6898 99.7753 72.3371 100.988 71.6345 101.998C71.0487 102.822 70.2116 103.435 69.2485 103.744C70.1904 104.943 71.523 105.774 73.0143 106.091C74.6828 106.576 76.4108 106.825 78.1482 106.832C80.4485 106.852 82.7014 106.178 84.6131 104.899C86.5963 103.498 88.0752 101.495 88.8307 99.1873C89.7885 96.4409 90.2559 93.5474 90.2116 90.6391C90.2888 87.607 89.7772 84.5888 88.7052 81.7515C87.8988 79.4822 86.3682 77.5413 84.3494 76.2282C82.4729 75.0408 80.2947 74.4177 78.0741 74.4333C76.1392 74.5972 74.2734 75.2307 72.6386 76.2786L68.608 78.2994V76.2786L86.7217 51.979H61.6161V77.195C61.5452 79.0146 62.0266 80.8132 62.997 82.3542C63.4665 83.0257 64.1014 83.5645 64.8403 83.9186C65.5793 84.2726 66.3971 84.4298 67.2146 84.375C68.7251 84.3444 70.1859 83.8296 71.3818 82.9064C72.7374 81.9129 73.917 80.6994 74.8717 79.3161C74.9576 79.0736 75.1161 78.8634 75.3256 78.714C75.4937 78.5686 75.7085 78.4884 75.9308 78.4881C76.3669 78.5279 76.7796 78.7034 77.1109 78.9898C77.5304 79.4587 77.7588 80.0679 77.7508 80.697C77.7024 81.1198 77.6269 81.5391 77.5249 81.9522C76.6331 84.1109 75.1381 85.9668 73.219 87.298C71.4366 88.5041 69.3314 89.1436 67.1793 89.1327C61.7437 89.1327 57.9782 88.0616 55.8825 85.9192C54.8054 84.7351 53.9752 83.348 53.4407 81.8392C52.9061 80.3304 52.6779 78.7301 52.7694 77.1319V51.979H40V47.2939H52.8289V36.6114L49.8917 33.6722V31.2767H58.4147L61.6161 32.9339V47.2939L94.7802 47.193L98.082 50.5069L77.7463 70.9414C78.9748 70.4473 80.2687 70.1344 81.5872 70.0125C84.1969 70.1268 86.7431 70.8536 89.0199 72.1341C91.6564 73.3873 93.8783 75.3701 95.4222 77.8476C96.8056 79.9448 97.7848 82.2821 98.3094 84.7391C98.7407 86.6772 98.9721 88.6544 98.9998 90.6396C99.0133 94.4284 98.1543 98.1694 96.4893 101.573C94.9104 104.868 92.253 107.526 88.9573 109.105C85.5838 110.767 81.8713 111.626 78.1104 111.615Z" fill="white"/>
</svg>
