<svg width="148" height="148" viewBox="0 0 148 148" fill="none" xmlns="http://www.w3.org/2000/svg">
  <circle cx="74" cy="74" r="74" fill="#006AE3"/>
  <path d="M70 104V44H77V104H70Z" fill="white"/>
  <path d="M105 63.52L84.2115 68.9644L79.5755 47.6565L85.757 46.277L88.1939 56.3734C88.1939 56.3734 93.8107 47.2749 86.3218 37.8537C81.9084 33.011 79.8133 32.8055 74.865 32.0424C70.5113 31.4261 60.392 32.8789 57.3756 44.5454C56.0975 52.059 57.5391 57.6207 67.3463 64.8995L66.7964 73C66.7964 73 55.8452 65.3837 53.0217 60.0421C50.8374 55.8157 47.0928 47.4657 53.8539 35.8432C57.4945 30.0321 64.6716 24.4556 77.317 25.0426C83.6768 25.3067 99.2046 32.9816 96.7974 50.9143C96.3813 54.2749 94.6132 58.7507 94.6132 58.7507L103.142 56.8723L105 63.52Z" fill="white"/>
  <path d="M92.8456 111.667C89.0825 117.402 81.8358 122.813 69.356 121.899C63.0646 121.471 47.9242 113.348 50.7759 95.4062C51.2757 92.0449 53.1424 87.6074 53.1424 87.6074L44.6609 89.2585L43 82.5507L63.7114 77.6267L67.7389 99.1508L61.5798 100.374L59.4338 90.1578C59.4338 90.1578 53.6422 99.136 60.7863 108.807C65.0195 113.79 67.0777 114.041 71.9724 114.94C76.2501 115.677 86.3043 114.468 89.597 102.836C91.0524 95.3325 89.7734 89.7008 80.2775 82.1231L81.042 74C81.042 74 91.6698 81.9315 94.3157 87.3715C96.3441 91.6911 99.8279 100.183 92.8456 111.667Z" fill="white"/>
</svg>
