<svg width="148" height="148" viewBox="0 0 148 148" fill="none" xmlns="http://www.w3.org/2000/svg">
  <rect width="148" height="148" rx="74" fill="#231F20"/>
  <path d="M74 130C104.928 130 130 104.928 130 74C130 43.0721 104.928 18 74 18C43.0721 18 18 43.0721 18 74C18 104.928 43.0721 130 74 130Z" fill="#F4B728"/>
  <path d="M48 96.818V107.958H67.653V120.168H79.7324V107.958H99.3855V93.2233H68.8993L99.3855 51.3172V40.1767H79.7324V28H67.653V40.1767H48V54.9443H78.4862L48 96.818Z" fill="#231F20"/>
  <path d="M74 1C33.7431 1 1 33.7431 1 74C1 114.257 33.7431 147 74 147C114.257 147 147 114.257 147 74C147 33.7431 114.257 1 74 1ZM74 134.952C40.3824 134.952 13.0479 107.618 13.0479 74C13.0479 40.3824 40.3824 13.0479 74 13.0479C107.618 13.0479 134.952 40.3824 134.952 74C134.952 107.618 107.618 134.952 74 134.952Z" fill="white"/>
</svg>
