<svg width="148" height="148" viewBox="0 0 148 148" fill="none" xmlns="http://www.w3.org/2000/svg">
  <circle cx="74" cy="74" r="74" fill="black"/>
  <path d="M101.279 91.2987C104.893 96.1484 108.621 101.111 112.348 106.074C104.893 114.871 95.6315 120.51 84.4494 122.879C72.0249 125.473 60.278 123.555 48.87 117.239C59.0355 109.683 68.9752 102.239 79.0278 94.795C81.2868 96.9379 83.4329 99.0809 85.5789 101.111C87.9509 103.367 87.0473 103.48 90.0969 101.788C94.2761 99.4192 97.7776 96.1484 100.488 92.201C100.601 91.9754 100.827 91.7498 100.94 91.5242C100.827 91.5242 100.94 91.5242 101.279 91.2987ZM56.8895 101.224C54.0657 103.367 51.4678 105.284 48.87 107.314C46.9498 108.78 45.0297 110.134 43.1095 111.6C42.3188 112.277 41.7541 112.277 40.8505 111.487C32.2662 103.818 26.8446 94.3439 24.8115 83.0653C22.7784 71.674 24.5856 60.8466 30.0072 50.5831C30.1202 50.3575 30.3461 50.0192 30.459 49.7936C30.459 49.6808 30.572 49.6808 30.7979 49.568C38.2526 59.3804 45.8203 69.1927 53.2751 79.005C53.0492 79.3434 52.9362 79.569 52.7103 79.7945C50.4513 82.163 48.1923 84.5315 45.8203 86.7872C45.1426 87.464 45.0297 88.0279 45.4815 88.8174C47.8534 93.3288 51.129 97.0507 55.1952 100.096C55.76 100.434 56.2118 100.773 56.8895 101.224ZM99.02 31.184C95.4056 33.778 91.7912 36.3721 88.1768 38.8534C81.9645 43.252 75.7522 47.7634 69.6529 52.1621C68.8622 52.726 68.2975 52.8388 67.6198 52.0493C65.5867 49.9064 63.4406 47.989 61.4075 45.8461C60.8427 45.2822 60.278 45.1694 59.4873 45.5077C54.6305 47.989 50.7901 51.4854 47.6275 55.884C47.4016 56.1096 47.1757 56.4479 46.9498 56.7863C45.1426 54.4178 43.4484 52.2749 41.7541 50.0192C39.9469 47.6507 38.2526 45.2822 36.5584 43.0265C35.9936 42.237 35.8807 41.673 36.6713 40.8835C45.3685 31.2968 56.0988 25.6575 68.9752 24.3041C79.1407 23.1762 88.8545 25.2063 97.8905 30.0561C98.2294 30.2817 98.5682 30.3945 98.9071 30.62C98.9071 30.9584 98.9071 31.0712 99.02 31.184ZM117.431 98.8553C115.059 95.8101 112.913 92.9904 110.767 90.1708C105.797 83.6292 100.827 76.9749 95.7445 70.4333C95.0668 69.5311 95.0668 68.9671 95.8574 68.1776C98.0035 66.0347 100.037 63.8918 102.183 61.7489C102.747 61.1849 102.973 60.621 102.522 59.8315C100.037 55.0945 96.6481 51.147 92.243 47.989C91.9042 47.7634 91.5653 47.4251 91.1135 47.1995C91.4524 46.8612 91.7912 46.6356 92.0171 46.41C96.3092 43.1392 100.601 39.9812 104.893 36.7105C105.571 36.1465 106.136 35.921 106.927 36.7105C117.657 46.41 123.417 58.4781 123.982 73.0274C124.208 81.4863 122.288 89.4941 118.448 97.0507C118.109 97.5019 117.77 98.0658 117.431 98.8553Z" fill="white"/>
</svg>
