<svg width="202" height="202" viewBox="0 0 202 202" fill="none" xmlns="http://www.w3.org/2000/svg">
<g clip-path="url(#clip0_1_2)">
<path d="M88 1.73334C80.2667 3.86667 72.9333 8.40001 70.1333 12.6667C68.9333 14.4 68 16.1333 68 16.2667C68 16.5333 82.4 16.6667 100 16.6667C117.6 16.6667 132 16.2667 132 15.6C132 12.9333 121.333 4.40001 116 2.80001C107.467 0.266673 94.9333 -0.266661 88 1.73334Z" fill="#E73F3F"/>
<path d="M69.0667 33.2C59.3333 36.4 53.6 40 46.9333 47.2C34.9333 60.1333 31.8667 70.8 31.0667 102.8C30.4 124.8 30.5333 127.733 32.5333 129.733C34.6667 131.867 40.5333 132 99.7333 132C138.4 132 165.467 131.467 166.667 130.667C169.867 128.667 169.467 85.0667 166.133 72.9333C160.4 52.1333 146.267 38 125.733 32.6667C114.267 29.7333 79.0667 30 69.0667 33.2ZM112.267 51.4667C130.8 63.3333 121.467 92 99.2 92C86.8 92 75.6 78.5333 77.8667 66.2667C80.9333 49.8667 98.1333 42.4 112.267 51.4667Z" fill="#E73F3F"/>
<path d="M32.8 148.8C31.0667 150.533 30.6667 154.4 30.6667 169.867C30.6667 192.267 31.8667 196.8 38.1333 199.467C44.6667 202.267 155.333 202.267 161.867 199.467C168.133 196.8 169.333 192.267 169.333 169.867C169.333 154.4 168.933 150.533 167.2 148.8C165.333 146.933 157.467 146.667 100 146.667C42.5333 146.667 34.6667 146.933 32.8 148.8Z" fill="#E73F3F"/>
</g>
<defs>
<clipPath id="clip0_1_2">
<rect width="201.333" height="201.333" fill="white"/>
</clipPath>
</defs>
</svg>
