<svg xmlns="http://www.w3.org/2000/svg" width="39" height="39" viewBox="0 0 39 39"><path fill="#06E594" d="M28.715 19.136a9.563 9.563 0 0 0 9.572-9.568c0-5.29-4.301-9.568-9.572-9.568-5.27 0-9.53 4.257-9.572 9.505C19.101 4.257 14.843 0 9.572 0A9.563 9.563 0 0 0 0 9.568a9.567 9.567 0 0 0 9.53 9.568A9.567 9.567 0 0 0 0 28.704c0 5.29 4.28 9.568 9.572 9.568a9.563 9.563 0 0 0 9.571-9.568 9.567 9.567 0 0 0-9.53-9.568c5.25-.021 9.488-4.257 9.53-9.505.021 5.248 4.301 9.505 9.572 9.505ZM28.715 38.272c5.286 0 9.572-4.284 9.572-9.568 0-5.285-4.286-9.568-9.572-9.568s-9.572 4.284-9.572 9.568 4.286 9.568 9.572 9.568Z"/></svg>
