<svg width="32" height="32" viewBox="0 0 32 32" fill="none" xmlns="http://www.w3.org/2000/svg">
  <rect width="32" height="32" rx="8" fill="#00FF88"/>
  <path d="M8 12C8 10.8954 8.89543 10 10 10H22C23.1046 10 24 10.8954 24 12V20C24 21.1046 23.1046 22 22 22H10C8.89543 22 8 21.1046 8 20V12Z" fill="white"/>
  <path d="M24 16C24 14.8954 23.1046 14 22 14H26C27.1046 14 28 14.8954 28 16V16C28 17.1046 27.1046 18 26 18H22C23.1046 18 24 17.1046 24 16Z" fill="white"/>
  <circle cx="16" cy="16" r="2" fill="#00FF88"/>
</svg>

