<svg width="12" height="12" viewBox="0 0 12 12" fill="none" xmlns="http://www.w3.org/2000/svg">
<g id="Wallet" clip-path="url(#clip0_14122_34311)">
<g id="Group 151">
<path id="Exclude" fill-rule="evenodd" clip-rule="evenodd" d="M11.4979 10.9976C11.1764 11.3193 10.7404 11.5 10.2857 11.5L1.71429 11.5C1.25963 11.5 0.823594 11.3193 0.502102 10.9976C0.180612 10.6758 -4.76837e-07 10.2395 -4.76837e-07 9.78455L-4.76837e-07 2.06502C-4.76837e-07 2.51999 0.180612 2.95632 0.502102 3.27803C0.823594 3.59974 1.25963 3.78047 1.71429 3.78047L10.2857 3.78047C10.7404 3.78047 11.1764 3.96121 11.4979 4.28292C11.8194 4.60462 12 5.04096 12 5.49592V9.78455C12 10.2395 11.8194 10.6758 11.4979 10.9976ZM9.64294 8.7126C10.2347 8.7126 10.7144 8.23258 10.7144 7.64044C10.7144 7.0483 10.2347 6.56828 9.64294 6.56828C9.05121 6.56828 8.57151 7.0483 8.57151 7.64044C8.57151 8.23258 9.05121 8.7126 9.64294 8.7126Z" fill="#C8C7D8"/>
<path id="Vector" d="M8.57031 2.92186V2.06413C8.57031 1.60917 8.3897 1.17284 8.06821 0.851128C7.74672 0.529419 7.31068 0.348684 6.85603 0.348684L2.14174 0.348684C1.80075 0.348684 1.47372 0.484235 1.2326 0.725517C0.991486 0.966799 0.856028 1.29405 0.856028 1.63527C0.856028 1.9765 0.991486 2.30374 1.2326 2.54503C1.47372 2.78631 1.80075 2.92186 2.14174 2.92186L8.57031 2.92186Z" fill="#C8C7D8"/>
</g>
</g>
<defs>
<clipPath id="clip0_14122_34311">
<rect width="12" height="12" fill="white"/>
</clipPath>
</defs>
</svg>
