<svg width="16" height="17" viewBox="0 0 16 17" fill="none" xmlns="http://www.w3.org/2000/svg">
  <path d="M15.9584 2.88727C16.4861 10.0339 11.8922 13.4118 7.77385 13.772C3.94504 14.1069 0.341025 11.7542 0.0248479 8.13955C-0.235965 5.15321 1.60974 3.88183 3.05988 3.75509C4.55138 3.62435 5.80475 4.65293 5.91348 5.89829C6.0182 7.09563 5.27112 7.6406 4.75149 7.68596C4.3406 7.72198 3.82364 7.47251 3.77695 6.93687C3.73693 6.47662 3.91169 6.41391 3.869 5.92497C3.79296 5.05449 3.03387 4.9531 2.6183 4.98912C2.11535 5.03314 1.20284 5.62014 1.33091 7.08229C1.45965 8.55711 2.87378 9.72243 4.72748 9.56034C6.72793 9.38558 8.12071 7.82804 8.22544 5.64348C8.22449 5.52778 8.24885 5.41326 8.29681 5.30796L8.29748 5.30529C8.31903 5.25954 8.34424 5.21559 8.37285 5.17389C8.41554 5.10985 8.47024 5.03914 8.54095 4.96177C8.54161 4.95977 8.54161 4.95977 8.54295 4.95977C8.59431 4.90173 8.65635 4.83903 8.72638 4.77166C9.60021 3.9472 12.7473 2.00278 15.7236 2.61846C15.7865 2.63194 15.8434 2.6654 15.8857 2.71385C15.928 2.7623 15.9535 2.82313 15.9584 2.88727Z" fill="url(#imtoken_gradient0)"/>
  <defs>
    <linearGradient id="imtoken_gradient0" x1="15.5526" y1="2.81605" x2="5.19647" y2="17.4749" gradientUnits="userSpaceOnUse">
    <stop stop-color="#11C4D1"/>
    <stop offset="1" stop-color="#0062AD"/>
  </linearGradient>
  </defs>
</svg>
