<svg width="14" height="14" viewBox="0 0 14 14" fill="none">
  <g clip-path="url(#ledger_clip)">
    <path fill-rule="evenodd" clip-rule="evenodd" d="M5.33166 1.1046e-05H11.7311C12.025 -0.000913301 12.3162 0.0561842 12.5881 0.168031C12.8599 0.279877 13.107 0.444273 13.3152 0.651795C13.5233 0.859317 13.6885 1.10588 13.8012 1.37736C13.9139 1.64884 13.9719 1.9399 13.9719 2.23384V8.63326H5.33166V1.1046e-05ZM2.23383 0H3.33669V3.33669H0V2.23383C0 1.64138 0.235349 1.0732 0.654272 0.654272C1.0732 0.235349 1.64138 0 2.23383 0ZM0 5.33174H3.33669V8.66843H0V5.33174ZM11.7663 13.9719H10.6634V10.6633H14.0001V11.7311C14.001 12.025 13.9439 12.3162 13.8321 12.5881C13.7202 12.8599 13.5558 13.107 13.3483 13.3151C13.1408 13.5233 12.8942 13.6885 12.6227 13.8012C12.3513 13.9139 12.0602 13.9719 11.7663 13.9719ZM5.33166 10.6633H8.66834V14H5.33166V10.6633ZM0 11.7662V10.6633H3.33669V14H2.23383C1.64138 14 1.0732 13.7647 0.654272 13.3457C0.235349 12.9268 0 12.3586 0 11.7662Z" fill="white"/>
  </g>
  <defs>
    <clipPath id="ledger_clip">
      <rect width="14" height="14" fill="white"/>
    </clipPath>
  </defs>
</svg>
