<svg width="216" height="216" viewBox="0 0 216 216" fill="none" xmlns="http://www.w3.org/2000/svg">
<g clip-path="url(#clip0_2001_2)">
<path fill-rule="evenodd" clip-rule="evenodd" d="M182.911 98.8984C182.911 112.792 174.236 124.601 162.165 128.911L169.474 140.834L158.67 153.933L169.474 166.735L152.037 189.787L139.751 176.872V150.772V128.032C128.832 123.141 121.178 111.941 121.178 98.8984C121.178 81.3615 135.004 67.142 152.037 67.142C169.085 67.1562 182.911 81.3615 182.911 98.8984ZM152.037 103.775C156.152 103.775 159.49 100.344 159.49 96.1055C159.49 91.8666 156.152 88.4358 152.037 88.4358C147.923 88.4358 144.585 91.8666 144.585 96.1055C144.585 100.344 147.923 103.775 152.037 103.775Z" fill="black"/>
<path fill-rule="evenodd" clip-rule="evenodd" d="M182.997 98.9976C182.997 112.721 174.552 124.417 162.727 128.897L169.459 140.834L159.504 153.933L169.459 166.735L152.037 189.971V163.871V130.839V103.761C156.152 103.761 159.49 100.33 159.49 96.0914C159.49 91.8525 156.152 88.4216 152.037 88.4216V67.1562C169.143 67.1562 182.997 81.404 182.997 98.9976Z" fill="black"/>
<path fill-rule="evenodd" clip-rule="evenodd" d="M129.637 133.816C119.668 125.75 112.978 113.359 112.057 99.2812H58.6253C47.4181 99.2812 38.3402 108.369 38.3402 119.568V144.931C38.3402 150.531 42.8864 155.082 48.4827 155.082H119.495C125.091 155.082 129.637 150.545 129.637 144.931V133.816Z" fill="black"/>
<path d="M81.5 93.1993C79.0255 92.7314 76.5654 92.2919 74.2347 91.3279C65.387 87.6703 60.2366 80.922 58.5678 71.3951C57.4168 64.8737 57.9635 58.4232 60.6394 52.3271C64.4375 43.665 71.2711 38.9583 80.2196 37.3704C85.5714 36.4206 90.9088 36.6332 96.0736 38.5329C103.842 41.3825 109.036 46.8548 111.453 54.9073C113.884 63.0165 113.524 71.1399 109.856 78.8097C106.058 86.8338 99.4112 91.1294 91.0095 92.8165C90.3045 92.9582 89.614 93.1 88.909 93.2276C86.4489 93.1993 83.9744 93.1993 81.5 93.1993Z" fill="black"/>
</g>
<defs>
<clipPath id="clip0_2001_2">
<rect width="216" height="216" fill="white"/>
</clipPath>
</defs>
</svg>

