<svg width="16" height="17" viewBox="0 0 16 17" fill="none" xmlns="http://www.w3.org/2000/svg">
<path d="M6.32873 8.39452C8.0946 8.39452 9.52612 6.96306 9.52612 5.19726C9.52612 3.43146 8.0946 2 6.32873 2C4.56287 2 3.13135 3.43146 3.13135 5.19726C3.13135 6.96306 4.56287 8.39452 6.32873 8.39452Z" fill="currentColor"/>
<path d="M14.8546 8.39489C14.8561 7.9495 14.738 7.51186 14.5126 7.12771C14.2872 6.74356 13.9628 6.427 13.5732 6.2111C13.1836 5.9952 12.7432 5.8879 12.2979 5.90039C11.8527 5.91289 11.419 6.04474 11.0421 6.28215C10.6653 6.51956 10.3591 6.85383 10.1556 7.25002C9.95209 7.64621 9.85873 8.08978 9.88528 8.53438C9.91183 8.97898 10.0573 9.4083 10.3065 9.77746C10.5557 10.1466 10.8995 10.4421 11.3019 10.633V14.4342L12.3677 15.4999L14.144 13.7237L13.0782 12.6579L14.144 11.5922L13.263 10.7111C13.7309 10.5306 14.1333 10.2128 14.4173 9.79939C14.7014 9.38602 14.8538 8.89643 14.8546 8.39489ZM12.3677 8.39489C12.2272 8.39489 12.0898 8.35322 11.9729 8.27515C11.8561 8.19708 11.765 8.08611 11.7113 7.95628C11.6575 7.82646 11.6434 7.6836 11.6708 7.54577C11.6982 7.40795 11.7659 7.28135 11.8653 7.18199C11.9646 7.08262 12.0913 7.01495 12.2291 6.98754C12.3669 6.96012 12.5098 6.97419 12.6396 7.02797C12.7694 7.08174 12.8804 7.17281 12.9585 7.28965C13.0366 7.40649 13.0782 7.54386 13.0782 7.68439C13.0782 7.87282 13.0034 8.05354 12.8701 8.18679C12.7369 8.32003 12.5561 8.39489 12.3677 8.39489Z" fill="currentColor"/>
<path d="M9.12846 9.82893C8.58284 9.58567 7.99217 9.4598 7.39477 9.45947H5.26318C4.13251 9.45947 3.04816 9.90861 2.24866 10.7081C1.44916 11.5076 1 12.5919 1 13.7225V15.1435H10.2369V11.2286C9.75771 10.8605 9.37695 10.3797 9.12846 9.82893Z" fill="currentColor"/>
</svg>
