<svg width="474" height="471" viewBox="0 0 474 471" fill="none" xmlns="http://www.w3.org/2000/svg">
<rect x="0.5" y="0.5" width="473" height="470" fill="white"/>
<rect x="0.5" y="0.5" width="473" height="470" stroke="black"/>
<g clip-path="url(#clip0_2031_43)">
<path d="M237 310.89C295.692 310.89 343.288 263.294 343.288 204.602C343.288 145.91 295.692 98.3137 237 98.3137C178.307 98.3137 130.711 145.91 130.711 204.602C130.711 263.294 178.307 310.89 237 310.89Z" fill="#010110"/>
<path d="M236.999 372.686C277.113 372.686 309.637 365.841 309.637 357.444C309.637 349.048 277.134 342.203 236.999 342.203C196.865 342.203 164.362 349.048 164.362 357.444C164.362 365.841 196.865 372.686 236.999 372.686Z" fill="#010110"/>
</g>
<defs>
<clipPath id="clip0_2031_43">
<rect width="212.576" height="274.372" fill="white" transform="translate(130.712 98.3137)"/>
</clipPath>
</defs>
</svg>
