<svg width="20" height="21" viewBox="0 0 20 21" fill="none" xmlns="http://www.w3.org/2000/svg">
<path d="M15 17.167C15 15.8409 14.4732 14.5691 13.5355 13.6315C12.5979 12.6938 11.3261 12.167 10 12.167C8.67392 12.167 7.40215 12.6938 6.46447 13.6315C5.52678 14.5691 5 15.8409 5 17.167" stroke="currentColor" stroke-width="1.25" stroke-linecap="round" stroke-linejoin="round"/>
<path d="M9.99984 12.1667C11.8408 12.1667 13.3332 10.6743 13.3332 8.83333C13.3332 6.99238 11.8408 5.5 9.99984 5.5C8.15889 5.5 6.6665 6.99238 6.6665 8.83333C6.6665 10.6743 8.15889 12.1667 9.99984 12.1667Z" stroke="currentColor" stroke-width="1.25" stroke-linecap="round" stroke-linejoin="round"/>
<path d="M9.99984 18.8337C14.6022 18.8337 18.3332 15.1027 18.3332 10.5003C18.3332 5.89795 14.6022 2.16699 9.99984 2.16699C5.39746 2.16699 1.6665 5.89795 1.6665 10.5003C1.6665 15.1027 5.39746 18.8337 9.99984 18.8337Z" stroke="currentColor" stroke-width="1.25" stroke-linecap="round" stroke-linejoin="round"/>
</svg>
