<svg xmlns="http://www.w3.org/2000/svg" width="1483" height="1483" viewBox="0 0 1483 1483" version="1.1"><path d="M 304.292 302.750 C 307.279 307.012, 376.455 407.700, 458.017 526.500 C 539.579 645.300, 615.016 755.165, 625.656 770.645 C 636.295 786.125, 645 799.101, 645 799.481 C 645 799.861, 641.038 804.746, 636.196 810.336 C 631.354 815.926, 617.715 831.750, 605.889 845.500 C 594.062 859.250, 574.125 882.425, 561.584 897 C 549.044 911.575, 526.982 937.225, 512.557 954 C 498.133 970.775, 472.194 1000.934, 454.915 1021.020 C 401.474 1083.146, 393.762 1092.119, 353.081 1139.500 C 331.359 1164.800, 310.529 1188.990, 306.793 1193.256 C 303.057 1197.522, 300 1201.460, 300 1202.006 C 300 1202.647, 313.644 1203, 338.441 1203 L 376.881 1203 419.142 1153.750 C 442.386 1126.662, 465.315 1100, 470.095 1094.500 C 480.432 1082.608, 559.262 990.885, 565.888 983.040 C 568.425 980.037, 572.110 975.762, 574.077 973.540 C 576.045 971.318, 591.554 953.300, 608.542 933.500 C 625.529 913.700, 639.895 897.015, 640.464 896.422 C 641.034 895.830, 650.027 885.367, 660.449 873.172 C 670.871 860.978, 679.720 851, 680.113 851 C 680.507 851, 734.043 928.513, 799.084 1023.250 C 864.124 1117.987, 918.500 1197.178, 919.920 1199.229 L 922.500 1202.957 1054.357 1202.979 C 1162.791 1202.996, 1186.125 1202.767, 1185.710 1201.687 C 1185.270 1200.539, 1122.096 1108.393, 960.025 872.500 C 843.352 702.684, 827.838 679.864, 828.283 678.706 C 828.715 677.580, 844.607 658.993, 949.085 537.417 C 967.007 516.563, 991.712 487.800, 1003.985 473.500 C 1016.258 459.200, 1028.650 444.800, 1031.522 441.500 C 1034.394 438.200, 1049.496 420.650, 1065.082 402.500 C 1080.667 384.350, 1107.162 353.510, 1123.960 333.967 C 1140.757 314.424, 1155.118 297.662, 1155.872 296.717 C 1157.165 295.100, 1154.969 295, 1118.199 295 L 1079.154 295 1061.788 315.250 C 1038.675 342.200, 996.894 390.799, 985.030 404.532 C 979.789 410.600, 973.250 418.226, 970.500 421.478 C 967.750 424.730, 962.324 431.015, 958.443 435.445 C 954.562 439.875, 935.003 462.625, 914.978 486 C 894.954 509.375, 878.296 528.725, 877.960 529 C 877.625 529.275, 873.334 534.252, 868.425 540.061 C 859.839 550.221, 851.101 560.391, 811.027 606.865 C 793.437 627.265, 792.535 628.141, 791.052 626.266 C 790.199 625.186, 738.650 550.213, 676.500 459.661 L 563.500 295.021 431.181 295.010 L 298.862 295 304.292 302.750 M 407.565 356.742 C 408.559 358.259, 433.281 393.700, 462.504 435.500 C 517.927 514.776, 735.717 826.486, 875.781 1027 C 920.539 1091.075, 957.705 1144.066, 958.373 1144.758 C 959.327 1145.747, 972.359 1145.961, 1019.267 1145.758 L 1078.947 1145.500 922.776 922 C 836.881 799.075, 712.520 621.100, 646.418 526.500 L 526.232 354.500 465.996 354.242 L 405.760 353.984 407.565 356.742" stroke="none" fill="#fafafa" fill-rule="evenodd"/><path d="M 0 741.501 L 0 1483.001 741.750 1482.751 L 1483.500 1482.500 1483.751 741.250 L 1484.001 0 742.001 0 L 0 0 0 741.501 M 0.497 742 C 0.497 1149.825, 0.611 1316.662, 0.750 1112.750 C 0.889 908.837, 0.889 575.162, 0.750 371.250 C 0.611 167.337, 0.497 334.175, 0.497 742 M 304.292 302.750 C 307.279 307.012, 376.455 407.700, 458.017 526.500 C 539.579 645.300, 615.016 755.165, 625.656 770.645 C 636.295 786.125, 645 799.101, 645 799.481 C 645 799.861, 641.038 804.746, 636.196 810.336 C 631.354 815.926, 617.715 831.750, 605.889 845.500 C 594.062 859.250, 574.125 882.425, 561.584 897 C 549.044 911.575, 526.982 937.225, 512.557 954 C 498.133 970.775, 472.194 1000.934, 454.915 1021.020 C 401.474 1083.146, 393.762 1092.119, 353.081 1139.500 C 331.359 1164.800, 310.529 1188.990, 306.793 1193.256 C 303.057 1197.522, 300 1201.460, 300 1202.006 C 300 1202.647, 313.644 1203, 338.441 1203 L 376.881 1203 419.142 1153.750 C 442.386 1126.662, 465.315 1100, 470.095 1094.500 C 480.432 1082.608, 559.262 990.885, 565.888 983.040 C 568.425 980.037, 572.110 975.762, 574.077 973.540 C 576.045 971.318, 591.554 953.300, 608.542 933.500 C 625.529 913.700, 639.895 897.015, 640.464 896.422 C 641.034 895.830, 650.027 885.367, 660.449 873.172 C 670.871 860.978, 679.720 851, 680.113 851 C 680.507 851, 734.043 928.513, 799.084 1023.250 C 864.124 1117.987, 918.500 1197.178, 919.920 1199.229 L 922.500 1202.957 1054.357 1202.979 C 1162.791 1202.996, 1186.125 1202.767, 1185.710 1201.687 C 1185.270 1200.539, 1122.096 1108.393, 960.025 872.500 C 843.352 702.684, 827.838 679.864, 828.283 678.706 C 828.715 677.580, 844.607 658.993, 949.085 537.417 C 967.007 516.563, 991.712 487.800, 1003.985 473.500 C 1016.258 459.200, 1028.650 444.800, 1031.522 441.500 C 1034.394 438.200, 1049.496 420.650, 1065.082 402.500 C 1080.667 384.350, 1107.162 353.510, 1123.960 333.967 C 1140.757 314.424, 1155.118 297.662, 1155.872 296.717 C 1157.165 295.100, 1154.969 295, 1118.199 295 L 1079.154 295 1061.788 315.250 C 1038.675 342.200, 996.894 390.799, 985.030 404.532 C 979.789 410.600, 973.250 418.226, 970.500 421.478 C 967.750 424.730, 962.324 431.015, 958.443 435.445 C 954.562 439.875, 935.003 462.625, 914.978 486 C 894.954 509.375, 878.296 528.725, 877.960 529 C 877.625 529.275, 873.334 534.252, 868.425 540.061 C 859.839 550.221, 851.101 560.391, 811.027 606.865 C 793.437 627.265, 792.535 628.141, 791.052 626.266 C 790.199 625.186, 738.650 550.213, 676.500 459.661 L 563.500 295.021 431.181 295.010 L 298.862 295 304.292 302.750 M 407.565 356.742 C 408.559 358.259, 433.281 393.700, 462.504 435.500 C 517.927 514.776, 735.717 826.486, 875.781 1027 C 920.539 1091.075, 957.705 1144.066, 958.373 1144.758 C 959.327 1145.747, 972.359 1145.961, 1019.267 1145.758 L 1078.947 1145.500 922.776 922 C 836.881 799.075, 712.520 621.100, 646.418 526.500 L 526.232 354.500 465.996 354.242 L 405.760 353.984 407.565 356.742" stroke="none" fill="#040404" fill-rule="evenodd"/></svg>