<svg width="16" height="16" viewBox="0 0 16 16" fill="none" xmlns="http://www.w3.org/2000/svg">
  <path d="M0 4C0 1.79086 1.79086 0 4 0H12C14.2091 0 16 1.79086 16 4V12C16 14.2091 14.2091 16 12 16H4C1.79086 16 0 14.2091 0 12V4Z" fill="#3083FC"/>
  <path d="M5.04721 6.1723C6.67799 4.60923 9.32202 4.60923 10.9528 6.1723L11.1491 6.36041C11.2306 6.43857 11.2306 6.56528 11.1491 6.64343L10.4777 7.28694C10.4369 7.32602 10.3708 7.32602 10.33 7.28694L10.06 7.02807C8.92227 5.93764 7.07774 5.93764 5.94006 7.02807L5.65082 7.3053C5.61005 7.34437 5.54395 7.34437 5.50318 7.3053L4.83179 6.66179C4.75025 6.58363 4.75025 6.45692 4.83179 6.37877L5.04721 6.1723ZM12.3413 7.50314L12.9388 8.07587C13.0204 8.15402 13.0204 8.28073 12.9388 8.35889L10.2445 10.9414C10.163 11.0195 10.0308 11.0195 9.94922 10.9414C9.94922 10.9414 9.94921 10.9414 9.94921 10.9414L8.03693 9.10851C8.01654 9.08897 7.98349 9.08897 7.96311 9.10851C7.96311 9.10851 7.96311 9.10851 7.96311 9.10851L6.05086 10.9414C5.96932 11.0195 5.83712 11.0195 5.75558 10.9414C5.75558 10.9414 5.75558 10.9414 5.75558 10.9414L3.06115 8.35885C2.97962 8.2807 2.97962 8.15399 3.06115 8.07584L3.6587 7.50311C3.74024 7.42496 3.87244 7.42496 3.95398 7.50311L5.86629 9.33601C5.88667 9.35555 5.91973 9.35555 5.94011 9.33601C5.94011 9.33601 5.94011 9.33601 5.94011 9.33601L7.85233 7.50311C7.93387 7.42495 8.06607 7.42495 8.14761 7.5031C8.14761 7.5031 8.14761 7.5031 8.14761 7.50311L10.0599 9.33601C10.0803 9.35555 10.1134 9.35555 10.1337 9.33601L12.046 7.50314C12.1276 7.42499 12.2598 7.42499 12.3413 7.50314Z" fill="white"/>
</svg>
