<svg fill="none" height="24" viewBox="0 0 230 24" width="230" xmlns="http://www.w3.org/2000/svg"><path clip-rule="evenodd" d="m56.7245 16.4161c.5693.3173 1.2086.476 1.918.476.6626 0 1.2273-.14 1.694-.42.2503-.1472.4696-.3345.658-.5617v.8697h2.086v-10.38801h-2.184v3.64141c-.1734-.18966-.3694-.3488-.588-.47741-.476-.28-1.0314-.42-1.666-.42-.7094 0-1.3487.15867-1.918.476-.5694.31733-1.022.76531-1.358 1.34401-.3267.5787-.49 1.2647-.49 2.058 0 .784.1633 1.4653.49 2.044.336.5787.7886 1.0313 1.358 1.358zm3.262-1.568c-.2894.168-.6114.252-.966.252-.364 0-.6907-.084-.98-.252-.2894-.168-.5227-.406-.7-.714-.168-.3173-.252-.6907-.252-1.12 0-.4387.084-.812.252-1.12.1773-.308.4106-.546.7-.714.2893-.168.616-.252.98-.252.3546 0 .6766.084.966.252.2893.168.518.406.686.714.1773.308.266.6813.266 1.12 0 .4293-.0887.8027-.266 1.12-.168.308-.3967.546-.686.714zm13.5321 2.044c-.6626 0-1.232-.14-1.708-.42-.2503-.1472-.4696-.3345-.658-.5617v.8697h-2.0859v-10.38801h2.1839v3.65341c.1781-.19494.3788-.35809.602-.48941.476-.28 1.0314-.42 1.666-.42.7094 0 1.344.15867 1.904.476.5694.31733 1.0174.76531 1.344 1.34401.336.5787.504 1.2647.504 2.058 0 .784-.168 1.4653-.504 2.044-.3266.5787-.7746 1.0313-1.344 1.358-.56.3173-1.1946.476-1.904.476zm-.378-1.792c.364 0 .686-.084.966-.252.2894-.168.518-.406.686-.714.1774-.3173.266-.6907.266-1.12 0-.4387-.0886-.812-.266-1.12-.168-.308-.3966-.546-.686-.714-.28-.168-.602-.252-.966-.252s-.6906.084-.98.252c-.2893.168-.518.406-.686.714s-.252.6813-.252 1.12c0 .4293.084.8027.252 1.12.168.308.3967.546.686.714.2894.168.616.252.98.252zm6.339 4.5079c-.392 0-.7793-.0606-1.162-.182-.3826-.1213-.6953-.2893-.938-.504l.798-1.554c.168.1494.3594.266.574.35.224.084.4434.126.658.126.308 0 .5507-.0746.728-.224.1867-.14.3547-.378.504-.714l.0268-.0631-3.2608-7.59485h2.254l2.1143 5.11525 2.1277-5.11525h2.1l-3.402 7.99395c-.2426.6067-.5226 1.0827-.84 1.428-.308.3454-.6533.588-1.036.728-.3733.14-.7886.21-1.246.21zm-29.1651-2.716c-.8587 0-1.6147-.168-2.268-.504-.644-.336-1.1434-.7933-1.498-1.372-.3547-.588-.532-1.2553-.532-2.002 0-.756.1726-1.4233.518-2.002.3546-.588.8353-1.04535 1.442-1.37201.6066-.336 1.2926-.504 2.058-.504.7373 0 1.4.15866 1.988.476.5973.308 1.0686.75601 1.414 1.34401.3453.5787.518 1.274.518 2.086 0 .084-.0047.182-.014.294-.0094.1027-.0187.2007-.028.294h-5.6989c.044.2005.1143.3872.2109.56.1866.308.4433.546.77.714.336.1587.728.238 1.176.238.4013 0 .7513-.0607 1.05-.182.308-.1213.588-.3033.84-.546l1.162 1.26c-.3454.392-.7794.6953-1.302.91-.5227.2053-1.1247.308-1.806.308zm-1.918-5.166c-.1024.1867-.1717.3967-.2081.63h3.7092c-.0354-.2373-.1058-.452-.2111-.644-.1587-.2893-.378-.5133-.658-.672-.28-.168-.6067-.252-.98-.252-.3734 0-.7047.084-.994.252-.28.1587-.4994.3873-.658.686zm-7.74-2.47801v7.53201h2.184v-3.556c0-.7187.182-1.246.546-1.582.3733-.3453.8587-.518 1.456-.518.084 0 .1633.0047.238.014.0747 0 .1587.0047.252.014v-2.01601c-.7093 0-1.3113.14-1.806.42-.3169.17337-.5782.40036-.784.68101v-.98901zm-5.094 7.64401c-.8586 0-1.6146-.168-2.268-.504-.644-.336-1.1433-.7933-1.498-1.372-.3546-.588-.532-1.2553-.532-2.002 0-.756.1727-1.4233.518-2.002.3547-.588.8354-1.04535 1.442-1.37201.6067-.336 1.2927-.504 2.058-.504.7374 0 1.4.15866 1.988.476.5974.308 1.0687.75601 1.414 1.34401.3454.5787.518 1.274.518 2.086 0 .084-.0046.182-.014.294-.0093.1027-.0186.2007-.028.294h-5.6988c.044.2005.1142.3872.2108.56.1867.308.4434.546.77.714.336.1587.728.238 1.176.238.4014 0 .7514-.0607 1.05-.182.308-.1213.588-.3033.84-.546l1.162 1.26c-.3453.392-.7793.6953-1.302.91-.5226.2053-1.1246.308-1.806.308zm-2.126-4.536h3.7091c-.0354-.2373-.1058-.452-.2111-.644-.1586-.2893-.378-.5133-.658-.672-.28-.168-.6066-.252-.98-.252-.3733 0-.7046.084-.994.252-.28.1587-.4993.3873-.658.686-.1024.1867-.1717.3967-.208.63zm-15.5122-3.10795 2.716 7.53195h2.1l1.7445-4.6794 1.6855 4.6794h2.114l2.73-7.53195h-1.932l-1.8295 5.10285-1.7965-5.10285h-1.848l-1.8516 5.10285-1.7744-5.10285zm-4.3908 7.64395c-.8026 0-1.5166-.168-2.142-.504-.616-.336-1.106-.7933-1.46997-1.372-.35467-.588-.532-1.2553-.532-2.002 0-.756.17733-1.4233.532-2.002.36397-.588.85397-1.04535 1.46997-1.37201.6254-.336 1.3394-.504 2.142-.504.7934 0 1.5027.168 2.128.504.6254.32666 1.1154.77931 1.47 1.35801.3547.5787.532 1.2507.532 2.016 0 .7467-.1773 1.414-.532 2.002-.3546.5787-.8446 1.036-1.47 1.372-.6253.336-1.3346.504-2.128.504zm0-1.792c.364 0 .6907-.084.98-.252.2894-.168.518-.406.686-.714.168-.3173.252-.6907.252-1.12 0-.4387-.084-.812-.252-1.12s-.3966-.546-.686-.714c-.2893-.168-.616-.252-.98-.252s-.6906.084-.98.252c-.2893.168-.5226.406-.7.714-.168.308-.252.6813-.252 1.12 0 .4293.084.8027.252 1.12.1774.308.4107.546.7.714.2894.168.616.252.98.252zm-13.5335-8.12002v9.80002h2.268v-2.702h1.974c.87733 0 1.63333-.14 2.268-.42.63467-.2894 1.12467-.7 1.47-1.232s.518-1.162.518-1.89c0-.73735-.17267-1.37202-.518-1.90402s-.83533-.938-1.47-1.218c-.63467-.28933-1.39067-.434-2.268-.434zm2.268 5.25002h1.848c.7 0 1.22267-.1494 1.568-.448.34533-.2987.518-.714.518-1.246 0-.54135-.17267-.96135-.518-1.26002s-.868-.448-1.568-.448h-1.848z" fill="#8694a1" fill-rule="evenodd"/><path d="m114.002 19.198c-.08.0554-.162.1078-.247.1572l-2.751 1.6027-10.792-6.2853v-5.35152l10.786-6.28207 2.757 1.60581c.097.0565.191.1171.282.1815l-7.708 4.48105v-.01097l-3.089 1.8069v1.8377l3.089 1.803v-1.8252l9.248-5.38611c.009.10535.013.21161.013.31852v3.24209l-6.158 3.6044v1.8512z" fill="#1482e5"/><path d="m107.909 1.23987-1.277-.743841c-1.135-.661373-2.534-.661373-3.67 0l-7.1233 4.148791c-1.1355.66138-1.835 1.88364-1.835 3.20638v8.2976c0 1.3227.6995 2.545 1.835 3.2064l7.1233 4.1488c1.136.6613 2.535.6613 3.67 0l1.283-.747-10.7917-6.2852v-8.94751l.0042.00245-.0042-.0048z" fill="#1482e5"/><g fill="#e5e9eb"><path d="m187.426 17.8674v-11.58563h1.984v9.72923h5.362v1.8564z"/><path d="m198.611 15.232-1.176 2.6354h-2.118l5.177-11.58563h2.118l5.177 11.58563h-2.118l-1.177-2.6354zm5.076-1.8066-2.134-4.77347-2.135 4.77347z"/><path d="m214.566 17.8674h-5.143v-11.58563h4.572c.795 0 1.479.09392 2.05.28177.583.18784 1.014.44198 1.295.76243.538.59668.806 1.27072.806 2.0221 0 .90603-.291 1.58013-.874 2.02213-.213.1547-.358.2541-.437.2983-.078.0332-.218.0939-.42.1823.729.1547 1.306.4807 1.731.9779.437.4862.656 1.094.656 1.8232 0 .8067-.28 1.5194-.84 2.1382-.662.7182-1.793 1.0773-3.396 1.0773zm-3.16-6.779h2.521c1.435 0 2.152-.4807 2.152-1.44199 0-.55249-.174-.95028-.521-1.19337-.348-.2431-.885-.36464-1.614-.36464h-2.538zm0 4.9724h3.11c.728 0 1.283-.1105 1.664-.3315.392-.2321.588-.663.588-1.2928 0-1.0277-.835-1.5415-2.504-1.5415h-2.858z"/><path d="m224.837 7.80663c-.571 0-1.042.11602-1.412.34807-.369.23204-.554.58563-.554 1.06077 0 .46409.185.82323.554 1.07733.37.2431 1.155.5083 2.354.7956 1.21.2873 2.118.6906 2.723 1.2099.616.5194.924 1.2873.924 2.3039 0 1.0055-.386 1.8232-1.16 2.453-.773.6299-1.787.9448-3.042.9448-1.838 0-3.468-.6243-4.891-1.8729l1.243-1.4752c1.188 1.0166 2.421 1.5249 3.698 1.5249.639 0 1.143-.1326 1.513-.3978.381-.2762.572-.6354.572-1.0773 0-.4531-.18-.8011-.538-1.0442-.348-.2542-.953-.4807-1.816-.6796-.862-.2099-1.518-.3978-1.966-.5635-.448-.1768-.846-.4034-1.194-.6796-.694-.5193-1.042-1.3149-1.042-2.38673s.392-1.89503 1.177-2.46962c.795-.58563 1.776-.87845 2.941-.87845.751 0 1.496.12155 2.236.36464s1.378.58564 1.916 1.02763l-1.059 1.47513c-.347-.30939-.818-.56353-1.412-.76243-.594-.19889-1.182-.29834-1.765-.29834z"/><path d="m129.79 6c-1.762 0-3.253.56978-4.438 1.72178l-.002.00148c-1.174 1.15227-1.76 2.59894-1.76 4.30744 0 1.7057.574 3.1431 1.73 4.2768l.001.0015c1.165 1.1309 2.624 1.691 4.346 1.691 1.759 0 3.258-.6871 4.474-2.0343l.283-.3139-1.769-1.8152-.322.3025c-.467.437-.898.7427-1.293.9319-.377.1706-.845.2644-1.419.2644-.878 0-1.633-.3124-2.287-.9563-.637-.6466-.956-1.4397-.956-2.4098 0-.9805.324-1.7524.962-2.35477l.002-.00227c.647-.6193 1.442-.93237 2.417-.93237.567 0 1.035.08984 1.416.25433l.003.00142c.393.1658.833.46984 1.319.93694l.334.31982 1.738-1.901-.276-.30419c-1.2-1.32099-2.711-1.98721-4.503-1.98721z"/><path clip-rule="evenodd" d="m164.933 6c-1.705 0-3.159.57296-4.331 1.7225-1.175 1.14188-1.761 2.5787-1.761 4.2775 0 1.6898.587 3.1257 1.76 4.2767l.002.0016c1.172 1.1392 2.626 1.7064 4.33 1.7064s3.158-.5672 4.33-1.7064l.002-.0016c1.173-1.151 1.76-2.5869 1.76-4.2767 0-1.6988-.586-3.1356-1.761-4.27748-1.172-1.14955-2.626-1.72252-4.331-1.72252zm-3.336 6c0-.9707.321-1.7769.962-2.44586.65-.66759 1.432-.99688 2.374-.99688s1.718.32942 2.357.99564l.002.00226c.652.66964.976 1.47554.976 2.44484 0 .9578-.323 1.759-.976 2.4295l-.002.0023c-.639.6662-1.415.9956-2.357.9956s-1.724-.3293-2.374-.9969c-.642-.6698-.962-1.4713-.962-2.4305z" fill-rule="evenodd"/><path d="m176.167 6c-1.142 0-2.135.29237-2.952.90138-.844.62691-1.255 1.53051-1.255 2.64596 0 1.09116.354 1.97606 1.124 2.56246.353.284.754.5142 1.198.6921l.01.0035c.433.1626 1.051.3413 1.843.5368l.006.0012c.776.1816 1.251.3748 1.489.5516l.007.0048.007.0046c.196.1353.295.3139.295.5942 0 .256-.098.4566-.337.6325-.235.1705-.59.281-1.113.281-1.033 0-2.056-.4138-3.077-1.2999l-.348-.3019-1.707 2.0537.325.2898c1.377 1.2253 2.97 1.8462 4.761 1.8462 1.222 0 2.257-.3124 3.061-.977.811-.6698 1.222-1.5545 1.222-2.6163 0-1.0326-.312-1.884-1-2.4721-.628-.5463-1.534-.9419-2.671-1.2159-.539-.131-.977-.255-1.317-.3715-.343-.1177-.561-.2193-.682-.2987-.207-.14606-.309-.33609-.309-.62379 0-.30352.105-.47818.298-.6007.246-.15652.584-.25142 1.045-.25142.479 0 .966.08267 1.465.25197.502.17055.872.37927 1.13.61282l.377.34035 1.5-2.11883-.32-.26675c-.539-.44863-1.172-.79118-1.894-1.03177-.719-.23956-1.446-.36038-2.181-.36038z"/><path d="m138.278 6.26059h-2.71v11.61681h2.71v-4.3842h4.418v4.3842h2.71v-11.61681h-2.71v4.64471h-4.418z"/><path clip-rule="evenodd" d="m154.064 6.26059h-2.519l-5.119 11.61681h2.917l1.073-2.4374h4.777l1.073 2.4374h2.917zm-2.515 6.60681 1.256-2.8465 1.255 2.8465z" fill-rule="evenodd"/></g></svg>