<svg width="16" height="16" viewBox="0 0 16 16" fill="none" xmlns="http://www.w3.org/2000/svg">
<path fill-rule="evenodd" clip-rule="evenodd" d="M13.7647 9.5219C13.4886 9.69388 13.1634 9.71519 12.9162 9.57783C12.6023 9.40319 12.4296 8.99417 12.4296 8.42534V6.72341C12.4296 5.90156 12.0998 5.31675 11.5483 5.15885C10.6137 4.8906 9.91086 6.01723 9.6467 6.44033L7.99841 9.07331V5.85514C7.97988 5.11471 7.7358 4.67182 7.27236 4.53827C6.96572 4.45 6.50692 4.48539 6.06125 5.15733L2.36844 10.9993C1.87407 10.0747 1.61635 9.04504 1.61768 7.99995C1.61768 4.48082 4.48017 1.61803 7.99841 1.61803C11.5167 1.61803 14.3788 4.48082 14.3788 7.99995C14.3788 8.00604 14.3803 8.01137 14.3807 8.01707C14.3807 8.02316 14.3795 8.02849 14.3799 8.03458C14.4131 8.71603 14.1891 9.25784 13.7647 9.5219ZM15.7965 8.00033V7.98245L15.7961 7.96495C15.7764 3.67913 12.2864 0.199951 7.99803 0.199951C3.6985 0.199951 0.199951 3.69892 0.199951 7.99995C0.199951 12.3006 3.6985 15.8 7.99841 15.8C9.97149 15.8 11.8546 15.061 13.3001 13.7198C13.5874 13.4535 13.6044 13.0049 13.338 12.718C13.2752 12.6499 13.1994 12.5947 13.1147 12.5559C13.0301 12.517 12.9385 12.4951 12.8452 12.4916C12.7519 12.488 12.6588 12.5029 12.5714 12.5352C12.484 12.5676 12.404 12.6168 12.3362 12.68C11.1645 13.7731 9.6121 14.3822 7.99841 14.3819C6.11455 14.3819 4.41953 13.5604 3.25052 12.2576L6.58069 6.98938V9.41803C6.58069 10.5846 7.03987 10.9617 7.42491 11.072C7.81034 11.1824 8.39929 11.107 9.01759 10.1177L10.8493 7.19218C10.908 7.09782 10.9621 7.01639 11.0115 6.946V8.42534C11.0115 9.51581 11.4549 10.3879 12.2277 10.8175C12.9243 11.2048 13.8002 11.1698 14.5139 10.7261C15.379 10.1878 15.8452 9.19582 15.7965 8.00033Z" fill="currentColor"/>
</svg>
