<svg width="16" height="16" viewBox="0 0 16 16" fill="none" xmlns="http://www.w3.org/2000/svg">
<g clip-path="url(#clip0_581_15)">
<path d="M3.32527 7.61789C3.32525 7.52853 3.34288 7.44006 3.37715 7.35754C3.41142 7.27503 3.46164 7.2001 3.52494 7.13706C3.58825 7.07402 3.66337 7.02411 3.74601 6.9902C3.82865 6.95629 3.91717 6.93905 4.00649 6.93947L5.1359 6.94317C5.31598 6.94317 5.48869 7.01473 5.61602 7.14212C5.74336 7.2695 5.8149 7.44226 5.8149 7.62241V11.8946C5.94212 11.8569 6.1053 11.8167 6.28405 11.7748C6.40816 11.7455 6.51877 11.6752 6.59794 11.5753C6.67711 11.4753 6.72021 11.3515 6.72024 11.2239V5.92462C6.72024 5.8354 6.7378 5.74706 6.77192 5.66464C6.80604 5.58221 6.85605 5.50732 6.91911 5.44423C6.98217 5.38114 7.05703 5.3311 7.13942 5.29695C7.22181 5.2628 7.31011 5.24522 7.39929 5.24522H8.53094C8.71101 5.24525 8.8837 5.31682 9.01103 5.44419C9.13836 5.57157 9.2099 5.74432 9.20993 5.92445V10.8431C9.20993 10.8431 9.49314 10.7284 9.76922 10.6118C9.87173 10.5684 9.95921 10.4958 10.0207 10.403C10.0823 10.3102 10.1151 10.2014 10.1152 10.09V4.22623C10.1152 4.13703 10.1328 4.04871 10.1669 3.9663C10.201 3.88389 10.251 3.80901 10.3141 3.74594C10.3771 3.68286 10.452 3.63283 10.5343 3.5987C10.6167 3.56456 10.705 3.54699 10.7942 3.54699H11.9258C12.1059 3.54699 12.2786 3.61855 12.4059 3.74593C12.5333 3.87331 12.6048 4.04608 12.6049 4.22623V9.05476C13.586 8.34349 14.5803 7.48794 15.3694 6.45926C15.4838 6.30993 15.5596 6.13459 15.5899 5.94886C15.6201 5.76313 15.604 5.57279 15.5428 5.39483C15.0089 3.83832 14.0075 2.48477 12.6754 1.51925C11.3433 0.553737 9.74558 0.0233832 8.10073 0.000709053C3.66528 -0.0588951 -0.00038207 3.56306 5.36379e-05 8.00063C-0.00430143 9.40482 0.362059 10.7853 1.06209 12.0024C1.15863 12.1689 1.30066 12.3043 1.47149 12.3928C1.64231 12.4814 1.83485 12.5193 2.02648 12.5022C2.24057 12.4833 2.50712 12.4567 2.82398 12.4195C2.9619 12.4037 3.08923 12.3379 3.18172 12.2343C3.27421 12.1308 3.3254 11.9968 3.32554 11.858V7.61789" fill="currentColor"/>
<path d="M3.30065 14.4695C4.49351 15.3376 5.90317 15.8587 7.37367 15.9751C8.84418 16.0914 10.3182 15.7986 11.6327 15.129C12.9472 14.4594 14.0508 13.4391 14.8216 12.1809C15.5924 10.9227 16.0002 9.47582 16 8.00019C16 7.81599 15.9915 7.63385 15.9791 7.4527C13.0576 11.8113 7.66334 13.849 3.3006 14.4697" fill="currentColor"/>
</g>
<defs>
<clipPath id="clip0_581_15">
<rect width="16" height="16" fill="white"/>
</clipPath>
</defs>
</svg>
