<svg width="32" height="32" viewBox="0 0 32 32" fill="none" xmlns="http://www.w3.org/2000/svg">
<path d="M24.0911 0.9697H12.9624C12.6852 0.969954 12.4128 1.0518 12.1727 1.20705C11.9325 1.3623 11.733 1.5855 11.594 1.8543L6.03053 12.6486C5.89144 12.9174 5.81818 13.2226 5.81818 13.5332C5.81818 13.8438 5.89144 14.149 6.03053 14.4178L11.5949 25.2121L14.3308 23.4429L9.22906 13.5332L13.8795 4.5081H23.1813L28.2944 14.4178L31.0303 12.6486L25.4611 1.8543C25.3224 1.58486 25.1227 1.36119 24.8822 1.20587C24.6416 1.05055 24.3688 0.969081 24.0911 0.9697Z" fill="currentColor"/>
<path d="M21.1502 6.78787L18.3084 8.55701L23.6195 18.4663L18.7847 27.4884H9.11931L3.81157 17.579L0.969696 19.3509L6.74954 30.1458C6.89358 30.4148 7.10078 30.6381 7.35028 30.7934C7.59979 30.9488 7.88282 31.0304 8.17089 31.0303H19.7298C20.0177 31.03 20.3006 30.9482 20.5501 30.7929C20.7996 30.6378 21.0068 30.4145 21.1511 30.1458L26.9309 19.3518C27.0755 19.0831 27.1515 18.7779 27.1515 18.4673C27.1515 18.1566 27.0755 17.8515 26.9309 17.5827L21.1502 6.78787Z" fill="currentColor"/>
</svg>
