<svg width="144" height="16" viewBox="0 0 144 16" fill="none" xmlns="http://www.w3.org/2000/svg">
<path d="M1.06405 13.628V5.132H2.08405L2.16805 6.188C2.56405 5.384 3.35605 4.964 4.29205 4.964C5.97205 4.964 7.01605 6.224 7.01605 8.024C7.01605 9.812 6.03205 11.156 4.29205 11.156C3.35605 11.156 2.57605 10.76 2.19205 10.04V13.628H1.06405ZM2.20405 8.072C2.20405 9.272 2.90005 10.136 4.05205 10.136C5.20405 10.136 5.88805 9.272 5.88805 8.072C5.88805 6.86 5.20405 5.996 4.05205 5.996C2.90005 5.996 2.20405 6.848 2.20405 8.072ZM7.87536 8.06C7.87536 6.248 9.17136 4.976 10.9354 4.976C12.6874 4.976 13.9834 6.248 13.9834 8.06C13.9834 9.872 12.6874 11.144 10.9354 11.144C9.17136 11.144 7.87536 9.872 7.87536 8.06ZM9.01536 8.06C9.01536 9.284 9.79536 10.136 10.9354 10.136C12.0634 10.136 12.8554 9.284 12.8554 8.06C12.8554 6.836 12.0634 5.984 10.9354 5.984C9.79536 5.984 9.01536 6.836 9.01536 8.06ZM16.2225 11L14.3025 5.132H15.4665L16.4385 8.18C16.5705 8.612 16.6905 9.056 16.7985 9.572C16.8945 9.056 17.0505 8.564 17.1825 8.18L18.1665 5.132H19.3185L20.2905 8.18C20.3865 8.468 20.5785 9.152 20.6745 9.572C20.7705 9.104 20.8785 8.696 21.0465 8.18L22.0305 5.132H23.2065L21.2025 11H20.1345L19.1145 7.856C18.9225 7.268 18.8025 6.812 18.7425 6.488C18.6825 6.776 18.5745 7.16 18.3585 7.868L17.3385 11H16.2225ZM26.4359 11.144C24.7079 11.144 23.5199 9.896 23.5199 8.072C23.5199 6.236 24.6839 4.964 26.3879 4.964C28.0559 4.964 29.1479 6.116 29.1479 7.856V8.276L24.6119 8.288C24.6959 9.524 25.3439 10.208 26.4599 10.208C27.3359 10.208 27.9119 9.848 28.1039 9.176H29.1599C28.8719 10.436 27.8879 11.144 26.4359 11.144ZM26.3879 5.912C25.4039 5.912 24.7799 6.5 24.6359 7.532H28.0199C28.0199 6.56 27.3839 5.912 26.3879 5.912ZM33.7678 5.084V6.116H33.2638C32.1958 6.116 31.5358 6.764 31.5358 7.892V11H30.4078V5.144H31.4638L31.5358 6.032C31.7758 5.42 32.3638 5.012 33.1678 5.012C33.3718 5.012 33.5398 5.036 33.7678 5.084ZM37.1468 11.144C35.4188 11.144 34.2308 9.896 34.2308 8.072C34.2308 6.236 35.3948 4.964 37.0988 4.964C38.7668 4.964 39.8588 6.116 39.8588 7.856V8.276L35.3228 8.288C35.4068 9.524 36.0548 10.208 37.1708 10.208C38.0468 10.208 38.6228 9.848 38.8148 9.176H39.8708C39.5828 10.436 38.5988 11.144 37.1468 11.144ZM37.0988 5.912C36.1148 5.912 35.4908 6.5 35.3468 7.532H38.7308C38.7308 6.56 38.0948 5.912 37.0988 5.912ZM43.4707 11.144C41.7667 11.144 40.7347 9.872 40.7347 8.084C40.7347 6.284 41.7787 4.964 43.5187 4.964C44.4187 4.964 45.1747 5.36 45.5707 6.08V2.168H46.6867V11H45.6787L45.5827 9.932C45.1987 10.736 44.4067 11.144 43.4707 11.144ZM43.6987 10.124C44.8507 10.124 45.5587 9.272 45.5587 8.048C45.5587 6.848 44.8507 5.984 43.6987 5.984C42.5467 5.984 41.8747 6.848 41.8747 8.048C41.8747 9.26 42.5467 10.124 43.6987 10.124ZM52.6153 11H51.5953V2.168H52.7233V6.14C53.1073 5.372 53.8993 4.964 54.8593 4.964C56.5393 4.964 57.5473 6.284 57.5473 8.096C57.5473 9.872 56.4913 11.144 54.7873 11.144C53.8633 11.144 53.0833 10.736 52.6993 9.932L52.6153 11ZM52.7353 8.048C52.7353 9.272 53.4313 10.124 54.5833 10.124C55.7353 10.124 56.4193 9.26 56.4193 8.048C56.4193 6.848 55.7353 5.984 54.5833 5.984C53.4313 5.984 52.7353 6.848 52.7353 8.048ZM58.0274 13.628V12.704H58.7834C59.3234 12.704 59.7554 12.62 60.0314 11.876L60.2354 11.312L57.8714 5.132H59.0594L60.7634 9.86L62.5034 5.132H63.6674L60.8954 12.32C60.4994 13.328 59.9114 13.748 59.0114 13.748C58.6394 13.748 58.3274 13.7 58.0274 13.628Z" fill="currentColor"/>
<path fill-rule="evenodd" clip-rule="evenodd" d="M73.9469 0.719509C72.4784 2.19052 73.3795 4.43077 75.4398 4.43077C76.809 4.43077 77.6519 3.59926 77.6519 2.24837C77.6519 1.46314 77.5054 1.15126 76.8958 0.637293C75.8718 -0.225968 74.8628 -0.197661 73.9469 0.719509ZM85.7611 0.705232C85.7611 1.58105 84.9875 2.6016 84.1678 2.80788C83.7151 2.9216 83.5495 3.12689 83.5495 3.57391C83.5495 4.10781 83.6579 4.18462 84.4096 4.18462H85.2696V7.69895C85.2696 12.1398 85.3551 12.3077 87.6181 12.3077H89.2014V11.4462C89.2014 10.605 89.178 10.5846 88.2184 10.5846H87.2355V7.38462V4.18462H88.2184C89.178 4.18462 89.2014 4.16418 89.2014 3.32308C89.2014 2.46498 89.1967 2.46154 88.087 2.46154C87.0613 2.46154 86.9927 2.42363 87.2269 1.98548C87.3667 1.72357 87.4812 1.16972 87.4812 0.754706C87.4812 0.0563678 87.4171 0 86.6212 0C85.8383 0 85.7611 0.0632629 85.7611 0.705232ZM116.969 6.15385V12.3077H117.952H118.935V6.15385V0H117.952H116.969V6.15385ZM110.738 2.45588C110.352 2.57871 109.827 2.86892 109.571 3.1008C109.128 3.50203 109.106 3.49686 109.106 2.992C109.106 2.54991 108.963 2.46154 108.246 2.46154H107.386V7.38462V12.3077H108.246H109.106V9.2064C109.106 5.77969 109.4 4.71188 110.481 4.21883C111.413 3.79323 112.49 3.88234 113.038 4.43077C113.485 4.87926 113.529 5.2512 113.529 8.61539V12.3077H114.534H115.538L115.445 8.43077C115.346 4.31483 115.156 3.51803 114.107 2.82979C113.384 2.35471 111.658 2.1632 110.738 2.45588ZM128.882 2.44406C127.738 2.71902 126.948 3.34301 126.292 4.49009C125.803 5.34548 125.693 5.8784 125.693 7.38462C125.693 8.94966 125.794 9.40381 126.36 10.368C127.192 11.7844 128.378 12.4079 130.239 12.4066C132.331 12.4049 133.852 11.326 134.304 9.52345C134.461 8.89797 134.422 8.86154 133.597 8.86154C132.893 8.86154 132.642 9.00061 132.301 9.57907C131.475 10.9792 129.715 11.2475 128.531 10.1538C128.129 9.78166 127.728 9.17218 127.641 8.8L127.483 8.12308H130.957C133.754 8.12308 134.458 8.05391 134.568 7.76886C134.642 7.57415 134.57 6.77243 134.407 5.9872C134.053 4.27545 132.856 2.912 131.339 2.48985C130.257 2.18905 129.967 2.18363 128.882 2.44406ZM90.4752 6.62695C90.5502 10.6528 90.5731 10.814 91.1525 11.4311C92.3905 12.7495 94.6574 12.8554 96.0748 11.6606L96.8191 11.0331V11.6704C96.8191 12.2346 96.9177 12.3077 97.6792 12.3077H98.5392V7.38462V2.46154H97.5563H96.5734V5.89391C96.5734 9.09932 96.5368 9.36911 96.02 9.97071C95.255 10.8615 93.7214 11.0644 92.8837 10.3855C92.2895 9.904 92.2708 9.79102 92.1939 6.17625L92.1148 2.46154H91.2562H90.3976L90.4752 6.62695ZM100.505 7.38462V12.3077H101.365H102.225V9.46905C102.225 7.57243 102.341 6.35249 102.574 5.79298C102.968 4.85046 104.039 4.18462 105.162 4.18462C105.854 4.18462 105.911 4.11938 105.911 3.32308C105.911 2.52578 105.855 2.46154 105.158 2.46154C104.307 2.46154 103.587 2.78178 102.778 3.51975L102.225 4.02437V3.24283C102.225 2.51397 102.168 2.46154 101.365 2.46154H100.505V7.38462ZM121.682 4.52382C120.002 6.24739 119.672 6.71705 119.672 7.38462C119.672 8.05219 120.002 8.52184 121.682 10.2454C123.677 12.2934 123.7 12.3077 124.933 12.3077H126.175L123.727 9.84615L121.279 7.38462L123.727 4.92308L126.175 2.46154H124.933C123.7 2.46154 123.677 2.47582 121.682 4.52382ZM134.91 2.64615C134.911 2.74757 135.725 4.93366 136.718 7.504L138.525 12.1772L138.107 13.1655C137.725 14.0687 137.602 14.1602 136.667 14.2294C135.681 14.3025 135.645 14.3348 135.645 15.1525V16H136.86C138.805 16 139.008 15.694 141.657 8.76898C142.946 5.40135 144 2.60431 144 2.5536C144 2.50314 143.572 2.46154 143.049 2.46154H142.098L140.798 6.05243C140.01 8.22769 139.427 9.51335 139.32 9.31397C139.221 9.1328 138.618 7.5168 137.978 5.72308L136.815 2.46154H135.861C135.337 2.46154 134.909 2.54474 134.91 2.64615ZM131.533 4.42929C131.875 4.69932 132.272 5.25317 132.413 5.66006L132.671 6.4H130.087C127.524 6.4 127.504 6.39557 127.661 5.84615C128.129 4.21391 130.267 3.43163 131.533 4.42929ZM74.4315 7.056C72.8974 10.4475 72 12.514 72 12.6553C72 12.7348 73.5481 12.8 75.4403 12.8C78.0367 12.8 78.8769 12.7244 78.8656 12.4923C78.8368 11.9006 75.8032 5.5776 75.4992 5.47618C75.3145 5.4144 74.8901 6.04234 74.4315 7.056Z" fill="currentColor"/>
</svg>
